<?xml version="1.0" encoding="utf-8"?>
<!-- Generator: Adobe Illustrator 23.0.1, SVG Export Plug-In . SVG Version: 6.00 Build 0)  -->
<svg version="1.1" id="Layer_1" xmlns="http://www.w3.org/2000/svg" xmlns:xlink="http://www.w3.org/1999/xlink" x="0px" y="0px"
	 viewBox="0 0 841.89 595.28" style="enable-background:new 0 0 841.89 595.28;" xml:space="preserve">
<style type="text/css">
	.st0{opacity:0;}
	.st1{fill:#181818;}
	.st2{opacity:0.0116;}
	.st3{opacity:0.0231;}
	.st4{opacity:0.0347;}
	.st5{opacity:0.0463;}
	.st6{opacity:0.0578;}
	.st7{opacity:0.0694;}
	.st8{opacity:0.081;}
	.st9{opacity:0.0925;}
	.st10{opacity:0.1041;}
	.st11{opacity:0.1157;}
	.st12{opacity:0.1273;}
	.st13{opacity:0.1388;}
	.st14{opacity:0.1504;}
	.st15{opacity:0.162;}
	.st16{opacity:0.1735;}
	.st17{opacity:0.1851;}
	.st18{opacity:0.1967;}
	.st19{opacity:0.2082;}
	.st20{opacity:0.2198;}
	.st21{opacity:0.2314;}
	.st22{opacity:0.2429;}
	.st23{opacity:0.2545;}
	.st24{opacity:0.2661;}
	.st25{opacity:0.2776;}
	.st26{opacity:0.2892;}
	.st27{opacity:0.3008;}
	.st28{opacity:0.3124;}
	.st29{opacity:0.3239;}
	.st30{opacity:0.3355;}
	.st31{opacity:0.3471;}
	.st32{opacity:0.3586;}
	.st33{opacity:0.3702;}
	.st34{opacity:0.3818;}
	.st35{opacity:0.3933;}
	.st36{opacity:0.4049;}
	.st37{opacity:0.4165;}
	.st38{opacity:0.428;}
	.st39{opacity:0.4396;}
	.st40{opacity:0.4512;}
	.st41{opacity:0.4627;}
	.st42{opacity:0.4743;}
	.st43{opacity:0.4859;}
	.st44{opacity:0.4975;}
	.st45{opacity:0.509;}
	.st46{opacity:0.5206;}
	.st47{opacity:0.5322;}
	.st48{opacity:0.5437;}
	.st49{opacity:0.5553;}
	.st50{opacity:0.5669;}
	.st51{opacity:0.5784;}
	.st52{opacity:0.59;}
	.st53{fill:#EF6823;}
	.st54{fill:#20333B;}
	.st55{fill:#95764E;}
	.st56{fill:#F37021;}
	.st57{fill:#375263;}
	.st58{fill:#C2C2C1;}
	.st59{fill:#515251;}
	.st60{fill:#E4E4D4;}
</style>
<g>
	<g>
		<g>
			<g class="st0">
				<path class="st1" d="M740.38,563.06c15.49,8.94,15.49,31.29,0,40.24l-75.21,43.43L557.7,708.79c-6.13,3.54-13.68,3.54-19.81,0
					L320.36,583.18l117.38-67.76l100.15-57.83c6.13-3.54,13.68-3.54,19.81,0L740.38,563.06z"/>
			</g>
			<g class="st2">
				<path class="st1" d="M434.23,515.42l100.34-57.94c6.01-3.47,13.74-3.28,19.75,0.19l182.46,105.34
					c15.18,8.77,15.96,31.13,0.78,39.89l-75.89,43.82l-107.34,61.99c-6.01,3.47-13.74,3.66-19.75,0.19L316.85,583.18L434.23,515.42z
					"/>
			</g>
			<g class="st3">
				<path class="st1" d="M430.71,515.42l100.54-58.05c5.89-3.4,13.8-3.02,19.69,0.38l182.23,105.21
					c14.88,8.59,16.43,30.96,1.55,39.55l-76.58,44.22l-107.21,61.91c-5.89,3.4-13.8,3.78-19.69,0.38L313.33,583.18L430.71,515.42z"
					/>
			</g>
			<g class="st4">
				<path class="st1" d="M427.2,515.42l100.73-58.17c5.77-3.33,13.86-2.76,19.63,0.57L729.57,562.9
					c14.58,8.41,16.9,30.79,2.33,39.21l-77.26,44.61l-107.07,61.83c-5.77,3.33-13.86,3.9-19.63,0.57L309.82,583.18L427.2,515.42z"/>
			</g>
			<g class="st5">
				<path class="st1" d="M423.68,515.42l100.93-58.28c5.65-3.26,13.92-2.5,19.57,0.76l181.78,104.95
					c14.27,8.24,17.37,30.63,3.1,38.87l-77.94,45.01l-106.94,61.75c-5.65,3.26-13.93,4.02-19.57,0.76L306.3,583.18L423.68,515.42z"
					/>
			</g>
			<g class="st6">
				<path class="st1" d="M420.17,515.42l101.12-58.39c5.53-3.19,13.98-2.24,19.51,0.95L722.35,562.8
					c13.97,8.06,17.84,30.46,3.87,38.53l-78.63,45.4L540.8,708.4c-5.53,3.19-13.99,4.14-19.51,0.95l-218.5-126.17L420.17,515.42z"/>
			</g>
			<g class="st7">
				<path class="st1" d="M416.65,515.42l101.31-58.5c5.41-3.12,14.04-1.98,19.45,1.14l181.33,104.69
					c13.66,7.89,18.31,30.29,4.65,38.18l-79.31,45.8l-106.66,61.6c-5.41,3.12-14.05,4.26-19.46,1.14L299.27,583.18L416.65,515.42z"
					/>
			</g>
			<g class="st8">
				<path class="st1" d="M413.14,515.42l101.51-58.61c5.29-3.05,14.1-1.72,19.39,1.33l181.1,104.56
					c13.36,7.71,18.78,30.13,5.42,37.84l-79.99,46.19l-106.53,61.52c-5.29,3.05-14.11,4.39-19.4,1.33l-218.89-126.4L413.14,515.42z"
					/>
			</g>
			<g class="st9">
				<path class="st1" d="M409.62,515.42l101.7-58.73c5.17-2.98,14.17-1.46,19.33,1.52l180.88,104.42
					c13.06,7.54,19.25,29.96,6.2,37.5l-80.68,46.58l-106.39,61.44c-5.17,2.98-14.17,4.51-19.34,1.52L292.24,583.18L409.62,515.42z"
					/>
			</g>
			<g class="st10">
				<path class="st1" d="M406.11,515.42L508,456.58c5.05-2.91,14.23-1.2,19.27,1.71l180.65,104.29c12.75,7.36,19.73,29.8,6.97,37.16
					l-81.36,46.98l-106.26,61.36c-5.05,2.91-14.23,4.63-19.28,1.71L288.73,583.18L406.11,515.42z"/>
			</g>
			<g class="st11">
				<path class="st1" d="M402.59,515.42l102.09-58.95c4.93-2.84,14.29-0.94,19.21,1.9l180.42,104.16
					c12.45,7.19,20.2,29.63,7.75,36.82l-82.04,47.37L523.9,708.01c-4.93,2.85-14.29,4.75-19.22,1.9L285.21,583.18L402.59,515.42z"/>
			</g>
			<g class="st12">
				<path class="st1" d="M399.08,515.42l102.29-59.06c4.81-2.78,14.35-0.69,19.16,2.09l180.2,104.03
					c12.15,7.01,20.67,29.46,8.52,36.48l-82.73,47.77l-105.99,61.21c-4.81,2.78-14.35,4.87-19.16,2.09L281.7,583.18L399.08,515.42z"
					/>
			</g>
			<g class="st13">
				<path class="st1" d="M395.56,515.42l102.48-59.17c4.69-2.71,14.41-0.43,19.1,2.28l179.97,103.9c11.84,6.84,21.14,29.3,9.3,36.13
					L623,646.72l-105.85,61.13c-4.69,2.71-14.42,4.99-19.1,2.28L278.18,583.18L395.56,515.42z"/>
			</g>
			<g class="st14">
				<path class="st1" d="M392.05,515.42l102.67-59.29c4.57-2.64,14.47-0.17,19.04,2.47L693.5,562.37
					c11.54,6.66,21.61,29.13,10.07,35.79l-84.09,48.56l-105.72,61.05c-4.57,2.64-14.48,5.11-19.04,2.47L274.67,583.18L392.05,515.42
					z"/>
			</g>
			<g class="st15">
				<path class="st1" d="M388.53,515.42l102.87-59.4c4.45-2.57,14.53,0.09,18.98,2.66L689.9,562.32
					c11.24,6.49,22.08,28.96,10.84,35.45l-84.77,48.95l-105.58,60.97c-4.45,2.57-14.54,5.23-18.98,2.66L271.15,583.18L388.53,515.42
					z"/>
			</g>
			<g class="st16">
				<path class="st1" d="M385.02,515.42l103.06-59.51c4.33-2.5,14.59,0.35,18.92,2.85l179.29,103.51
					c10.93,6.31,22.55,28.8,11.62,35.11l-85.46,49.35L507,707.62c-4.33,2.5-14.6,5.35-18.93,2.85l-220.44-127.3L385.02,515.42z"/>
			</g>
			<g class="st17">
				<path class="st1" d="M381.5,515.42l103.26-59.62c4.21-2.43,14.65,0.61,18.86,3.04l179.07,103.38
					c10.63,6.14,23.02,28.63,12.39,34.77l-86.14,49.74l-105.31,60.82c-4.21,2.43-14.66,5.47-18.87,3.05L264.12,583.18L381.5,515.42z
					"/>
			</g>
			<g class="st18">
				<path class="st1" d="M377.99,515.42l103.45-59.74c4.09-2.36,14.71,0.87,18.8,3.23l178.84,103.25
					c10.32,5.96,23.49,28.46,13.17,34.43l-86.82,50.13l-105.18,60.74c-4.09,2.36-14.72,5.59-18.81,3.24L260.61,583.18L377.99,515.42
					z"/>
			</g>
			<g class="st19">
				<path class="st1" d="M374.47,515.42l103.64-59.85c3.97-2.29,14.78,1.13,18.74,3.42l178.61,103.12
					c10.02,5.79,23.96,28.3,13.94,34.08l-87.51,50.53l-105.04,60.66c-3.97,2.29-14.78,5.72-18.75,3.43L257.09,583.18L374.47,515.42z
					"/>
			</g>
			<g class="st20">
				<path class="st1" d="M370.96,515.42l103.84-59.96c3.85-2.22,14.84,1.39,18.68,3.61l178.39,102.99
					c9.72,5.61,24.43,28.13,14.72,33.74l-88.19,50.92L493.49,707.3c-3.85,2.22-14.84,5.84-18.69,3.62L253.58,583.18L370.96,515.42z"
					/>
			</g>
			<g class="st21">
				<path class="st1" d="M367.44,515.42l104.03-60.07c3.72-2.15,14.9,1.65,18.62,3.8L668.26,562c9.41,5.43,24.9,27.96,15.49,33.4
					l-88.87,51.32l-104.77,60.5c-3.73,2.15-14.91,5.96-18.63,3.81L250.06,583.18L367.44,515.42z"/>
			</g>
			<g class="st22">
				<path class="st1" d="M363.93,515.42l104.23-60.18c3.6-2.08,14.96,1.91,18.56,3.99l177.93,102.73
					c9.11,5.26,25.38,27.8,16.27,33.06l-89.56,51.71l-104.64,60.42c-3.61,2.08-14.97,6.08-18.57,4L246.55,583.18L363.93,515.42z"/>
			</g>
			<g class="st23">
				<path class="st1" d="M360.41,515.42l104.42-60.3c3.48-2.01,15.02,2.17,18.5,4.18l177.71,102.6
					c8.81,5.08,25.85,27.63,17.04,32.72l-90.24,52.11l-104.5,60.35c-3.49,2.01-15.03,6.2-18.51,4.19l-221.8-128.08L360.41,515.42z"
					/>
			</g>
			<g class="st24">
				<path class="st1" d="M356.9,515.42l104.62-60.41c3.36-1.94,15.08,2.43,18.44,4.37l177.48,102.46
					c8.5,4.91,26.32,27.47,17.82,32.37l-90.92,52.5l-104.36,60.27c-3.36,1.94-15.09,6.32-18.45,4.38l-222-128.19L356.9,515.42z"/>
			</g>
			<g class="st25">
				<path class="st1" d="M353.38,515.42l104.81-60.52c3.24-1.87,15.14,2.69,18.39,4.56l177.26,102.33
					c8.2,4.73,26.79,27.3,18.59,32.03l-91.61,52.9l-104.23,60.19c-3.24,1.87-15.15,6.44-18.4,4.57L236,583.18L353.38,515.42z"/>
			</g>
			<g class="st26">
				<path class="st1" d="M349.87,515.42l105-60.63c3.12-1.8,15.2,2.95,18.33,4.75l177.03,102.2c7.9,4.56,27.26,27.13,19.36,31.69
					l-92.29,53.29l-104.09,60.11c-3.12,1.8-15.21,6.56-18.34,4.76L232.49,583.18L349.87,515.42z"/>
			</g>
			<g class="st27">
				<path class="st1" d="M346.35,515.42l105.2-60.74c3-1.73,15.26,3.21,18.27,4.94l176.8,102.07c7.59,4.38,27.73,26.97,20.14,31.35
					l-92.97,53.68l-103.96,60.03c-3,1.73-15.27,6.68-18.28,4.95L228.97,583.18L346.35,515.42z"/>
			</g>
			<g class="st28">
				<path class="st1" d="M342.84,515.42l105.39-60.86c2.88-1.67,15.32,3.47,18.21,5.13l176.58,101.94
					c7.29,4.21,28.2,26.8,20.91,31.01l-93.66,54.08l-103.82,59.96c-2.88,1.67-15.34,6.8-18.22,5.14L225.46,583.18L342.84,515.42z"/>
			</g>
			<g class="st29">
				<path class="st1" d="M339.32,515.42l105.59-60.97c2.76-1.6,15.38,3.72,18.15,5.32l176.35,101.81
					c6.98,4.03,28.67,26.63,21.69,30.67l-94.34,54.47L463.07,706.6c-2.76,1.6-15.4,6.92-18.16,5.33L221.94,583.18L339.32,515.42z"/>
			</g>
			<g class="st30">
				<path class="st1" d="M335.81,515.42l105.78-61.08c2.64-1.53,15.45,3.98,18.09,5.51L635.8,561.53
					c6.68,3.86,29.14,26.47,22.46,30.32l-95.02,54.87l-103.55,59.8c-2.64,1.53-15.46,7.05-18.1,5.52L218.43,583.18L335.81,515.42z"
					/>
			</g>
			<g class="st31">
				<path class="st1" d="M332.29,515.42l105.97-61.19c2.52-1.46,15.51,4.24,18.03,5.7l175.9,101.55
					c6.38,3.68,29.61,26.3,23.24,29.98l-95.71,55.26l-103.42,59.72c-2.52,1.46-15.52,7.17-18.04,5.71L214.91,583.18L332.29,515.42z"
					/>
			</g>
			<g class="st32">
				<path class="st1" d="M328.78,515.42l106.17-61.3c2.4-1.39,15.57,4.5,17.97,5.89l175.67,101.42
					c6.07,3.51,30.08,26.13,24.01,29.64l-96.39,55.66l-103.28,59.64c-2.4,1.39-15.58,7.29-17.98,5.9L211.4,583.18L328.78,515.42z"/>
			</g>
			<g class="st33">
				<path class="st1" d="M325.26,515.42L431.63,454c2.28-1.32,15.63,4.76,17.91,6.08l175.45,101.29
					c5.77,3.33,30.55,25.97,24.79,29.3l-97.07,56.05l-103.15,59.57c-2.28,1.32-15.64,7.41-17.92,6.09l-223.74-129.2L325.26,515.42z"
					/>
			</g>
			<g class="st34">
				<path class="st1" d="M321.75,515.42l106.56-61.53c2.16-1.25,15.69,5.02,17.85,6.27l175.22,101.16
					c5.47,3.16,31.03,25.8,25.56,28.96l-97.76,56.45l-103.01,59.49c-2.16,1.25-15.7,7.53-17.87,6.28L204.37,583.18L321.75,515.42z"
					/>
			</g>
			<g class="st35">
				<path class="st1" d="M318.23,515.42l106.75-61.64c2.04-1.18,15.75,5.28,17.79,6.46l174.99,101.03
					c5.16,2.98,31.5,25.63,26.33,28.62l-98.44,56.84l-102.88,59.41c-2.04,1.18-15.76,7.65-17.81,6.47L200.85,583.18L318.23,515.42z"
					/>
			</g>
			<g class="st36">
				<path class="st1" d="M314.72,515.42l106.95-61.75c1.92-1.11,15.81,5.54,17.73,6.65l174.77,100.9
					c4.86,2.8,31.97,25.47,27.11,28.27l-99.12,57.24l-102.74,59.33c-1.92,1.11-15.83,7.77-17.75,6.66L197.34,583.18L314.72,515.42z"
					/>
			</g>
			<g class="st37">
				<path class="st1" d="M311.2,515.42l107.14-61.87c1.8-1.04,15.87,5.8,17.67,6.84l174.54,100.77c4.55,2.63,32.44,25.3,27.88,27.93
					l-99.8,57.63l-102.61,59.25c-1.8,1.04-15.89,7.89-17.69,6.85L193.82,583.18L311.2,515.42z"/>
			</g>
			<g class="st38">
				<path class="st1" d="M307.69,515.42l107.33-61.98c1.68-0.97,15.93,6.06,17.62,7.03l174.31,100.64
					c4.25,2.45,32.91,25.14,28.66,27.59l-100.49,58.02L432.65,705.9c-1.68,0.97-15.95,8.01-17.63,7.04L190.31,583.18L307.69,515.42z
					"/>
			</g>
			<g class="st39">
				<path class="st1" d="M304.17,515.42l107.53-62.09c1.56-0.9,15.99,6.32,17.56,7.22l174.09,100.51
					c3.95,2.28,33.38,24.97,29.43,27.25l-101.17,58.42l-102.33,59.1c-1.56,0.9-16.01,8.13-17.57,7.23L186.79,583.18L304.17,515.42z"
					/>
			</g>
			<g class="st40">
				<path class="st1" d="M300.66,515.42l107.72-62.2c1.44-0.83,16.06,6.58,17.5,7.41L599.74,561c3.64,2.1,33.85,24.8,30.21,26.91
					l-101.85,58.81l-102.2,59.02c-1.44,0.83-16.07,8.25-17.51,7.42l-225.1-129.99L300.66,515.42z"/>
			</g>
			<g class="st41">
				<path class="st1" d="M297.14,515.42l107.92-62.31c1.32-0.76,16.12,6.84,17.44,7.6l173.64,100.24
					c3.34,1.93,34.32,24.64,30.98,26.56l-102.54,59.21l-102.06,58.94c-1.32,0.76-16.13,8.38-17.45,7.61l-225.3-130.1L297.14,515.42z
					"/>
			</g>
			<g class="st42">
				<path class="st1" d="M293.63,515.42l108.11-62.43c1.2-0.69,16.18,7.1,17.38,7.79L592.53,560.9
					c3.04,1.75,34.79,24.47,31.76,26.22l-103.22,59.6l-101.93,58.86c-1.2,0.69-16.19,8.5-17.4,7.8L176.25,583.18L293.63,515.42z"/>
			</g>
			<g class="st43">
				<path class="st1" d="M290.11,515.42l108.3-62.54c1.08-0.62,16.24,7.36,17.32,7.98l173.18,99.98
					c2.73,1.58,35.26,24.3,32.53,25.88l-103.9,60l-101.79,58.78c-1.08,0.62-16.25,8.62-17.34,7.99L172.73,583.18L290.11,515.42z"/>
			</g>
			<g class="st44">
				<path class="st1" d="M286.6,515.42l108.5-62.65c0.96-0.56,16.3,7.62,17.26,8.17l172.96,99.85c2.43,1.4,35.73,24.14,33.31,25.54
					l-104.59,60.39l-101.66,58.71c-0.96,0.56-16.32,8.74-17.28,8.18L169.22,583.18L286.6,515.42z"/>
			</g>
			<g class="st45">
				<path class="st1" d="M283.08,515.42l108.69-62.76c0.84-0.49,16.36,7.88,17.2,8.36l172.73,99.72
					c2.13,1.23,36.21,23.97,34.08,25.2l-105.27,60.79l-101.52,58.63c-0.84,0.49-16.38,8.86-17.22,8.37L165.7,583.18L283.08,515.42z"
					/>
			</g>
			<g class="st46">
				<path class="st1" d="M279.57,515.42l108.89-62.87c0.72-0.42,16.42,8.13,17.14,8.55l172.5,99.59
					c1.82,1.05,36.68,23.8,34.85,24.86L507,646.72l-101.39,58.55c-0.72,0.42-16.44,8.98-17.16,8.56L162.19,583.18L279.57,515.42z"/>
			</g>
			<g class="st47">
				<path class="st1" d="M276.05,515.42l109.08-62.99c0.6-0.35,16.48,8.39,17.08,8.74l172.28,99.46
					c1.52,0.88,37.15,23.64,35.63,24.51l-106.64,61.57l-101.25,58.47c-0.6,0.35-16.5,9.1-17.1,8.75L158.67,583.18L276.05,515.42z"/>
			</g>
			<g class="st48">
				<path class="st1" d="M272.54,515.42l109.28-63.1c0.48-0.28,16.54,8.65,17.02,8.93l172.05,99.33c1.21,0.7,37.62,23.47,36.4,24.17
					l-107.32,61.97l-101.12,58.39c-0.48,0.28-16.56,9.22-17.04,8.94L155.16,583.18L272.54,515.42z"/>
			</g>
			<g class="st49">
				<path class="st1" d="M269.02,515.42l109.47-63.21c0.36-0.21,16.6,8.91,16.96,9.12l171.83,99.2c0.91,0.53,38.09,23.3,37.18,23.83
					l-108,62.36l-100.98,58.31c-0.36,0.21-16.62,9.34-16.98,9.13l-226.85-131L269.02,515.42z"/>
			</g>
			<g class="st50">
				<path class="st1" d="M265.51,515.42l109.66-63.32c0.24-0.14,16.66,9.17,16.9,9.31l171.6,99.07
					c0.61,0.35,38.56,23.14,37.95,23.49l-108.69,62.76L392.1,704.96c-0.24,0.14-16.68,9.46-16.92,9.32L148.13,583.18L265.51,515.42z
					"/>
			</g>
			<g class="st51">
				<path class="st1" d="M261.99,515.42l109.86-63.44c0.12-0.07,16.73,9.43,16.85,9.5l171.37,98.94
					c0.3,0.18,39.03,22.97,38.73,23.15l-109.37,63.15l-100.71,58.16c-0.12,0.07-16.75,9.58-16.87,9.52L144.61,583.18L261.99,515.42z
					"/>
			</g>
			<g class="st52">
				<polygon class="st1" points="595.96,583.18 485.91,646.72 368.53,714.51 141.1,583.18 258.48,515.42 368.53,451.87 				"/>
			</g>
		</g>
		<g>
			<g>
				<polygon class="st53" points="141.09,583.19 368.52,714.5 368.52,136.74 141.09,5.43 				"/>
			</g>
			<g>
				<polygon class="st54" points="368.52,136.74 595.96,5.43 595.96,583.19 368.52,714.5 				"/>
			</g>
			<polygon class="st55" points="141.09,5.43 368.52,-125.87 595.96,5.43 368.52,136.74 			"/>
			<g>
				<g>
					<polygon class="st56" points="368.52,-125.87 258.47,-62.33 485.9,68.97 595.96,5.43 					"/>
				</g>
				<g>
					<polygon class="st56" points="141.09,5.43 368.52,136.74 489.09,67.13 263.31,-65.13 					"/>
				</g>
			</g>
			<g>
				<g>
					<g>
						<path class="st57" d="M425.17,130.64l-32.71,18.88c-3.35,1.93-6.07,6.63-6.07,10.5l0,37.77c0,3.87,2.72,5.44,6.07,3.5
							l32.71-18.88c3.35-1.93,6.06-6.64,6.06-10.5l0-37.77C431.22,130.27,428.51,128.71,425.17,130.64z M428.23,173.63
							c0,1.96-1.37,4.35-3.07,5.33l-32.71,18.88c-1.69,0.98-3.08,0.18-3.08-1.78l0-37.77c0-1.96,1.38-4.34,3.08-5.32l32.71-18.88
							c1.69-0.98,3.07-0.18,3.07,1.77L428.23,173.63z"/>
					</g>
					<g>
						<path class="st57" d="M421.96,155.53c-0.63-0.07-1.47,0.05-2.49,0.72c-1.46,0.97-2.44,2.49-2.93,3.37
							c-0.17,0.32-0.47,0.5-0.65,0.4c-0.54-0.3-1.66-0.63-3.3,0.27c-1.55,0.86-2.65,2.35-3.27,3.33l0,13.9
							c0,2.52-1.77,5.58-3.95,6.84c-2.17,1.25-3.95,0.22-3.95-2.28c-0.03-0.36,0.22-0.83,0.53-1.01c0.31-0.18,0.56,0.01,0.53,0.4
							c0,1.85,1.3,2.6,2.9,1.67c1.6-0.92,2.9-3.17,2.9-5.02l0-13.87c-0.59-0.26-1.67-0.41-3.15,0.43c-1.65,0.95-2.8,2.6-3.35,3.51
							c-0.18,0.3-0.46,0.47-0.64,0.37c-0.47-0.25-1.43-0.54-2.81,0.2c-0.91,0.49-1.64,1.22-2.2,1.92c-0.4,0.49-0.85,0.31-0.68-0.27
							c0.73-2.46,2.18-6.35,4.98-10.54c2.27-3.4,4.99-6.25,7.86-8.07v-0.07c0-0.34,0.24-0.75,0.53-0.91
							c0.28-0.16,0.53-0.04,0.53,0.3v0.05c5.69-3.23,10.87-1.9,13.33,3.31C422.84,154.85,422.35,155.58,421.96,155.53z"/>
					</g>
				</g>
				<g>
					<g>
						<path class="st57" d="M472.16,103.51l-32.71,18.88c-3.35,1.93-6.07,6.63-6.07,10.5l0,37.77c0,3.87,2.72,5.44,6.07,3.5
							l32.71-18.88c3.35-1.93,6.06-6.64,6.06-10.5l0-37.77C478.22,103.14,475.51,101.58,472.16,103.51z M475.23,146.5
							c0,1.96-1.37,4.35-3.07,5.33l-32.71,18.88c-1.69,0.98-3.08,0.18-3.08-1.78l0-37.77c0-1.96,1.38-4.34,3.08-5.32l32.71-18.88
							c1.69-0.98,3.07-0.18,3.07,1.77L475.23,146.5z"/>
					</g>
					<g>
						<path class="st57" d="M447.63,156.39l16.34-9.44c1.02-0.59,1.84-0.11,1.84,1.06l0,0c0,1.18-0.83,2.6-1.84,3.19l-16.34,9.44
							c-1.02,0.59-1.84,0.11-1.84-1.06l0,0C445.79,158.4,446.61,156.97,447.63,156.39z"/>
					</g>
					<g>
						<path class="st57" d="M449.64,126.97c0.27-0.6,0.83-0.93,1.11-0.65c1.18,1.24,3.79,4.03,3.63,4.12l-2.3,1.34l0.1,17.36
							c0.01,1.17-0.81,2.6-1.83,3.2l0,0c-1.02,0.6-1.85,0.13-1.85-1.04l-0.1-17.36l-2.3,1.34
							C445.93,135.38,448.48,129.57,449.64,126.97z"/>
					</g>
					<g>
						<path class="st57" d="M465.44,123.96l-2.3,1.34l0.1,17.36c0.01,1.17-0.81,2.6-1.83,3.2h0c-1.02,0.6-1.85,0.13-1.85-1.04
							l-0.1-17.36l-2.3,1.34c-0.16,0.09,2.39-5.71,3.55-8.32c0.27-0.6,0.83-0.93,1.11-0.65
							C462.98,121.08,465.6,123.87,465.44,123.96z"/>
					</g>
				</g>
				<g>
					<g>
						<path class="st57" d="M519.15,76.38l-32.71,18.88c-3.35,1.93-6.07,6.63-6.07,10.5l0,37.77c0,3.87,2.72,5.44,6.07,3.5
							l32.71-18.88c3.35-1.93,6.06-6.64,6.06-10.5l0-37.77C525.21,76.01,522.5,74.45,519.15,76.38z M522.22,119.37
							c0,1.96-1.37,4.35-3.07,5.33l-32.71,18.88c-1.69,0.98-3.08,0.18-3.08-1.78l0-37.77c0-1.96,1.38-4.34,3.08-5.32l32.71-18.88
							c1.69-0.98,3.07-0.18,3.07,1.77L522.22,119.37z"/>
					</g>
					<g>
						<path class="st57" d="M507.55,125.52c0.25,0.02,0.12,0.45-0.18,0.63l-10.18,5.88c-0.31,0.18-0.43-0.11-0.18-0.42
							c1.3-1.61,2.85-3.05,4.54-4.15l0-11.69c-3.64,1.28-6.61-3.95-7.48-12.65c-0.11-1.12,0.69-2.63,1.73-3.22l12.98-7.49
							c1.03-0.6,1.84-0.02,1.73,1.23c-0.87,9.7-3.84,18.35-7.48,21.29l0,11.69C504.7,125.76,506.25,125.42,507.55,125.52z"/>
					</g>
				</g>
			</g>
		</g>
	</g>
	<g>
		<path class="st58" d="M464.17,316.05l-73.91,42.67c-3.78,2.18-6.85,0.41-6.85-3.95l0-70.33c0-4.37,3.07-9.68,6.85-11.86
			l73.91-42.67c3.78-2.18,6.85-0.41,6.85,3.95l0,70.33C471.02,308.56,467.95,313.87,464.17,316.05z"/>
		<path class="st59" d="M464.3,230.71l-74.17,42.82c-3.3,1.91-5.99,6.68-5.99,10.64l0,70.03c0,3.96,2.69,5.63,5.99,3.73l74.17-42.82
			c3.3-1.91,5.99-6.68,5.99-10.64l0-70.03C470.29,230.47,467.6,228.8,464.3,230.71z M469.56,304.89c0,3.48-2.36,7.68-5.26,9.35
			l-74.17,42.82c-2.9,1.67-5.26,0.21-5.26-3.28l0-70.03c0-3.48,2.36-7.68,5.26-9.35l74.17-42.82c2.9-1.67,5.26-0.21,5.26,3.28
			L469.56,304.89z"/>
		<path class="st59" d="M464.94,296.78c-13.21,11.88-26.42,10.81-39.63,22.69c-0.17,0.15-0.3,0.11-0.3-0.09l0,0
			c0-0.2,0.13-0.48,0.3-0.63c13.21-11.88,26.42-10.81,39.63-22.69c0.17-0.15,0.3-0.11,0.3,0.09l0,0
			C465.24,296.35,465.11,296.63,464.94,296.78z"/>
		<path class="st59" d="M464.94,300.56c-13.21,11.88-26.42,10.81-39.63,22.69c-0.17,0.15-0.3,0.11-0.3-0.09l0,0
			c0-0.2,0.13-0.48,0.3-0.63c13.21-11.88,26.42-10.81,39.63-22.69c0.17-0.15,0.3-0.11,0.3,0.09l0,0
			C465.24,300.12,465.11,300.41,464.94,300.56z"/>
		<path class="st59" d="M464.94,304.33c-13.21,11.88-26.42,10.81-39.63,22.69c-0.17,0.15-0.3,0.11-0.3-0.09l0,0
			c0-0.2,0.13-0.48,0.3-0.63c13.21-11.88,26.42-10.81,39.63-22.69c0.17-0.15,0.3-0.11,0.3,0.09l0,0
			C465.24,303.9,465.11,304.18,464.94,304.33z"/>
		<path class="st59" d="M440.42,264.74l-49.78,28.74c-0.14,0.08-0.25,0.01-0.25-0.14v-0.01c0-0.16,0.11-0.35,0.25-0.43l49.78-28.74
			c0.14-0.08,0.25-0.01,0.25,0.14v0.01C440.67,264.47,440.56,264.66,440.42,264.74z"/>
		<path class="st59" d="M440.31,253.18l-48.98,28.28c-0.36,0.21-0.65,0.04-0.65-0.37v-0.03c0-0.41,0.29-0.92,0.65-1.12l48.98-28.28
			c0.36-0.21,0.65-0.04,0.65,0.37v0.03C440.96,252.47,440.67,252.97,440.31,253.18z"/>
		<path class="st59" d="M440.42,267.58l-49.78,28.74c-0.14,0.08-0.25,0.01-0.25-0.14v-0.01c0-0.16,0.11-0.35,0.25-0.43L440.42,267
			c0.14-0.08,0.25-0.02,0.25,0.14v0.01C440.67,267.31,440.56,267.5,440.42,267.58z"/>
		<path class="st59" d="M440.42,270.42l-49.78,28.74c-0.14,0.08-0.25,0.01-0.25-0.14V299c0-0.16,0.11-0.35,0.25-0.43l49.78-28.74
			c0.14-0.08,0.25-0.01,0.25,0.14v0.01C440.67,270.15,440.56,270.34,440.42,270.42z"/>
		<path class="st59" d="M440.42,273.26L390.64,302c-0.14,0.08-0.25,0.01-0.25-0.14v-0.01c0-0.16,0.11-0.35,0.25-0.43l49.78-28.74
			c0.14-0.08,0.25-0.01,0.25,0.14v0.01C440.67,272.98,440.56,273.18,440.42,273.26z"/>
		<path class="st59" d="M440.42,276.09l-49.78,28.74c-0.14,0.08-0.25,0.01-0.25-0.14v-0.01c0-0.16,0.11-0.35,0.25-0.43l49.78-28.74
			c0.14-0.08,0.25-0.01,0.25,0.14v0.01C440.67,275.82,440.56,276.01,440.42,276.09z"/>
		<path class="st59" d="M440.42,278.93l-49.78,28.74c-0.14,0.08-0.25,0.01-0.25-0.14v-0.01c0-0.16,0.11-0.35,0.25-0.43l49.78-28.74
			c0.14-0.08,0.25-0.01,0.25,0.14v0.01C440.67,278.66,440.56,278.85,440.42,278.93z"/>
		<path class="st59" d="M440.42,292.55l-49.78,28.74c-0.14,0.08-0.25,0.01-0.25-0.14v-0.01c0-0.16,0.11-0.35,0.25-0.43l49.78-28.74
			c0.14-0.08,0.25-0.01,0.25,0.14v0.01C440.67,292.28,440.56,292.47,440.42,292.55z"/>
		<path class="st59" d="M440.42,289.34l-49.78,28.74c-0.14,0.08-0.25,0.01-0.25-0.14v-0.01c0-0.16,0.11-0.35,0.25-0.43l49.78-28.74
			c0.14-0.08,0.25-0.01,0.25,0.14v0.01C440.67,289.07,440.56,289.26,440.42,289.34z"/>
		<polygon class="st59" points="469.56,268.75 384.87,317.64 384.87,317.06 469.56,268.16 		"/>
		<polygon class="st59" points="469.56,242.25 384.87,291.14 384.87,290.56 469.56,241.67 		"/>
		<polygon class="st59" points="445.12,299.88 445.12,242.65 445.61,242.37 445.61,299.6 		"/>
		<polygon class="st59" points="469.56,285.77 384.87,334.67 384.87,334.08 469.56,285.19 		"/>
	</g>
	<g>
		<g>
			<g>
				<path class="st60" d="M336.57,651.37l-4.56-11.81c-0.27-0.69-0.11-1.28,0.36-1.32l8.49-0.76c0.46-0.04,1.06,0.49,1.32,1.18
					l4.92,12.75C347.1,651.41,342.94,654.87,336.57,651.37z"/>
			</g>
			<g>
				<path class="st60" d="M347.36,652.14l-9.43,13.42c-0.44,0.63-1.26,0.7-2.14,0.19l-5.7-3.29v2.86c0,0.8-0.93,0.52-1.25-0.37
					l-3.79-10.78c-0.39-1.1-0.39-2.14,0-2.8l3.79-6.4c0.32-0.52,1.25,0.27,1.25,1.07v2.86l7.11,4.11
					C342.43,656.02,347.07,652.36,347.36,652.14z"/>
			</g>
		</g>
		<g>
			<path class="st60" d="M313.1,639.78l9.16,5.27c0.53,0.31,0.97,1.06,0.97,1.67l0.04,11.35c0,0.62-0.43,0.87-0.97,0.56l-9.89-5.69
				C312.42,652.94,310.07,644.5,313.1,639.78z"/>
		</g>
		<g>
			<path class="st60" d="M311.86,652.59l-9.51-24.3c-0.45-1.14-0.45-2.23-0.01-2.86l2.83-4.08l-2.15-2.66
				c-0.6-0.75-0.33-1.64,0.36-1.22l8.34,5.28c0.85,0.54,1.63,1.51,2.1,2.6l4.58,10.7c0.37,0.88-0.28,1.32-0.88,0.57l-2.15-2.66
				l-3.53,5.09C309.24,642.8,311.71,652.02,311.86,652.59z"/>
		</g>
		<g>
			<path class="st60" d="M323.55,620.42l-4.59,6.5c-0.27,0.38-0.86,0.22-1.32-0.35l-8.5-10.56c-0.46-0.58-0.62-1.35-0.35-1.73
				l4.96-7.01C313.75,607.26,320.23,612.22,323.55,620.42z"/>
		</g>
		<g>
			<path class="st60" d="M314.05,606.88l18.86,10.87c0.88,0.51,1.7,1.52,2.14,2.66l2.86,7.35l2.15-0.19
				c0.6-0.05,1.25,1.13,0.89,1.59l-4.54,5.46c-0.47,0.56-1.25,0.63-2.1,0.19l-8.33-4.29c-0.69-0.36-0.97-1.58-0.37-1.63l2.15-0.19
				l-3.56-9.16C321.56,612.78,314.48,607.23,314.05,606.88z"/>
		</g>
	</g>
</g>
</svg>
