<?xml version="1.0" encoding="utf-8"?>
<!-- Generator: Adobe Illustrator 23.0.1, SVG Export Plug-In . SVG Version: 6.00 Build 0)  -->
<svg version="1.1" id="Layer_1" xmlns="http://www.w3.org/2000/svg" xmlns:xlink="http://www.w3.org/1999/xlink" x="0px" y="0px"
	 viewBox="0 0 100 76" style="enable-background:new 0 0 100 76;" xml:space="preserve">
<style type="text/css">
	.st0{opacity:0.12;}
	.st1{fill:#0A1216;}
	.st2{fill:#344951;}
	.st3{fill:#20323A;}
	.st4{fill:#2B3C42;}
	.st5{fill:#970100;}
	.st6{fill:#E90300;}
	.st7{fill:#A10100;}
	.st8{fill:#AB1B1B;}
	.st9{fill:#E93D3E;}
	.st10{fill:#B7B7B7;}
	.st11{fill:#CBCBCB;}
	.st12{fill:#D5D8C0;}
	.st13{fill:#E7E9DC;}
	.st14{fill:#3A7094;}
	.st15{fill:#47BAD7;}
	.st16{fill:#E6E7DF;}
	.st17{fill:#F0F0EC;}
	.st18{opacity:0.2;}
	.st19{fill:#E30300;}
	.st20{fill:#997460;}
	.st21{fill:#BB9A8C;}
	.st22{fill:#FFE0CC;}
	.st23{fill:#FF2726;}
</style>
<g>
	<path class="st0" d="M93.73,62.76c-0.2-0.14-0.48-0.22-0.83-0.24c-1.34-0.97-4.36-1.79-5.28-2.39c-1.46-0.95-3.67-3.03-8.64-1.41
		c-3.63,1.18-4.08,1.9-3.8,2.93c-0.5,0.24,0.1,0.67,1.84,1.91c2.09,1.48,2.2,2.27,1.75,3.37c-0.09,0.23-0.07,0.38,0.02,0.47
		C72.61,72.85,78.64,75,78.64,75s3.2,0.3,6.71-0.74c6.11-1.8,6.93-4.27,7.89-6.18c0.96-1.91,1.68-2.49,2.58-3.38
		C96.6,63.92,95.22,63.14,93.73,62.76z"/>
	<g>
		<path class="st0" d="M81.72,56c-0.2-0.14-0.48-0.22-0.83-0.24c-1.34-0.97-4.36-1.79-5.28-2.39c-1.46-0.95-3.67-3.03-8.64-1.41
			c-3.63,1.18-4.08,1.9-3.8,2.93c-0.5,0.24,0.1,0.67,1.84,1.91c2.09,1.48,2.2,2.27,1.75,3.37c-0.09,0.23-0.07,0.38,0.02,0.47
			c-6.18,5.46-0.15,7.61-0.15,7.61s3.2,0.3,6.71-0.74c6.11-1.8,6.93-4.27,7.89-6.18c0.96-1.91,1.68-2.49,2.58-3.38
			C84.59,57.17,83.2,56.38,81.72,56z"/>
		<g>
			<path class="st1" d="M65.21,63.33c-0.71,2.16-0.63,5.27,4.46,5.79c5.09,0.52,7.97-2.88,10.37-5.33c2.4-2.45,4.76-2.78,6.13-3.68
				c1.37-0.9,1.18-3.39,0.53-4.75C86.71,55.35,65.92,61.16,65.21,63.33z"/>
		</g>
		<g>
			<path class="st2" d="M74.08,54.49c-2.58,2.66-10.22,7.14-8.96,10.25c1.35,3.32,8.28,2.41,10.78,0.63
				c2.5-1.78,5.24-5.45,9.14-6.64c1.23-0.38,1.74-1.4,1.9-2.67C87.44,52.28,74.08,54.49,74.08,54.49z"/>
		</g>
		<g>
			<path class="st3" d="M86.22,48.56c0.14-2.26,0.99-6.69-3.3-6.88c-3.8-0.17-6.46,0.9-6.69,3.58c-0.25,2.86,0.24,5.47-1.65,7.97
				c-1.89,2.5-10.56,7.31-9.24,10.56c1.32,3.25,8.11,2.36,10.56,0.61c2.45-1.74,5.14-5.34,8.96-6.51
				C88.25,56.86,86.08,50.82,86.22,48.56z"/>
		</g>
		<g>
			<path class="st1" d="M83.86,42.43c-4-1.54-8.62,1.7-5.05,2.42C82.38,45.57,87.14,43.7,83.86,42.43z"/>
		</g>
		<g>
			<path class="st4" d="M77.24,43.91c-0.92,1.47,0.1,5.33-1.55,8.39c-0.66,1.23-2.08,1.87-2.18,2.59c-0.15,1.07,1.38,1.86,2.71,1.38
				c2.22-0.79,3.67-11.01,3.67-11.01C79.89,44.3,77.64,43.28,77.24,43.91z"/>
		</g>
		<g>
			<path class="st2" d="M76.93,44.04c-0.83-0.29-0.91,0.48-1.24,3.91c-0.32,3.44-1.04,4.72-2.36,6.18c-1.32,1.46,0.44,1.7,1.24,0.89
				c0.34-0.35,1.38-1.47,2.07-3.58C77.57,48.64,77.86,44.37,76.93,44.04z"/>
		</g>
		<g>
			<path class="st2" d="M79.07,45.66c-0.72,7.18-2.03,8.48-3.35,9.89c-1.33,1.41,1.48,3.38,3.72,0.17c2.24-3.21,1.77-7.5,1.66-9.28
				C80.98,44.66,79.2,44.4,79.07,45.66z"/>
		</g>
		<g>
			<g>
				<path class="st1" d="M79.13,53.9c-1.82-0.62-3.95-0.89-5.66,0.15c-0.31,0.19-0.03,0.68,0.29,0.49c1.59-0.96,3.55-0.66,5.23-0.09
					C79.32,54.56,79.47,54.01,79.13,53.9z"/>
			</g>
		</g>
		<g>
			<g>
				<path class="st1" d="M75.02,52.72c-0.31-0.19-0.6,0.3-0.29,0.49c1.16,0.69,1.99,1.72,2.59,2.92c0.16,0.33,0.65,0.04,0.49-0.29
					C77.18,54.56,76.26,53.46,75.02,52.72z"/>
			</g>
		</g>
		<g>
			<g>
				<path class="st1" d="M79.41,51.6c-1.66-0.1-3.14,0.45-4.65,1.07c-0.33,0.14-0.19,0.68,0.15,0.55c1.46-0.6,2.89-1.15,4.5-1.05
					C79.77,52.19,79.77,51.62,79.41,51.6z"/>
			</g>
		</g>
		<g>
			<g>
				<path class="st1" d="M79.13,53.9c-1.33-0.52-2.53-1.84-3.15-3.1c-0.16-0.33-0.65-0.04-0.49,0.29c0.7,1.4,2.02,2.78,3.49,3.36
					C79.32,54.57,79.46,54.03,79.13,53.9z"/>
			</g>
		</g>
		<g>
			<g>
				<path class="st1" d="M76.35,48.49c-0.22-0.29-0.71,0-0.49,0.29c0.94,1.22,2.08,2.39,3.35,3.26c0.3,0.21,0.58-0.28,0.29-0.49
					C78.32,50.73,77.22,49.63,76.35,48.49z"/>
			</g>
		</g>
		<g>
			<g>
				<path class="st1" d="M79.33,49.11c-1.24,0.52-2.52,0.93-3.77,1.41c-0.34,0.13-0.19,0.68,0.15,0.55
					c1.25-0.48,2.53-0.89,3.77-1.41C79.81,49.52,79.67,48.97,79.33,49.11z"/>
			</g>
		</g>
		<g>
			<g>
				<path class="st1" d="M79.22,46.88c-1.05,0.64-2.16,1.1-3.33,1.48c-0.35,0.11-0.2,0.66,0.15,0.55c1.21-0.39,2.37-0.88,3.46-1.54
					C79.81,47.18,79.53,46.69,79.22,46.88z"/>
			</g>
		</g>
		<g>
			<g>
				<path class="st1" d="M79.55,49.11c-1.44-0.31-2.33-1.62-3.13-2.75c-0.21-0.29-0.7-0.01-0.49,0.29c0.89,1.25,1.88,2.66,3.47,3.01
					C79.76,49.73,79.91,49.19,79.55,49.11z"/>
			</g>
		</g>
	</g>
	<g>
		<g>
			<path class="st1" d="M77.23,70.09c-0.71,2.16-0.63,5.27,4.46,5.79c5.09,0.52,7.97-2.88,10.37-5.33c2.4-2.45,4.76-2.78,6.13-3.68
				c1.37-0.9,1.18-3.39,0.53-4.75C98.72,62.11,77.94,67.92,77.23,70.09z"/>
		</g>
		<g>
			<path class="st2" d="M86.09,61.25c-2.58,2.66-10.22,7.14-8.96,10.25c1.35,3.32,8.28,2.41,10.78,0.63
				c2.5-1.78,5.24-5.45,9.14-6.64c1.23-0.38,1.74-1.4,1.9-2.67C99.45,59.04,86.09,61.25,86.09,61.25z"/>
		</g>
		<g>
			<path class="st3" d="M98.23,55.32c0.14-2.26,0.99-6.69-3.3-6.88c-3.8-0.17-6.46,0.9-6.69,3.58c-0.25,2.86,0.24,5.47-1.65,7.97
				c-1.89,2.5-10.56,7.31-9.24,10.56c1.32,3.25,8.11,2.36,10.56,0.61c2.45-1.74,5.14-5.34,8.96-6.51
				C100.26,63.61,98.09,57.58,98.23,55.32z"/>
		</g>
		<g>
			<path class="st1" d="M95.87,49.19c-4-1.54-8.62,1.7-5.05,2.42C94.39,52.33,99.15,50.45,95.87,49.19z"/>
		</g>
		<g>
			<path class="st4" d="M89.26,50.67c-0.92,1.47,0.1,5.33-1.55,8.39c-0.66,1.23-2.08,1.87-2.18,2.59c-0.15,1.07,1.38,1.86,2.71,1.38
				c2.22-0.79,3.67-11.01,3.67-11.01C91.9,51.06,89.66,50.03,89.26,50.67z"/>
		</g>
		<g>
			<path class="st2" d="M88.95,50.8c-0.83-0.29-0.91,0.48-1.24,3.91c-0.32,3.44-1.04,4.72-2.36,6.18c-1.32,1.46,0.44,1.7,1.24,0.89
				c0.34-0.35,1.38-1.47,2.07-3.58C89.58,55.4,89.88,51.13,88.95,50.8z"/>
		</g>
		<g>
			<path class="st2" d="M91.09,52.42c-0.72,7.18-2.03,8.48-3.35,9.89s1.48,3.38,3.72,0.17c2.24-3.21,1.77-7.5,1.66-9.28
				C93,51.41,91.21,51.16,91.09,52.42z"/>
		</g>
		<g>
			<g>
				<path class="st1" d="M91.14,60.65c-1.82-0.62-3.95-0.89-5.66,0.15c-0.31,0.19-0.03,0.68,0.29,0.49
					c1.59-0.96,3.55-0.66,5.23-0.09C91.34,61.32,91.49,60.77,91.14,60.65z"/>
			</g>
		</g>
		<g>
			<g>
				<path class="st1" d="M87.04,59.48c-0.31-0.19-0.6,0.3-0.29,0.49c1.16,0.69,1.99,1.72,2.59,2.92c0.16,0.33,0.65,0.04,0.49-0.29
					C89.19,61.32,88.28,60.21,87.04,59.48z"/>
			</g>
		</g>
		<g>
			<g>
				<path class="st1" d="M91.42,58.36c-1.66-0.1-3.14,0.45-4.65,1.07c-0.33,0.14-0.19,0.68,0.15,0.55c1.46-0.6,2.89-1.15,4.5-1.05
					C91.79,58.95,91.78,58.38,91.42,58.36z"/>
			</g>
		</g>
		<g>
			<g>
				<path class="st1" d="M91.14,60.65c-1.33-0.52-2.53-1.84-3.15-3.1c-0.16-0.33-0.65-0.04-0.49,0.29c0.7,1.4,2.02,2.78,3.49,3.36
					C91.33,61.33,91.48,60.79,91.14,60.65z"/>
			</g>
		</g>
		<g>
			<g>
				<path class="st1" d="M88.37,55.25c-0.22-0.29-0.71,0-0.49,0.29c0.94,1.22,2.08,2.39,3.35,3.26c0.3,0.21,0.58-0.28,0.29-0.49
					C90.33,57.49,89.24,56.38,88.37,55.25z"/>
			</g>
		</g>
		<g>
			<g>
				<path class="st1" d="M91.35,55.87c-1.24,0.52-2.52,0.93-3.77,1.41c-0.34,0.13-0.19,0.68,0.15,0.55
					c1.25-0.48,2.53-0.89,3.77-1.41C91.83,56.28,91.68,55.73,91.35,55.87z"/>
			</g>
		</g>
		<g>
			<g>
				<path class="st1" d="M91.23,53.64c-1.05,0.64-2.16,1.1-3.33,1.48c-0.35,0.11-0.2,0.66,0.15,0.55c1.21-0.39,2.37-0.88,3.46-1.54
					C91.83,53.93,91.54,53.45,91.23,53.64z"/>
			</g>
		</g>
		<g>
			<g>
				<path class="st1" d="M91.57,55.87c-1.44-0.31-2.33-1.62-3.13-2.75c-0.21-0.3-0.7-0.01-0.49,0.29c0.89,1.25,1.88,2.66,3.47,3.01
					C91.77,56.49,91.92,55.95,91.57,55.87z"/>
			</g>
		</g>
	</g>
</g>
<g>
	<path class="st0" d="M82.13,12.91c-2.27,1.72-2.98,2.48-3.23,4.63c-0.25,2.15-1.25,1.49-5.18,3.79c-3.94,2.3-3.42,3.37-1.34,5.25
		c0,0,25.19-15.02,22.23-17.36C91.66,6.9,84.4,11.19,82.13,12.91z"/>
	<g>
		<path class="st0" d="M70.7,6.31c-2.27,1.72-2.98,2.48-3.23,4.63c-0.25,2.15-1.25,1.49-5.18,3.79c-3.94,2.3-3.42,3.37-1.34,5.25
			c0,0,25.19-15.02,22.23-17.36C80.22,0.3,72.97,4.59,70.7,6.31z"/>
		<path class="st5" d="M78.13,4.83c-5.42,3.25-8.34,4.59-11.15,6.87c-1.96,1.59-2.35,1.78-5.37,4.48c-0.49,0.44-1.45,1.18-1.45,1.18
			s0-0.27,0,0.75c0,1.63,2.62,6.04,12.15,2.31c3.12-1.22,4.84-1.99,8.23-4.16c3.99-2.55,7.34-4.46,7.73-5.6
			c0.36-1.09,0.08-4.55-1.16-5.84C85.87,3.54,83.55,1.58,78.13,4.83z"/>
		<path class="st6" d="M78.13,2.92c-5.42,3.25-7.67,5.9-10.48,8.17c-1.38,1.12-0.75,0.77-2.64,2c-0.8,0.52-1.76,1.17-2.97,1.54
			c-1.14,0.92-1.88,0.98-1.88,2.61c0,1.63,2.88,5.22,11.67,1.89c5.73-2.17,5.26-2.33,8.65-4.5c3.99-2.55,7.45-4.41,7.83-5.55
			c0.27-0.8,0.18-2.74-0.42-4.58C86.56,0.38,82.83-0.05,78.13,2.92z"/>
		<path class="st7" d="M79.96,2.3c-2.98,1.48-5.02,3.25-5.02,3.25s4.36,4.82,5.15,4.25c1.48-1.07,6.38-4.38,5.92-6.27
			C85.58,1.71,82.94,0.82,79.96,2.3z"/>
		<g>
			<path class="st8" d="M80.84,6.44c-1.25,0.62-2.34,1.29-3.18,1.86c1.05,0.96,2.08,1.74,2.42,1.49c0.96-0.7,3.39-2.35,4.83-3.95
				C83.82,5.55,82.38,5.68,80.84,6.44z"/>
		</g>
		<path class="st9" d="M74.94,5.27c-1.02-0.36-1.79,1.38-4.14,3.35c-0.93,0.79-2.63,2.01-3.74,2.82c-3.37,2.47-5.96,3.12-5.96,4.3
			c0,1.29,2.99,3.66,7.68,1.66c4.74-2.02,6.18-2.38,11-6.75C81.35,9.23,76.57,5.84,74.94,5.27z"/>
		<path class="st6" d="M76.65,8.57c-1.75,1.44-3.63,3.59-4.33,4.6c-0.7,1.01,0.71,2.83,0.71,2.83s7.81-4.94,7.25-6.14
			C80.27,9.86,78.4,7.13,76.65,8.57z"/>
		<path class="st6" d="M71.8,6.15c-1.48,1.14-2.93,2.44-3.75,3.32c-0.86,0.93-0.61,1.68-0.24,1.43c0.36-0.25,6.39-4.58,6.1-5.27
			C73.92,5.62,73.18,5.08,71.8,6.15z"/>
		<g>
			<path class="st10" d="M68.6,9.33c-0.41,0.08-0.24,0.72,0.17,0.63c2.24-0.45,4.25-0.26,6.16,1.07c0.35,0.24,0.68-0.33,0.33-0.57
				C73.22,9.04,71,8.85,68.6,9.33z"/>
		</g>
		<g>
			<path class="st10" d="M73.15,12.77c-1.71-0.97-2.81-3.18-2.24-5.13c0.12-0.41-0.51-0.58-0.63-0.17
				c-0.65,2.23,0.59,4.75,2.54,5.87C73.19,13.55,73.52,12.98,73.15,12.77z"/>
		</g>
		<g>
			<path class="st10" d="M73.01,6.06c0.06-0.41-0.57-0.59-0.63-0.17c-0.31,2.1,1.03,3.75,2.49,5.1c0.31,0.29,0.78-0.18,0.46-0.46
				C74.08,9.37,72.74,7.9,73.01,6.06z"/>
		</g>
		<g>
			<path class="st10" d="M77.54,8.97c-2.27-1.04-4.55-1.68-7.06-1.71c-0.42-0.01-0.42,0.65,0,0.66c2.4,0.03,4.55,0.63,6.72,1.62
				C77.59,9.71,77.92,9.15,77.54,8.97z"/>
		</g>
		<g>
			<path class="st11" d="M73.14,7.69c-0.55,1.08-2.74,1.45-3.78,0.89C69.05,8.41,69.3,8,69.45,7.81c0.26-0.31,0.89-0.29,1.26-0.31
				c0.73-0.02,1.46,0.11,2.2,0.13c0.42,0.01,0.42-0.65,0-0.66c-1.12-0.02-2.29-0.31-3.39,0.05c-0.67,0.22-1.29,1.21-0.78,1.85
				c0.5,0.63,1.55,0.59,2.26,0.54c1.01-0.07,2.21-0.45,2.71-1.41C73.9,7.64,73.34,7.31,73.14,7.69z"/>
		</g>
		<path class="st11" d="M73.31,7.45C73.31,7.45,73.31,7.45,73.31,7.45c-0.1-0.07-0.23-0.07-0.35-0.02c-0.68,0.29-1.5,0.77-1.65,1.57
			c-0.12,0.6,0.2,1.12,0.68,1.46c0.44,0.32,1.08,0.43,1.59,0.24c0.71-0.26,1.01-0.97,1.09-1.67c0.03-0.28,0.07-0.6,0.04-0.88
			C74.6,7.32,73.59,7.54,73.31,7.45z M74.03,8.81c0,0.35-0.09,0.69-0.28,0.98c-0.24,0.36-0.68,0.42-1.11,0.28
			c-0.09-0.03-0.15-0.06-0.27-0.14c-0.1-0.06-0.12-0.08-0.23-0.19c-0.12-0.13-0.2-0.32-0.2-0.48c0-0.19,0.08-0.38,0.25-0.57
			c0.29-0.32,0.7-0.53,1.1-0.69c0.04-0.02,0.08-0.05,0.1-0.08c0.19,0.03,0.6,0.1,0.67,0.38C74.08,8.46,74.03,8.64,74.03,8.81z
			 M74.07,8.3c0,0.01,0.01,0.02,0.01,0.03C74.08,8.35,74.07,8.32,74.07,8.3z"/>
	</g>
	<g>
		<path class="st5" d="M89.56,11.43c-5.42,3.25-8.34,4.59-11.15,6.87c-1.96,1.59-2.35,1.78-5.37,4.48
			c-0.49,0.44-1.45,1.18-1.45,1.18s0-0.27,0,0.75c0,1.63,2.62,6.04,12.15,2.31c3.12-1.22,4.84-1.99,8.23-4.16
			c3.99-2.55,7.34-4.46,7.73-5.6c0.36-1.09,0.08-4.55-1.16-5.84C97.3,10.14,94.99,8.18,89.56,11.43z"/>
		<path class="st6" d="M89.56,9.52c-5.42,3.25-7.67,5.9-10.48,8.17c-1.38,1.12-0.75,0.77-2.64,2c-0.8,0.52-1.76,1.17-2.97,1.54
			c-1.14,0.92-1.88,0.98-1.88,2.61c0,1.63,2.88,5.22,11.67,1.89c5.73-2.17,5.26-2.33,8.65-4.5c3.99-2.55,7.45-4.41,7.83-5.55
			c0.27-0.8,0.18-2.74-0.42-4.58C97.99,6.98,94.27,6.55,89.56,9.52z"/>
		<path class="st7" d="M91.39,8.9c-2.98,1.48-5.02,3.25-5.02,3.25s4.36,4.82,5.15,4.25c1.48-1.07,6.38-4.38,5.92-6.27
			C97.01,8.31,94.37,7.42,91.39,8.9z"/>
		<g>
			<path class="st8" d="M92.27,13.04c-1.25,0.62-2.34,1.29-3.18,1.86c1.05,0.96,2.08,1.74,2.42,1.49c0.96-0.7,3.39-2.35,4.83-3.95
				C95.25,12.15,93.81,12.28,92.27,13.04z"/>
		</g>
		<path class="st9" d="M86.37,11.87c-1.02-0.36-1.79,1.38-4.14,3.35c-0.93,0.79-2.63,2.01-3.74,2.82c-3.37,2.47-5.96,3.12-5.96,4.3
			c0,1.29,2.99,3.66,7.68,1.66c4.74-2.02,6.18-2.38,11-6.75C92.78,15.83,88.01,12.44,86.37,11.87z"/>
		<path class="st6" d="M88.08,15.17c-1.75,1.44-3.63,3.59-4.33,4.6c-0.7,1.01,0.71,2.83,0.71,2.83s7.81-4.94,7.25-6.14
			C91.71,16.46,89.83,13.73,88.08,15.17z"/>
		<path class="st6" d="M83.23,12.75c-1.48,1.14-2.93,2.44-3.75,3.32c-0.86,0.93-0.61,1.68-0.24,1.43c0.36-0.25,6.39-4.58,6.1-5.27
			C85.35,12.22,84.61,11.68,83.23,12.75z"/>
		<g>
			<path class="st10" d="M80.03,15.93c-0.41,0.08-0.24,0.72,0.17,0.63c2.24-0.45,4.25-0.26,6.16,1.07c0.35,0.24,0.68-0.33,0.33-0.57
				C84.65,15.64,82.44,15.45,80.03,15.93z"/>
		</g>
		<g>
			<path class="st10" d="M84.59,19.37c-1.71-0.97-2.81-3.18-2.24-5.13c0.12-0.41-0.51-0.58-0.63-0.17
				c-0.65,2.23,0.59,4.75,2.54,5.87C84.62,20.15,84.95,19.58,84.59,19.37z"/>
		</g>
		<g>
			<path class="st10" d="M84.44,12.66c0.06-0.41-0.57-0.59-0.63-0.17c-0.31,2.1,1.03,3.75,2.49,5.1c0.31,0.29,0.78-0.18,0.46-0.46
				C85.52,15.97,84.17,14.5,84.44,12.66z"/>
		</g>
		<g>
			<path class="st10" d="M88.97,15.57c-2.27-1.04-4.55-1.68-7.06-1.71c-0.42-0.01-0.42,0.65,0,0.66c2.4,0.03,4.55,0.63,6.72,1.62
				C89.02,16.31,89.35,15.75,88.97,15.57z"/>
		</g>
		<g>
			<path class="st11" d="M84.57,14.29c-0.55,1.08-2.74,1.45-3.78,0.89c-0.31-0.17-0.06-0.58,0.09-0.76
				c0.26-0.31,0.89-0.29,1.26-0.31c0.74-0.02,1.46,0.11,2.2,0.13c0.42,0.01,0.42-0.65,0-0.66c-1.12-0.02-2.29-0.31-3.39,0.05
				c-0.67,0.22-1.29,1.21-0.78,1.85c0.5,0.63,1.55,0.59,2.26,0.54c1.01-0.07,2.21-0.45,2.71-1.41
				C85.33,14.24,84.77,13.91,84.57,14.29z"/>
		</g>
		<path class="st11" d="M84.75,14.05C84.75,14.05,84.74,14.05,84.75,14.05c-0.1-0.07-0.23-0.07-0.35-0.02
			c-0.68,0.29-1.5,0.77-1.65,1.57c-0.12,0.6,0.2,1.12,0.68,1.46c0.44,0.32,1.08,0.43,1.59,0.24c0.71-0.26,1.01-0.97,1.09-1.67
			c0.03-0.28,0.07-0.6,0.04-0.88C86.03,13.92,85.02,14.14,84.75,14.05z M85.46,15.41c0,0.35-0.09,0.69-0.28,0.98
			c-0.24,0.36-0.68,0.42-1.11,0.28c-0.09-0.03-0.15-0.06-0.27-0.14c-0.1-0.06-0.12-0.08-0.23-0.19c-0.12-0.13-0.2-0.32-0.2-0.48
			c0-0.19,0.08-0.38,0.25-0.57c0.29-0.32,0.7-0.53,1.1-0.69c0.04-0.02,0.08-0.05,0.1-0.08c0.19,0.03,0.6,0.1,0.67,0.38
			C85.51,15.06,85.46,15.24,85.46,15.41z M85.5,14.9c0,0.01,0.01,0.02,0.01,0.03C85.51,14.95,85.5,14.92,85.5,14.9z"/>
	</g>
</g>
<g>
	<g>
		<g>
			<path class="st12" d="M5.08,20.42c0,0.22-0.08,0.44-0.16,0.66c3.32,0.64,8.13,0.31,10.88-0.99c1.77-0.84,2.85-1.67,3.89-2.47
				c-0.08-0.21-0.17-0.42-0.26-0.63C15.41,20.42,9.96,20.71,5.08,20.42z"/>
			<path class="st12" d="M24.6,13.54c-0.43,0.29-0.57,0.79-0.57,1.36c2.3-1.39,3.24-3.09,3.42-4.16c0.15-0.88,0.01-1.69-0.18-2.28
				C26.6,10.22,26.36,12.22,24.6,13.54z"/>
			<path class="st13" d="M25.09,3.99c-1.15-0.97-3.3-0.36-5.02,0.61C18.35,5.57,14,7.54,12.82,9.08c-1.18,1.54-4.84,4.52-6.96,6.23
				c-0.98,0.79-4.54,1.85-4.54,1.85s-0.96,2.16,1.49,3.3c0.58,0.27,1.3,0.48,2.11,0.63c0.07-0.22,0.16-0.44,0.16-0.66
				c4.88,0.29,10.33,0,14.35-3.44c0.09,0.21,0.18,0.42,0.26,0.63c0.97-0.75,1.91-1.47,3.36-2.18c0.35-0.17,0.67-0.35,0.98-0.53
				c0-0.57,0.14-1.08,0.57-1.36c1.76-1.32,2-3.31,2.67-5.08c-0.19-0.62-0.44-1.02-0.44-1.02S25.94,4.71,25.09,3.99z"/>
		</g>
		<g>
			<g>
				<path class="st14" d="M25.09,1.15c-1.15-0.97-3.3-0.36-5.02,0.61C18.35,2.73,14,4.71,12.82,6.24s-4.37,5.49-7.01,6.71
					c-2.82,1.3-6.62,3.63-3.32,5.34c2.75,1.43,8.37,1.91,13.14-0.24c3.44-1.55,4.4-3.56,7.42-5.03c3.01-1.47,3.92-4.3,3.77-5.77
					C26.45,3.74,26.24,2.12,25.09,1.15z"/>
			</g>
		</g>
		<g>
			<path class="st15" d="M6.75,17.32c-0.75-1.11,1.56-2.06,0.39-3.04c-1.17-0.98-3.21-0.22-4.75,0.7c-1.32,1.1-1.83,2.31,0.11,3.32
				c2.75,1.43,8.37,1.91,13.14-0.24c2.23-1,3.42-2.2,4.8-3.32c-2.82,0.85-5.86,2.67-8.46,3.1C10.25,18.13,7.5,18.43,6.75,17.32z"/>
		</g>
		<g>
			<g>
				<path class="st3" d="M23.99,1.2c-2.94-0.44-6.03,2.2-7.15,3.43c-1.17,1.28-0.71,2.52,0.53,2.98c2.42,0.91,5.33-0.32,6.8-2.08
					C25.64,3.77,25.42,1.42,23.99,1.2z"/>
			</g>
		</g>
		<g>
			<path class="st15" d="M19.84,3.2c-1.56-1.08-4.26-2-4.9-0.69c-0.27,0.56-0.76,2.02-1.63,3.44c-1.79,2.91-4.95,5.82-5.72,6.67
				c-0.91,1,1.57,2.84,3.22,1.28c2.49-2.34,4.84-5.08,6.21-5.7c1.36-0.62,1.54,0.06,1.92-0.42C19.33,7.29,21.4,4.28,19.84,3.2z"/>
		</g>
		<g>
			<path class="st16" d="M11.72,8.16L11.3,8.67c0.29,0.25,1.25,1.23,1.72,3.06l0.47-0.48C13.01,9.64,12.21,8.53,11.72,8.16z"/>
		</g>
		<g>
			<path class="st16" d="M13.1,6.28c-0.19-0.12-0.58,0.29-0.42,0.41c1.34,0.76,1.93,2.37,2.13,3.25l0.45-0.42
				C15,8.55,14.43,7.07,13.1,6.28z"/>
		</g>
		<path class="st16" d="M8.1,11.94c-0.21-0.07-0.72,0.34-0.45,0.45c0.27,0.12,3.14,1.77,3.29,1.77c0.16-0.01,0.47-0.37,0.22-0.54
			C10.84,13.4,8.32,12,8.1,11.94z"/>
		<g>
			<path class="st17" d="M17.35,7.84c-2.05-0.89-4.92-0.25-5.74,0c-0.26,0.08-0.43,0.69,0.05,0.58c0.62-0.14,3.52-0.91,5.46-0.06
				c0,0,0.29,0.04,0.36-0.18C17.56,7.96,17.35,7.84,17.35,7.84z"/>
		</g>
		<g>
			<path class="st17" d="M15.11,10.32c-1.64-1.21-4.14-0.84-5.01-0.67c-0.17,0.04-0.56,0.25-0.51,0.5c0.04,0.25,0.34,0.13,0.34,0.13
				c0.03-0.01,3.09-0.79,4.84,0.5c0,0,0.36,0.17,0.46-0.08C15.32,10.45,15.11,10.32,15.11,10.32z"/>
		</g>
		<g>
			<path class="st17" d="M9.95,10.19l-0.39,0.41c0.19,0.35,1.22,3.26,1.26,3.38c0.04,0.12,0.1,0.26,0.35,0.2
				c0.25-0.06,0.28-0.22,0.25-0.37C11.3,13.19,9.95,10.19,9.95,10.19z"/>
		</g>
		<g>
			<path class="st17" d="M13.34,11.71c-2.54-1.2-5.55,0.14-5.66,0.19c-0.11,0.05-0.19,0.22-0.11,0.39c0.08,0.18,0.19,0.11,0.26,0.09
				c0.08-0.02,2.89-1.29,5.19-0.2c0,0,0.34,0.09,0.43-0.12C13.55,11.85,13.34,11.71,13.34,11.71z"/>
		</g>
	</g>
	<path class="st18" d="M26.51,4.61c-0.28,0.13-0.56,0.27-0.83,0.42c-0.37,0.21-0.87,0.47-1.42,0.75c-1.48-0.7-3.21-1.02-3.7-0.01
		c-0.25,0.5-0.66,1.73-1.37,3c-0.31,0.25-0.57,0.5-0.75,0.73c-0.62,0.8-1.77,2.25-3.11,3.63c-0.01,0.01-0.02,0.02-0.03,0.03
		c-1.23,1.26-2.61,2.47-3.87,3.05c-1.26,0.58-2.72,1.37-3.65,2.22c-0.01,0.01-0.02,0.02-0.03,0.03c-0.06,0.06-0.12,0.12-0.18,0.18
		c-0.01,0.01-0.02,0.02-0.03,0.03c-0.06,0.06-0.11,0.12-0.16,0.18c-0.01,0.01-0.01,0.02-0.02,0.02c-0.17,0.21-0.31,0.41-0.4,0.62
		c-0.01,0.02-0.01,0.03-0.02,0.05c-0.02,0.05-0.04,0.1-0.05,0.16c-0.01,0.02-0.01,0.04-0.01,0.06c-0.01,0.05-0.02,0.1-0.03,0.14
		c0,0.02-0.01,0.04-0.01,0.06c0,0.05,0,0.1,0,0.15c0,0.02,0,0.04,0,0.05c0.01,0.06,0.02,0.12,0.04,0.19c0,0,0,0.01,0,0.01
		c0.01,0.04,0.03,0.08,0.05,0.12c-0.05,0.13-0.15,0.44-0.16,0.85c5.55,0.44,15.21-0.96,20.6-7.49c1.28-1.56-0.45-6.11-0.45-6.11
		L26.51,4.61z"/>
	<g>
		<g>
			<path class="st12" d="M13.28,25.16c0,0.22-0.08,0.44-0.16,0.66c3.32,0.64,8.13,0.31,10.88-0.99c1.77-0.84,2.85-1.67,3.89-2.47
				c-0.08-0.21-0.17-0.42-0.26-0.63C23.62,25.16,18.16,25.45,13.28,25.16z"/>
			<path class="st12" d="M32.8,18.27c-0.43,0.29-0.57,0.79-0.57,1.36c2.3-1.39,3.24-3.09,3.42-4.16c0.15-0.88,0.01-1.69-0.18-2.28
				C34.81,14.96,34.56,16.95,32.8,18.27z"/>
			<path class="st13" d="M33.3,8.73c-1.15-0.97-3.3-0.36-5.02,0.61c-1.72,0.97-6.06,2.94-7.25,4.48c-1.18,1.54-4.84,4.52-6.96,6.23
				c-0.98,0.79-4.54,1.85-4.54,1.85s-0.96,2.16,1.49,3.3c0.58,0.27,1.3,0.48,2.11,0.63c0.07-0.22,0.16-0.44,0.16-0.66
				c4.88,0.29,10.33,0,14.35-3.44c0.09,0.21,0.18,0.42,0.26,0.63c0.97-0.75,1.91-1.47,3.36-2.18c0.35-0.17,0.67-0.35,0.98-0.53
				c0-0.57,0.14-1.08,0.57-1.36c1.76-1.32,2-3.31,2.67-5.08c-0.19-0.63-0.44-1.02-0.44-1.02S34.15,9.44,33.3,8.73z"/>
		</g>
		<g>
			<g>
				<path class="st14" d="M33.3,5.89c-1.15-0.97-3.3-0.36-5.02,0.61c-1.72,0.97-6.06,2.94-7.25,4.48c-1.18,1.54-4.37,5.49-7.01,6.71
					c-2.82,1.3-6.62,3.63-3.32,5.34c2.75,1.43,8.37,1.91,13.14-0.24c3.44-1.55,4.4-3.56,7.42-5.03c3.01-1.47,3.92-4.3,3.77-5.77
					C34.66,8.47,34.44,6.86,33.3,5.89z"/>
			</g>
		</g>
		<g>
			<path class="st15" d="M14.95,22.06c-0.75-1.11,1.56-2.06,0.39-3.04c-1.17-0.98-3.21-0.22-4.75,0.7c-1.32,1.1-1.83,2.31,0.11,3.32
				c2.75,1.43,8.37,1.91,13.14-0.24c2.23-1,3.42-2.2,4.8-3.32c-2.82,0.85-5.86,2.67-8.46,3.1C18.45,22.86,15.7,23.17,14.95,22.06z"
				/>
		</g>
		<g>
			<g>
				<path class="st3" d="M32.19,5.94c-2.94-0.44-6.03,2.2-7.15,3.43c-1.17,1.28-0.71,2.52,0.53,2.98c2.42,0.91,5.33-0.32,6.8-2.08
					C33.84,8.51,33.63,6.15,32.19,5.94z"/>
			</g>
		</g>
		<g>
			<path class="st15" d="M28.05,7.94c-1.56-1.08-4.26-2-4.9-0.69c-0.27,0.56-0.76,2.02-1.63,3.44c-1.79,2.91-4.95,5.82-5.72,6.67
				c-0.91,1,1.57,2.84,3.22,1.28c2.49-2.34,4.84-5.08,6.21-5.7c1.36-0.62,1.54,0.06,1.92-0.42C27.53,12.03,29.61,9.01,28.05,7.94z"
				/>
		</g>
		<g>
			<path class="st16" d="M19.92,12.9l-0.42,0.51c0.29,0.25,1.25,1.23,1.72,3.06l0.47-0.48C21.21,14.38,20.41,13.27,19.92,12.9z"/>
		</g>
		<g>
			<path class="st16" d="M21.31,11.01c-0.19-0.12-0.58,0.29-0.42,0.41c1.34,0.76,1.93,2.37,2.13,3.25l0.45-0.42
				C23.21,13.28,22.63,11.81,21.31,11.01z"/>
		</g>
		<path class="st16" d="M16.31,16.67c-0.21-0.07-0.72,0.34-0.45,0.45c0.27,0.12,3.14,1.77,3.29,1.77c0.16-0.01,0.47-0.37,0.22-0.54
			C19.05,18.13,16.52,16.74,16.31,16.67z"/>
		<g>
			<path class="st17" d="M25.55,12.57c-2.05-0.89-4.92-0.25-5.74,0c-0.26,0.08-0.43,0.69,0.05,0.58c0.62-0.14,3.52-0.91,5.46-0.06
				c0,0,0.29,0.04,0.36-0.18C25.76,12.69,25.55,12.57,25.55,12.57z"/>
		</g>
		<g>
			<path class="st17" d="M23.31,15.05c-1.64-1.21-4.14-0.84-5.01-0.67c-0.17,0.04-0.56,0.25-0.51,0.5c0.04,0.25,0.34,0.13,0.34,0.13
				c0.03-0.01,3.09-0.79,4.84,0.5c0,0,0.36,0.17,0.46-0.08C23.53,15.19,23.31,15.05,23.31,15.05z"/>
		</g>
		<g>
			<path class="st17" d="M18.15,14.92l-0.39,0.41c0.19,0.35,1.22,3.26,1.26,3.38c0.04,0.12,0.1,0.26,0.35,0.2
				c0.25-0.06,0.28-0.22,0.25-0.37C19.51,17.92,18.15,14.92,18.15,14.92z"/>
		</g>
		<g>
			<path class="st17" d="M21.54,16.45c-2.54-1.2-5.55,0.14-5.66,0.19c-0.11,0.05-0.19,0.22-0.11,0.39c0.08,0.18,0.19,0.11,0.26,0.09
				c0.08-0.02,2.89-1.29,5.19-0.2c0,0,0.34,0.09,0.43-0.12C21.76,16.58,21.54,16.45,21.54,16.45z"/>
		</g>
	</g>
</g>
<g>
	<path class="st0" d="M20.79,61.92c0,0-2.19-0.98-3.67-2c0.44-0.53,0.65-1.05,0.47-1.45l0,0c0-0.01-0.01-0.02-0.02-0.02
		c-0.03-0.05-0.06-0.1-0.1-0.14c-0.88-1.25-3.01-1.52-4.25-1.44c-0.57,0.01-1.22,0.06-1.97,0.18c-2.61,0.41-3.76,1-4.12,1.54l0,0
		c-0.26,0.16-3.01,1.76-1.66,2.24c0.07,0.03,0.15,0.05,0.23,0.07c0.17,0.12,0.68,0.36,1.17,0.73c0.05,0.08,0.11,0.16,0.18,0.23
		c0.28,0.28,0.54,0.55,0.76,0.81c0.1,0.21,0.15,0.43,0.14,0.67c0.22,0.64-1.68,1.84-2.62,2.39c-4.37,0.66-3.29,1.61-3.1,1.74
		c-0.94,0.58-1.45,1.09-0.82,1.32l0,0c0,0,0.51,0.28,1.49,0.28c1.41,0,3.2-0.23,4.98-0.58c0.15-0.86,0.79-1.57,1.63-2
		c0.4-0.2,0.81-0.38,1.23-0.56c0.27-0.12,0.55-0.24,0.81-0.37c0.04-0.02,0.45-0.24,0.4-0.21c0.2-0.12,0.41-0.24,0.6-0.38
		c0.05-0.03,0.15-0.14,0.22-0.21c0.15-1.19,0.93-2.19,2.23-2.33c-0.05-0.44,0.12-0.88,0.77-1.33c0.08-0.06,0.17-0.12,0.25-0.18
		c1.43,0.71,2.92,1.45,3.01,1.49C19.23,62.47,21.39,62.21,20.79,61.92z M6.89,60.71c-0.3-0.01-0.53-0.04-0.68-0.09
		c-0.89-0.32,0.17-1.22,0.81-1.6l0,0c0.02,0.33,0.3,0.61,0.66,0.77l0,0C7.29,60.09,7.03,60.41,6.89,60.71z"/>
	<path class="st19" d="M21.88,45.77c-3.98-1.11-5.71,2.61-5.71,4.25l7.49,2.11C23.66,52.12,25.86,46.88,21.88,45.77z"/>
	<path class="st20" d="M19.29,62.58c0,0.27,1.6,0.92,1.63-0.1c0,0,0.07-6.68,1.32-10l-2.51,0.37
		C19.73,52.85,19.29,62.31,19.29,62.58z"/>
	<path class="st21" d="M22.26,49.31c-3.99-1.48-8.31,2.28-9.16,5.64c-0.86,3.36-1.79,6.29-3.89,7.26c-1.66,0.76-8.53,4.89-8.53,4.89
		s-0.07,0.93,0.49,1.5c2.51,2.51,9.86,2.11,12.26-0.86c2.39-2.96,2.58-7.94,5.72-10.05c2.1-1.42,4.59-4.04,4.79-6.06
		c0.04-0.39,0.01-0.99,0.01-0.99S23.06,49.61,22.26,49.31z"/>
	<path class="st22" d="M22.26,48.77c-3.99-1.48-8.31,2.28-9.16,5.64c-0.86,3.36-1.79,6.29-3.89,7.26
		c-2.11,0.97-10.66,3.76-8.04,6.39c2.51,2.51,9.86,2.11,12.26-0.86c2.39-2.96,2.58-7.94,5.72-10.05
		C22.28,55.04,26.25,50.25,22.26,48.77z"/>
	<path class="st19" d="M2.89,64.6l2.26-1.13c0,0-0.01-0.48,0.24-0.93C5.62,62.1,3.11,63.02,2.89,64.6z"/>
	<path class="st23" d="M7.46,62.49c-4.16-1.56-4.6,2.22-4.57,2.11c0.1-0.4,0.46-1.21,1.89-1.08c1.71,0.15,4.7,2.16,5.02,5.51
		c0,0,1.99-0.32,2.98-1.67C12.77,67.36,11.02,63.83,7.46,62.49z"/>
	<path class="st23" d="M23.25,46.49c0.65,0.45-0.04,2.8,0,4.06c0.04,1.26,0.39,2.15,0.39,2.15C25.02,49.04,24.1,47.05,23.25,46.49z"
		/>
	<g>
		<path class="st23" d="M15.59,52.39c-0.87-0.35-1.33-0.79-1.37-1.3c-0.09-1.25,1.71-2.71,2.59-3.23l0.66-0.93
			c-0.36,0.21-4.07,2.31-3.93,4.2c0.06,0.79,0.66,1.42,1.8,1.88c0.81,0.33,1.59,0.46,2.33,0.46c3.38,0,5.82-2.85,5.85-2.88v-0.73
			C23.31,50.09,19.67,54.04,15.59,52.39z"/>
	</g>
	<path class="st23" d="M15.94,52.89l-2.32-1.6c-0.17,0.49-0.02,3.77-1.96,7.05C10.7,60.46,6.3,62.7,6.3,62.7l2.17,1
		c0,0,3.68-0.11,5.76-5.42C16.31,52.98,15.94,52.89,15.94,52.89z"/>
	<path class="st0" d="M30.85,67.74c0,0-2.19-0.98-3.67-2c0.44-0.53,0.65-1.05,0.47-1.45l0,0c0-0.01-0.01-0.02-0.02-0.02
		c-0.03-0.05-0.06-0.1-0.1-0.14c-0.88-1.25-3.01-1.52-4.25-1.44c-0.57,0.01-1.22,0.06-1.97,0.18c-2.61,0.41-3.76,1-4.12,1.54l0,0
		c-0.26,0.16-3.01,1.76-1.66,2.24c0.07,0.03,0.15,0.05,0.23,0.07c0.17,0.12,0.68,0.36,1.17,0.73c0.05,0.08,0.11,0.16,0.18,0.23
		c0.28,0.28,0.54,0.55,0.76,0.81c0.1,0.21,0.15,0.43,0.14,0.67c0.22,0.64-1.68,1.84-2.62,2.39c-4.37,0.66-3.29,1.61-3.1,1.74
		c-0.94,0.58-1.45,1.09-0.82,1.32c0,0,0,0,0,0s0.51,0.28,1.49,0.28c1.41,0,3.2-0.23,4.98-0.58c0.15-0.86,0.79-1.57,1.63-2
		c0.4-0.2,0.81-0.38,1.23-0.56c0.27-0.12,0.55-0.24,0.81-0.37c0.04-0.02,0.45-0.24,0.4-0.21c0.2-0.12,0.41-0.24,0.6-0.38
		c0.05-0.03,0.15-0.14,0.22-0.21c0.15-1.19,0.93-2.19,2.23-2.33c-0.05-0.44,0.12-0.88,0.77-1.33c0.08-0.06,0.17-0.12,0.25-0.18
		c1.43,0.71,2.92,1.45,3.01,1.49C29.3,68.3,31.46,68.03,30.85,67.74z M16.96,66.54c-0.3-0.01-0.53-0.04-0.68-0.09
		c-0.89-0.32,0.17-1.22,0.81-1.6l0,0c0.02,0.33,0.3,0.61,0.66,0.77l0,0C17.36,65.92,17.1,66.24,16.96,66.54z"/>
	<path class="st19" d="M31.94,51.6c-3.98-1.11-5.71,2.61-5.71,4.25l7.49,2.11C33.72,57.95,35.92,52.71,31.94,51.6z"/>
	<path class="st20" d="M29.36,68.41c0,0.27,1.6,0.92,1.63-0.1c0,0,0.07-6.68,1.32-10l-2.51,0.37C29.8,58.68,29.36,68.14,29.36,68.41
		z"/>
	<path class="st21" d="M32.33,55.14c-3.99-1.48-8.31,2.28-9.16,5.64c-0.86,3.36-1.79,6.29-3.89,7.26c-1.66,0.76-8.53,4.89-8.53,4.89
		s-0.07,0.93,0.49,1.5c2.51,2.51,9.86,2.11,12.26-0.86c2.39-2.96,2.58-7.94,5.72-10.05c2.1-1.41,4.59-4.04,4.79-6.06
		c0.04-0.39,0.01-0.99,0.01-0.99S33.12,55.43,32.33,55.14z"/>
	<path class="st22" d="M32.33,54.6c-3.99-1.48-8.31,2.28-9.16,5.64c-0.86,3.36-1.79,6.29-3.89,7.26c-2.11,0.97-10.66,3.76-8.04,6.39
		c2.51,2.51,9.86,2.11,12.26-0.86c2.39-2.96,2.58-7.94,5.72-10.05C32.34,60.87,36.32,56.08,32.33,54.6z"/>
	<path class="st19" d="M12.95,70.42l2.26-1.13c0,0-0.01-0.48,0.24-0.93C15.69,67.93,13.18,68.85,12.95,70.42z"/>
	<path class="st23" d="M17.52,68.31c-4.16-1.56-4.6,2.22-4.57,2.11c0.1-0.4,0.46-1.21,1.89-1.08c1.71,0.15,4.7,2.16,5.02,5.51
		c0,0,1.99-0.32,2.98-1.67C22.84,73.19,21.09,69.65,17.52,68.31z"/>
	<path class="st23" d="M33.31,52.32c0.65,0.45-0.04,2.8,0,4.06c0.04,1.26,0.39,2.15,0.39,2.15C35.08,54.87,34.17,52.88,33.31,52.32z
		"/>
	<g>
		<path class="st23" d="M25.66,58.22c-0.87-0.35-1.33-0.79-1.37-1.3c-0.09-1.25,1.71-2.71,2.59-3.23l0.66-0.93
			c-0.36,0.21-4.07,2.31-3.93,4.2c0.06,0.79,0.66,1.42,1.8,1.88c0.81,0.33,1.59,0.46,2.33,0.46c3.38,0,5.82-2.85,5.85-2.88V55.7
			C33.38,55.91,29.73,59.86,25.66,58.22z"/>
	</g>
	<path class="st23" d="M26,58.72l-2.32-1.6c-0.17,0.49-0.02,3.77-1.96,7.05c-0.96,2.12-5.36,4.36-5.36,4.36l2.17,1
		c0,0,3.68-0.11,5.76-5.42S26,58.72,26,58.72z"/>
</g>
</svg>
