<?xml version="1.0" encoding="utf-8"?>
<!-- Generator: Adobe Illustrator 23.0.1, SVG Export Plug-In . SVG Version: 6.00 Build 0)  -->
<svg version="1.1" id="Layer_1" xmlns="http://www.w3.org/2000/svg" xmlns:xlink="http://www.w3.org/1999/xlink" x="0px" y="0px"
	 viewBox="0 0 110.01 115" style="enable-background:new 0 0 110.01 115;" xml:space="preserve">
<style type="text/css">
	.st0{fill:#F57C00;}
	.st1{fill:#FF9800;}
	.st2{fill:#FFB74D;}
	.st3{fill:#BDBDBD;}
	.st4{fill:#546E7A;}
	.st5{fill:#B1B1B1;}
	.st6{fill:#768B95;}
	.st7{fill:#9E9E9E;}
	.st8{fill:#D84315;}
	.st9{fill:#FF5722;}
	.st10{fill:#558B2F;}
	.st11{fill:#7CB342;}
	.st12{fill:#0197A7;}
	.st13{fill:#02BCD4;}
	.st14{fill:#FBC02D;}
	.st15{fill:#FFEB3B;}
	.st16{fill:#919191;}
	.st17{fill:#E65100;}
	.st18{fill:#607D8B;}
</style>
<g>
	<g>
		<path class="st0" d="M1,18.83C1,34.29,1,50.6,1,66C1,50.6,1,34.29,1,18.83l-0.34-0.19v50.78l54.31,31.36V50L1,18.83z"/>
		<polyline class="st1" points="85.56,83.12 85.56,32.34 54.98,49.99 54.98,100.78 60.16,97.79 60.16,55.6 80.38,43.93 80.38,86.11 
					"/>
		<path class="st2" d="M0.67,18.63L1,18.83c0-0.13,0-0.26,0-0.39L0.67,18.63z"/>
		<path class="st2" d="M85.56,32.34L31.25,0.98L1,18.44c0,0.13,0,0.26,0,0.39L54.98,50L85.56,32.34z"/>
		<g>
			<polygon class="st3" points="19.32,48.49 4.32,39.83 4.32,29.09 19.32,37.75 			"/>
			<polygon class="st4" points="17.42,46.03 6.22,39.56 6.22,31.55 17.42,38.01 			"/>
		</g>
		<g>
			<g>
				<polygon class="st3" points="48.05,65.91 41.87,62.34 43.56,61.37 49.74,64.94 				"/>
			</g>
			<g>
				<polygon class="st5" points="41.87,62.34 41.14,66.7 47.32,70.27 48.05,65.91 				"/>
				<polygon class="st6" points="42.11,65.14 41.89,66.48 43.8,67.59 44.02,66.24 				"/>
				<polygon class="st6" points="44.9,66.75 44.67,68.09 46.58,69.2 46.81,67.85 				"/>
				<polygon class="st7" points="41.14,66.7 41.14,68.05 47.32,71.62 47.32,70.27 				"/>
			</g>
			<g>
				<path class="st4" d="M43.21,64.49c0,0.28-0.2,0.4-0.44,0.25c-0.24-0.14-0.44-0.48-0.44-0.76c0-0.28,0.2-0.4,0.44-0.25
					S43.21,64.21,43.21,64.49z"/>
				<path class="st4" d="M44.56,65.27c0,0.28-0.2,0.4-0.44,0.25c-0.24-0.14-0.44-0.48-0.44-0.76s0.2-0.4,0.44-0.25
					C44.36,64.65,44.56,64.99,44.56,65.27z"/>
				<path class="st4" d="M45.9,66.05c0,0.28-0.2,0.4-0.44,0.25c-0.24-0.14-0.44-0.48-0.44-0.76s0.2-0.4,0.44-0.25
					C45.7,65.43,45.9,65.77,45.9,66.05z"/>
				<path class="st4" d="M47.25,66.83c0,0.28-0.2,0.4-0.44,0.25c-0.24-0.14-0.44-0.48-0.44-0.76s0.2-0.4,0.44-0.25
					S47.25,66.54,47.25,66.83z"/>
			</g>
			<g>
				<path class="st8" d="M47.25,66.83c0,0.14-0.05,0.24-0.13,0.28c-0.08,0.05-0.49,0.28-0.49,0.28l-0.62-1.08
					c0,0,0.4-0.23,0.48-0.27c0.08-0.05,0.19-0.04,0.31,0.03C47.05,66.2,47.25,66.54,47.25,66.83z"/>
				<path class="st9" d="M46.77,67.1c0,0.28-0.2,0.4-0.44,0.25c-0.24-0.14-0.44-0.48-0.44-0.76s0.2-0.4,0.44-0.25
					C46.57,66.48,46.77,66.82,46.77,67.1z"/>
			</g>
			<g>
				<path class="st10" d="M45.9,66.05c0,0.14-0.05,0.24-0.13,0.28c-0.08,0.05-0.49,0.28-0.49,0.28l-0.62-1.08
					c0,0,0.4-0.23,0.48-0.27c0.08-0.05,0.19-0.04,0.31,0.03C45.7,65.43,45.9,65.77,45.9,66.05z"/>
				<path class="st11" d="M45.42,66.32c0,0.28-0.2,0.4-0.44,0.25c-0.24-0.14-0.44-0.48-0.44-0.76s0.2-0.4,0.44-0.25
					C45.22,65.7,45.42,66.04,45.42,66.32z"/>
			</g>
			<g>
				<path class="st12" d="M44.56,65.27c0,0.14-0.05,0.24-0.13,0.28c-0.08,0.05-0.49,0.28-0.49,0.28l-0.62-1.08
					c0,0,0.4-0.23,0.48-0.27c0.08-0.05,0.19-0.04,0.31,0.03C44.36,64.65,44.56,64.99,44.56,65.27z"/>
				<path class="st13" d="M44.07,65.55c0,0.28-0.2,0.4-0.44,0.25c-0.24-0.14-0.44-0.48-0.44-0.76s0.2-0.4,0.44-0.25
					C43.88,64.92,44.07,65.27,44.07,65.55z"/>
			</g>
			<g>
				<path class="st14" d="M43.21,64.49c0,0.14-0.05,0.24-0.13,0.28c-0.08,0.05-0.49,0.28-0.49,0.28l-0.62-1.08
					c0,0,0.4-0.23,0.48-0.27c0.08-0.05,0.19-0.04,0.31,0.03C43.01,63.87,43.21,64.21,43.21,64.49z"/>
				<path class="st15" d="M42.73,64.77c0,0.28-0.2,0.4-0.44,0.25s-0.44-0.48-0.44-0.76s0.2-0.4,0.44-0.25
					C42.53,64.15,42.73,64.49,42.73,64.77z"/>
			</g>
			<polygon class="st16" points="49.74,64.94 49.74,70.22 47.32,71.62 47.32,70.27 48.05,65.91 			"/>
		</g>
		<g>
			<polygon class="st17" points="27.28,70.56 4.32,57.3 4.32,55.71 27.28,68.97 			"/>
			<polygon class="st17" points="27.28,72.53 4.32,59.27 4.32,57.69 27.28,70.94 			"/>
			<polygon class="st17" points="27.28,74.51 4.32,61.25 4.32,59.66 27.28,72.92 			"/>
			<polygon class="st17" points="27.28,76.48 4.32,63.22 4.32,61.64 27.28,74.89 			"/>
			<polygon class="st17" points="27.28,78.46 4.32,65.2 4.32,63.61 27.28,76.87 			"/>
			<polygon class="st17" points="27.28,80.43 4.32,67.17 4.32,65.59 27.28,78.84 			"/>
		</g>
		<g>
			<path class="st4" d="M27.95,46.22c0,0.52-0.18,0.89-0.47,1.07c-0.3,0.18-1.83,1.05-1.83,1.05l-2.32-4.07c0,0,1.5-0.85,1.8-1.03
				c0.3-0.17,0.71-0.15,1.17,0.12C27.21,43.88,27.95,45.16,27.95,46.22z"/>
			<path class="st18" d="M26.15,47.25c0,1.06-0.74,1.48-1.66,0.96c-0.91-0.53-1.66-1.81-1.66-2.87s0.74-1.48,1.66-0.96
				C25.4,44.91,26.15,46.2,26.15,47.25z"/>
		</g>
		<g>
			<path class="st4" d="M27.95,52.56c0,0.52-0.18,0.89-0.47,1.07c-0.3,0.18-1.83,1.05-1.83,1.05l-2.32-4.07c0,0,1.5-0.85,1.8-1.03
				c0.3-0.17,0.71-0.15,1.17,0.12C27.21,50.22,27.95,51.51,27.95,52.56z"/>
			<path class="st18" d="M26.15,53.6c0,1.06-0.74,1.48-1.66,0.96c-0.91-0.53-1.66-1.81-1.66-2.87c0-1.06,0.74-1.48,1.66-0.96
				C25.4,51.26,26.15,52.54,26.15,53.6z"/>
		</g>
	</g>
</g>
</svg>
