<?xml version="1.0" encoding="utf-8"?>
<!-- Generator: Adobe Illustrator 23.0.1, SVG Export Plug-In . SVG Version: 6.00 Build 0)  -->
<svg version="1.1" id="Layer_1" xmlns="http://www.w3.org/2000/svg" xmlns:xlink="http://www.w3.org/1999/xlink" x="0px" y="0px"
	 viewBox="0 0 110.01 115" style="enable-background:new 0 0 110.01 115;" xml:space="preserve">
<style type="text/css">
	.st0{fill:#455A64;}
	.st1{fill:#546E7A;}
	.st2{fill:#37474F;}
	.st3{fill:#757575;}
	.st4{fill:#607D8B;}
	.st5{fill:#424242;}
	.st6{fill:#323232;}
	.st7{fill:#F57C00;}
	.st8{fill:#BDBDBD;}
	.st9{fill:#B1B1B1;}
	.st10{fill:#768B95;}
	.st11{fill:#9E9E9E;}
	.st12{fill:#D84315;}
	.st13{fill:#FF5722;}
	.st14{fill:#558B2F;}
	.st15{fill:#7CB342;}
	.st16{fill:#0197A7;}
	.st17{fill:#02BCD4;}
	.st18{fill:#FBC02D;}
	.st19{fill:#FFEB3B;}
	.st20{fill:#919191;}
	.st21{fill:#FF9800;}
	.st22{fill:#E65100;}
	.st23{fill:#FFB74D;}
	.st24{clip-path:url(#SVGID_2_);}
</style>
<g>
	<polygon class="st0" points="86.9,97.13 106.25,85.61 106.25,93.17 86.9,104.69 	"/>
	<polygon class="st1" points="86.9,109.63 106.25,98.12 106.25,96.24 86.9,107.76 	"/>
	<path class="st2" d="M86.9,97.13L1,47.54c0,2.53,0,5.05,0,7.56l85.9,49.59V97.13z"/>
	<path class="st0" d="M86.9,107.76L1,58.17c0,0.63,0,1.26,0,1.88l85.9,49.59V107.76z"/>
	<g>
		<path class="st3" d="M44.71,75.39c-4.09-2.27-8.32-4.62-11.58-8.06c-0.22-0.23-0.43-0.46-0.64-0.7c-0.95-1.05-1.94-2.13-3.25-2.79
			c-1.02-0.51-2.13-0.7-3.2-0.89c-0.24-0.04-0.48-0.08-0.72-0.13c-2.6-0.5-5.08-1.44-7.36-2.79c-0.77-0.46-1.54-0.97-2.28-1.47
			C13.8,57.3,11.86,56,9.6,55.45c-0.39-0.1-0.78-0.17-1.16-0.24c-0.76-0.14-1.47-0.27-2.12-0.57c-0.75-0.34-1.39-0.9-2.07-1.49
			C3.79,52.76,3.32,52.35,2.8,52c-0.57-0.38-1.18-0.68-1.8-0.94c0,0.39,0,0.77,0,1.16c0.42,0.19,0.83,0.4,1.21,0.66
			c0.47,0.31,0.9,0.69,1.35,1.08c0.7,0.61,1.43,1.24,2.32,1.65c0.77,0.35,1.58,0.5,2.37,0.64c0.37,0.07,0.74,0.14,1.1,0.22
			c2.08,0.51,3.86,1.71,5.75,2.97c0.75,0.51,1.54,1.03,2.33,1.5c2.39,1.41,4.97,2.39,7.69,2.92c0.24,0.05,0.49,0.09,0.73,0.13
			c1.04,0.18,2.03,0.36,2.91,0.8c1.14,0.57,2.02,1.53,2.94,2.55c0.22,0.24,0.44,0.48,0.66,0.71c3.36,3.56,7.67,5.95,11.83,8.26
			L84.8,98.84l0.51-0.92L44.71,75.39z"/>
	</g>
	<g>
		<polygon class="st4" points="10.65,71.42 8.02,69.9 8.02,51.59 10.65,53.11 		"/>
		<polygon class="st4" points="48.77,93.43 46.14,91.91 46.14,73.6 48.77,75.12 		"/>
		<polygon class="st4" points="86.9,115.44 84.26,113.92 84.26,95.61 86.9,97.13 		"/>
		<polygon class="st1" points="86.9,115.44 89.53,113.92 89.53,95.61 86.89,97.13 		"/>
		<polygon class="st1" points="106.25,104.26 103.62,102.74 103.62,84.44 106.25,85.96 		"/>
		<polygon class="st4" points="106.25,104.26 108.88,102.74 108.88,84.44 106.25,85.96 		"/>
		<polygon class="st1" points="48.77,93.43 51.4,91.91 51.4,73.6 48.77,75.12 		"/>
		<polygon class="st1" points="10.65,71.42 13.28,69.9 13.28,51.59 10.65,53.11 		"/>
	</g>
	<path class="st5" d="M106.25,79.12L1,18.35c0,7.32,0,14.83,0,22.35l85.9,49.6L106.25,79.12z"/>
	<path class="st6" d="M108.43,86.11c0.49-0.33,0.78-0.97,0.78-1.86l0,0c0-1.89-1.33-4.18-2.96-5.13L86.9,90.3
		c1.63,0.94,2.96,3.24,2.96,5.13l0,0c0,0.87-0.28,1.51-0.75,1.84L108.43,86.11z"/>
	<path class="st4" d="M107.06,78.65L2,18c0,0.31,0,0.69,0,1l104.25,60.12c1.63,0.94,2.96,3.24,2.96,5.13c0,0.89-0.3,1.54-0.78,1.86
		l0.81-0.47c0.49-0.33,0.78-0.97,0.78-1.86C110.02,81.89,108.7,79.6,107.06,78.65z"/>
	<path class="st4" d="M87.7,89.83L1,39.77c0,0.31,0,0.62,0,0.94L86.89,90.3c1.63,0.94,2.96,3.24,2.96,5.13
		c0,0.89-0.3,1.54-0.78,1.86l0.81-0.47c0.49-0.33,0.78-0.97,0.78-1.86C90.66,93.07,89.34,90.77,87.7,89.83z"/>
	<g>
		<path class="st1" d="M86.9,90.3L1,40.7c0,2.28,0,4.56,0,6.84l85.9,49.59c1.63,0.94,2.96,0.18,2.96-1.71
			C89.86,93.53,88.53,91.24,86.9,90.3z"/>
		<path class="st7" d="M86.83,91.05L1,41.5c0,1.75,0,3.5,0,5.25L86.83,96.3c1.26,0.73,2.27,0.14,2.27-1.31
			C89.1,93.54,88.08,91.77,86.83,91.05z"/>
		<g>
			<path class="st2" d="M88.57,94.68c0,1.07-0.75,1.5-1.67,0.97s-1.67-1.83-1.67-2.9s0.75-1.5,1.67-0.97
				C87.82,92.32,88.57,93.61,88.57,94.68z"/>
			<path class="st1" d="M88.05,94.38c0,0.73-0.52,1.03-1.15,0.67c-0.64-0.37-1.15-1.26-1.15-2s0.52-1.03,1.15-0.67
				C87.53,92.75,88.05,93.64,88.05,94.38z"/>
		</g>
		<g>
			<path class="st2" d="M83.89,91.98c0,1.07-0.75,1.5-1.67,0.97s-1.67-1.83-1.67-2.9s0.75-1.5,1.67-0.97S83.89,90.91,83.89,91.98z"
				/>
			<path class="st1" d="M83.37,91.68c0,0.73-0.52,1.03-1.15,0.67c-0.64-0.37-1.15-1.26-1.15-2s0.52-1.03,1.15-0.67
				C82.85,90.05,83.37,90.94,83.37,91.68z"/>
		</g>
		<g>
			<path class="st2" d="M79.21,89.27c0,1.07-0.75,1.5-1.67,0.97s-1.67-1.83-1.67-2.9s0.75-1.5,1.67-0.97
				C78.46,86.91,79.21,88.21,79.21,89.27z"/>
			<path class="st1" d="M78.69,88.97c0,0.73-0.52,1.03-1.15,0.67c-0.64-0.37-1.15-1.26-1.15-2c0-0.73,0.52-1.03,1.15-0.67
				C78.17,87.35,78.69,88.24,78.69,88.97z"/>
		</g>
		<g>
			<path class="st2" d="M74.53,86.57c0,1.07-0.75,1.5-1.67,0.97s-1.67-1.83-1.67-2.9s0.75-1.5,1.67-0.97
				C73.78,84.21,74.53,85.51,74.53,86.57z"/>
			<path class="st1" d="M74.01,86.27c0,0.73-0.52,1.03-1.15,0.67c-0.64-0.37-1.15-1.26-1.15-2c0-0.73,0.52-1.03,1.15-0.67
				C73.49,84.64,74.01,85.54,74.01,86.27z"/>
		</g>
		<g>
			<path class="st2" d="M69.85,83.87c0,1.07-0.75,1.5-1.67,0.97s-1.67-1.83-1.67-2.9s0.75-1.5,1.67-0.97
				C69.1,81.51,69.85,82.8,69.85,83.87z"/>
			<path class="st1" d="M69.33,83.57c0,0.73-0.52,1.03-1.15,0.67c-0.64-0.37-1.15-1.26-1.15-2s0.52-1.03,1.15-0.67
				C68.81,81.94,69.33,82.84,69.33,83.57z"/>
		</g>
		<g>
			<path class="st2" d="M65.17,81.17c0,1.07-0.75,1.5-1.67,0.97s-1.67-1.83-1.67-2.9s0.75-1.5,1.67-0.97
				C64.42,78.81,65.17,80.1,65.17,81.17z"/>
			<path class="st1" d="M64.65,80.87c0,0.73-0.52,1.03-1.15,0.67c-0.64-0.37-1.15-1.26-1.15-2c0-0.73,0.52-1.03,1.15-0.67
				C64.13,79.24,64.65,80.13,64.65,80.87z"/>
		</g>
		<g>
			<path class="st2" d="M60.49,78.47c0,1.07-0.75,1.5-1.67,0.97s-1.67-1.83-1.67-2.9s0.75-1.5,1.67-0.97S60.49,77.4,60.49,78.47z"/>
			<path class="st1" d="M59.97,78.17c0,0.73-0.52,1.03-1.15,0.67c-0.64-0.37-1.15-1.26-1.15-2c0-0.73,0.52-1.03,1.15-0.67
				C59.45,76.54,59.97,77.43,59.97,78.17z"/>
		</g>
		<g>
			<path class="st2" d="M55.81,75.76c0,1.07-0.75,1.5-1.67,0.97s-1.67-1.83-1.67-2.9s0.75-1.5,1.67-0.97
				C55.06,73.4,55.81,74.7,55.81,75.76z"/>
			<path class="st1" d="M55.29,75.46c0,0.73-0.52,1.03-1.15,0.67c-0.64-0.37-1.15-1.26-1.15-2s0.52-1.03,1.15-0.67
				C54.77,73.84,55.29,74.73,55.29,75.46z"/>
		</g>
		<g>
			<path class="st2" d="M51.13,73.06c0,1.07-0.75,1.5-1.67,0.97s-1.67-1.83-1.67-2.9s0.75-1.5,1.67-0.97
				C50.38,70.7,51.13,72,51.13,73.06z"/>
			<path class="st1" d="M50.61,72.76c0,0.73-0.52,1.03-1.15,0.67c-0.64-0.37-1.15-1.26-1.15-2s0.52-1.03,1.15-0.67
				C50.09,71.13,50.61,72.03,50.61,72.76z"/>
		</g>
		<g>
			<path class="st2" d="M46.45,70.36c0,1.07-0.75,1.5-1.67,0.97s-1.67-1.83-1.67-2.9s0.75-1.5,1.67-0.97
				C45.7,68,46.45,69.29,46.45,70.36z"/>
			<path class="st1" d="M45.93,70.06c0,0.73-0.52,1.03-1.15,0.67c-0.64-0.37-1.15-1.26-1.15-2c0-0.73,0.52-1.03,1.15-0.67
				C45.41,68.43,45.93,69.33,45.93,70.06z"/>
		</g>
		<g>
			<path class="st2" d="M41.77,67.66c0,1.07-0.75,1.5-1.67,0.97s-1.67-1.83-1.67-2.9s0.75-1.5,1.67-0.97
				C41.02,65.3,41.77,66.59,41.77,67.66z"/>
			<path class="st1" d="M41.25,67.36c0,0.73-0.52,1.03-1.15,0.67c-0.64-0.37-1.15-1.26-1.15-2c0-0.73,0.52-1.03,1.15-0.67
				C40.73,65.73,41.25,66.62,41.25,67.36z"/>
		</g>
		<g>
			<path class="st2" d="M37.09,64.96c0,1.07-0.75,1.5-1.67,0.97s-1.67-1.83-1.67-2.9s0.75-1.5,1.67-0.97
				C36.34,62.59,37.09,63.89,37.09,64.96z"/>
			<path class="st1" d="M36.57,64.66c0,0.73-0.52,1.03-1.15,0.67c-0.64-0.37-1.15-1.26-1.15-2s0.52-1.03,1.15-0.67
				C36.05,63.03,36.57,63.92,36.57,64.66z"/>
		</g>
		<g>
			<path class="st2" d="M32.41,62.25c0,1.07-0.75,1.5-1.67,0.97s-1.67-1.83-1.67-2.9s0.75-1.5,1.67-0.97
				C31.66,59.89,32.41,61.19,32.41,62.25z"/>
			<path class="st1" d="M31.89,61.95c0,0.73-0.52,1.03-1.15,0.67c-0.64-0.37-1.15-1.26-1.15-2c0-0.73,0.52-1.03,1.15-0.67
				C31.37,60.33,31.89,61.22,31.89,61.95z"/>
		</g>
		<g>
			<path class="st2" d="M27.73,59.55c0,1.07-0.75,1.5-1.67,0.97s-1.67-1.83-1.67-2.9s0.75-1.5,1.67-0.97
				C26.98,57.19,27.73,58.49,27.73,59.55z"/>
			<path class="st1" d="M27.21,59.25c0,0.73-0.52,1.03-1.15,0.67c-0.64-0.37-1.15-1.26-1.15-2c0-0.73,0.52-1.03,1.15-0.67
				C26.69,57.62,27.21,58.52,27.21,59.25z"/>
		</g>
		<g>
			<path class="st2" d="M23.05,56.85c0,1.07-0.75,1.5-1.67,0.97s-1.67-1.83-1.67-2.9s0.75-1.5,1.67-0.97
				C22.3,54.49,23.05,55.78,23.05,56.85z"/>
			<path class="st1" d="M22.53,56.55c0,0.73-0.52,1.03-1.15,0.67c-0.64-0.37-1.15-1.26-1.15-2c0-0.73,0.52-1.03,1.15-0.67
				C22.01,54.92,22.53,55.82,22.53,56.55z"/>
		</g>
		<g>
			<path class="st2" d="M18.37,54.15c0,1.07-0.75,1.5-1.67,0.97s-1.67-1.83-1.67-2.9s0.75-1.5,1.67-0.97
				C17.62,51.79,18.37,53.08,18.37,54.15z"/>
			<path class="st1" d="M17.85,53.85c0,0.73-0.52,1.03-1.15,0.67c-0.64-0.37-1.15-1.26-1.15-2c0-0.73,0.52-1.03,1.15-0.67
				C17.33,52.22,17.85,53.11,17.85,53.85z"/>
		</g>
		<g>
			<path class="st2" d="M13.69,51.45c0,1.07-0.75,1.5-1.67,0.97s-1.67-1.83-1.67-2.9s0.75-1.5,1.67-0.97
				C12.94,49.08,13.69,50.38,13.69,51.45z"/>
			<path class="st1" d="M13.17,51.15c0,0.73-0.52,1.03-1.15,0.67c-0.64-0.37-1.15-1.26-1.15-2c0-0.73,0.52-1.03,1.15-0.67
				C12.65,49.52,13.17,50.41,13.17,51.15z"/>
		</g>
		<g>
			<path class="st2" d="M9.01,48.74c0,1.07-0.75,1.5-1.67,0.97s-1.67-1.83-1.67-2.9s0.75-1.5,1.67-0.97
				C8.26,46.38,9.01,47.68,9.01,48.74z"/>
			<path class="st1" d="M8.49,48.44c0,0.73-0.52,1.03-1.15,0.67c-0.64-0.37-1.15-1.26-1.15-2c0-0.73,0.52-1.03,1.15-0.67
				C7.97,46.82,8.49,47.71,8.49,48.44z"/>
		</g>
		<g>
			<path class="st2" d="M0.98,44.11c0,0.07,0.01,0.15,0.02,0.22c0-0.14,0-0.28,0-0.42C0.99,43.98,0.98,44.04,0.98,44.11z"/>
			<path class="st2" d="M2.65,43.15C1.79,42.65,1.09,43,1,43.91c0,0.14,0,0.28,0,0.42c0.09,1.02,0.79,2.18,1.65,2.68
				c0.92,0.53,1.67,0.1,1.67-0.97C4.33,44.98,3.58,43.68,2.65,43.15z"/>
			<path class="st1" d="M3.81,45.74c0,0.73-0.52,1.03-1.15,0.67c-0.64-0.37-1.15-1.26-1.15-2s0.52-1.03,1.15-0.67
				C3.29,44.11,3.81,45.01,3.81,45.74z"/>
		</g>
	</g>
	<g>
		<g>
			<polygon class="st8" points="50.96,78.47 44.34,74.64 46.14,73.6 52.76,77.43 			"/>
		</g>
		<g>
			<polygon class="st9" points="44.34,74.64 43.55,79.31 50.17,83.13 50.96,78.47 			"/>
			<polygon class="st10" points="44.59,77.64 44.35,79.08 46.4,80.26 46.64,78.82 			"/>
			<polygon class="st10" points="47.58,79.36 47.33,80.8 49.38,81.99 49.62,80.54 			"/>
			<polygon class="st11" points="43.55,79.31 43.55,80.76 50.17,84.58 50.17,83.13 			"/>
		</g>
		<g>
			<path class="st1" d="M45.77,76.95c0,0.3-0.21,0.42-0.47,0.27c-0.26-0.15-0.47-0.52-0.47-0.82s0.21-0.42,0.47-0.27
				S45.77,76.65,45.77,76.95z"/>
			<path class="st1" d="M47.21,77.78c0,0.3-0.21,0.42-0.47,0.27c-0.26-0.15-0.47-0.52-0.47-0.82s0.21-0.42,0.47-0.27
				S47.21,77.48,47.21,77.78z"/>
			<path class="st1" d="M48.65,78.61c0,0.3-0.21,0.42-0.47,0.27c-0.26-0.15-0.47-0.52-0.47-0.82s0.21-0.42,0.47-0.27
				C48.44,77.95,48.65,78.31,48.65,78.61z"/>
			<path class="st1" d="M50.1,79.45c0,0.3-0.21,0.42-0.47,0.27c-0.26-0.15-0.47-0.52-0.47-0.82s0.21-0.42,0.47-0.27
				C49.88,78.78,50.1,79.15,50.1,79.45z"/>
		</g>
		<g>
			<path class="st12" d="M50.1,79.45c0,0.15-0.05,0.25-0.14,0.3s-0.52,0.3-0.52,0.3l-0.66-1.16c0,0,0.43-0.24,0.51-0.29
				c0.09-0.05,0.2-0.04,0.33,0.03C49.88,78.78,50.1,79.15,50.1,79.45z"/>
			<path class="st13" d="M49.58,79.74c0,0.3-0.21,0.42-0.47,0.27c-0.26-0.15-0.47-0.52-0.47-0.82s0.21-0.42,0.47-0.27
				C49.37,79.07,49.58,79.44,49.58,79.74z"/>
		</g>
		<g>
			<path class="st14" d="M48.65,78.61c0,0.15-0.05,0.25-0.14,0.3s-0.52,0.3-0.52,0.3l-0.66-1.16c0,0,0.43-0.24,0.51-0.29
				c0.09-0.05,0.2-0.04,0.33,0.03C48.44,77.95,48.65,78.31,48.65,78.61z"/>
			<path class="st15" d="M48.14,78.91c0,0.3-0.21,0.42-0.47,0.27c-0.26-0.15-0.47-0.52-0.47-0.82s0.21-0.42,0.47-0.27
				C47.92,78.24,48.14,78.61,48.14,78.91z"/>
		</g>
		<g>
			<path class="st16" d="M47.21,77.78c0,0.15-0.05,0.25-0.14,0.3s-0.52,0.3-0.52,0.3l-0.66-1.16c0,0,0.43-0.24,0.51-0.29
				c0.09-0.05,0.2-0.04,0.33,0.03C47,77.11,47.21,77.48,47.21,77.78z"/>
			<path class="st17" d="M46.69,78.08c0,0.3-0.21,0.42-0.47,0.27c-0.26-0.15-0.47-0.52-0.47-0.82s0.21-0.42,0.47-0.27
				S46.69,77.77,46.69,78.08z"/>
		</g>
		<g>
			<path class="st18" d="M45.77,76.95c0,0.15-0.05,0.25-0.14,0.3s-0.52,0.3-0.52,0.3l-0.66-1.16c0,0,0.43-0.24,0.51-0.29
				c0.09-0.05,0.2-0.04,0.33,0.03C45.56,76.28,45.77,76.65,45.77,76.95z"/>
			<path class="st19" d="M45.25,77.24c0,0.3-0.21,0.42-0.47,0.27c-0.26-0.15-0.47-0.52-0.47-0.82s0.21-0.42,0.47-0.27
				S45.25,76.94,45.25,77.24z"/>
		</g>
		<polygon class="st20" points="52.76,77.43 52.76,83.09 50.17,84.58 50.17,83.13 50.96,78.47 		"/>
	</g>
</g>
<g>
	<g>
		<g>
			<path class="st7" d="M1,18.83C1,34.29,1,50.6,1,66C1,50.6,1,34.29,1,18.83l-0.34-0.19v50.78l54.31,31.36V50L1,18.83z"/>
			<polygon class="st21" points="54.98,100.78 85.56,83.12 85.56,32.34 54.98,49.99 			"/>
			<polygon class="st22" points="60.16,97.79 80.38,86.11 80.38,43.93 60.16,55.6 			"/>
			<path class="st23" d="M0.67,18.63L1,18.83c0-0.13,0-0.26,0-0.39L0.67,18.63z"/>
			<path class="st23" d="M85.56,32.34L31.25,0.98L1,18.44c0,0.13,0,0.26,0,0.39L54.98,50L85.56,32.34z"/>
		</g>
		<g>
			<polygon class="st8" points="19.32,48.49 4.32,39.83 4.32,29.09 19.32,37.75 			"/>
			<polygon class="st1" points="17.42,46.03 6.22,39.56 6.22,31.55 17.42,38.01 			"/>
		</g>
		<g>
			<g>
				<polygon class="st8" points="48.05,65.91 41.87,62.34 43.56,61.37 49.74,64.94 				"/>
			</g>
			<g>
				<polygon class="st9" points="41.87,62.34 41.14,66.7 47.32,70.27 48.05,65.91 				"/>
				<polygon class="st10" points="42.11,65.14 41.89,66.48 43.8,67.59 44.02,66.24 				"/>
				<polygon class="st10" points="44.9,66.75 44.67,68.09 46.58,69.2 46.81,67.85 				"/>
				<polygon class="st11" points="41.14,66.7 41.14,68.05 47.32,71.62 47.32,70.27 				"/>
			</g>
			<g>
				<path class="st1" d="M43.21,64.49c0,0.28-0.2,0.4-0.44,0.25c-0.24-0.14-0.44-0.48-0.44-0.76c0-0.28,0.2-0.4,0.44-0.25
					S43.21,64.21,43.21,64.49z"/>
				<path class="st1" d="M44.56,65.27c0,0.28-0.2,0.4-0.44,0.25c-0.24-0.14-0.44-0.48-0.44-0.76s0.2-0.4,0.44-0.25
					C44.36,64.65,44.56,64.99,44.56,65.27z"/>
				<path class="st1" d="M45.9,66.05c0,0.28-0.2,0.4-0.44,0.25c-0.24-0.14-0.44-0.48-0.44-0.76s0.2-0.4,0.44-0.25
					C45.7,65.43,45.9,65.77,45.9,66.05z"/>
				<path class="st1" d="M47.25,66.83c0,0.28-0.2,0.4-0.44,0.25c-0.24-0.14-0.44-0.48-0.44-0.76s0.2-0.4,0.44-0.25
					S47.25,66.54,47.25,66.83z"/>
			</g>
			<g>
				<path class="st12" d="M47.25,66.83c0,0.14-0.05,0.24-0.13,0.28c-0.08,0.05-0.49,0.28-0.49,0.28l-0.62-1.08
					c0,0,0.4-0.23,0.48-0.27c0.08-0.05,0.19-0.04,0.31,0.03C47.05,66.2,47.25,66.54,47.25,66.83z"/>
				<path class="st13" d="M46.77,67.1c0,0.28-0.2,0.4-0.44,0.25c-0.24-0.14-0.44-0.48-0.44-0.76s0.2-0.4,0.44-0.25
					C46.57,66.48,46.77,66.82,46.77,67.1z"/>
			</g>
			<g>
				<path class="st14" d="M45.9,66.05c0,0.14-0.05,0.24-0.13,0.28c-0.08,0.05-0.49,0.28-0.49,0.28l-0.62-1.08
					c0,0,0.4-0.23,0.48-0.27c0.08-0.05,0.19-0.04,0.31,0.03C45.7,65.43,45.9,65.77,45.9,66.05z"/>
				<path class="st15" d="M45.42,66.32c0,0.28-0.2,0.4-0.44,0.25c-0.24-0.14-0.44-0.48-0.44-0.76s0.2-0.4,0.44-0.25
					C45.22,65.7,45.42,66.04,45.42,66.32z"/>
			</g>
			<g>
				<path class="st16" d="M44.56,65.27c0,0.14-0.05,0.24-0.13,0.28c-0.08,0.05-0.49,0.28-0.49,0.28l-0.62-1.08
					c0,0,0.4-0.23,0.48-0.27c0.08-0.05,0.19-0.04,0.31,0.03C44.36,64.65,44.56,64.99,44.56,65.27z"/>
				<path class="st17" d="M44.07,65.55c0,0.28-0.2,0.4-0.44,0.25c-0.24-0.14-0.44-0.48-0.44-0.76s0.2-0.4,0.44-0.25
					C43.88,64.92,44.07,65.27,44.07,65.55z"/>
			</g>
			<g>
				<path class="st18" d="M43.21,64.49c0,0.14-0.05,0.24-0.13,0.28c-0.08,0.05-0.49,0.28-0.49,0.28l-0.62-1.08
					c0,0,0.4-0.23,0.48-0.27c0.08-0.05,0.19-0.04,0.31,0.03C43.01,63.87,43.21,64.21,43.21,64.49z"/>
				<path class="st19" d="M42.73,64.77c0,0.28-0.2,0.4-0.44,0.25s-0.44-0.48-0.44-0.76s0.2-0.4,0.44-0.25
					C42.53,64.15,42.73,64.49,42.73,64.77z"/>
			</g>
			<polygon class="st20" points="49.74,64.94 49.74,70.22 47.32,71.62 47.32,70.27 48.05,65.91 			"/>
		</g>
		<g>
			<polygon class="st22" points="27.28,70.56 4.32,57.3 4.32,55.71 27.28,68.97 			"/>
			<polygon class="st22" points="27.28,72.53 4.32,59.27 4.32,57.69 27.28,70.94 			"/>
			<polygon class="st22" points="27.28,74.51 4.32,61.25 4.32,59.66 27.28,72.92 			"/>
			<polygon class="st22" points="27.28,76.48 4.32,63.22 4.32,61.64 27.28,74.89 			"/>
			<polygon class="st22" points="27.28,78.46 4.32,65.2 4.32,63.61 27.28,76.87 			"/>
			<polygon class="st22" points="27.28,80.43 4.32,67.17 4.32,65.59 27.28,78.84 			"/>
		</g>
		<g>
			<path class="st1" d="M27.95,46.22c0,0.52-0.18,0.89-0.47,1.07c-0.3,0.18-1.83,1.05-1.83,1.05l-2.32-4.07c0,0,1.5-0.85,1.8-1.03
				c0.3-0.17,0.71-0.15,1.17,0.12C27.21,43.88,27.95,45.16,27.95,46.22z"/>
			<path class="st4" d="M26.15,47.25c0,1.06-0.74,1.48-1.66,0.96c-0.91-0.53-1.66-1.81-1.66-2.87s0.74-1.48,1.66-0.96
				C25.4,44.91,26.15,46.2,26.15,47.25z"/>
		</g>
		<g>
			<path class="st1" d="M27.95,52.56c0,0.52-0.18,0.89-0.47,1.07c-0.3,0.18-1.83,1.05-1.83,1.05l-2.32-4.07c0,0,1.5-0.85,1.8-1.03
				c0.3-0.17,0.71-0.15,1.17,0.12C27.21,50.22,27.95,51.51,27.95,52.56z"/>
			<path class="st4" d="M26.15,53.6c0,1.06-0.74,1.48-1.66,0.96c-0.91-0.53-1.66-1.81-1.66-2.87c0-1.06,0.74-1.48,1.66-0.96
				C25.4,51.26,26.15,52.54,26.15,53.6z"/>
		</g>
	</g>
	<g>
		<g>
			<defs>
				<polygon id="SVGID_1_" points="60.16,100.78 95.61,118.64 137,92.18 80.38,59.98 80.38,43.93 60.16,55.6 				"/>
			</defs>
			<clipPath id="SVGID_2_">
				<use xlink:href="#SVGID_1_"  style="overflow:visible;"/>
			</clipPath>
			<g class="st24">
				<g>
					<polygon class="st0" points="86.9,97.8 106.25,86.28 106.25,93.83 86.9,105.35 					"/>
					<polygon class="st1" points="86.9,110.3 106.25,98.78 106.25,96.9 86.9,108.42 					"/>
					<path class="st2" d="M-30.11,30.25v7.56L1,55.76c0-2.51,0-5.03,0-7.56L-30.11,30.25z"/>
					<path class="st2" d="M86.9,97.8L1,48.2c0,2.53,0,5.05,0,7.56l85.9,49.59V97.8z"/>
					<path class="st0" d="M-30.11,40.87v1.88L1,60.71c0-0.63,0-1.25,0-1.88L-30.11,40.87z"/>
					<path class="st0" d="M86.9,108.42L1,58.83c0,0.63,0,1.25,0,1.88l85.9,49.59V108.42z"/>
				</g>
				<g>
					<path class="st3" d="M-0.54,51.14c-0.79-0.28-1.61-0.58-2.35-0.96c-1.53-0.79-2.85-2.01-4.12-3.2
						c-0.39-0.36-0.78-0.72-1.17-1.07c-3.3-2.93-7.26-5.25-11.46-6.71c-2.46-0.85-5.24-1.82-5.64-4.11l-1.04,0.18
						c0.51,2.9,3.74,4.03,6.36,4.94c4.04,1.41,7.87,3.65,11.08,6.49c0.39,0.34,0.77,0.7,1.15,1.06c1.33,1.23,2.7,2.51,4.36,3.36
						c0.8,0.41,1.65,0.72,2.47,1.01c0.66,0.24,1.29,0.47,1.89,0.75c0-0.38,0-0.77,0-1.16C0.49,51.51-0.03,51.32-0.54,51.14z"/>
					<path class="st3" d="M44.71,76.06c-4.09-2.27-8.32-4.62-11.58-8.06c-0.22-0.23-0.43-0.46-0.64-0.7
						c-0.95-1.05-1.94-2.13-3.25-2.79c-1.02-0.51-2.13-0.7-3.2-0.89c-0.24-0.04-0.48-0.08-0.72-0.13c-2.6-0.5-5.08-1.44-7.36-2.79
						c-0.77-0.46-1.54-0.97-2.28-1.47c-1.88-1.26-3.82-2.56-6.08-3.12c-0.39-0.1-0.78-0.17-1.16-0.24
						c-0.76-0.14-1.47-0.27-2.12-0.57c-0.75-0.34-1.39-0.9-2.07-1.49C3.79,53.41,3.32,53,2.8,52.65c-0.57-0.38-1.18-0.68-1.8-0.94
						c0,0.39,0,0.77,0,1.16c0.42,0.19,0.83,0.4,1.21,0.66c0.47,0.31,0.9,0.69,1.35,1.08c0.7,0.61,1.43,1.24,2.32,1.65
						c0.77,0.35,1.58,0.5,2.37,0.64c0.37,0.07,0.74,0.14,1.1,0.22c2.08,0.51,3.86,1.71,5.75,2.97c0.75,0.51,1.54,1.03,2.33,1.5
						c2.39,1.41,4.97,2.39,7.69,2.92c0.24,0.05,0.49,0.09,0.73,0.13c1.04,0.18,2.03,0.36,2.91,0.8c1.14,0.57,2.02,1.53,2.94,2.55
						c0.22,0.24,0.44,0.48,0.66,0.71c3.36,3.56,7.67,5.95,11.83,8.26L84.8,99.49l0.51-0.92L44.71,76.06z"/>
				</g>
				<g>
					<polygon class="st4" points="-27.48,50.07 -30.11,48.55 -30.11,30.25 -27.48,31.76 					"/>
					<polygon class="st4" points="10.65,72.08 8.02,70.56 8.02,52.26 10.65,53.77 					"/>
					<polygon class="st4" points="48.77,94.09 46.14,92.57 46.14,74.27 48.77,75.79 					"/>
					<polygon class="st4" points="86.9,116.1 84.26,114.58 84.26,96.28 86.9,97.8 					"/>
					<polygon class="st1" points="86.9,116.1 89.53,114.58 89.53,96.28 86.89,97.8 					"/>
					<polygon class="st1" points="106.25,104.92 103.62,103.4 103.62,85.1 106.25,86.62 					"/>
					<polygon class="st4" points="106.25,104.92 108.88,103.4 108.88,85.1 106.25,86.62 					"/>
					<polygon class="st1" points="48.77,94.09 51.4,92.57 51.4,74.27 48.77,75.79 					"/>
					<polygon class="st1" points="10.65,72.08 13.28,70.56 13.28,52.26 10.65,53.77 					"/>
					<polygon class="st1" points="-27.48,50.07 -24.84,48.55 -24.84,30.25 -27.48,31.76 					"/>
				</g>
				<g>
					<path class="st5" d="M106.25,79.78L1,19.02c0,7.33,0,14.83,0,22.35l85.9,49.59L106.25,79.78z"/>
					<path class="st5" d="M-10.75,12.23l-19.36,11.18L1,41.37c0-7.52,0-15.03,0-22.35L-10.75,12.23z"/>
					<path class="st6" d="M108.43,86.78c0.49-0.33,0.78-0.97,0.78-1.86l0,0c0-1.89-1.33-4.18-2.96-5.13L86.9,90.96
						c1.63,0.94,2.96,3.24,2.96,5.13l0,0c0,0.87-0.28,1.51-0.75,1.84L108.43,86.78z"/>
					<path class="st6" d="M-12.87,12.04c0.54-0.33,1.29-0.29,2.12,0.19l-19.36,11.18c-0.92-0.53-1.74-0.52-2.28-0.07L-12.87,12.04z"
						/>
					<path class="st4" d="M-9.94,11.76c-0.83-0.48-1.59-0.52-2.12-0.19l-0.81,0.47c0.54-0.33,1.29-0.29,2.12,0.19L1,19.02
						c0-0.31,0-0.63,0-0.94L-9.94,11.76z"/>
					<path class="st4" d="M107.06,79.32L1,18.08c0,0.31,0,0.62,0,0.94l105.25,60.77c1.63,0.94,2.96,3.24,2.96,5.13
						c0,0.89-0.3,1.54-0.78,1.86l0.81-0.47c0.49-0.33,0.78-0.97,0.78-1.86C110.02,82.56,108.7,80.26,107.06,79.32z"/>
					<path class="st4" d="M-29.3,22.94c-0.83-0.48-1.59-0.52-2.12-0.19l-0.81,0.47c0.54-0.33,1.29-0.29,2.12,0.19L1,41.37
						c0-0.31,0-0.62,0-0.94L-29.3,22.94z"/>
					<path class="st4" d="M87.7,90.49L1,40.43c0,0.31,0,0.62,0,0.94l85.89,49.59c1.63,0.94,2.96,3.24,2.96,5.13
						c0,0.89-0.3,1.54-0.78,1.86l0.81-0.47c0.49-0.33,0.78-0.97,0.78-1.86C90.66,93.73,89.34,91.44,87.7,90.49z"/>
				</g>
				<g>
					<path class="st1" d="M-30.11,23.41c-1.63-0.94-2.96-0.18-2.96,1.71s1.33,4.18,2.96,5.13L1,48.2c0-2.28,0-4.56,0-6.84
						L-30.11,23.41z"/>
					<path class="st1" d="M86.9,90.96L1,41.37c0,2.28,0,4.56,0,6.84L86.9,97.8c1.63,0.94,2.96,0.18,2.96-1.71
						C89.86,94.2,88.53,91.9,86.9,90.96z"/>
					<path class="st7" d="M-30.04,24.24c-1.26-0.73-2.27-0.14-2.27,1.31c0,1.45,1.02,3.21,2.27,3.94L1,47.41c0-1.75,0-3.5,0-5.25
						L-30.04,24.24z"/>
					<path class="st7" d="M86.83,91.71L1,42.16c0,1.75,0,3.5,0,5.25l85.83,49.55c1.26,0.73,2.27,0.14,2.27-1.31
						C89.1,94.2,88.08,92.44,86.83,91.71z"/>
					<g>
						<path class="st2" d="M-28.43,27.79c0,1.07-0.75,1.5-1.67,0.97s-1.67-1.83-1.67-2.9s0.75-1.5,1.67-0.97
							C-29.18,25.43-28.43,26.73-28.43,27.79z"/>
						<path class="st1" d="M-28.95,27.49c0,0.73-0.52,1.03-1.15,0.67c-0.64-0.37-1.15-1.26-1.15-2c0-0.73,0.52-1.03,1.15-0.67
							C-29.47,25.86-28.95,26.76-28.95,27.49z"/>
					</g>
					<g>
						<path class="st2" d="M88.57,95.34c0,1.07-0.75,1.5-1.67,0.97s-1.67-1.83-1.67-2.9s0.75-1.5,1.67-0.97
							C87.82,92.98,88.57,94.28,88.57,95.34z"/>
						<path class="st1" d="M88.05,95.04c0,0.73-0.52,1.03-1.15,0.67c-0.64-0.37-1.15-1.26-1.15-2s0.52-1.03,1.15-0.67
							C87.53,93.41,88.05,94.31,88.05,95.04z"/>
					</g>
					<g>
						<path class="st2" d="M83.89,92.64c0,1.07-0.75,1.5-1.67,0.97s-1.67-1.83-1.67-2.9s0.75-1.5,1.67-0.97
							C83.14,90.28,83.89,91.57,83.89,92.64z"/>
						<path class="st1" d="M83.37,92.34c0,0.73-0.52,1.03-1.15,0.67c-0.64-0.37-1.15-1.26-1.15-2s0.52-1.03,1.15-0.67
							C82.85,90.71,83.37,91.61,83.37,92.34z"/>
					</g>
					<g>
						<path class="st2" d="M79.21,89.94c0,1.07-0.75,1.5-1.67,0.97s-1.67-1.83-1.67-2.9s0.75-1.5,1.67-0.97
							C78.46,87.58,79.21,88.87,79.21,89.94z"/>
						<path class="st1" d="M78.69,89.64c0,0.73-0.52,1.03-1.15,0.67c-0.64-0.37-1.15-1.26-1.15-2c0-0.73,0.52-1.03,1.15-0.67
							C78.17,88.01,78.69,88.9,78.69,89.64z"/>
					</g>
					<g>
						<path class="st2" d="M74.53,87.24c0,1.07-0.75,1.5-1.67,0.97s-1.67-1.83-1.67-2.9s0.75-1.5,1.67-0.97
							C73.78,84.87,74.53,86.17,74.53,87.24z"/>
						<path class="st1" d="M74.01,86.94c0,0.73-0.52,1.03-1.15,0.67c-0.64-0.37-1.15-1.26-1.15-2c0-0.73,0.52-1.03,1.15-0.67
							C73.49,85.31,74.01,86.2,74.01,86.94z"/>
					</g>
					<g>
						<path class="st2" d="M69.85,84.53c0,1.07-0.75,1.5-1.67,0.97s-1.67-1.83-1.67-2.9s0.75-1.5,1.67-0.97
							C69.1,82.17,69.85,83.47,69.85,84.53z"/>
						<path class="st1" d="M69.33,84.23c0,0.73-0.52,1.03-1.15,0.67c-0.64-0.37-1.15-1.26-1.15-2s0.52-1.03,1.15-0.67
							C68.81,82.61,69.33,83.5,69.33,84.23z"/>
					</g>
					<g>
						<path class="st2" d="M65.17,81.83c0,1.07-0.75,1.5-1.67,0.97s-1.67-1.83-1.67-2.9s0.75-1.5,1.67-0.97
							C64.42,79.47,65.17,80.77,65.17,81.83z"/>
						<path class="st1" d="M64.65,81.53c0,0.73-0.52,1.03-1.15,0.67c-0.64-0.37-1.15-1.26-1.15-2s0.52-1.03,1.15-0.67
							C64.13,79.9,64.65,80.8,64.65,81.53z"/>
					</g>
					<g>
						<path class="st2" d="M60.49,79.13c0,1.07-0.75,1.5-1.67,0.97s-1.67-1.83-1.67-2.9s0.75-1.5,1.67-0.97
							C59.74,76.77,60.49,78.06,60.49,79.13z"/>
						<path class="st1" d="M59.97,78.83c0,0.73-0.52,1.03-1.15,0.67c-0.64-0.37-1.15-1.26-1.15-2c0-0.73,0.52-1.03,1.15-0.67
							C59.45,77.2,59.97,78.1,59.97,78.83z"/>
					</g>
					<g>
						<path class="st2" d="M55.81,76.43c0,1.07-0.75,1.5-1.67,0.97s-1.67-1.83-1.67-2.9s0.75-1.5,1.67-0.97
							C55.06,74.07,55.81,75.36,55.81,76.43z"/>
						<path class="st1" d="M55.29,76.13c0,0.73-0.52,1.03-1.15,0.67c-0.64-0.37-1.15-1.26-1.15-2c0-0.73,0.52-1.03,1.15-0.67
							C54.77,74.5,55.29,75.39,55.29,76.13z"/>
					</g>
					<g>
						<path class="st2" d="M51.13,73.73c0,1.07-0.75,1.5-1.67,0.97s-1.67-1.83-1.67-2.9s0.75-1.5,1.67-0.97S51.13,72.66,51.13,73.73
							z"/>
						<path class="st1" d="M50.61,73.43c0,0.73-0.52,1.03-1.15,0.67c-0.64-0.37-1.15-1.26-1.15-2s0.52-1.03,1.15-0.67
							C50.09,71.8,50.61,72.69,50.61,73.43z"/>
					</g>
					<g>
						<path class="st2" d="M46.45,71.02c0,1.07-0.75,1.5-1.67,0.97s-1.67-1.83-1.67-2.9s0.75-1.5,1.67-0.97
							C45.7,68.66,46.45,69.96,46.45,71.02z"/>
						<path class="st1" d="M45.93,70.72c0,0.73-0.52,1.03-1.15,0.67c-0.64-0.37-1.15-1.26-1.15-2c0-0.73,0.52-1.03,1.15-0.67
							C45.41,69.1,45.93,69.99,45.93,70.72z"/>
					</g>
					<g>
						<path class="st2" d="M41.77,68.32c0,1.07-0.75,1.5-1.67,0.97s-1.67-1.83-1.67-2.9s0.75-1.5,1.67-0.97
							C41.02,65.96,41.77,67.26,41.77,68.32z"/>
						<path class="st1" d="M41.25,68.02c0,0.73-0.52,1.03-1.15,0.67c-0.64-0.37-1.15-1.26-1.15-2c0-0.73,0.52-1.03,1.15-0.67
							C40.73,66.39,41.25,67.29,41.25,68.02z"/>
					</g>
					<g>
						<path class="st2" d="M37.09,65.62c0,1.07-0.75,1.5-1.67,0.97s-1.67-1.83-1.67-2.9s0.75-1.5,1.67-0.97
							C36.34,63.26,37.09,64.55,37.09,65.62z"/>
						<path class="st1" d="M36.57,65.32c0,0.73-0.52,1.03-1.15,0.67c-0.64-0.37-1.15-1.26-1.15-2s0.52-1.03,1.15-0.67
							C36.05,63.69,36.57,64.59,36.57,65.32z"/>
					</g>
					<g>
						<path class="st2" d="M32.41,62.92c0,1.07-0.75,1.5-1.67,0.97s-1.67-1.83-1.67-2.9s0.75-1.5,1.67-0.97
							C31.66,60.56,32.41,61.85,32.41,62.92z"/>
						<path class="st1" d="M31.89,62.62c0,0.73-0.52,1.03-1.15,0.67c-0.64-0.37-1.15-1.26-1.15-2c0-0.73,0.52-1.03,1.15-0.67
							C31.37,60.99,31.89,61.88,31.89,62.62z"/>
					</g>
					<g>
						<path class="st2" d="M27.73,60.22c0,1.07-0.75,1.5-1.67,0.97s-1.67-1.83-1.67-2.9s0.75-1.5,1.67-0.97S27.73,59.15,27.73,60.22
							z"/>
						<path class="st1" d="M27.21,59.92c0,0.73-0.52,1.03-1.15,0.67c-0.64-0.37-1.15-1.26-1.15-2c0-0.73,0.52-1.03,1.15-0.67
							C26.69,58.29,27.21,59.18,27.21,59.92z"/>
					</g>
					<g>
						<path class="st2" d="M23.05,57.51c0,1.07-0.75,1.5-1.67,0.97s-1.67-1.83-1.67-2.9s0.75-1.5,1.67-0.97
							C22.3,55.15,23.05,56.45,23.05,57.51z"/>
						<path class="st1" d="M22.53,57.21c0,0.73-0.52,1.03-1.15,0.67c-0.64-0.37-1.15-1.26-1.15-2c0-0.73,0.52-1.03,1.15-0.67
							C22.01,55.59,22.53,56.48,22.53,57.21z"/>
					</g>
					<g>
						<path class="st2" d="M18.37,54.81c0,1.07-0.75,1.5-1.67,0.97s-1.67-1.83-1.67-2.9s0.75-1.5,1.67-0.97
							C17.62,52.45,18.37,53.75,18.37,54.81z"/>
						<path class="st1" d="M17.85,54.51c0,0.73-0.52,1.03-1.15,0.67c-0.64-0.37-1.15-1.26-1.15-2c0-0.73,0.52-1.03,1.15-0.67
							C17.33,52.88,17.85,53.78,17.85,54.51z"/>
					</g>
					<g>
						<path class="st2" d="M13.69,52.11c0,1.07-0.75,1.5-1.67,0.97s-1.67-1.83-1.67-2.9s0.75-1.5,1.67-0.97
							C12.94,49.75,13.69,51.04,13.69,52.11z"/>
						<path class="st1" d="M13.17,51.81c0,0.73-0.52,1.03-1.15,0.67c-0.64-0.37-1.15-1.26-1.15-2c0-0.73,0.52-1.03,1.15-0.67
							C12.65,50.18,13.17,51.08,13.17,51.81z"/>
					</g>
					<g>
						<path class="st2" d="M9.01,49.41c0,1.07-0.75,1.5-1.67,0.97s-1.67-1.83-1.67-2.9s0.75-1.5,1.67-0.97
							C8.26,47.05,9.01,48.34,9.01,49.41z"/>
						<path class="st1" d="M8.49,49.11c0,0.73-0.52,1.03-1.15,0.67s-1.15-1.26-1.15-2c0-0.73,0.52-1.03,1.15-0.67
							C7.97,47.48,8.49,48.37,8.49,49.11z"/>
					</g>
					<g>
						<path class="st2" d="M2.65,43.81c-0.86-0.5-1.56-0.15-1.65,0.77c0,0.14,0,0.28,0,0.42c0.09,1.02,0.79,2.18,1.65,2.68
							c0.92,0.53,1.67,0.1,1.67-0.97C4.33,45.64,3.58,44.34,2.65,43.81z"/>
						<path class="st2" d="M0.98,44.78c0,0.07,0.01,0.15,0.02,0.22c0-0.14,0-0.28,0-0.42C0.99,44.64,0.98,44.71,0.98,44.78z"/>
						<path class="st1" d="M3.81,46.41c0,0.73-0.52,1.03-1.15,0.67c-0.64-0.37-1.15-1.26-1.15-2c0-0.73,0.52-1.03,1.15-0.67
							C3.29,44.78,3.81,45.67,3.81,46.41z"/>
					</g>
					<g>
						<path class="st2" d="M-0.35,44c0,1.07-0.75,1.5-1.67,0.97s-1.67-1.83-1.67-2.9s0.75-1.5,1.67-0.97
							C-1.1,41.64-0.35,42.94-0.35,44z"/>
						<path class="st1" d="M-0.87,43.7c0,0.73-0.52,1.03-1.15,0.67c-0.64-0.37-1.15-1.26-1.15-2c0-0.73,0.52-1.03,1.15-0.67
							C-1.39,42.08-0.87,42.97-0.87,43.7z"/>
					</g>
					<g>
						<path class="st2" d="M-5.03,41.3c0,1.07-0.75,1.5-1.67,0.97s-1.67-1.83-1.67-2.9s0.75-1.5,1.67-0.97
							C-5.78,38.94-5.03,40.24-5.03,41.3z"/>
						<path class="st1" d="M-5.55,41c0,0.73-0.52,1.03-1.15,0.67c-0.64-0.37-1.15-1.26-1.15-2S-7.33,38.64-6.7,39
							C-6.07,39.37-5.55,40.27-5.55,41z"/>
					</g>
					<g>
						<path class="st2" d="M-9.71,38.6c0,1.07-0.75,1.5-1.67,0.97s-1.67-1.83-1.67-2.9s0.75-1.5,1.67-0.97
							C-10.46,36.24-9.71,37.53-9.71,38.6z"/>
						<path class="st1" d="M-10.23,38.3c0,0.73-0.52,1.03-1.15,0.67c-0.64-0.37-1.15-1.26-1.15-2c0-0.73,0.52-1.03,1.15-0.67
							C-10.75,36.67-10.23,37.57-10.23,38.3z"/>
					</g>
					<g>
						<path class="st2" d="M-14.39,35.9c0,1.07-0.75,1.5-1.67,0.97c-0.92-0.53-1.67-1.83-1.67-2.9s0.75-1.5,1.67-0.97
							C-15.14,33.54-14.39,34.83-14.39,35.9z"/>
						<path class="st1" d="M-14.91,35.6c0,0.73-0.52,1.03-1.15,0.67c-0.64-0.37-1.15-1.26-1.15-2c0-0.73,0.52-1.03,1.15-0.67
							C-15.43,33.97-14.91,34.86-14.91,35.6z"/>
					</g>
					<g>
						<path class="st2" d="M-19.07,33.2c0,1.07-0.75,1.5-1.67,0.97s-1.67-1.83-1.67-2.9c0-1.07,0.75-1.5,1.67-0.97
							C-19.82,30.83-19.07,32.13-19.07,33.2z"/>
						<path class="st1" d="M-19.59,32.9c0,0.73-0.52,1.03-1.15,0.67c-0.64-0.37-1.15-1.26-1.15-2s0.52-1.03,1.15-0.67
							C-20.11,31.27-19.59,32.16-19.59,32.9z"/>
					</g>
					<g>
						<path class="st2" d="M-23.75,30.49c0,1.07-0.75,1.5-1.67,0.97s-1.67-1.83-1.67-2.9s0.75-1.5,1.67-0.97
							C-24.5,28.13-23.75,29.43-23.75,30.49z"/>
						<path class="st1" d="M-24.27,30.19c0,0.73-0.52,1.03-1.15,0.67c-0.64-0.37-1.15-1.26-1.15-2s0.52-1.03,1.15-0.67
							C-24.79,28.57-24.27,29.46-24.27,30.19z"/>
					</g>
				</g>
			</g>
		</g>
	</g>
</g>
</svg>
