<svg xmlns="http://www.w3.org/2000/svg" width="56" height="21" viewBox="0 0 56 21"><path fill="#D40511" d="M.517.901h2.989c3.57 0 5.466 1.93 5.466 5.705 0 3.843-2.289 5.705-5.466 5.705H.517V.901zm2.101 9.821h.7c2.357 0 3.416-1.606 3.416-4.116s-1.059-4.1-3.416-4.1h-.7v8.216zM10.475.303h2.101v1.998h-2.101V.303zm.034 3.587h2.033v8.438h-2.033V3.89zm3.502 6.473c.325.137 1.161.564 2.118.564.734 0 1.315-.188 1.315-.837 0-.325-.171-.632-.905-1.059l-.837-.495c-.854-.512-1.776-1.042-1.776-2.374 0-1.161 1.127-2.391 2.921-2.391.72.002 1.434.117 2.118.342l-.12 1.571c-.512-.205-1.042-.376-1.776-.376-.82 0-1.161.307-1.161.82 0 .461.359.7.957 1.076l.991.632c1.042.666 1.571 1.144 1.571 2.135 0 1.554-1.315 2.494-3.143 2.494-1.042 0-1.913-.239-2.34-.41-.001-.001.067-1.692.067-1.692zm12.298 1.743c-.478.188-1.179.342-1.998.342-2.784 0-3.963-1.947-3.963-4.339 0-2.408 1.247-4.356 4.082-4.356.632 0 1.384.188 1.776.342L26.087 5.7c-.359-.188-.871-.41-1.418-.41-1.537 0-2.203 1.025-2.203 2.835 0 1.571.752 2.784 2.306 2.784.495 0 1.161-.222 1.435-.41l.102 1.607zm4.39-8.336c1.725 0 3.707.905 3.707 4.339 0 3.536-1.981 4.356-3.707 4.356-1.725 0-3.724-.82-3.724-4.356.017-3.451 2.016-4.339 3.724-4.339zm0 7.242c1.315 0 1.606-1.503 1.606-2.921 0-1.401-.29-2.904-1.606-2.904s-1.623 1.486-1.623 2.904.325 2.921 1.623 2.921zm4.236-7.122h2.101l1.725 6.491h.034l1.742-6.491h1.964l-2.613 8.438h-2.391L34.935 3.89zm14.484 8.028a6.175 6.175 0 0 1-2.528.547c-2.716 0-3.894-1.947-3.894-4.219 0-2.528 1.332-4.475 3.467-4.475 1.811 0 3.365 1.059 3.365 4.509v.376h-4.885c0 1.435.581 2.306 2.152 2.306 1.247 0 1.828-.376 2.203-.649.001-.001.12 1.605.12 1.605zm-1.537-4.544c0-1.486-.495-2.238-1.401-2.238-1.059 0-1.503 1.127-1.503 2.238h2.904zm3.262-2.084c0-.53-.017-1.008-.068-1.384h1.828c.017.512.068 1.025.068 1.537h.034c.239-.649.888-1.674 2.152-1.674.137 0 .222.034.342.051v1.896a2.042 2.042 0 0 0-.581-.085c-.837 0-1.759.512-1.759 2.084v4.612h-2.033V5.29h.017z"/><path d="M.5 15.47h.871c.53 0 .837.12 1.059.29.359.239.734.752.734 1.64 0 1.144-.547 2.05-2.033 2.05H.517v-3.98H.5zm.495 3.536h.307c.871 0 1.332-.598 1.332-1.623 0-.837-.359-1.486-1.332-1.486H.995v3.109zm3.212-.871c0 .666.256.991.786.991.239 0 .495-.12.666-.239l.017.427c-.222.102-.53.171-.82.171-.769 0-1.161-.581-1.161-1.486s.393-1.486 1.127-1.486c.649 0 1.025.53 1.025 1.384v.256h-1.64v-.018zm1.161-.376c0-.598-.188-.905-.564-.905-.307 0-.581.222-.598.905h1.162zm1.162-2.596h.478v4.27H6.53v-4.27zm1.878.171v.564h-.53v-.564h.53zm-.495 1.196h.478v2.904h-.478V16.53zm1.042 0h.53l.632 2.425h.017l.649-2.425h.495l-.871 2.904h-.581l-.871-2.904zm3.194 1.605c0 .666.256.991.786.991.239 0 .495-.12.666-.239l.017.427c-.222.102-.53.171-.82.171-.769 0-1.161-.581-1.161-1.486s.393-1.486 1.127-1.486c.649 0 1.025.53 1.025 1.384v.256h-1.64v-.018zm1.162-.376c0-.598-.188-.905-.564-.905-.307 0-.581.222-.598.905h1.162zm1.11-.598c0-.205-.017-.427-.017-.632h.461l.017.461h.017c.154-.359.393-.495.82-.495v.478c-.051-.017-.12-.017-.188-.017-.376 0-.632.325-.632.957v1.537h-.478v-2.289zm2.169.974c0 .666.256.991.786.991.239 0 .495-.12.666-.239l.017.427c-.222.102-.53.171-.82.171-.769 0-1.161-.581-1.161-1.486s.393-1.486 1.127-1.486c.649 0 1.025.53 1.025 1.384v.256h-1.64v-.018zm1.162-.376c0-.598-.188-.905-.564-.905-.307 0-.581.222-.598.905h1.162zm3.211 1.145c0 .171.017.359.017.53h-.461l-.017-.427h-.017a.824.824 0 0 1-.769.461c-.598 0-1.008-.495-1.008-1.486s.41-1.486 1.008-1.486c.325 0 .547.137.734.444h.017v-1.76h.478v3.724h.018zm-1.128-2.016c-.444 0-.632.376-.632 1.11 0 .734.205 1.11.632 1.11.444 0 .632-.376.632-1.11 0-.734-.187-1.11-.632-1.11zm3.314-1.725h.478v1.759h.017c.188-.307.41-.444.734-.444.598 0 1.008.495 1.008 1.486s-.41 1.486-1.008 1.486c-.427 0-.632-.239-.769-.461h-.017l-.017.427h-.461c0-.171.017-.359.017-.53v-3.724a.115.115 0 0 0 .018.001zm1.127 3.929c.444 0 .632-.376.632-1.11 0-.734-.205-1.11-.632-1.11-.427 0-.632.376-.632 1.11 0 .734.188 1.11.632 1.11zm2.682.939c-.137.495-.342.666-.717.666-.12 0-.239-.017-.325-.034l.017-.427c.08.037.168.054.256.051.137 0 .239-.068.325-.359l.12-.444-.922-2.955h.495l.649 2.374h.017l.598-2.374h.478l-.991 3.502z"/><path fill="#D40511" d="M29.896 15.47h1.042c1.247 0 1.896.666 1.896 1.981 0 1.332-.803 1.981-1.896 1.981h-1.042V15.47zm.717 3.417h.239c.82 0 1.196-.564 1.196-1.435 0-.871-.376-1.435-1.196-1.435h-.239v2.87zm2.904-3.417h.734v1.623h1.179V15.47h.734v3.98h-.734v-1.759h-1.179v1.759h-.734v-3.98zm3.433 0h.734v3.399H39v.581h-2.033v-3.98h-.017z"/></svg>