<?xml version="1.0" encoding="UTF-8"?>
<svg width="21px" height="21px" viewBox="0 0 21 21" version="1.1" xmlns="http://www.w3.org/2000/svg" xmlns:xlink="http://www.w3.org/1999/xlink">
    <!-- Generator: Sketch 52.2 (67145) - http://www.bohemiancoding.com/sketch -->
    <title>Fill 1</title>
    <desc>Created with Sketch.</desc>
    <g id="Page-1" stroke="none" stroke-width="1" fill="none" fill-rule="evenodd">
        <g id="v2-06" transform="translate(-34.000000, -472.000000)" fill="#417505">
            <path d="M44.5,493 C38.698225,493 34,488.301775 34,482.5 C34,476.698225 38.698225,472 44.5,472 C50.301775,472 55,476.698225 55,482.5 C55,488.301775 50.301775,493 44.5,493 Z M49.251775,479.060725 C48.936985,478.745935 48.437605,478.745935 48.122815,479.060725 L43.10854,484.20625 L40.87729,481.89604 C40.5625,481.58125 40.06312,481.58125 39.74833,481.89604 C39.43354,482.21083 39.43354,482.73583 39.74833,483.05062 L42.5568175,485.93812 C42.8716075,486.25291 43.3709875,486.25291 43.6857775,485.93812 L49.27729,480.215357 C49.56646,479.901591 49.56646,479.376591 49.2516543,479.060777 L49.251775,479.060725 Z" id="Fill-1"></path>
        </g>
    </g>
</svg>