<svg xmlns="http://www.w3.org/2000/svg" xmlns:xlink="http://www.w3.org/1999/xlink" width="60" height="54" viewBox="0 0 60 54">
    <defs>
        <path id="a" d="M.097.055h5.298v1.444H.097z"/>
        <path id="c" d="M.061.055h5.677v1.444H.06z"/>
        <path id="e" d="M.033.055h3.15v1.444H.032z"/>
    </defs>
    <g fill="none" fill-rule="evenodd">
        <ellipse cx="34.013" cy="25.925" fill="#E9E9E9" fill-rule="nonzero" rx="25.856" ry="25.925"/>
        <g transform="translate(12.962 7.407)">
            <rect width="38.542" height="35.455" x=".481" y=".481" fill="#FC0" fill-rule="nonzero" stroke="#CAA200" stroke-width=".963" rx="2.889"/>
            <path fill-rule="nonzero" stroke="#D40511" stroke-width="3.852" d="M38.76 28.614H.744"/>
            <path fill="#D40511" d="M16.524 8.094v.174h2.538l.147-.174zM16.524 7.77v.175h2.81l.148-.174zM16.524 8.417v.173h2.266l.146-.173zM33.85 8.094l-.146.174h2.674v-.174zM33.578 8.417l-.146.173h2.946v-.173zM34.123 7.77l-.147.175h2.402V7.77zM19.124 8.59L20.4 7.08h1.58c.175 0 .173.058.088.159l-.323.383c-.045.052-.126.149.143.149h2.118a2.28 2.28 0 0 1-1.774.819h-3.107zM26.421 7.77l-.69.82h-1.823l.69-.82h1.823zM29.057 7.77l-.691.82h-1.822l.69-.82h1.823zM29.65 7.77l-.198.236c-.229.27-.027.584.72.584h2.926l.691-.82h-4.14z"/>
            <g transform="translate(19.284 6.086)">
                <mask id="b" fill="#fff">
                    <use xlink:href="#a"/>
                </mask>
                <path fill="#D40511" d="M.731.055L.097.807h3.457c.175 0 .173.057.087.158-.087.103-.232.28-.32.385-.045.053-.126.149.143.149h1.413l.42-.497c.26-.307.022-.947-.907-.947H.73z" mask="url(#b)"/>
            </g>
            <g transform="translate(24.694 6.086)">
                <mask id="d" fill="#fff">
                    <use xlink:href="#c"/>
                </mask>
                <path fill="#D40511" d="M4.52 1.499H.06L1.281.055h1.821l-.698.828h.813l.7-.828h1.82z" mask="url(#d)"/>
            </g>
            <g transform="translate(29.773 6.086)">
                <mask id="f" fill="#fff">
                    <use xlink:href="#e"/>
                </mask>
                <path fill="#D40511" d="M3.182.055L1.963 1.499H.033L1.253.055h1.93z" mask="url(#f)"/>
            </g>
        </g>
        <path fill="#D8D8D8" d="M14.686 14.672c0 1.116-1.687 1.116-1.687 0s1.687-1.116 1.687 0M9.253 10.617c.342 0 .65-.204.78-.517a.832.832 0 0 0-.183-.912.849.849 0 0 0-.92-.182.837.837 0 0 0-.52.774.84.84 0 0 0 .843.837z"/>
        <path fill="#D40511" d="M22.529 12.106a.428.428 0 0 0-.16-.158l-3.031-1.734L21.093 7.2c.08-.135.08-.3.002-.436a.438.438 0 0 0-.38-.215h-3.5V3.087A.429.429 0 0 0 17 2.71a.438.438 0 0 0-.439.002l-3.038 1.737-1.736-3.008a.456.456 0 0 0-.755 0L9.281 4.45 6.254 2.712a.438.438 0 0 0-.439-.002.432.432 0 0 0-.217.377v3.471H2.1a.43.43 0 1 0-.38.641l1.747 3.003-3.026 1.743a.43.43 0 0 0 0 .748l3.026 1.732-1.748 2.998c-.08.134-.08.3-.002.434a.436.436 0 0 0 .38.216h3.499v3.48c-.001.156.082.3.217.378a.438.438 0 0 0 .439-.002l3.026-1.734 1.748 3.002a.437.437 0 0 0 .754 0l1.741-3.002 3.026 1.734a.436.436 0 0 0 .656-.375v-3.471h3.501a.435.435 0 0 0 .387-.219.426.426 0 0 0-.008-.44l-1.741-2.999 3.026-1.734a.43.43 0 0 0 .16-.585z"/>
        <g fill="#FFF">
            <path d="M8.36 10.568c0-.788.613-1.428 1.368-1.428.756 0 1.369.64 1.369 1.429s-.613 1.428-1.369 1.428c-.755 0-1.369-.64-1.369-1.428l.001-.001zM9.532 16.234a.338.338 0 0 1-.458.05.374.374 0 0 1-.104-.469l4.703-6.892a.335.335 0 0 1 .484-.084.374.374 0 0 1 .097.502l-4.722 6.893zM13.486 16.1a1.369 1.369 0 0 1-1.265-.881 1.474 1.474 0 0 1 .297-1.556c.392-.41.98-.531 1.491-.31.512.221.845.742.845 1.32 0 .378-.143.742-.4 1.01-.256.268-.603.419-.967.42l-.001-.003z"/>
        </g>
        <g fill="#417505">
            <path d="M20.678 47.53a.145.145 0 0 0-.135.08l-.79 1.634-1.727.276c-.112.02-.168.192-.087.276l1.244 1.286-.28 1.808c-.014.086.052.183.135.194a.14.14 0 0 0 .087-.02l1.553-.848 1.553.847c.101.055.24-.055.222-.173l-.28-1.808 1.244-1.286c.08-.084.027-.257-.087-.276l-1.726-.276-.791-1.633a.145.145 0 0 0-.135-.082zm6.173 0a.145.145 0 0 0-.135.08l-.791 1.634-1.727.276c-.112.02-.167.192-.086.276l1.244 1.286-.28 1.808c-.014.086.052.183.135.194a.14.14 0 0 0 .087-.02l1.553-.848 1.553.847c.1.055.24-.055.221-.173l-.28-1.808 1.245-1.286c.08-.084.026-.257-.087-.276l-1.726-.276-.791-1.633a.145.145 0 0 0-.135-.082zm6.172 0a.145.145 0 0 0-.135.08l-.79 1.634-1.727.276c-.112.02-.167.192-.087.276l1.244 1.286-.28 1.808c-.014.086.053.183.136.194a.14.14 0 0 0 .087-.02l1.552-.848 1.553.847c.102.055.24-.055.222-.173l-.28-1.808 1.245-1.286c.08-.084.026-.257-.087-.276l-1.727-.276-.79-1.633a.145.145 0 0 0-.136-.082zM39.196 47.53a.145.145 0 0 0-.135.08l-.791 1.634-1.726.276c-.113.02-.168.192-.087.276l1.244 1.286-.28 1.808c-.014.086.052.183.135.194a.14.14 0 0 0 .087-.02l1.553-.848 1.553.847c.1.055.24-.055.221-.173l-.28-1.808 1.245-1.286c.08-.084.026-.257-.087-.276l-1.726-.276-.791-1.633a.145.145 0 0 0-.135-.082zm6.173 0a.145.145 0 0 0-.135.08l-.791 1.634-1.727.276c-.112.02-.167.192-.087.276l1.245 1.286-.28 1.808c-.015.086.052.183.135.194a.14.14 0 0 0 .087-.02l1.553-.848 1.552.847c.102.055.24-.055.222-.173l-.28-1.808 1.245-1.286c.08-.084.026-.257-.087-.276l-1.727-.276-.79-1.633a.145.145 0 0 0-.136-.082z"/>
        </g>
    </g>
</svg>
