<?xml version="1.0" encoding="UTF-8"?>
<svg width="129px" height="87px" viewBox="0 0 129 87" version="1.1" xmlns="http://www.w3.org/2000/svg" xmlns:xlink="http://www.w3.org/1999/xlink">
    <!-- Generator: Sketch 52.2 (67145) - http://www.bohemiancoding.com/sketch -->
    <title>Group 6</title>
    <desc>Created with Sketch.</desc>
    <defs>
        <linearGradient x1="50%" y1="27.4433992%" x2="50%" y2="100%" id="linearGradient-1">
            <stop stop-color="#FFCC00" stop-opacity="0.999745245" offset="0%"></stop>
            <stop stop-color="#FFEFB2" offset="100%"></stop>
        </linearGradient>
        <polygon id="path-2" points="0.0875583344 0.0494392531 4.86790166 0.0494392531 4.86790166 1.35248071 0.0875583344 1.35248071"></polygon>
        <polygon id="path-4" points="0.0554399967 0.0494392531 5.17723894 0.0494392531 5.17723894 1.3524894 0.0554399967 1.3524894"></polygon>
        <polygon id="path-6" points="0.0298070926 0.0494392531 2.87134353 0.0494392531 2.87134353 1.35248071 0.0298070926 1.35248071"></polygon>
    </defs>
    <g id="Symbols" stroke="none" stroke-width="1" fill="none" fill-rule="evenodd">
        <g id="Icons-Desktop" transform="translate(-636.000000, -10.000000)">
            <g id="Group-6" transform="translate(638.000000, 10.000000)">
                <path d="M37.5411925,41.1299043 L0.322621957,41.1299043" id="Line-9" stroke="#E9E9E9" stroke-width="4.67848092" stroke-linecap="round" fill-rule="nonzero"></path>
                <path d="M47.5665084,31.1045885 L10.3479378,31.1045885" id="Line-9" stroke="#E9E9E9" stroke-width="4.67848092" stroke-linecap="round" fill-rule="nonzero"></path>
                <path d="M47.5665084,51.1552202 L10.3479378,51.1552202" id="Line-9" stroke="#E9E9E9" stroke-width="4.67848092" stroke-linecap="round" fill-rule="nonzero"></path>
                <circle id="Oval" fill="#F2F2F2" fill-rule="nonzero" cx="69.89873" cy="43.8354404" r="43.1645544"></circle>
                <circle id="Oval" fill="#E9E9E9" fill-rule="nonzero" cx="69.89873" cy="43.8354404" r="43.1645544"></circle>
                <g id="Group-2" transform="translate(12.810126, 11.810126)">
                    <rect id="Rectangle" fill="#FDFDFD" fill-rule="nonzero" x="16.6207329" y="5.06835413" width="80.2131021" height="49.9594907"></rect>
                    <path d="M100.742033,59.5396425 L100.742033,3.31100553 C100.742033,1.4842237 99.2719131,0 97.4523837,0 L16.2856239,0 C14.4706248,0 12.9959744,1.47966405 12.9959744,3.31100553 L12.9959744,59.5396425 L0,59.5396425 L0,63.2525985 C0.426527693,63.750395 2.5364685,65.2849152 8.37617729,65.1570112 L104.117525,65.1204756 C104.117525,65.1204756 111.590791,65.2300825 114.177208,63.2570996 L114.177208,59.5487033 L100.742033,59.5396425 Z M56.868423,2.43415025 C57.1270647,2.43415025 57.3357809,2.64423308 57.3357809,2.90454219 C57.3357809,3.16485129 57.1270531,3.37493412 56.868423,3.37493412 C56.6097813,3.37493412 56.4010651,3.16485129 56.4010651,2.90454219 C56.4010651,2.64423308 56.6097929,2.43415025 56.868423,2.43415025 Z M17.7910568,5.02356234 L95.9492741,5.02356234 L95.9492741,54.5752386 L17.7910568,54.5752386 L17.7910568,5.02356234 Z M65.2853725,60.2560917 C65.2853725,60.8223999 64.8270866,61.2836609 64.2644311,61.2836609 L48.8372291,61.2836609 C48.2745736,61.2836609 47.8162878,60.8223999 47.8162878,60.2560917 L47.8162878,59.5984502 L65.2855815,59.5984502 L65.2853725,60.2560917 Z M107.357342,61.5119823 L103.414293,61.5119823 C103.341693,61.5119823 103.287237,61.4571847 103.287237,61.3841134 C103.287237,61.3110538 103.341693,61.2562328 103.414293,61.2562328 L107.357342,61.2562328 C107.429942,61.2562328 107.484398,61.3110421 107.484398,61.3841134 C107.484398,61.4526133 107.429954,61.5119823 107.357342,61.5119823 Z" id="Fill-1" fill="#141414"></path>
                </g>
                <rect id="Rectangle" fill="url(#linearGradient-1)" fill-rule="nonzero" x="30.6329096" y="16.8227837" width="78.2531599" height="10.9948423"></rect>
                <g id="Group-7" transform="translate(32.860758, 18.493670)">
                    <g id="Group">
                        <g id="Group-52" transform="translate(0.315262, 0.352364)">
                            <g id="Group-25" transform="translate(0.113494, 0.089370)">
                                <polygon id="Fill-1" fill="#D40511" points="0 1.8486892 0 2.00569576 2.29032439 2.00569576 2.42262325 1.8486892"></polygon>
                                <polygon id="Fill-2" fill="#D40511" points="0 1.5572409 0 1.71407368 2.53619306 1.71407368 2.66869116 1.5572409"></polygon>
                                <polygon id="Fill-3" fill="#D40511" points="0 2.14029391 0 2.2963447 2.04495384 2.2963447 2.17655534 2.14029391"></polygon>
                                <polygon id="Fill-4" fill="#D40511" points="15.6337204 1.8488456 15.5015212 2.00567838 17.9146803 2.00567838 17.9146803 1.8488456"></polygon>
                                <polygon id="Fill-5" fill="#D40511" points="15.387782 2.14029391 15.2560809 2.29651847 17.9147102 2.2963447 17.9147102 2.14029391"></polygon>
                                <polygon id="Fill-6" fill="#D40511" points="15.8796588 1.5572409 15.7474596 1.71433434 17.9146504 1.71416057 17.9146504 1.5572409"></polygon>
                                <g id="Group-24" transform="translate(2.291321, 0.037449)">
                                    <path d="M0.0551510911,2.25886992 L1.20479631,0.896553486 L2.63139245,0.896553486 C2.78909508,0.896553486 2.787003,0.948773154 2.70999471,1.03983174 C2.63169131,1.13236743 2.49849585,1.29137241 2.41889737,1.38521141 C2.37835095,1.43291291 2.30522794,1.51980087 2.54770943,1.51980087 L4.45877045,1.51980087 C4.29987235,1.70973797 3.78442483,2.25886992 2.85863168,2.25886992 L0.0551510911,2.25886992 Z" id="Fill-7" fill="#D40511"></path>
                                    <path d="M6.63910149,1.51973136 L6.01566304,2.2588873 L4.37109257,2.2588873 C4.37109257,2.2588873 4.99433178,1.51981825 4.99482989,1.51981825 L6.63910149,1.51973136 Z" id="Fill-9" fill="#D40511"></path>
                                    <path d="M9.01739267,1.51980956 L8.39355573,2.25887861 L6.74948337,2.25887861 C6.74948337,2.25887861 7.37272258,1.51980956 7.37332032,1.51980956 L9.01739267,1.51980956 Z" id="Fill-11" fill="#D40511"></path>
                                    <path d="M9.55198766,1.51980956 C9.55208728,1.51980956 9.43194238,1.66308782 9.37346389,1.73190309 C9.16714542,1.97527628 9.34945484,2.25887861 10.023402,2.25887861 L12.6637007,2.25887861 L13.2873384,1.51980956 L9.55198766,1.51980956 Z" id="Fill-13" fill="#D40511"></path>
                                    <g id="Group-17" transform="translate(0.199245, 0.000000)">
                                        <mask id="mask-3" fill="white">
                                            <use xlink:href="#path-2"></use>
                                        </mask>
                                        <g id="Clip-16"></g>
                                        <path d="M0.659890376,0.0494218755 L0.0875583344,0.727756233 L3.2069423,0.727756233 C3.36464493,0.727756233 3.36255286,0.779889013 3.28534531,0.870947602 C3.20724117,0.963396399 3.0762374,1.12413914 2.99653929,1.21806503 C2.9560925,1.26559275 2.88286987,1.35248071 3.12535136,1.35248071 L4.40091959,1.35248071 C4.40091959,1.35248071 4.60654071,1.10841242 4.77888787,0.904399469 C5.01339955,0.626879303 4.79921088,0.0494218755 3.96098603,0.0494218755 L0.659890376,0.0494218755 Z" id="Fill-15" fill="#D40511" mask="url(#mask-3)"></path>
                                    </g>
                                    <g id="Group-20" transform="translate(5.080754, 0.000000)">
                                        <mask id="mask-5" fill="white">
                                            <use xlink:href="#path-4"></use>
                                        </mask>
                                        <g id="Clip-19"></g>
                                        <polygon id="Fill-18" fill="#D40511" mask="url(#mask-5)" points="4.07770391 1.3524894 0.0554399967 1.3524894 1.15527389 0.0494305643 2.79934625 0.0494305643 2.16903383 0.796667079 2.90275454 0.796667079 3.5336647 0.0494305643 5.17723894 0.0494305643"></polygon>
                                    </g>
                                    <g id="Group-23" transform="translate(9.663396, 0.000000)">
                                        <mask id="mask-7" fill="white">
                                            <use xlink:href="#path-6"></use>
                                        </mask>
                                        <g id="Clip-22"></g>
                                        <path d="M2.87134353,0.0494218755 L1.77160925,1.35248071 L0.0298070926,1.35248071 C0.0298070926,1.35248071 1.12974061,0.0494218755 1.13023873,0.0494218755 L2.87134353,0.0494218755 Z" id="Fill-21" fill="#D40511" mask="url(#mask-7)"></path>
                                    </g>
                                </g>
                            </g>
                        </g>
                    </g>
                </g>
                <g id="Untitled-1" transform="translate(69.500000, 46.500000) scale(-1, 1) translate(-69.500000, -46.500000) translate(31.000000, 28.000000)">
                    <rect id="Rectangle" fill="#FEFADE" x="8.73967565e-13" y="0.196726378" width="76.8614454" height="36.7293465"></rect>
                    <rect id="Rectangle" stroke="#D2C5AA" stroke-width="0.5" fill="#E3D4B7" x="2.4440118" y="14.5958445" width="7.48648968" height="15.1339469"></rect>
                    <path d="M6.73920354,20.5564862 C8.36097345,19.1687677 9.95548673,16.7376201 9.54436578,14.5958445 L2.4440118,14.5958445 L2.4440118,22.3307382 C4.08168142,22.1068445 5.65348083,21.4879685 6.73920354,20.5564862 Z" id="Path" stroke="#8CAD57" stroke-width="0.5" fill="#98BD67"></path>
                    <rect id="Rectangle" stroke="#8CAD57" stroke-width="0.5" fill="#98BD67" x="12.2246018" y="14.5958445" width="6.87775811" height="14.9565217"></rect>
                    <rect id="Rectangle" stroke="#D2C5AA" stroke-width="0.5" fill="#E0DDDA" x="12.2246018" y="31.3625256" width="6.87775811" height="3.43233268"></rect>
                    <rect id="Rectangle" stroke="#D2C5AA" stroke-width="0.5" fill="#E3D4B7" x="2.4440118" y="31.1491929" width="7.48648968" height="3.64566535"></rect>
                    <rect id="Rectangle" stroke="#D2C5AA" stroke-width="0.5" fill="#E0DDDA" x="57.7613569" y="28.0590374" width="2.63707965" height="6.73582087"></rect>
                    <rect id="Rectangle" stroke="#D2C5AA" stroke-width="0.5" fill="#E3D4B7" x="62.4608555" y="28.0590374" width="2.29182891" height="6.73582087"></rect>
                    <rect id="Rectangle" stroke="#D2C5AA" stroke-width="0.5" fill="#E3D4B7" x="67.0445133" y="28.0590374" width="1.94884956" height="6.73582087"></rect>
                    <rect id="Rectangle" stroke="#D2C5AA" stroke-width="0.5" fill="#E3D4B7" x="70.939941" y="28.0590374" width="3.47522124" height="6.73582087"></rect>
                    <rect id="Rectangle" stroke="#8CAD57" stroke-width="0.5" fill="#98BD67" x="57.7613569" y="14.5958445" width="16.6560767" height="11.545311"></rect>
                    <rect id="Rectangle" stroke="#D2C5AA" stroke-width="0.5" fill="#E0DDDA" x="12.2632153" y="2.45700394" width="6.83914454" height="4.07444291"></rect>
                    <rect id="Rectangle" stroke="#D2C5AA" stroke-width="0.5" fill="#E0DDDA" x="12.2632153" y="8.77038386" width="6.83914454" height="4.14203346"></rect>
                    <rect id="Rectangle" stroke="#D2C5AA" stroke-width="0.5" fill="#E3D4B7" x="2.4440118" y="2.45700394" width="7.52510324" height="10.4554134"></rect>
                    <rect id="Rectangle" stroke="#D2C5AA" stroke-width="0.5" fill="#E0DDDA" x="57.7613569" y="10.4749331" width="2.63707965" height="2.43748425"></rect>
                    <path d="M65.9360767,12.1161161 C65.8633923,11.5648307 65.7589086,11.0198819 65.6566962,10.4749331 L62.0020354,10.4749331 L62.0020354,12.9124173 L66.0473746,12.9124173 C66.0178466,12.5976988 65.9587906,12.2935413 65.9360767,12.1161161 Z" id="Path" stroke="#D2C5AA" stroke-width="0.5" fill="#E0DDDA"></path>
                    <path d="M68.3346608,12.9124173 L74.4174336,12.9124173 L74.4174336,10.4749331 L67.9848673,10.4749331 C68.1574926,11.2944685 68.3255752,12.124565 68.3346608,12.9124173 Z" id="Path" stroke="#D2C5AA" stroke-width="0.5" fill="#E0DDDA"></path>
                    <rect id="Rectangle" stroke="#D2C5AA" stroke-width="0.5" fill="#E0DDDA" x="57.7613569" y="6.42583661" width="2.63707965" height="2.66349016"></rect>
                    <path d="M65.5158702,6.42583661 L61.999764,6.42583661 L61.999764,9.08932677 L65.4341003,9.08932677 C65.3387021,8.19797638 65.3568732,7.30451378 65.5158702,6.42583661 Z" id="Path" stroke="#D2C5AA" stroke-width="0.5" fill="#E0DDDA"></path>
                    <path d="M67.6214454,7.6276811 C67.589646,8.08602953 67.6350737,8.57817323 67.7168437,9.08932677 L74.4174336,9.08932677 L74.4174336,6.42583661 L67.8099705,6.42583661 C67.7145723,6.81025787 67.6487021,7.21157677 67.6214454,7.6276811 Z" id="Path" stroke="#D2C5AA" stroke-width="0.5" fill="#E0DDDA"></path>
                    <rect id="Rectangle" stroke="#D2C5AA" stroke-width="0.5" fill="#E0DDDA" x="57.7613569" y="2.45700394" width="2.63707965" height="2.58322638"></rect>
                    <path d="M65.9451622,4.92194685 C66.3222124,3.98624016 66.8332743,3.16459252 67.4510914,2.45700394 L61.999764,2.45700394 L61.999764,5.04023031 L65.9020059,5.04023031 C65.9179056,5.00009843 65.9292625,4.95996654 65.9451622,4.92194685 Z" id="Path" stroke="#D2C5AA" stroke-width="0.5" fill="#E0DDDA"></path>
                    <path d="M68.330118,5.04023031 L74.4174336,5.04023031 L74.4174336,2.45700394 L70.8763422,2.45700394 C69.770177,3.05475787 68.8956932,3.94399606 68.330118,5.04023031 Z" id="Path" stroke="#D2C5AA" stroke-width="0.5" fill="#E0DDDA"></path>
                    <rect id="Rectangle" stroke="#D2C5AA" stroke-width="0.5" fill="#E0DDDA" x="20.7809145" y="27.1719114" width="16.6560767" height="3.41121063"></rect>
                    <path d="M23.969941,18.0619724 C24.7308555,17.4156378 25.1896755,16.5454094 25.4327139,15.6202638 C25.5167552,15.3034331 25.5848968,14.9570315 25.6303245,14.5958445 L20.7809145,14.5958445 L20.7809145,18.7505512 C21.9279646,18.7568878 23.240826,18.6829606 23.969941,18.0619724 Z" id="Path" stroke="#8CAD57" stroke-width="0.5" fill="#98BD67"></path>
                    <path d="M27.5405605,16.4123406 C27.1317109,17.6458681 26.4184956,19.1328602 25.1715044,19.8362244 C23.8336578,20.5902815 22.3118289,20.7719311 20.7809145,20.8162874 L20.7809145,24.7555492 L37.4369912,24.7555492 L37.4369912,20.3009094 C34.1116814,20.028435 31.440531,17.6437559 30.9839823,14.5958445 L27.9176106,14.5958445 C27.860826,15.2231693 27.7313569,15.8378209 27.5405605,16.4123406 Z" id="Path" stroke="#D2C5AA" stroke-width="0.5" fill="#E0DDDA"></path>
                    <path d="M32.4331268,24.7555492 L37.4369912,24.7555492 L37.4369912,20.3009094 C35.4063717,20.1340453 33.6210619,19.1793287 32.4331268,17.7662638 L32.4331268,24.7555492 Z" id="Path" stroke="#8CAD57" stroke-width="0.5" fill="#98BD67"></path>
                    <rect id="Rectangle" stroke="#D2C5AA" stroke-width="0.5" fill="#E0DDDA" x="20.7809145" y="32.429189" width="16.6560767" height="2.36566929"></rect>
                    <path d="M24.4855457,6.04563976 C25.3418584,5.01910827 25.3554867,3.53634055 24.64,2.45700394 L20.7809145,2.45700394 L20.7809145,6.8672874 C22.0120059,6.86939961 23.6451327,7.05104921 24.4855457,6.04563976 Z" id="Path" stroke="#D2C5AA" stroke-width="0.5" fill="#E0DDDA"></path>
                    <path d="M33.0123304,6.5103248 C32.0628909,7.68259843 30.4751917,8.03744882 29.4348968,9.08299016 C28.4036873,10.1200827 28.1084071,11.5415965 28.0652507,12.9124173 L30.9612684,12.9124173 C31.3428614,9.78635433 34.050354,7.31929921 37.4369912,7.04260039 L37.4369912,2.45700394 L33.8663717,2.45700394 C34.1661947,3.8721811 33.9140708,5.39508071 33.0123304,6.5103248 Z" id="Path" stroke="#D2C5AA" stroke-width="0.5" fill="#E0DDDA"></path>
                    <path d="M29.1055457,6.67930118 C30.1185841,6.07732283 31.5790855,5.49857874 31.6790265,4.20590945 C31.7199115,3.67574606 31.7062832,3.03997244 31.5495575,2.45700394 L27.1271681,2.45700394 C27.7041003,4.08340157 27.379292,5.97804921 26.2413274,7.34042126 C24.8943953,8.95414567 22.8024484,8.96470669 20.7831858,8.9668189 L20.7831858,12.9124173 L25.8120354,12.9124173 C25.8892625,10.4263524 26.7523894,8.0754685 29.1055457,6.67930118 Z" id="Path" stroke="#D2C5AA" stroke-width="0.5" fill="#E0DDDA"></path>
                    <path d="M43.2948968,30.0022657 C44.0467257,28.4096634 45.670767,27.4296004 47.4015634,26.899437 C50.1476696,26.0566673 53.0527729,26.0672283 55.9283481,26.1200335 L55.9283481,19.5193937 C53.5161357,19.6123307 50.2521534,19.2194606 48.4168732,20.8352972 C46.6565487,22.3856555 46.6542773,24.825252 44.5646018,26.1686142 C43.0246018,27.1592382 41.1257227,27.539435 39.2722714,27.4169272 L39.2722714,34.7948583 L42.7588496,34.7948583 C42.7225074,33.1853583 42.5862242,31.5061555 43.2948968,30.0022657 Z" id="Path" stroke="#D2C5AA" stroke-width="0.5" fill="#E3D4B7"></path>
                    <path d="M55.9283481,20.4888957 C53.9976696,20.3389291 51.9761357,20.6092913 50.82,21.7688917 C49.7229204,22.8714626 50.3679941,24.4471673 50.1749263,25.7947539 C50.149941,25.9785157 50.1113274,26.1559409 50.0658997,26.3291417 C51.9943068,26.0693406 53.9681416,26.084126 55.9283481,26.1200335 L55.9283481,20.4888957 Z" id="Path" stroke="#8CAD57" stroke-width="0.5" fill="#98BD67"></path>
                    <path d="M45.559469,27.683065 C45.6866667,27.4845177 45.9047198,27.3261024 46.229528,27.260624 C48.6167552,26.7684803 47.7627139,24.5654508 47.9330678,22.8989213 C48.0352802,21.9104094 48.4986431,20.997937 49.2186726,20.2945728 C48.9302065,20.4445394 48.6599115,20.6219646 48.4168732,20.8352972 C46.6565487,22.3856555 46.6542773,24.825252 44.5646018,26.1686142 C43.0246018,27.1592382 41.1257227,27.539435 39.2722714,27.4169272 L39.2722714,34.7948583 L42.7588496,34.7948583 C42.7225074,33.1832461 42.5862242,31.5061555 43.2948968,30.0001535 C43.7673451,28.9989685 44.5873156,28.240687 45.559469,27.683065 Z" id="Path" stroke="#8CAD57" stroke-width="0.5" fill="#98BD67"></path>
                    <path d="M48.8915929,28.6758012 C47.4901475,29.0264272 45.7048378,29.6326299 45.2551032,31.0752657 C44.8780531,32.2834469 44.9825369,33.5465453 45.0143363,34.7948583 L55.9260767,34.7948583 L55.9260767,28.2047795 C53.5615634,28.1435256 51.160708,28.1097303 48.8915929,28.6758012 Z" id="Path" stroke="#D2C5AA" stroke-width="0.5" fill="#E0DDDA"></path>
                    <path d="M39.2722714,20.2333189 L39.2722714,25.3089469 C41.2461062,25.475811 43.560649,24.9562087 44.4215044,23.215752 C45.4277286,21.1816988 46.1568437,19.3292953 48.5009145,18.3281102 C50.82,17.3374862 53.429823,17.5803898 55.9283481,17.428311 L55.9283481,14.5958445 L45.1619764,14.5958445 C44.730413,17.4684429 42.3318289,19.7538484 39.2722714,20.2333189 Z" id="Path" stroke="#D2C5AA" stroke-width="0.5" fill="#E0DDDA"></path>
                    <path d="M39.2722714,7.11019094 C42.390885,7.60022244 44.8235398,9.96377953 45.1846903,12.9124173 L55.9283481,12.9124173 L55.9283481,2.45700394 L39.2722714,2.45700394 L39.2722714,7.11019094 Z" id="Path" stroke="#D2C5AA" stroke-width="0.5" fill="#E0DDDA"></path>
                    <path d="M37.9525959,8.98371654 C40.7373156,8.98371654 42.9950737,11.083248 42.9950737,13.672811 C42.9950737,16.262374 40.7373156,18.3619055 37.9525959,18.3619055 C35.1678761,18.3619055 32.910118,16.262374 32.910118,13.672811 C32.910118,11.083248 35.1678761,8.98371654 37.9525959,8.98371654 Z" id="Path" stroke="#D2C5AA" stroke-width="0.5" fill="#E0DDDA"></path>
                    <rect id="Rectangle" stroke="#8CAD57" stroke-width="0.5" fill="#98BD67" x="3.89315634" y="3.52789173" width="4.63135693" height="8.3136378"></rect>
                    <path d="M38.2978466,11.0072087 C39.6902065,11.0072087 40.8190855,12.0569744 40.8190855,13.3517559 L40.8190855,13.9917539 C40.8190855,15.2865354 39.6902065,16.3363012 38.2978466,16.3363012 L37.6096165,16.3363012 C36.2172566,16.3363012 35.0883776,15.2865354 35.0883776,13.9917539 L35.0883776,13.3517559 C35.0883776,12.0569744 36.2172566,11.0072087 37.6096165,11.0072087 L38.2978466,11.0072087 Z" id="Path" stroke="#8CAD57" stroke-width="0.5" fill="#98BD67"></path>
                    <path d="M47.8626549,10.8741398 C48.4623009,10.7136122 48.8030088,9.77790551 49.1732448,9.06398031 C49.9818584,7.50517323 51.519587,8.72391535 52.489469,7.59811024 C53.0618584,7.06583465 52.9482891,4.93250787 52.1464897,4.61356496 C50.7723009,3.86795669 49.8546608,5.99917126 48.5940413,5.78583858 C47.3334218,5.68022835 46.4157817,3.86795669 45.1551622,3.54690157 C44.0103835,3.3335689 42.4045133,3.76023425 42.7474926,5.14584055 C43.0018879,6.08365945 44.230708,6.5103248 44.8666962,7.17566929 C45.7025664,8.04800984 45.7161947,9.36180118 46.5497935,10.2299173 C47.1040118,10.8086614 47.5242183,10.9649646 47.8626549,10.8741398 Z" id="Path" stroke="#55B7C0" stroke-width="0.5" fill="#61C3DB"></path>
                    <path d="M66.3244838,16.6827028 C64.9957227,17.438872 64.7072566,18.9469862 64.4074336,20.2396555 C64.0985251,21.5809055 63.3466962,22.679252 61.8543953,22.9918583 C60.5392625,23.2664449 59.06059,22.9052579 57.7590855,22.607437 L57.7590855,23.7015591 C59.330885,24.0437362 60.9935398,24.3373327 62.5676106,23.9254528 C64.5164602,23.4164114 65.320531,21.5787933 65.6476106,19.8911417 C65.8611209,18.7885709 66.3517404,17.6268583 67.6259882,17.3205886 C68.200649,17.1832953 68.829823,17.3332618 69.3953982,17.6205217 C68.9411209,17.7557028 68.5209145,18.0387382 68.3664602,18.4590669 C68.2551622,18.7632244 68.2438053,19.0694941 68.2528909,19.388437 C68.2687906,19.9333858 68.3028614,20.1086988 67.6169027,20.0685669 C67.3806785,20.0558937 67.1081121,20.2396555 67.0649558,20.4593248 C66.5402655,23.1629469 70.199469,23.8219547 71.8689381,22.0519272 C72.8183776,21.0465177 72.6820944,19.8066535 72.0620059,18.7421024 C71.9961357,18.3935886 71.7621829,18.0999921 71.4328319,17.8887717 C70.9876401,17.396628 70.4538643,16.984748 69.9200885,16.7122736 C68.7866667,16.1293051 67.4442773,16.0448169 66.3244838,16.6827028 Z" id="Path" stroke="#55B7C0" stroke-width="0.5" fill="#61C3DB"></path>
                </g>
                <path d="M86.9998838,3.91999999 L87.0001162,3.91999999 C96.9751967,3.91999999 105.08,12.15282 105.08,22.2678152 C105.08,26.3720059 103.699066,30.4050704 101.188588,33.6302705 L87.0002354,51.7517952 L86.1498558,50.6658666 L72.8151469,33.6375323 C70.3013762,30.4099138 68.92,26.3759692 68.92,22.2697037 C68.92,12.1543981 77.0269686,3.91999999 86.9998838,3.91999999 Z M87,27.32 C89.8560806,27.32 92.1831579,24.9787717 92.1831579,22.1 C92.1831579,19.2212626 89.8560229,16.88 87,16.88 C84.1444123,16.88 81.8168421,19.2208232 81.8168421,22.1 C81.8168421,24.9780678 84.1451024,27.32 87,27.32 Z" id="Fill-1" stroke="#FFFFFF" stroke-width="2.16000003" fill="#D40511"></path>
                <g id="Group-8" transform="translate(9.000000, 52.000000)">
                    <g id="Group-4">
                        <g id="Group-2">
                            <rect id="Rectangle" fill="#FFFFFF" fill-rule="nonzero" x="0.66305001" y="2.74445848" width="26.5220004" height="27.178602" rx="2.67435341"></rect>
                            <g id="Group-14"></g>
                        </g>
                        <text id="17" font-family="Helvetica" font-size="13.4673417" font-weight="normal" letter-spacing="-1.09331639" fill="#323232">
                            <tspan x="6.8137265" y="24.2050632">1</tspan>
                            <tspan x="13.2103038" y="24.2050632">7</tspan>
                        </text>
                        <path d="M4.30030375,2.33924053 L23.8819731,2.33924053 C25.9493636,2.33924053 27.6253148,4.01519172 27.6253148,6.08258228 L27.6253148,9.38452818 L0.556961992,9.38452818 L0.556961992,6.08258228 C0.556961992,4.01519172 2.23291318,2.33924053 4.30030375,2.33924053 Z" id="Rectangle" fill="#FFCC00" fill-rule="nonzero" style="mix-blend-mode: multiply;"></path>
                        <rect id="Rectangle" fill="#FFFFFF" fill-rule="nonzero" x="3.34177195" y="0.556961992" width="1.67088598" height="4.45569594"></rect>
                        <rect id="Rectangle" fill="#FFFFFF" fill-rule="nonzero" x="12.8101258" y="0.556961992" width="2.22784797" height="4.45569594"></rect>
                        <rect id="Rectangle" fill="#FFFFFF" fill-rule="nonzero" x="22.2784797" y="0.556961992" width="2.22784797" height="4.45569594"></rect>
                    </g>
                    <path d="M25.0493663,2.43858944 L25.0493663,1.28304659 C25.0493663,0.698211744 24.5784947,0.223413269 24.0019595,0.223413269 L23.1348094,0.223413269 C22.5567226,0.223413269 22.0874026,0.699781392 22.0874026,1.28304659 L22.0874026,2.41500447 L15.3350339,2.41657814 L15.3350339,1.28462026 C15.3350339,0.699785417 14.8641623,0.224986942 14.287627,0.224986942 L13.420477,0.224986942 C12.8423902,0.224986942 12.3730701,0.701355065 12.3730701,1.28462026 L12.3730701,2.41657814 L5.62070145,2.41657814 L5.62070145,1.28462026 C5.62070145,0.699785417 5.14982986,0.224986942 4.57329461,0.224986942 L3.70614455,0.224986942 C3.12805777,0.224986942 2.65873771,0.701355065 2.65873771,1.28462026 L2.65873771,2.46060879 C1.20260032,2.69957767 0.110159129,3.96517701 0.110159129,5.49803916 L0.110159129,27.2835496 C0.110159129,28.9830762 1.47614824,30.3649704 3.15602522,30.3649704 L24.6901656,30.3649704 C26.3700824,30.3649704 27.7360317,28.9830359 27.7360317,27.2835496 L27.7360317,5.49803916 C27.7375832,3.92114637 26.5596484,2.61942499 25.0491276,2.43859346 L25.0493663,2.43858944 Z M22.8830626,1.28461624 C22.8830626,1.14312251 22.9965078,1.02992672 23.1348134,1.02992672 L24.0019634,1.02992672 C24.1418246,1.02992672 24.2537143,1.14469618 24.2537143,1.28461624 L24.2537143,4.35347982 C24.2537143,4.49497355 24.1402691,4.60816934 24.0019634,4.60816934 L23.1348134,4.60816934 C22.9949523,4.60816934 22.8830626,4.49339988 22.8830626,4.35347982 L22.8830626,1.28461624 Z M13.1688495,1.28461624 C13.1688495,1.14312251 13.2822947,1.02992672 13.4206003,1.02992672 L14.2877504,1.02992672 C14.4276115,1.02992672 14.5395012,1.14469618 14.5395012,1.28461624 L14.5395012,4.35347982 C14.5395012,4.49497355 14.426056,4.60816934 14.2877504,4.60816934 L13.4206003,4.60816934 C13.2807392,4.60816934 13.1688495,4.49339988 13.1688495,4.35347982 L13.1688495,1.28461624 Z M3.45463642,1.28461624 C3.45463642,1.14312251 3.56808163,1.02992672 3.70638723,1.02992672 L4.57353729,1.02992672 C4.71339841,1.02992672 4.8252881,1.14469618 4.8252881,1.28461624 L4.8252881,4.35347982 C4.8252881,4.49497355 4.71184289,4.60816934 4.57353729,4.60816934 L3.70638723,4.60816934 C3.56652611,4.60816934 3.45463642,4.49339988 3.45463642,4.35347982 L3.45463642,1.28461624 Z M2.65897641,3.27810977 L2.65897641,4.35191017 C2.65897641,4.93674502 3.129848,5.41154349 3.70638325,5.41154349 L4.57353331,5.41154349 C5.15162009,5.41154349 5.62094015,4.93517537 5.62094015,4.35191017 L5.62094015,3.21995229 L12.3733088,3.21995229 L12.3733088,4.35191017 C12.3733088,4.93674502 12.8441804,5.41154349 13.4207157,5.41154349 L14.2878657,5.41154349 C14.8659525,5.41154349 15.3352726,4.93517537 15.3352726,4.35191017 L15.3352726,3.21995229 L22.0876413,3.21995229 L22.0876413,4.35191017 C22.0876413,4.93674502 22.5585129,5.41154349 23.1350481,5.41154349 L24.0021982,5.41154349 C24.580285,5.41154349 25.049605,4.93517537 25.049605,4.35191017 L25.049605,3.25138551 C26.1203247,3.42589417 26.9424006,4.36446736 26.9424006,5.49642524 L26.9424006,9.41269765 L0.906415885,9.41427132 L0.906415885,5.49799891 C0.906415885,4.41007168 1.64924407,3.50607502 2.65933446,3.2781138 L2.65897641,3.27810977 Z M24.6904043,29.5600588 L3.15626392,29.5600588 C1.91614822,29.5600588 0.906057838,28.5397069 0.906057838,27.2835858 L0.906057838,10.2194969 L26.940453,10.2194969 L26.9404512,27.2835858 C26.9420068,28.5381775 25.9318726,29.5600588 24.6902452,29.5600588 L24.6904043,29.5600588 Z" id="Fill-1" fill="#000000"></path>
                </g>
            </g>
        </g>
    </g>
</svg>