<svg id="Layer_1" xmlns="http://www.w3.org/2000/svg" viewBox="0 0 39 39"><style>.st0{fill:#fff}</style><path class="st0" d="M11.8 15.7c.8.7 2.2 1.7 5 4 .6.5 1.9 1.7 2.7 1.7.9 0 2.1-1.2 2.7-1.7 2.8-2.2 4.2-3.3 5-4v-1.5H11.8v1.5z"/><path class="st0" d="M19.5 0C8.7 0 0 8.7 0 19.5S8.7 39 19.5 39 39 30.3 39 19.5 30.3 0 19.5 0zM29 24.8c0 1-.8 1.8-1.8 1.8H11.8c-1 0-1.8-.8-1.8-1.8V14.2c0-1 .8-1.8 1.8-1.8h15.4c1 0 1.8.8 1.8 1.8v10.6z" fill="#fff"/><path class="st0" d="M19.5 23.1c-1.6 0-3-1.4-3.8-2-1.8-1.4-3-2.4-3.9-3.1v6.9h15.4V18c-.9.7-2.1 1.6-3.9 3.1-.8.6-2.2 2-3.8 2z" fill="#fff"/></svg>