<svg id="Layer_1" xmlns="http://www.w3.org/2000/svg" viewBox="0 0 39 39"><style>.st0{fill:#fff}</style><path class="st0" d="M26.9 13.9c-.3-.8-1-1.5-1.8-1.8-1.2-.5-4.2-.4-5.6-.4-1.4 0-4.3-.1-5.6.4-.8.3-1.5 1-1.8 1.8-.5 1.2-.4 4.2-.4 5.6s-.1 4.3.4 5.6c.3.8 1 1.5 1.8 1.8 1.2.5 4.2.4 5.6.4 1.4 0 4.3.1 5.6-.4.8-.3 1.5-1 1.8-1.8.5-1.2.4-4.2.4-5.6s.1-4.3-.4-5.6zm-7.4 10.5c-2.7 0-4.9-2.2-4.9-4.9s2.2-4.9 4.9-4.9 4.9 2.2 4.9 4.9-2.2 4.9-4.9 4.9zm5.1-8.8c-.6 0-1.1-.5-1.1-1.1 0-.6.5-1.1 1.1-1.1s1.1.5 1.1 1.1c0 .6-.5 1.1-1.1 1.1z" fill="#fff"/><circle class="st0" cx="19.5" cy="19.5" r="3.2" fill="#fff"/><path class="st0" d="M19.5 0C8.7 0 0 8.7 0 19.5S8.7 39 19.5 39 39 30.3 39 19.5 30.3 0 19.5 0zm9.4 23.4c-.1 1.5-.4 2.9-1.5 4s-2.5 1.5-4 1.5c-1.6.1-6.3.1-7.8 0s-2.9-.4-4-1.5-1.5-2.5-1.5-4c-.1-1.6-.1-6.3 0-7.8s.4-2.9 1.5-4 2.5-1.5 4-1.5c1.6-.1 6.3-.1 7.8 0s2.9.4 4 1.5 1.5 2.5 1.5 4c.1 1.6.1 6.2 0 7.8z" fill="#fff"/></svg>