<svg id="Layer_2" data-name="Layer 2" xmlns="http://www.w3.org/2000/svg" viewBox="0 0 50.27 62.15"><defs><style>.cls-1{fill:#e00600;}</style></defs><title>Artboard 1</title><path class="cls-1" d="M50.27,24.17V60.86A1.29,1.29,0,0,1,49,62.15H1.29A1.29,1.29,0,0,1,0,60.86V24.17a1.29,1.29,0,0,1,1.29-1.29H12V13.19h0a13.25,13.25,0,0,1,26.5,0h0v0s0,0,0,0h0v3.34H34V13.25h0a8.75,8.75,0,0,0-17.5,0h0v9.63H49A1.29,1.29,0,0,1,50.27,24.17ZM27.56,38.9a2.5,2.5,0,0,0-2.5-2.5h0a2.5,2.5,0,0,0-2.5,2.5v7.57a2.5,2.5,0,0,0,2.5,2.5h0a2.5,2.5,0,0,0,2.5-2.5Z"/></svg>