<svg xmlns="http://www.w3.org/2000/svg" xmlns:xlink="http://www.w3.org/1999/xlink" width="65" height="65" viewBox="0 0 65 65">
    <defs>
        <path id="a" d="M.11 0h5.891v4.346H.111z"/>
        <path id="c" d="M.093.282h2.619v5.774H.093z"/>
    </defs>
    <g fill="none" fill-rule="evenodd">
        <g fill="#E9E9E9" fill-rule="nonzero">
            <path d="M31.816.468a.468.468 0 1 1 .937 0v5.01a.468.468 0 1 1-.937 0V.468zm15.53 16.298a.458.458 0 0 1 .134.362.568.568 0 0 1-.161.353.567.567 0 0 1-.348.175.453.453 0 0 1-.367-.12.458.458 0 0 1-.134-.362.568.568 0 0 1 .161-.353.567.567 0 0 1 .348-.176.453.453 0 0 1 .367.121zm-.216.34a.117.117 0 0 0-.028-.088c-.021-.022-.054-.027-.087-.025a.213.213 0 0 0-.132.069.21.21 0 0 0-.063.134.117.117 0 0 0 .028.088c.022.022.054.027.087.024a.213.213 0 0 0 .132-.068.21.21 0 0 0 .063-.134zm6.061 9.209a.457.457 0 0 1-.063.38.575.575 0 0 1-.317.228l-.025.008h-.003a.565.565 0 0 1-.358-.03.456.456 0 0 1-.258-.288l-.008-.024v-.003a.467.467 0 0 1 .071-.35.566.566 0 0 1 .299-.223l.016-.005a.554.554 0 0 1 .389.025c.123.054.22.156.257.287v-.005zm-.356.186c.02-.03.028-.063.02-.09-.009-.028-.033-.05-.063-.066a.225.225 0 0 0-.148-.008.228.228 0 0 0-.124.085c-.019.03-.027.063-.019.09.008.027.033.05.063.063a.232.232 0 0 0 .274-.077l-.003.003zm.647 11.006a.457.457 0 0 1-.247.298.576.576 0 0 1-.712-.178c-.08-.11-.112-.244-.08-.378a.457.457 0 0 1 .247-.299.555.555 0 0 1 .362-.043h.003l.021.005a.56.56 0 0 1 .326.217.466.466 0 0 1 .085.353v.003l-.005.022zm-.4-.017c.03-.016.055-.038.06-.066.008-.03-.003-.06-.022-.087a.215.215 0 0 0-.126-.08.23.23 0 0 0-.15.011c-.03.017-.055.039-.06.069-.009.03.002.06.021.087a.215.215 0 0 0 .126.08.23.23 0 0 0 .15-.011v-.003zm-4.944 9.856a.458.458 0 0 1-.362.134.568.568 0 0 1-.353-.162.567.567 0 0 1-.175-.348.453.453 0 0 1 .12-.367.458.458 0 0 1 .362-.134.568.568 0 0 1 .353.162.567.567 0 0 1 .175.348.453.453 0 0 1-.12.367zm-.34-.217a.117.117 0 0 0 .088-.027c.022-.022.027-.055.024-.088a.213.213 0 0 0-.068-.131.21.21 0 0 0-.134-.063.117.117 0 0 0-.088.027c-.022.022-.027.055-.025.088a.213.213 0 0 0 .069.131.21.21 0 0 0 .134.063zm-9.209 6.062a.457.457 0 0 1-.38-.063.575.575 0 0 1-.228-.318l-.008-.024v-.003a.565.565 0 0 1 .03-.359.456.456 0 0 1 .288-.258l.024-.008h.003a.467.467 0 0 1 .35.071c.1.066.181.17.222.299l.006.016a.554.554 0 0 1-.025.39.456.456 0 0 1-.287.257h.005zm-.186-.356c.03.019.063.027.09.019.028-.008.05-.033.066-.063a.225.225 0 0 0 .008-.148.228.228 0 0 0-.085-.123c-.03-.02-.063-.028-.09-.02-.027.009-.05.034-.063.064a.232.232 0 0 0 .077.274l-.003-.003zm-11.006.646a.457.457 0 0 1-.298-.246.576.576 0 0 1 .178-.712c.11-.08.244-.113.378-.08a.457.457 0 0 1 .298.247.555.555 0 0 1 .044.361v.003l-.005.022a.56.56 0 0 1-.217.326.466.466 0 0 1-.353.085h-.003l-.022-.006zm.017-.4c.016.03.038.055.066.06.03.009.06-.002.087-.021a.215.215 0 0 0 .08-.126.23.23 0 0 0-.011-.15c-.017-.031-.039-.056-.069-.061-.03-.008-.06.003-.087.022a.215.215 0 0 0-.08.126.23.23 0 0 0 .011.15h.003zm-9.856-4.944a.458.458 0 0 1-.134-.361.568.568 0 0 1 .162-.354.567.567 0 0 1 .348-.175.453.453 0 0 1 .367.12.458.458 0 0 1 .134.362.568.568 0 0 1-.162.353.567.567 0 0 1-.348.176.453.453 0 0 1-.367-.12zm.217-.34a.117.117 0 0 0 .027.088c.022.022.055.028.088.025a.213.213 0 0 0 .131-.069.21.21 0 0 0 .063-.134.117.117 0 0 0-.027-.087c-.022-.022-.055-.028-.088-.025a.213.213 0 0 0-.131.068.21.21 0 0 0-.063.135zm-6.062-9.208a.457.457 0 0 1 .063-.381.575.575 0 0 1 .318-.228l.024-.008h.003a.565.565 0 0 1 .359.03c.123.055.22.156.257.288l.009.025v.002a.467.467 0 0 1-.072.351.566.566 0 0 1-.298.222l-.017.005a.554.554 0 0 1-.388-.024.456.456 0 0 1-.258-.288v.006zm.356-.187c-.02.03-.027.063-.02.09.01.028.034.05.064.066a.228.228 0 0 0 .271-.077c.02-.03.027-.062.02-.09-.009-.027-.034-.049-.064-.063a.232.232 0 0 0-.274.077l.003-.003zm-.646-11.005a.457.457 0 0 1 .246-.299.576.576 0 0 1 .712.178c.08.11.113.244.08.378a.457.457 0 0 1-.247.299.555.555 0 0 1-.361.044h-.003l-.022-.006a.56.56 0 0 1-.326-.216.466.466 0 0 1-.085-.354v-.002l.006-.022zm.4.016c-.03.017-.055.039-.06.066-.009.03.002.06.021.088a.215.215 0 0 0 .126.079.23.23 0 0 0 .15-.011c.031-.016.056-.038.061-.068.008-.03-.003-.06-.022-.088a.215.215 0 0 0-.126-.08.23.23 0 0 0-.15.011v.003zm4.944-9.855a.458.458 0 0 1 .361-.135.568.568 0 0 1 .354.162.567.567 0 0 1 .175.348.453.453 0 0 1-.12.367.458.458 0 0 1-.362.134.568.568 0 0 1-.354-.162.567.567 0 0 1-.175-.347.453.453 0 0 1 .12-.367zm.34.216a.117.117 0 0 0-.088.027c-.022.022-.028.055-.025.088a.213.213 0 0 0 .069.131.21.21 0 0 0 .134.064.117.117 0 0 0 .087-.028c.022-.022.028-.055.025-.088a.213.213 0 0 0-.068-.131.21.21 0 0 0-.135-.063zm9.208-6.062a.457.457 0 0 1 .381.063c.104.069.186.181.227.318l.009.025v.002a.565.565 0 0 1-.03.36.456.456 0 0 1-.288.257l-.025.008h-.002a.467.467 0 0 1-.351-.071.566.566 0 0 1-.222-.299l-.005-.016a.554.554 0 0 1 .024-.39.456.456 0 0 1 .288-.257h-.006zm.187.356c-.03-.019-.063-.027-.09-.019-.028.008-.05.033-.067.063a.225.225 0 0 0-.008.148.228.228 0 0 0 .085.123c.03.02.063.028.09.02.028-.009.05-.033.064-.063a.232.232 0 0 0-.077-.274l.003.002zm11.005-.646a.457.457 0 0 1 .299.246.576.576 0 0 1-.178.713.454.454 0 0 1-.378.08.457.457 0 0 1-.299-.247.555.555 0 0 1-.044-.362v-.003l.006-.022a.56.56 0 0 1 .216-.326.466.466 0 0 1 .353-.084h.003l.022.005zm-.016.4c-.017-.03-.039-.055-.066-.06-.03-.009-.06.002-.088.022a.215.215 0 0 0-.08.126.23.23 0 0 0 .012.15c.016.03.038.055.068.06.03.009.06-.002.088-.021a.215.215 0 0 0 .08-.126.23.23 0 0 0-.012-.151h-.002zm11.159 3.59a.59.59 0 0 1 .172.472.762.762 0 0 1-.216.471.753.753 0 0 1-.463.233.588.588 0 0 1-.477-.156.59.59 0 0 1-.172-.471.763.763 0 0 1 .216-.471.753.753 0 0 1 .463-.233.588.588 0 0 1 .477.156zm-.176.447a.243.243 0 0 0-.065-.194.246.246 0 0 0-.197-.06.396.396 0 0 0-.247.128.413.413 0 0 0-.118.252.243.243 0 0 0 .066.195c.05.046.12.068.197.06a.396.396 0 0 0 .247-.129.413.413 0 0 0 .117-.252zm6.528 9.935c.05.17.013.348-.085.493a.772.772 0 0 1-.422.302.755.755 0 0 1-.518-.03.587.587 0 0 1-.334-.373.585.585 0 0 1 .085-.493.772.772 0 0 1 .422-.301.755.755 0 0 1 .518.03c.158.07.284.2.334.372zm-.375.299c.04-.063.057-.134.04-.203a.241.241 0 0 0-.142-.15.419.419 0 0 0-.28-.014.415.415 0 0 0-.227.159c-.04.063-.057.134-.04.202.019.066.07.12.142.15.08.037.178.042.28.015a.415.415 0 0 0 .227-.16zm.684 11.866a.584.584 0 0 1-.32.383.761.761 0 0 1-.515.05.759.759 0 0 1-.433-.285.593.593 0 0 1-.104-.49.584.584 0 0 1 .32-.384.761.761 0 0 1 .515-.05c.184.047.337.151.433.285.104.143.145.318.104.49zm-.474.07a.237.237 0 0 0 .135-.155.243.243 0 0 0-.047-.2.4.4 0 0 0-.233-.15.417.417 0 0 0-.28.024.237.237 0 0 0-.133.156.243.243 0 0 0 .046.2.4.4 0 0 0 .233.15c.101.025.2.014.28-.024zm-5.34 10.62a.59.59 0 0 1-.472.173.762.762 0 0 1-.471-.216.753.753 0 0 1-.233-.463.588.588 0 0 1 .156-.477.59.59 0 0 1 .471-.172.762.762 0 0 1 .471.216.753.753 0 0 1 .233.463.588.588 0 0 1-.156.477zm-.447-.175a.243.243 0 0 0 .194-.065.246.246 0 0 0 .06-.197.396.396 0 0 0-.128-.247.413.413 0 0 0-.252-.118.243.243 0 0 0-.195.066.246.246 0 0 0-.06.197.396.396 0 0 0 .129.247.413.413 0 0 0 .252.117zm-9.935 6.528a.585.585 0 0 1-.493-.085.772.772 0 0 1-.301-.422.755.755 0 0 1 .03-.518.587.587 0 0 1 .372-.334.585.585 0 0 1 .493.085.772.772 0 0 1 .302.422.755.755 0 0 1-.03.518.587.587 0 0 1-.373.334zm-.299-.375a.259.259 0 0 0 .203.04.241.241 0 0 0 .15-.142.419.419 0 0 0 .014-.28.415.415 0 0 0-.158-.227.259.259 0 0 0-.203-.04.241.241 0 0 0-.15.142.419.419 0 0 0-.015.28c.03.098.088.18.16.227zm-11.866.684a.584.584 0 0 1-.383-.32.761.761 0 0 1-.05-.515.759.759 0 0 1 .286-.433.593.593 0 0 1 .49-.104.584.584 0 0 1 .383.32.761.761 0 0 1 .05.515.759.759 0 0 1-.285.433c-.143.104-.318.145-.49.104zm-.07-.474a.237.237 0 0 0 .155.135.243.243 0 0 0 .2-.047.4.4 0 0 0 .151-.233.417.417 0 0 0-.025-.28.237.237 0 0 0-.156-.133.243.243 0 0 0-.2.046.4.4 0 0 0-.15.233.417.417 0 0 0 .024.28zm-10.62-5.34a.59.59 0 0 1-.173-.472.763.763 0 0 1 .216-.471.753.753 0 0 1 .463-.233.588.588 0 0 1 .477.156.59.59 0 0 1 .172.471.763.763 0 0 1-.216.471.753.753 0 0 1-.463.233.588.588 0 0 1-.477-.156zm.175-.447a.243.243 0 0 0 .065.194c.05.047.12.069.198.06a.396.396 0 0 0 .246-.128.413.413 0 0 0 .118-.252.243.243 0 0 0-.066-.195.246.246 0 0 0-.197-.06.396.396 0 0 0-.247.129.413.413 0 0 0-.117.252zm-6.528-9.935a.585.585 0 0 1 .085-.493.772.772 0 0 1 .422-.301.755.755 0 0 1 .518.03c.159.07.285.2.334.372.05.17.014.348-.085.493a.772.772 0 0 1-.422.302.755.755 0 0 1-.517-.03.587.587 0 0 1-.335-.373zm.376-.299a.259.259 0 0 0-.041.203c.019.066.07.12.142.15.08.036.178.042.28.014a.415.415 0 0 0 .227-.159c.04-.063.057-.134.04-.202a.241.241 0 0 0-.142-.15.419.419 0 0 0-.279-.015.415.415 0 0 0-.227.16zM9.598 26.95a.584.584 0 0 1 .32-.383.761.761 0 0 1 .515-.05c.184.047.337.151.433.285.104.143.145.318.104.49a.584.584 0 0 1-.32.384.761.761 0 0 1-.515.05.759.759 0 0 1-.433-.285c-.104-.143-.145-.318-.104-.49zm.474-.07a.237.237 0 0 0-.134.155.243.243 0 0 0 .046.2.4.4 0 0 0 .233.15c.101.026.2.015.28-.024a.237.237 0 0 0 .134-.156.243.243 0 0 0-.047-.2.4.4 0 0 0-.233-.15.417.417 0 0 0-.28.024zm5.341-10.62a.59.59 0 0 1 .471-.173.763.763 0 0 1 .471.216.753.753 0 0 1 .233.463.588.588 0 0 1-.156.477.59.59 0 0 1-.471.172.762.762 0 0 1-.471-.216.753.753 0 0 1-.233-.463.588.588 0 0 1 .156-.477zm.446.175a.243.243 0 0 0-.194.065.246.246 0 0 0-.06.198.396.396 0 0 0 .128.246.413.413 0 0 0 .252.118.243.243 0 0 0 .195-.066.246.246 0 0 0 .06-.197.396.396 0 0 0-.129-.247.413.413 0 0 0-.252-.117zm9.935-6.528a.585.585 0 0 1 .493.085.772.772 0 0 1 .302.422.755.755 0 0 1-.03.518.587.587 0 0 1-.373.334.585.585 0 0 1-.493-.085.772.772 0 0 1-.301-.422.755.755 0 0 1 .03-.518.587.587 0 0 1 .372-.334zm.299.376c-.063-.042-.134-.058-.203-.042a.241.241 0 0 0-.15.143.419.419 0 0 0-.014.28c.03.098.087.18.159.227.063.04.134.057.202.04a.241.241 0 0 0 .151-.142.419.419 0 0 0 .014-.28.415.415 0 0 0-.16-.226zm11.866-.685a.584.584 0 0 1 .383.32.761.761 0 0 1 .05.515.759.759 0 0 1-.285.433c-.143.104-.318.145-.49.104a.584.584 0 0 1-.384-.32.761.761 0 0 1-.05-.515.759.759 0 0 1 .285-.433.593.593 0 0 1 .49-.104zm.07.474a.237.237 0 0 0-.155-.135.243.243 0 0 0-.2.047.4.4 0 0 0-.15.233.417.417 0 0 0 .024.28.237.237 0 0 0 .156.133.243.243 0 0 0 .2-.046.4.4 0 0 0 .15-.233.417.417 0 0 0-.024-.28zm14.067 1.09a.467.467 0 0 1 .673.646l-3.147 3.268a.467.467 0 0 1-.674-.646l3.148-3.268zm8.014 12.674a.465.465 0 0 1 .258.892l-4.358 1.258a.465.465 0 0 1-.257-.893l4.357-1.257zm.6 14.982a.47.47 0 0 1 .343.565.47.47 0 0 1-.565.342l-4.401-1.093a.47.47 0 0 1-.343-.564.47.47 0 0 1 .565-.343l4.401 1.093zm-6.968 13.277a.467.467 0 0 1-.646.674l-3.268-3.147a.467.467 0 0 1 .646-.674l3.268 3.147zM41.068 60.11a.465.465 0 0 1-.893.258l-1.257-4.358a.465.465 0 0 1 .893-.258l1.257 4.358zm-14.983.6a.47.47 0 0 1-.564.342.47.47 0 0 1-.342-.564l1.093-4.402a.47.47 0 0 1 .564-.342.47.47 0 0 1 .342.564l-1.093 4.402zM12.81 53.742a.467.467 0 0 1-.674-.647l3.147-3.268a.467.467 0 0 1 .674.647l-3.147 3.268zM4.794 41.068a.465.465 0 0 1-.258-.893l4.358-1.257a.465.465 0 0 1 .258.893l-4.358 1.257zm-.6-14.983a.47.47 0 0 1-.342-.564.47.47 0 0 1 .564-.343l4.402 1.093a.47.47 0 0 1 .342.565.47.47 0 0 1-.564.342l-4.402-1.093zm6.968-13.277a.467.467 0 0 1 .647-.674l3.268 3.148a.467.467 0 0 1-.647.673l-3.268-3.147zm12.674-8.015a.465.465 0 0 1 .893-.257l1.257 4.358a.465.465 0 0 1-.893.257l-1.257-4.358zm14.983-.6a.47.47 0 0 1 .564-.342.47.47 0 0 1 .342.564l-1.092 4.402a.47.47 0 0 1-.565.342.47.47 0 0 1-.342-.564l1.093-4.402zm5.418 7.506a.466.466 0 0 1 .23.34.595.595 0 0 1-.077.407.607.607 0 0 1-.318.272.482.482 0 0 1-.41-.03.466.466 0 0 1-.23-.34.594.594 0 0 1 .052-.365v-.002l.013-.025.011-.02a.62.62 0 0 1 .318-.27.482.482 0 0 1 .41.03v.003zm-.113.4a.14.14 0 0 0-.063-.1.14.14 0 0 0-.115-.005.267.267 0 0 0-.126.104l-.008.014a.257.257 0 0 0-.033.175.14.14 0 0 0 .063.1.14.14 0 0 0 .115.005.264.264 0 0 0 .135-.118.257.257 0 0 0 .032-.176zm8.91 8.272c.075.128.08.274.03.41a.62.62 0 0 1-.27.318.598.598 0 0 1-.408.077.482.482 0 0 1-.34-.23.481.481 0 0 1-.03-.411.62.62 0 0 1 .271-.318l.041-.024h.003a.591.591 0 0 1 .364-.052.477.477 0 0 1 .34.232v-.002zm-.298.29a.127.127 0 0 0-.005-.118.13.13 0 0 0-.099-.06.273.273 0 0 0-.175.033.258.258 0 0 0-.115.134c-.017.041-.017.082.005.115a.14.14 0 0 0 .099.063.273.273 0 0 0 .293-.167h-.003zm3.583 11.62a.48.48 0 0 1-.18.369.628.628 0 0 1-.789 0 .48.48 0 0 1-.181-.37.48.48 0 0 1 .18-.37.628.628 0 0 1 .789 0 .48.48 0 0 1 .181.37zm-.405.103a.137.137 0 0 0 .054-.104c0-.038-.019-.074-.054-.104a.255.255 0 0 0-.167-.055.26.26 0 0 0-.168.055.137.137 0 0 0-.054.104c0 .038.019.074.054.104a.255.255 0 0 0 .168.055.26.26 0 0 0 .167-.055zm-2.71 11.852a.466.466 0 0 1-.339.23.595.595 0 0 1-.408-.076.607.607 0 0 1-.271-.318.482.482 0 0 1 .03-.411.466.466 0 0 1 .34-.23.594.594 0 0 1 .364.052h.002l.025.014.02.01a.62.62 0 0 1 .27.318.482.482 0 0 1-.03.411h-.002zm-.4-.112a.14.14 0 0 0 .1-.063.14.14 0 0 0 .005-.115.267.267 0 0 0-.104-.126l-.014-.008a.257.257 0 0 0-.175-.033.14.14 0 0 0-.099.063.14.14 0 0 0-.005.115c.019.052.06.101.117.134.058.033.12.044.176.033zm-8.272 8.91a.481.481 0 0 1-.41.03.62.62 0 0 1-.318-.27.598.598 0 0 1-.077-.409.482.482 0 0 1 .23-.34.481.481 0 0 1 .411-.03.62.62 0 0 1 .318.271l.025.041v.003c.057.12.073.247.052.365a.477.477 0 0 1-.233.34h.002zm-.29-.298a.127.127 0 0 0 .118-.006.13.13 0 0 0 .06-.098.273.273 0 0 0-.033-.176.258.258 0 0 0-.134-.115c-.041-.016-.082-.016-.115.006a.14.14 0 0 0-.063.098.273.273 0 0 0 .167.293v-.002zm-11.619 3.582a.48.48 0 0 1-.37-.18.628.628 0 0 1 0-.789.48.48 0 0 1 .37-.181.48.48 0 0 1 .37.18.628.628 0 0 1 0 .789.48.48 0 0 1-.37.181zm-.104-.405a.137.137 0 0 0 .104.055c.038 0 .074-.02.104-.055a.255.255 0 0 0 .055-.167.26.26 0 0 0-.055-.167.137.137 0 0 0-.104-.055c-.038 0-.074.02-.104.055a.255.255 0 0 0-.055.167.26.26 0 0 0 .055.167zm-11.852-2.709a.466.466 0 0 1-.23-.34.595.595 0 0 1 .077-.408.607.607 0 0 1 .317-.27.482.482 0 0 1 .411.03.466.466 0 0 1 .23.339.594.594 0 0 1-.052.364v.003l-.013.025c-.003.005-.009.013-.011.019a.62.62 0 0 1-.318.27.482.482 0 0 1-.41-.03v-.002zm.112-.4a.14.14 0 0 0 .063.099.14.14 0 0 0 .115.005.267.267 0 0 0 .126-.104l.009-.014a.257.257 0 0 0 .033-.175.14.14 0 0 0-.063-.099.14.14 0 0 0-.116-.005.264.264 0 0 0-.134.118.257.257 0 0 0-.033.175zm-8.91-8.272a.481.481 0 0 1-.03-.411.62.62 0 0 1 .271-.318.598.598 0 0 1 .408-.076.482.482 0 0 1 .34.23c.074.128.08.274.03.41a.62.62 0 0 1-.271.318l-.041.025h-.003a.591.591 0 0 1-.364.052.477.477 0 0 1-.34-.233v.003zm.299-.29a.127.127 0 0 0 .005.117.13.13 0 0 0 .099.06c.055.009.118 0 .175-.032a.258.258 0 0 0 .115-.135c.017-.04.017-.082-.005-.115a.14.14 0 0 0-.099-.063.273.273 0 0 0-.293.168h.003zm-3.583-11.62a.48.48 0 0 1 .18-.37.628.628 0 0 1 .789 0 .48.48 0 0 1 .181.37.48.48 0 0 1-.18.37.628.628 0 0 1-.789 0 .48.48 0 0 1-.181-.37zm.405-.104a.137.137 0 0 0-.054.104c0 .039.019.074.054.105a.255.255 0 0 0 .167.054.26.26 0 0 0 .167-.054.137.137 0 0 0 .055-.105c0-.038-.019-.074-.055-.104a.255.255 0 0 0-.167-.054.26.26 0 0 0-.167.054zm2.71-11.852a.466.466 0 0 1 .339-.23.595.595 0 0 1 .408.077.607.607 0 0 1 .271.318.482.482 0 0 1-.03.41.466.466 0 0 1-.34.23.594.594 0 0 1-.364-.051h-.003l-.024-.014-.02-.011a.62.62 0 0 1-.27-.318.482.482 0 0 1 .03-.41h.002zm.4.113a.14.14 0 0 0-.1.063.14.14 0 0 0-.005.115.267.267 0 0 0 .104.126l.014.008c.057.033.12.044.175.033a.14.14 0 0 0 .099-.063.14.14 0 0 0 .005-.115.264.264 0 0 0-.118-.134c-.057-.033-.12-.044-.175-.033zm8.271-8.91a.481.481 0 0 1 .411-.03.62.62 0 0 1 .318.27c.077.132.101.28.077.409a.482.482 0 0 1-.23.34.481.481 0 0 1-.411.03.62.62 0 0 1-.318-.272l-.025-.04v-.004a.591.591 0 0 1-.052-.364.477.477 0 0 1 .233-.34h-.003zm.29.298a.127.127 0 0 0-.117.005.13.13 0 0 0-.06.099.273.273 0 0 0 .033.175.258.258 0 0 0 .134.115c.04.017.082.017.115-.005a.14.14 0 0 0 .063-.099.273.273 0 0 0-.167-.293v.003zm11.62-3.583a.48.48 0 0 1 .37.18.628.628 0 0 1 0 .789.48.48 0 0 1-.37.182.48.48 0 0 1-.37-.181.628.628 0 0 1 0-.789.48.48 0 0 1 .37-.18zm.104.406a.137.137 0 0 0-.104-.055c-.039 0-.074.019-.104.055a.255.255 0 0 0-.055.167.26.26 0 0 0 .055.167.137.137 0 0 0 .104.054c.038 0 .074-.019.104-.054a.255.255 0 0 0 .055-.167.26.26 0 0 0-.055-.167zm12.89.909a.64.64 0 0 1 .304.446.805.805 0 0 1-.104.551.823.823 0 0 1-.424.364.64.64 0 0 1-.534-.038.64.64 0 0 1-.305-.447.839.839 0 0 1 .08-.506v-.003l.025-.041a.823.823 0 0 1 .424-.364.64.64 0 0 1 .534.038zm-.04.504a.286.286 0 0 0-.132-.203.284.284 0 0 0-.241-.013.474.474 0 0 0-.241.208c-.06.104-.08.216-.06.315.016.087.06.161.13.202a.284.284 0 0 0 .242.014.467.467 0 0 0 .24-.21c.061-.105.08-.217.061-.316v.003zm9.29 9.09a.296.296 0 0 0-.197-.12.474.474 0 0 0-.315.06.48.48 0 0 0-.21.242.284.284 0 0 0 .013.24.286.286 0 0 0 .203.132c.098.016.21 0 .315-.06a.48.48 0 0 0 .21-.241.284.284 0 0 0-.013-.241l-.006-.011zm.326-.133v.002a.646.646 0 0 1 .017.49.81.81 0 0 1-.343.411l-.002.003-.022.011c-.178.104-.375.134-.55.104a.631.631 0 0 1-.447-.304.62.62 0 0 1-.039-.534.813.813 0 0 1 .365-.424.82.82 0 0 1 .55-.105c.187.033.35.137.447.302l.024.044zm3.561 12.947c0 .192-.09.362-.235.485a.821.821 0 0 1-.529.187.821.821 0 0 1-.529-.187.634.634 0 0 1-.235-.485c0-.191.09-.361.235-.484a.821.821 0 0 1 .529-.187c.205 0 .392.072.529.187a.634.634 0 0 1 .235.484zm-.46.217a.285.285 0 0 0 .11-.217.285.285 0 0 0-.11-.216.48.48 0 0 0-.304-.104.48.48 0 0 0-.304.104.285.285 0 0 0-.11.216c0 .083.041.16.11.217a.48.48 0 0 0 .304.104.48.48 0 0 0 .304-.104zm-2.93 12.778a.64.64 0 0 1-.447.304.805.805 0 0 1-.55-.104.823.823 0 0 1-.365-.425.64.64 0 0 1 .038-.534.64.64 0 0 1 .447-.304.839.839 0 0 1 .506.08h.003l.041.024a.823.823 0 0 1 .365.425.64.64 0 0 1-.039.534zm-.505-.041a.286.286 0 0 0 .203-.131.284.284 0 0 0 .014-.242.474.474 0 0 0-.209-.24c-.104-.06-.216-.08-.315-.06a.286.286 0 0 0-.202.13.284.284 0 0 0-.014.242c.033.093.107.18.21.24.105.061.217.08.316.061h-.003zm-9.09 9.291a.296.296 0 0 0 .12-.197.474.474 0 0 0-.06-.315.48.48 0 0 0-.241-.21.284.284 0 0 0-.241.013.286.286 0 0 0-.132.203c-.016.098 0 .21.06.315a.48.48 0 0 0 .241.21c.083.03.17.028.241-.013l.011-.006zm.134.326h-.003a.646.646 0 0 1-.49.017.81.81 0 0 1-.411-.343l-.003-.002-.011-.022a.82.82 0 0 1-.104-.55.631.631 0 0 1 .304-.447.62.62 0 0 1 .534-.039c.167.06.323.186.425.365a.82.82 0 0 1 .104.55.636.636 0 0 1-.302.447l-.043.024zM32.613 58.44a.634.634 0 0 1-.485-.236.821.821 0 0 1-.186-.528c0-.206.07-.392.186-.529a.633.633 0 0 1 .485-.235c.191 0 .361.09.485.235a.821.821 0 0 1 .186.529.822.822 0 0 1-.186.528.633.633 0 0 1-.485.236zm-.217-.46c.058.068.135.11.217.11a.285.285 0 0 0 .216-.11.48.48 0 0 0 .104-.304.48.48 0 0 0-.104-.304.285.285 0 0 0-.216-.11.285.285 0 0 0-.217.11.48.48 0 0 0-.104.304c0 .12.041.227.104.304zm-12.778-2.931a.64.64 0 0 1-.304-.446.805.805 0 0 1 .104-.551.823.823 0 0 1 .425-.364.64.64 0 0 1 .534.038.64.64 0 0 1 .304.446.839.839 0 0 1-.08.507v.003l-.024.041a.823.823 0 0 1-.425.364.64.64 0 0 1-.534-.038zm.041-.504c.017.088.06.162.132.203a.284.284 0 0 0 .24.013.474.474 0 0 0 .242-.208c.06-.104.08-.216.06-.315a.286.286 0 0 0-.131-.202.284.284 0 0 0-.241-.014.467.467 0 0 0-.241.21c-.06.105-.08.217-.06.316v-.003zm-9.291-9.09a.296.296 0 0 0 .197.12c.099.016.211 0 .315-.06a.48.48 0 0 0 .211-.242.284.284 0 0 0-.014-.24.286.286 0 0 0-.202-.132.474.474 0 0 0-.315.06.48.48 0 0 0-.211.241.284.284 0 0 0 .014.241l.005.011zm-.326.133v-.002a.646.646 0 0 1-.016-.49.81.81 0 0 1 .342-.411l.003-.003.022-.011c.178-.104.375-.134.55-.104.186.033.35.137.447.304a.62.62 0 0 1 .038.534.813.813 0 0 1-.364.424.82.82 0 0 1-.55.105.636.636 0 0 1-.447-.302l-.025-.044zM6.482 32.64c0-.192.09-.362.235-.485a.821.821 0 0 1 .528-.187c.206 0 .392.072.53.187a.634.634 0 0 1 .235.485c0 .191-.09.361-.236.484a.821.821 0 0 1-.529.187.822.822 0 0 1-.528-.187.634.634 0 0 1-.236-.484zm.46-.217a.285.285 0 0 0-.11.217c0 .082.04.158.11.216a.48.48 0 0 0 .303.104.48.48 0 0 0 .304-.104.285.285 0 0 0 .11-.216.285.285 0 0 0-.11-.217.48.48 0 0 0-.304-.104.48.48 0 0 0-.304.104zm2.93-12.778a.64.64 0 0 1 .447-.304.805.805 0 0 1 .55.104.823.823 0 0 1 .365.425.64.64 0 0 1-.039.534.64.64 0 0 1-.446.304.839.839 0 0 1-.507-.08h-.003l-.04-.024a.823.823 0 0 1-.365-.425.64.64 0 0 1 .038-.534zm.504.041a.286.286 0 0 0-.202.131.284.284 0 0 0-.014.242c.033.093.107.18.208.24.104.06.216.08.315.06a.286.286 0 0 0 .203-.13.284.284 0 0 0 .013-.242.467.467 0 0 0-.21-.24.459.459 0 0 0-.315-.061h.002zm9.091-9.291a.296.296 0 0 0-.12.197c-.017.099 0 .21.06.315a.48.48 0 0 0 .24.21c.086.031.17.028.242-.013a.286.286 0 0 0 .131-.203.474.474 0 0 0-.06-.315.48.48 0 0 0-.241-.21.284.284 0 0 0-.241.013l-.011.006zm-.134-.326h.003a.646.646 0 0 1 .49-.017.81.81 0 0 1 .41.343l.003.002.011.022a.82.82 0 0 1 .105.55.631.631 0 0 1-.305.447.62.62 0 0 1-.534.039.813.813 0 0 1-.424-.365c-.104-.178-.134-.375-.104-.55a.636.636 0 0 1 .301-.447l.044-.024zM32.28 6.508c.191 0 .361.09.485.235a.822.822 0 0 1 .186.53.821.821 0 0 1-.186.528.633.633 0 0 1-.485.235.634.634 0 0 1-.485-.235.821.821 0 0 1-.186-.529c0-.205.07-.392.186-.529a.633.633 0 0 1 .485-.235zm.216.46a.285.285 0 0 0-.216-.11.285.285 0 0 0-.217.11.48.48 0 0 0-.104.304c0 .12.041.227.104.304.058.069.135.11.217.11a.285.285 0 0 0 .216-.11.48.48 0 0 0 .104-.304.48.48 0 0 0-.104-.304zm15.394-2.534a.469.469 0 0 1 .635-.172.469.469 0 0 1 .173.635l-2.504 4.34a.469.469 0 0 1-.635.172.469.469 0 0 1-.173-.636l2.504-4.339zm11.94 11.472a.469.469 0 0 1 .638.17.469.469 0 0 1-.17.638l-4.339 2.503a.469.469 0 0 1-.638-.17.469.469 0 0 1 .17-.638l4.338-2.503zm4.604 15.906a.468.468 0 1 1 0 .937h-5.01a.468.468 0 1 1 0-.937h5.01zM60.469 47.89a.469.469 0 0 1 .172.635.469.469 0 0 1-.635.173l-4.34-2.504a.469.469 0 0 1-.172-.635.469.469 0 0 1 .636-.173l4.339 2.504zM48.997 59.83a.469.469 0 0 1-.17.638.469.469 0 0 1-.638-.17l-2.503-4.34a.469.469 0 0 1 .17-.637.469.469 0 0 1 .638.17l2.503 4.338zm-15.906 4.604a.468.468 0 1 1-.937 0v-5.01a.468.468 0 1 1 .937 0v5.01zm-16.079-3.966a.469.469 0 0 1-.635.172.469.469 0 0 1-.173-.635l2.504-4.34a.469.469 0 0 1 .635-.172.469.469 0 0 1 .173.636l-2.504 4.339zM5.072 48.997a.469.469 0 0 1-.637-.17.469.469 0 0 1 .17-.638l4.338-2.503a.469.469 0 0 1 .638.17.469.469 0 0 1-.17.638l-4.338 2.503zM.469 33.091a.468.468 0 1 1 0-.937h5.01a.468.468 0 1 1 0 .937H.468zm3.967-16.079a.469.469 0 0 1-.173-.635.469.469 0 0 1 .635-.173l4.34 2.504a.469.469 0 0 1 .172.635.469.469 0 0 1-.636.173l-4.338-2.504zm11.47-11.94a.469.469 0 0 1 .17-.638.469.469 0 0 1 .639.17l2.503 4.339a.469.469 0 0 1-.17.638.469.469 0 0 1-.638-.17l-2.503-4.338z"/>
            <circle cx="32.283" cy="32.621" r="26.198"/>
        </g>
        <circle cx="36.877" cy="61.068" r="1" fill="#D8D8D8" fill-rule="nonzero"/>
        <path fill="#FFD0B0" d="M59.908 36.695h-.39l-.87-.525-.192.525h-.114s.028.057.064.137l-.591 1.618c-.552.723-.283 1.995-.283 1.995l1.154-2.18c.002.44-.062.94-.281 1.493-.69 1.741-.257 2.29-.257 2.29s1.26-1.134 1.76-1.953c.501-.819 0-3.4 0-3.4"/>
        <path fill="#E3B910" d="M58.165 37.486l-.89-3.309c-.085-3.838-.75-6.312-2.672-9.09l-.855-1.4 2.158-4.08s2.7 3.41 3.733 13.197l.3 4.682h-1.774z"/>
        <path fill="#FFD0B0" d="M41.801 35.68h.391l.869-.524.192.524h.115s-.029.056-.065.137l.592 1.618c.551.724.283 1.995.283 1.995l-1.154-2.18c-.002.439.062.94.28 1.493.69 1.74.258 2.29.258 2.29s-1.26-1.134-1.76-1.952c-.502-.819 0-3.4 0-3.4"/>
        <path fill="#FC0" d="M43.353 36.471l.89-3.309c.086-3.838.75-6.312 2.672-9.09l.854-1.4-2.157-4.08s-2.7 3.41-3.733 13.197l-.3 4.682h1.774z"/>
        <path fill="#FC0" d="M50.36 35.818h4.602l.663-8.67c.556-2.346 2.006-8.556-1.55-8.556h-8.038c-1.936 0-1.499 6.21-.943 8.556l.625 8.67h4.64z"/>
        <path fill="#F9AF7D" d="M50.183 19.812h.32c.645 0 1.167-.525 1.167-1.171v-2.077h-2.655v2.077c0 .646.522 1.171 1.168 1.171"/>
        <path fill="#FFD0B0" d="M50.27 10.141l-2.607 1.131v3.073c0 1.386 1.234 2.859 2.606 2.952.045.002.09.009.135.009 1.426 0 2.473-1.53 2.473-2.962v-3.071L50.27 10.14z"/>
        <g transform="matrix(-1 0 0 1 53.512 9.465)">
            <mask id="b" fill="#fff">
                <use xlink:href="#a"/>
            </mask>
            <path fill="#FFA943" d="M.439 4.095c.331-.368.087-2.156.567-2.364.479-.208 1.242.807 2.063.769.82-.038 2.036-.774 2.184-.498.148.276.194 2.645.446 2.312.252-.334.617-2.515-.206-3.61C4.668-.391 1.019-.101.439.836c-.58.936-.27 3.56 0 3.26" mask="url(#b)"/>
        </g>
        <path fill="#A84A0B" d="M14.645 20.432h-.315a1.15 1.15 0 0 1-1.147-1.152v-2.04h2.609v2.04a1.15 1.15 0 0 1-1.147 1.152"/>
        <path fill="#BF6121" d="M12.17 12.267v3.019c0 1.406 1.028 2.908 2.429 2.908.043 0 .088-.006.131-.009v-7.03l-2.56 1.112zm2.56-1.112v7.03c1.348-.09 2.562-1.537 2.562-2.9v-3.018l-2.562-1.112z"/>
        <g transform="matrix(-1 0 0 1 7.633 36.508)">
            <mask id="d" fill="#fff">
                <use xlink:href="#c"/>
            </mask>
            <path fill="#A84A0B" d="M2.493.798h-.384L1.255.282l-.188.516H.953s.029.055.064.135L.436 2.522c-.543.71-.279 1.962-.279 1.962L1.293 2.34c.001.431-.063.925-.278 1.468C.338 5.518.763 6.056.763 6.056S2 4.943 2.493 4.14c.493-.805 0-3.34 0-3.34" mask="url(#d)"/>
        </g>
        <path fill="#417505" d="M6.813 37.85l.876-3.25c.082-3.771.736-6.204 2.625-8.932l.839-1.376-2.12-4.01S6.38 23.633 5.366 33.251l-.295 4.6h1.742zM19.732 20.078c1.537 3.798 3.571 6.241 3.571 6.241.057.08.234.115.458.126.95.05 1.893.2 2.792.515l1.434-.367.376 2.34-5.264.495a1.045 1.045 0 0 1-.867-.333l-3.64-3.963s.691-6.165 1.14-5.054"/>
        <path fill="#25557C" d="M15.16 32.812l.002-.022-.789.01-.788-.01.002.022-2.495.036-.02.032c-1.304 2.064-1.392 4.417-1.387 6.812l-.558 19.19h3.277l1.97-18.632 1.969 18.631h3.277l-.559-19.189c.005-2.395-.082-4.748-1.386-6.812l-.02-.032-2.495-.036z"/>
        <path fill="#508A0D" d="M14.379 19.268h-3.65c-3.495 0-2.071 6.102-1.524 8.406l.652 8.52h9.082l.614-8.52c.547-2.304.975-8.406-.926-8.406h-4.248z"/>
        <path fill="#071E2B" d="M14.636 9.48c.024-.003.023.002.047 0 3.836-.322 2.584 4.781 2.584 4.781l-.022.234-.672-2.024c-.617-.85-3.298.115-3.298.115l.367-.649s-.464.242-1.08 1.092l-.487 1.466-.023-.234s-1.34-4.367 2.584-4.781"/>
        <path fill="#FF573D" d="M39.984 9.465s1.864 1 1.979 3.365c.117 2.366-.86 2.399-.337 3.026.522.628 1.317.772 1.317.772s-.668.591-1.66.838c-.993.246-3.423.286-3.423.286l.163-7.663 1.96-.624z"/>
        <path fill="#FF573D" d="M36.34 9.465s-2.456 1.147-2.57 3.512c-.116 2.366.86 2.398.338 3.026-.523.628-1.318.771-1.318.771s.667.592 1.66.838c.993.246 3.423.287 3.423.287l-.163-7.663-1.37-.771z"/>
        <path fill="#FFD0B0" d="M34.774 19.606s-1.123.085-2.051 1.864c-1.449 2.773-1.102 7.424-1.102 7.424l-.482 6.932s-.378 1.626-.378 2.423c0 .461 1.41 1.886 1.41 1.886l-.377-2.335.712 1.37s.319-1.168-.196-2.947c-.516-1.777 1.135-5.55 1.17-6.279.06-1.296.252-5.236.727-5.659.477-.423.567-4.679.567-4.679M41.3 19.606s.74.1 1.724 1.879c1.518 2.743 1.1 7.423 1.1 7.423l.483 6.933s.378 1.626.378 2.424c0 .46-1.41 1.886-1.41 1.886l.378-2.336-.713 1.37s-.32-1.168.197-2.946c.516-1.778-1.136-5.552-1.17-6.28-.061-1.296-.252-5.236-.728-5.659-.476-.422-.24-4.694-.24-4.694"/>
        <path fill="#080808" d="M42.464 61.603s-1.16-1.81-1.194-2.185l-.03-2.372.995-.248c.246-.054.516.193.772.56.735 1.06.726 2.417.06 3.513l-.386.636-.217.096z"/>
        <path fill="#FFD0B0" d="M38.198 30.761l2.037 3.154 2.747 22.464.132 1.377c.045.476-.23.89-.618.92l-.436.036c-.387.031-.737-.33-.783-.807l-.082-.85-1.14-11.69-1.39-9.73-.467-4.874z"/>
        <path fill="#080808" d="M36.978 57.285l.343-.05c.251-.03.497.206.717.546.63.977.493 2.162-.275 3.073l-.445.529-.227.068-.113-.195-.114.195-.226-.068-.446-.529c-.767-.91-.904-2.096-.274-3.073.22-.34.465-.576.717-.546l.343.05z"/>
        <path fill="#FFD0B0" d="M38.426 30.2v4.894l-.459 9.804-.023 11.736v.854c0 .479-.315.867-.704.867h-.437c-.389 0-.703-.388-.703-.867v-1.381l-.93-6.592a14.17 14.17 0 0 1 .261-5.322l.007-.026-.958-7.353c-.004-2.472.069-4.902 1.166-7.034l.017-.033 2.763.454zM40.903 19.606h.363c1.051 0 .803 2.62.41 4.9a2.668 2.668 0 0 1-.342-.72c-.109-.396-.352-3.23-.431-4.18"/>
        <path fill="#F9C099" d="M37.971 23.123c-.212-.021-.574-.093-1.175-.303-.954-.331-.983-2.73-.96-3.62h.066c.644 0 1.183-.459 1.246-1.06l.131-1.238h1.384l.13 1.238c.065.601.603 1.06 1.247 1.06h.065c.024.89-.004 3.289-.959 3.62-.6.21-.963.282-1.175.303z"/>
        <path fill="#9D9D9D" d="M40.057 18.93h.873c.08 1 .323 3.985.432 4.4.078.301.229.577.342.76l-.026.153c-.165.987-.35 1.903-.476 2.522l-.272 5.523-3.007.867V22.853c.213-.022 2.158-3.032 2.134-3.923zm-4.269 0c-.022.89 1.922 3.901 2.135 3.923v10.302l-2.863-.243-.409-5.322c-.132-1.444-.318-2.36-.483-3.347l-.026-.153c.114-.183.264-.459.343-.76.108-.415.351-3.4.43-4.4h.873z"/>
        <path fill="#FFD0B0" d="M34.915 19.606h-.362c-1.052 0-.805 2.62-.41 4.9.112-.173.263-.435.341-.72.108-.396.352-3.23.431-4.18"/>
        <path fill="#25557C" d="M37.963 31.75l-2.981-.65-.209 1.659a35.364 35.364 0 0 0 .143 10.08l.304 1.923-.007.034a19.61 19.61 0 0 0-.134 6.905l.787 4.91h2.61l-.07-17.27.023.156 1.031 6.716 1.596 10.397h2.592l-.033-4.821a24.902 24.902 0 0 0-.937-6.993l-.01-.034-.11-2.882c-.133-3.48-.45-7.117-1.506-10.47l-.3.135-2.79.204z"/>
        <path fill="#FFD0B0" d="M38.046 16.834v.004c1.344-.09 2.553-1.538 2.553-2.9v-3.019l-2.552-1.111v-.005l-2.553 1.112v3.018c0 1.408 1.025 2.91 2.421 2.91.043 0 .087-.007.131-.009z"/>
        <path fill="#FF573D" d="M40.825 11.304h.023v-.475c0-1.127-1.025-2.04-2.289-2.04h-.023v.475c0 1.127 1.025 2.04 2.29 2.04"/>
        <path fill="#FF573D" d="M39.4 8.927s-.095 1.212-1.889 1.917c-1.793.706-2.693.736-2.693.736v-.027c0-1.527 1.477-2.764 3.297-2.764l1.284.138z"/>
        <path fill="#9D9D9D" d="M40.564 19.49s.37-1.26 1.988 0c1.617 1.26 2.639 9.755 2.639 9.755l-2.88.311-1.401-5.124-.346-4.942zM35.049 19.43l-.345 4.942-1.4 5.124-2.88-.311s.866-8.33 2.484-9.591c.865-.674 1.098-.663 1.967-.664.869 0 .174.5.174.5z"/>
        <path fill="#071E2B" d="M21.634 19.5h9.342l-1.993-9.22-5.387-.139z"/>
        <path fill="#FFD0B0" d="M22.942 19.606s-1.122.085-2.05 1.864c-1.45 2.773-1.102 7.424-1.102 7.424l-.482 6.932s-.378 1.626-.378 2.423c0 .46 1.41 1.886 1.41 1.886l-.378-2.335.712 1.37s.32-1.168-.195-2.946c-.517-1.778 1.134-5.551 1.17-6.28.06-1.296.251-5.236.727-5.659.476-.423.566-4.679.566-4.679M29.806 19.606s.74.1 1.725 1.879c1.518 2.743 1.1 7.423 1.1 7.423l.482 6.933s.379 1.627.379 2.424c0 .46-1.41 1.885-1.41 1.885l.378-2.335-.713 1.37s-.32-1.168.196-2.946c.517-1.778-1.135-5.552-1.17-6.28-.06-1.296-.251-5.236-.728-5.659-.475-.422-.239-4.694-.239-4.694"/>
        <path fill="#000" d="M27.985 61.194c.758-.915.929-2.403.31-3.46-.22-.376-.466-.636-.717-.603l-1.012.162-.2 2.29c.038 1.216.811 1.772.917 1.778.346.036.58-.02.702-.167z"/>
        <path fill="#D89362" d="M26.367 31.877l2.763-.44.017.033c1.097 2.064 1.17 4.417 1.166 6.813l-.958 7.122.007.026c.421 1.67.51 3.435.26 5.153l-.929 6.385v1.339c0 .463-.315.839-.703.839h-.438c-.388 0-.703-.376-.703-.84v-.826l-.023-11.369-.46-9.496v-4.74z"/>
        <path fill="#000" d="M24.35 61.194c-.758-.915-.93-2.403-.31-3.46.22-.376.465-.636.716-.603l1.013.162.199 2.29c-.038 1.216-.811 1.772-.916 1.778-.346.036-.58-.02-.702-.167z"/>
        <path fill="#D89362" d="M26.257 31.877l-2.763-.44-.016.033c-1.098 2.064-1.172 4.417-1.167 6.813l.958 7.122-.006.026a13.3 13.3 0 0 0-.261 5.153l.928 6.385v1.339c0 .463.316.839.704.839h.437c.389 0 .704-.376.704-.84v-.826l.023-11.369.459-9.496v-4.74z"/>
        <path fill="#FFD0B0" d="M29.41 19.606h.362c1.052 0 .804 2.62.41 4.9a2.668 2.668 0 0 1-.341-.72c-.11-.396-.353-3.23-.432-4.18"/>
        <path fill="#D89362" d="M26.14 22.786c-.213-.021-.575-.093-1.175-.303-.955-.331-.983-2.73-.96-3.62h.066c.643 0 1.183-.46 1.247-1.061l.13-1.238h1.384l.13 1.238c.064.601.603 1.06 1.247 1.06h.065c.024.89-.004 3.29-.96 3.621-.6.21-.962.282-1.174.303z"/>
        <path fill="#0D263D" d="M48.202 59.04c0 .674-.361 1.294-.948 1.628l-.016.01c-.687.39-1.43.127-2.136-.229-.441-.222-1.549-.32-.09-1.969h3.19v.56z"/>
        <path fill="#EE2934" d="M27.267 22.551c.954-.332.982-2.731.959-3.62h.873c.08.999.323 3.985.431 4.4.079.301.23.577.343.76l-.026.153c-.165.987-.35 1.903-.476 2.522l-1.313 6.391h-1.966V22.853c.212-.021.574-.093 1.175-.302zm-2.35 0c.6.209.962.28 1.174.302v10.304h-1.967l-1.312-6.391c-.125-.62-.31-1.535-.476-2.522l-.026-.153c.114-.183.265-.459.343-.76.108-.415.351-3.401.431-4.4h.873c-.023.889.006 3.288.96 3.62z"/>
        <path fill="#FFD0B0" d="M23.084 19.606h-.363c-1.051 0-.804 2.62-.41 4.9.113-.173.264-.435.342-.72.108-.396.352-3.23.43-4.18"/>
        <path fill="#D40511" d="M26.163 29.747h-2.666s-1.639 3.732-2.1 6.237l-1.453 7.877 6.22.251 6.218-.251-1.452-7.877c-.462-2.505-2.018-6.237-2.018-6.237h-2.749z"/>
        <path fill="#F5B990" d="M26.215 16.834v.004c1.343-.09 2.553-1.538 2.553-2.9v-3.019l-2.553-1.111v-.005l-2.552 1.112v3.018c0 1.408 1.025 2.91 2.42 2.91.044 0 .088-.007.132-.009z"/>
        <path fill="#071E2B" d="M28.994 11.304h.022v-.475c0-1.127-1.024-2.04-2.288-2.04h-.023v.475c0 1.127 1.024 2.04 2.289 2.04"/>
        <path fill="#071E2B" d="M27.722 8.927c.104.673.16 1.5-1.465 1.736-2.526.368-3.947 5.916-3.947 5.916l.83-5.026c0-1.527 1.477-2.764 3.298-2.764l1.284.138z"/>
        <path fill="#EE2934" d="M29.847 19.019c.63.177.903.796 1.468 1.684.77 1.211 1.344 1.957 1.378 4.115.055 3.453 1.28 10.017.242 10.051-1.036.035-2.736-1.49-3.16-6.206-.424-4.718-.983-8.859-.983-8.859s-.434-1.205 1.055-.785zM22.625 18.97c1.284-.32.83 1.356.83 1.356s-.558 4.14-.982 8.857c-.424 4.718-2.125 6.242-3.161 6.207-1.036-.035.401-6.08.076-9.336-.326-3.256 1.954-6.764 3.237-7.083z"/>
        <path fill="#0D263D" d="M52.396 59.04c0 .674.362 1.294.949 1.628l.016.01c.686.39 1.43.127 2.136-.229.441-.222 1.549-.32.09-1.969h-3.191v.56z"/>
        <path fill="#071E2B" d="M16.564 59.04c0 .673.362 1.294.949 1.628l.015.01c.687.39 1.431.127 2.137-.23.441-.221 1.548-.32.09-1.968h-3.191v.56zM12.37 59.04c0 .673-.362 1.294-.948 1.628l-.015.01c-.688.39-1.431.127-2.137-.23-.441-.221-1.549-.32-.09-1.968h3.19v.56z"/>
        <path fill="#232020" d="M48.294 58.668h-3.335l.568-19.53c-.005-2.437.084-4.831 1.411-6.933l.02-.032 4.142-.06-2.806 26.555z"/>
        <path fill="#232020" d="M52.499 58.668h3.334l-.568-19.53c.005-2.437-.084-4.831-1.41-6.933l-.02-.032-4.144-.06L52.5 58.669z"/>
    </g>
</svg>
