<?xml version="1.0" encoding="UTF-8"?>
<svg width="53px" height="19px" viewBox="0 0 53 19" version="1.1" xmlns="http://www.w3.org/2000/svg" xmlns:xlink="http://www.w3.org/1999/xlink">
    <!-- Generator: Sketch 53.2 (72643) - https://sketchapp.com -->
    <title>Group</title>
    <desc>Created with Sketch.</desc>
    <g id="Symbols" stroke="none" stroke-width="1" fill="none" fill-rule="evenodd">
        <g id="Logo" transform="translate(-2.000000, 0.000000)" fill-rule="nonzero">
            <g id="Group" transform="translate(2.087722, 0.182618)">
                <path d="M-7.60280727e-13,10.3047312 L-7.60280727e-13,0.858727599 L3.4921589,0.858727599 C4.89475433,0.858727599 5.97530909,1.2332245 6.73385559,1.98222954 C7.4924021,2.73123458 7.87166966,3.80224802 7.87166966,5.19530198 L7.87166966,5.96815682 C7.87166966,7.36121078 7.4924021,8.43222421 6.73385559,9.18122925 C5.97530909,9.93023429 4.89475433,10.3047312 3.4921589,10.3047312 L-7.60280727e-13,10.3047312 Z M3.4921589,2.70499194 L2.16113113,2.70499194 L2.16113113,8.45846685 L3.4921589,8.45846685 C4.97108605,8.45846685 5.71053854,7.59974784 5.71053854,5.88228406 L5.71053854,5.28117474 C5.71053854,3.56371095 4.97108605,2.70499194 3.4921589,2.70499194 Z M10.2341173,2.23269176 C9.89062459,2.23269176 9.59961425,2.13250787 9.36107762,1.9321371 C9.12254098,1.73176632 9.00327445,1.45983864 9.00327445,1.11634588 C9.00327445,0.772853122 9.12254098,0.500925435 9.36107762,0.30055466 C9.59961425,0.100183885 9.89062459,0 10.2341173,0 C10.5776101,0 10.8686204,0.100183885 11.1071571,0.30055466 C11.3456937,0.500925435 11.4649602,0.772853122 11.4649602,1.11634588 C11.4649602,1.45983864 11.3456937,1.73176632 11.1071571,1.9321371 C10.8686204,2.13250787 10.5776101,2.23269176 10.2341173,2.23269176 Z M9.1893321,10.3047312 L9.1893321,3.0055466 L11.2645905,3.0055466 L11.2645905,10.3047312 L9.1893321,10.3047312 Z M15.0725629,10.4764767 C14.4809921,10.4764767 13.9562193,10.4001461 13.498229,10.2474827 C13.0402387,10.0948192 12.6108792,9.85151552 12.2101376,9.51756423 L13.040241,8.18653645 C13.6508947,8.64452679 14.3187873,8.87351853 15.0439387,8.87351853 C15.7977145,8.87351853 16.1745967,8.64929745 16.1745967,8.20084857 C16.1745967,7.88598021 15.9122103,7.67130046 15.3874297,7.55680287 L14.6002628,7.38505736 C13.9419016,7.24193537 13.4385969,6.97716368 13.0903334,6.59073433 C12.7420699,6.20430497 12.5679408,5.72008286 12.5679408,5.13805347 C12.5679408,4.41290209 12.8279418,3.84757874 13.3479517,3.44206646 C13.8679615,3.03655418 14.5859461,2.83380108 15.5019267,2.83380108 C16.5801123,2.83380108 17.5103913,3.11527009 18.2927914,3.67821655 L17.5056245,5.00924433 C16.9808439,4.62758571 16.3845112,4.43675926 15.7166086,4.43675926 C15.0296231,4.43675926 14.6861355,4.64666836 14.6861355,5.06649284 C14.6861355,5.40998559 14.9485219,5.63897733 15.4733025,5.75347492 L16.2747816,5.92522044 C17.6296697,6.22100587 18.3071036,6.94614637 18.3071036,8.10066369 C18.3071036,8.85443946 18.0232492,9.43884546 17.455532,9.8538992 C16.8878148,10.268953 16.0934997,10.4764767 15.0725629,10.4764767 Z M22.5873762,10.4764767 C21.8813078,10.4764767 21.2682778,10.3309715 20.7482679,10.0399568 C20.2282581,9.74894215 19.8275225,9.33866529 19.5460493,8.80911396 C19.2645761,8.27956262 19.1238416,7.65699134 19.1238416,6.94138143 L19.1238416,6.36889636 C19.1238416,5.66282792 19.2645761,5.04502729 19.5460493,4.51547596 C19.8275225,3.98592463 20.2258727,3.57326243 20.7411119,3.277477 C21.256351,2.98169157 21.8574543,2.83380108 22.5444398,2.83380108 C23.040596,2.83380108 23.5105062,2.91967298 23.9541843,3.09141936 C24.3978625,3.26316574 24.77713,3.50646946 25.0919984,3.82133782 L24.0615253,5.13805347 C23.6798666,4.77547778 23.2552778,4.59419266 22.787746,4.59419266 C22.3011312,4.59419266 21.9194784,4.75639514 21.6427759,5.08080496 C21.3660734,5.40521479 21.2277242,5.84888628 21.2277242,6.41183274 L21.2277242,6.89844505 C21.2277242,7.46139151 21.370844,7.905063 21.657088,8.22947283 C21.9433319,8.55388265 22.3345262,8.71608513 22.8306824,8.71608513 C23.2982142,8.71608513 23.7418857,8.53480001 24.1617101,8.17222432 L25.1778711,9.48893997 C24.4908856,10.1473011 23.627396,10.4764767 22.5873762,10.4764767 Z M29.1289649,10.4764767 C28.0412378,10.4764767 27.1849041,10.1616131 26.5599381,9.53187635 C25.9349722,8.90213963 25.6224938,8.03864996 25.6224938,6.94138143 L25.6224938,6.36889636 C25.6224938,5.27162783 25.9349722,4.40813816 26.5599381,3.77840144 C27.1849041,3.14866472 28.0412378,2.83380108 29.1289649,2.83380108 C30.2166919,2.83380108 31.0730256,3.14866472 31.6979916,3.77840144 C32.3229576,4.40813816 32.6354359,5.27162783 32.6354359,6.36889636 L32.6354359,6.94138143 C32.6354359,8.03864996 32.3229576,8.90213963 31.6979916,9.53187635 C31.0730256,10.1616131 30.2166919,10.4764767 29.1289649,10.4764767 Z M29.1289649,8.74470939 C29.5774138,8.74470939 29.9280574,8.59204823 30.1809062,8.28672133 C30.433755,7.98139444 30.5601775,7.5186403 30.5601775,6.89844505 L30.5601775,6.41183274 C30.5601775,5.79163749 30.433755,5.32888335 30.1809062,5.02355646 C29.9280574,4.71822956 29.5774138,4.5655684 29.1289649,4.5655684 C28.680516,4.5655684 28.3298724,4.71822956 28.0770236,5.02355646 C27.8241747,5.32888335 27.6977522,5.79163749 27.6977522,6.41183274 L27.6977522,6.89844505 C27.6977522,7.5186403 27.8241747,7.98139444 28.0770236,8.28672133 C28.3298724,8.59204823 28.680516,8.74470939 29.1289649,8.74470939 Z M35.04082,10.3047312 L32.8653767,3.0055466 L35.1266927,3.0055466 L36.4577205,8.54433961 L36.6867145,8.54433961 L38.0177423,3.0055466 L40.2074977,3.0055466 L38.0320544,10.3047312 L35.04082,10.3047312 Z M44.0440944,10.4764767 C42.9468259,10.4764767 42.0714096,10.1663837 41.4178192,9.54618848 C40.7642288,8.92599322 40.4374385,8.05773289 40.4374385,6.94138143 L40.4374385,6.36889636 C40.4374385,5.27162783 40.7403755,4.40813816 41.3462585,3.77840144 C41.9521416,3.14866472 42.7607687,2.83380108 43.772164,2.83380108 C44.7931008,2.83380108 45.5826452,3.14866472 46.140821,3.77840144 C46.6989967,4.40813816 46.9780804,5.28116915 46.9780804,6.39752062 L46.9780804,7.28487247 L42.4983847,7.28487247 C42.6128823,8.30580927 43.180591,8.81627002 44.2015278,8.81627002 C44.5354791,8.81627002 44.8431868,8.76856341 45.12466,8.67314875 C45.4061332,8.5777341 45.6852169,8.43938493 45.9619194,8.25809708 L46.8063349,9.56050061 C46.4437592,9.83720311 46.031097,10.0590389 45.5683359,10.2260145 C45.1055748,10.3929901 44.5974994,10.4764767 44.0440944,10.4764767 Z M43.7292276,4.49400777 C43.3189446,4.49400777 43.0136223,4.62520095 42.8132515,4.88759125 C42.6128808,5.14998155 42.4983849,5.5197078 42.4697605,5.99678107 L44.9886948,5.99678107 C44.9600704,5.5197078 44.8455745,5.14998155 44.6452037,4.88759125 C44.444833,4.62520095 44.1395107,4.49400777 43.7292276,4.49400777 Z M48.1239973,10.3047312 L48.1239973,3.0055466 L50.0847587,3.0055466 L50.0847587,4.82318668 C50.1897148,4.49877686 50.3304493,4.19106921 50.5069664,3.90005451 C50.6834835,3.60903982 50.9124752,3.37050676 51.1939485,3.18444818 C51.4754217,2.9983896 51.8260653,2.90536171 52.2458898,2.90536171 C52.331763,2.90536171 52.4104789,2.90774704 52.4820399,2.91251777 C52.5536009,2.91728851 52.6418581,2.92921516 52.7468142,2.94829809 L52.7468142,4.86612306 C52.6704825,4.8565816 52.5869959,4.84942561 52.496352,4.84465487 C52.4057081,4.83988414 52.3174508,4.83749881 52.2315777,4.83749881 C51.7067971,4.83749881 51.2774375,4.93768269 50.9434863,5.13805347 C50.609535,5.33842424 50.3614606,5.553104 50.1992557,5.78209917 L50.1992557,10.3047312 L48.1239973,10.3047312 Z" id="Discover" fill="#D40511"></path>
                <g id="Delivered-by-DHL" transform="translate(0.326097, 12.997382)">
                    <path d="M-4.61852778e-13,3.87484492 L-4.61852778e-13,0.268655915 L1.06429074,0.268655915 C2.13374794,0.268655915 2.98621382,0.929962781 2.98621382,2.04075166 C2.98621382,3.24970327 2.25257651,3.87484492 1.06429074,3.87484492 L-4.61852778e-13,3.87484492 Z M0.516645989,0.723304385 L0.516645989,3.42019645 L1.05912428,3.42019645 C1.94775538,3.42019645 2.43856907,2.99138028 2.43856907,2.0614175 C2.43856907,1.21928454 1.86509202,0.723304385 1.1211218,0.723304385 L0.516645989,0.723304385 Z M5.45296358,3.28070203 L5.45296358,3.76634926 C5.26697102,3.83351324 5.05514616,3.93684244 4.62116353,3.93684244 C3.68603429,3.93684244 3.25721812,3.36853185 3.25721812,2.51089951 C3.25721812,1.73076406 3.74803181,1.17795286 4.49200204,1.17795286 C5.37030022,1.17795286 5.65445551,1.81859388 5.65445551,2.66589331 L3.77386411,2.66589331 C3.77386411,3.18770575 4.18201444,3.54419149 4.64182937,3.54419149 C4.96214989,3.54419149 5.334135,3.37886477 5.45296358,3.28070203 Z M3.77386411,2.30424111 L5.13780952,2.30424111 C5.13780952,1.90125724 4.90015237,1.57060381 4.48166912,1.57060381 C4.00635481,1.57060381 3.81002933,1.96325476 3.77386411,2.30424111 Z M6.08562007,3.87484492 L6.08562007,0 L6.5712673,0 L6.5712673,3.87484492 L6.08562007,3.87484492 Z M7.24008901,3.87484492 L7.24008901,1.23995037 L7.72573624,1.23995037 L7.72573624,3.87484492 L7.24008901,3.87484492 Z M7.756735,0.103329198 L7.756735,0.650973947 L7.20909025,0.650973947 L7.20909025,0.103329198 L7.756735,0.103329198 Z M10.4456425,1.23995037 L9.50018037,3.87484492 L8.92153687,3.87484492 L7.97607471,1.23995037 L8.50822008,1.23995037 L9.22119154,3.38919769 L9.23152446,3.38919769 L9.95999531,1.23995037 L10.4456425,1.23995037 Z M12.6540693,3.28070203 L12.6540693,3.76634926 C12.4680767,3.83351324 12.2562519,3.93684244 11.8222693,3.93684244 C10.88714,3.93684244 10.4583238,3.36853185 10.4583238,2.51089951 C10.4583238,1.73076406 10.9491375,1.17795286 11.6931078,1.17795286 C12.5714059,1.17795286 12.8555612,1.81859388 12.8555612,2.66589331 L10.9749698,2.66589331 C10.9749698,3.18770575 11.3831202,3.54419149 11.8429351,3.54419149 C12.1632556,3.54419149 12.5352407,3.37886477 12.6540693,3.28070203 Z M10.9749698,2.30424111 L12.3389152,2.30424111 C12.3389152,1.90125724 12.1012581,1.57060381 11.6827748,1.57060381 C11.2074605,1.57060381 11.0111351,1.96325476 10.9749698,2.30424111 Z M13.2247283,3.87484492 L13.2247283,1.23995037 L13.6793767,1.23995037 L13.6793767,1.64810071 L13.6897097,1.64810071 C13.8188712,1.37427833 14.09786,1.17795286 14.3768488,1.17795286 C14.5215097,1.17795286 14.5938401,1.19345224 14.6971693,1.21411808 L14.6971693,1.64810071 C14.6093395,1.61193549 14.5111768,1.60160257 14.4285134,1.60160257 C13.9945308,1.60160257 13.7103755,2.01491936 13.7103755,2.67622623 L13.7103755,3.87484492 L13.2247283,3.87484492 Z M16.9727601,3.28070203 L16.9727601,3.76634926 C16.7867675,3.83351324 16.5749427,3.93684244 16.14096,3.93684244 C15.2058308,3.93684244 14.7770146,3.36853185 14.7770146,2.51089951 C14.7770146,1.73076406 15.2678283,1.17795286 16.0117985,1.17795286 C16.8900967,1.17795286 17.174252,1.81859388 17.174252,2.66589331 L15.2936606,2.66589331 C15.2936606,3.18770575 15.7018109,3.54419149 16.1616259,3.54419149 C16.4819464,3.54419149 16.8539315,3.37886477 16.9727601,3.28070203 Z M15.2936606,2.30424111 L16.657606,2.30424111 C16.657606,1.90125724 16.4199489,1.57060381 16.0014656,1.57060381 C15.5261513,1.57060381 15.3298258,1.96325476 15.2936606,2.30424111 Z M19.4085111,3.87484492 L19.4085111,3.50285981 L19.3981782,3.50285981 C19.2690167,3.69918528 18.969362,3.93684244 18.4992141,3.93684244 C17.7035793,3.93684244 17.3677594,3.22903743 17.3677594,2.51089951 C17.3677594,1.8030945 17.7397445,1.17795286 18.5043806,1.17795286 C18.9641955,1.17795286 19.227685,1.35877895 19.3775123,1.60160257 L19.3878452,1.60160257 L19.3878452,0 L19.8734925,0 L19.8734925,3.87484492 L19.4085111,3.87484492 Z M17.8844054,2.54706473 C17.8740725,2.96038152 18.0910638,3.54419149 18.6128763,3.54419149 C19.160521,3.54419149 19.3878452,3.0017132 19.3878452,2.56256411 C19.3878452,2.07175042 19.1346887,1.57060381 18.6077098,1.57060381 C18.0807309,1.57060381 17.8740725,2.06658396 17.8844054,2.54706473 Z M21.5727881,3.87484492 L21.5727881,0 L22.0584353,0 L22.0584353,1.60160257 L22.0687682,1.60160257 C22.2185956,1.35877895 22.482085,1.17795286 22.9419,1.17795286 C23.706536,1.17795286 24.0785211,1.8030945 24.0785211,2.51089951 C24.0785211,3.23420389 23.7427012,3.93684244 22.9470664,3.93684244 C22.4769186,3.93684244 22.1772639,3.69918528 22.0481024,3.50285981 L22.0377695,3.50285981 L22.0377695,3.87484492 L21.5727881,3.87484492 Z M23.5618752,2.54706473 C23.5722081,2.07175042 23.3655497,1.57060381 22.8385708,1.57060381 C22.3115919,1.57060381 22.0584353,2.07175042 22.0584353,2.56256411 C22.0584353,3.0017132 22.2857596,3.54419149 22.8334043,3.54419149 C23.3552168,3.54419149 23.5722081,2.96038152 23.5618752,2.54706473 Z M24.2203639,4.9856338 L24.2513627,4.58781639 C24.3133602,4.60848223 24.3960236,4.62914807 24.4786869,4.62914807 C24.9126696,4.62914807 25.0573304,4.02983872 25.0573304,3.97817412 C25.0573304,3.92134306 24.9953329,3.7870151 24.9643342,3.69918528 L24.0705366,1.23995037 L24.602682,1.23995037 L25.310487,3.42019645 L25.3208199,3.42019645 L26.0441243,1.23995037 L26.534938,1.23995037 L25.5636435,3.93167598 C25.3828174,4.43798905 25.1916584,5.02179902 24.5510174,5.02179902 C24.3960236,5.02179902 24.3081938,5.00113318 24.2203639,4.9856338 Z" id="Deliveredby" fill="#000000"></path>
                    <path d="M27.9190795,3.87484492 L27.9190795,0.268655915 L28.9833703,0.268655915 C30.0528275,0.268655915 30.9052934,0.929962781 30.9052934,2.04075166 C30.9052934,3.24970327 30.1716561,3.87484492 28.9833703,3.87484492 L27.9190795,3.87484492 Z M28.4357255,0.723304385 L28.4357255,3.42019645 L28.9782038,3.42019645 C29.8668349,3.42019645 30.3576486,2.99138028 30.3576486,2.0614175 C30.3576486,1.21928454 29.7841716,0.723304385 29.0402013,0.723304385 L28.4357255,0.723304385 Z M31.4242877,3.87484492 L31.4242877,0.268655915 L31.9409337,0.268655915 L31.9409337,1.7772622 L33.6665313,1.7772622 L33.6665313,0.268655915 L34.1831773,0.268655915 L34.1831773,3.87484492 L33.6665313,3.87484492 L33.6665313,2.23191067 L31.9409337,2.23191067 L31.9409337,3.87484492 L31.4242877,3.87484492 Z M34.8416661,3.87484492 L34.8416661,0.268655915 L35.3583121,0.268655915 L35.3583121,3.42019645 L36.8669184,3.42019645 L36.8669184,3.87484492 L34.8416661,3.87484492 Z" id="DHL" fill="#D40511"></path>
                </g>
            </g>
        </g>
    </g>
</svg>