<svg xmlns="http://www.w3.org/2000/svg" viewBox="0 0 39 39"><path d="M19.5 0C8.7 0 0 8.7 0 19.5S8.7 39 19.5 39 39 30.3 39 19.5 30.3 0 19.5 0zm8.7 15v.6c0 6-4.5 12.8-12.8 12.8-2.6 0-4.9-.7-6.9-2 .4 0 .7.1 1.1.1 2.1 0 4-.7 5.6-1.9-2 0-3.6-1.3-4.2-3.1.3 0 .6.1.9.1.4 0 .8-.1 1.2-.2C11 21 9.5 19.2 9.5 17v-.1c.6.3 1.3.5 2 .6-1.2-.8-2-2.2-2-3.8 0-.8.2-1.6.6-2.3 2.2 2.7 5.6 4.5 9.3 4.7-.1-.3-.1-.7-.1-1 0-2.5 2-4.5 4.5-4.5 1.3 0 2.5.5 3.3 1.4 1-.2 2-.6 2.9-1.1-.3 1-1 1.9-2 2.5.9-.1 1.8-.3 2.6-.7-.7.9-1.5 1.7-2.4 2.3z" fill="#fff"/></svg>