<svg id="Layer_1" data-name="Layer 1" xmlns="http://www.w3.org/2000/svg" xmlns:xlink="http://www.w3.org/1999/xlink" viewBox="0 0 24 21"><defs><style>.cls-1,.cls-2{fill:none;}.cls-1{clip-rule:evenodd;}.cls-3{clip-path:url(#clip-path);}.cls-4{clip-path:url(#clip-path-2);}.cls-5{fill:#323232;}</style><clipPath id="clip-path" transform="translate(5 5)"><path class="cls-1" d="M12.08.19a.62.62,0,0,1,.86,0l.87.8a.6.6,0,0,1,0,.85l-8.44,9a.53.53,0,0,1-.81,0l-4.44-5A.61.61,0,0,1,.2,5l.87-.8a.6.6,0,0,1,.84,0L4.72,7.35a.36.36,0,0,0,.54,0Z"/></clipPath><clipPath id="clip-path-2" transform="translate(5 5)"><rect class="cls-2" x="-937" y="-1476" width="1400" height="3805"/></clipPath></defs><title>yellow-tick</title><g class="cls-3"><g class="cls-4"><rect class="cls-5" width="24" height="21"/></g></g></svg>