<svg xmlns="http://www.w3.org/2000/svg" width="120" height="165" viewBox="0 0 120 165">
	<style>
		#boxSkin {
			opacity: 0;
			filter: blur(60px);
	    animation-name: boxSkin;
	    animation-duration: 80ms;
	    animation-delay: 3260ms;
	    animation-iteration-count: 1;
	    animation-fill-mode: both;
		}
		@keyframes boxSkin {
		  0% {
		    opacity: 0;
				filter: blur(60px);
		  }

		  100% {
		    opacity: 1;
				filter: blur(0px);
		  }
		}
	</style>
  <g opacity=".6" fill="#181818">
    <path opacity=".012" d="M57.655 126.243l19.71-11.381c1.181-.682 2.699-.644 3.879.037l35.84 20.692c2.982 1.723 3.135 6.115.153 7.836l-14.907 8.608-21.085 12.177c-1.181.682-2.699.719-3.879.037l-42.769-24.695 23.058-13.311z"/>
    <path opacity=".023" d="M56.964 126.243l19.749-11.403c1.157-.668 2.711-.593 3.868.075l35.795 20.666c2.923 1.687 3.227 6.081.304 7.769l-15.043 8.686-21.059 12.161c-1.157.668-2.711.743-3.868.075l-42.804-24.719 23.058-13.31z"/>
    <path opacity=".035" d="M56.274 126.243l19.786-11.426c1.133-.654 2.723-.542 3.856.112l35.752 20.641c2.864 1.652 3.32 6.048.458 7.702l-15.176 8.763-21.032 12.145c-1.133.654-2.723.766-3.856.112l-42.845-24.738 23.057-13.311z"/>
    <path opacity=".046" d="M55.583 126.243l19.826-11.448c1.11-.64 2.734-.491 3.844.149l35.707 20.615c2.803 1.619 3.412 6.017.609 7.635l-15.31 8.841-21.006 12.13c-1.11.64-2.736.79-3.844.149l-42.882-24.762 23.056-13.309z"/>
    <path opacity=".058" d="M54.893 126.243l19.863-11.469c1.086-.627 2.746-.44 3.832.187l35.664 20.59c2.744 1.583 3.504 5.983.76 7.568l-15.445 8.918-20.979 12.116c-1.086.627-2.748.813-3.832.187l-42.92-24.783 23.057-13.314z"/>
    <path opacity=".069" d="M54.204 126.243l19.9-11.491c1.063-.613 2.758-.389 3.821.224l35.618 20.562c2.683 1.55 3.597 5.95.913 7.5l-15.579 8.996-20.951 12.1c-1.063.613-2.76.837-3.823.224l-42.959-24.805 23.06-13.31z"/>
    <path opacity=".081" d="M53.513 126.243l19.94-11.513c1.039-.599 2.77-.338 3.809.261l35.573 20.539c2.624 1.514 3.689 5.918 1.065 7.433l-15.712 9.073-20.926 12.084c-1.039.599-2.772.862-3.811.261l-42.996-24.829 23.058-13.309z"/>
    <path opacity=".092" d="M52.823 126.243L72.8 114.707c1.016-.585 2.783-.287 3.797.299l35.53 20.511c2.565 1.481 3.781 5.885 1.218 7.366l-15.848 9.15-20.898 12.069c-1.016.585-2.783.886-3.799.299l-43.036-24.846 23.059-13.312z"/>
    <path opacity=".104" d="M52.132 126.243l20.016-11.558c.992-.572 2.795-.236 3.785.336l35.485 20.486c2.504 1.446 3.876 5.854 1.369 7.299l-15.981 9.228-20.873 12.053c-.992.572-2.795.909-3.787.336l-43.071-24.87 23.057-13.31z"/>
    <path opacity=".116" d="M51.442 126.243l20.053-11.58c.968-.558 2.807-.185 3.773.373l35.44 20.46c2.446 1.412 3.968 5.82 1.522 7.232l-16.115 9.305L75.27 164.07c-.968.56-2.807.933-3.775.373l-43.112-24.892 23.059-13.308z"/>
    <path opacity=".127" d="M50.751 126.243l20.093-11.601c.945-.546 2.819-.135 3.764.411l35.397 20.435c2.387 1.377 4.06 5.787 1.674 7.166l-16.251 9.383-20.82 12.023c-.945.546-2.819.957-3.764.411l-43.15-24.917 23.057-13.311z"/>
    <path opacity=".139" d="M50.061 126.243l20.13-11.623c.921-.532 2.831-.084 3.752.448l35.351 20.409c2.326 1.344 4.153 5.755 1.827 7.097l-16.384 9.46-20.794 12.008c-.921.532-2.832.98-3.752.448l-43.189-24.937 23.059-13.31z"/>
    <path opacity=".15" d="M49.37 126.243l20.167-11.646c.898-.519 2.842-.033 3.74.485l35.306 20.383c2.267 1.308 4.245 5.722 1.978 7.03l-16.518 9.539-20.766 11.992c-.898.519-2.844 1.004-3.74.485l-43.224-24.958 23.057-13.31z"/>
    <path opacity=".162" d="M48.68 126.243l20.207-11.668c.874-.505 2.854.018 3.728.523l35.263 20.358c2.208 1.275 4.337 5.689 2.129 6.963l-16.651 9.615-20.739 11.976c-.874.505-2.856 1.027-3.728.523l-43.267-24.98 23.058-13.31z"/>
    <path opacity=".173" d="M47.989 126.243l20.244-11.69c.851-.491 2.866.069 3.716.56l35.218 20.332c2.147 1.239 4.429 5.657 2.283 6.897l-16.787 9.694-20.713 11.961c-.851.491-2.868 1.051-3.718.56l-43.301-25.005 23.058-13.309z"/>
    <path opacity=".185" d="M47.3 126.243l20.283-11.711c.827-.477 2.878.12 3.705.597l35.175 20.307c2.088 1.206 4.522 5.624 2.434 6.83l-16.92 9.77-20.686 11.947c-.827.477-2.88 1.074-3.707.599l-43.342-25.029 23.058-13.31z"/>
    <path opacity=".197" d="M46.608 126.243l20.321-11.735c.803-.464 2.889.171 3.693.634l35.129 20.281c2.027 1.171 4.614 5.59 2.587 6.763l-17.054 9.847-20.66 11.931c-.803.464-2.891 1.098-3.695.636l-43.377-25.049 23.056-13.308z"/>
    <path opacity=".208" d="M45.919 126.243l20.358-11.756c.78-.45 2.903.222 3.681.672l35.084 20.256c1.968 1.137 4.706 5.559 2.738 6.694l-17.19 9.926-20.633 11.915c-.78.45-2.903 1.124-3.683.674l-43.415-25.07 23.06-13.311z"/>
    <path opacity=".22" d="M45.227 126.243l20.397-11.778c.754-.436 2.915.273 3.669.709l35.041 20.23c1.909 1.102 4.799 5.526 2.891 6.628l-17.323 10.002-20.607 11.9c-.756.436-2.915 1.147-3.671.711L22.17 139.553l23.057-13.31z"/>
    <path opacity=".231" d="M44.538 126.243l20.435-11.799c.731-.422 2.927.324 3.658.746l34.996 20.203c1.848 1.067 4.891 5.492 3.043 6.561l-17.457 10.081-20.58 11.884c-.733.422-2.929 1.171-3.659.748l-43.493-25.113 23.057-13.311z"/>
    <path opacity=".243" d="M43.846 126.243l20.474-11.821c.707-.409 2.939.375 3.646.784l34.951 20.179c1.789 1.033 4.985 5.461 3.196 6.494l-17.592 10.157-20.552 11.868c-.709.409-2.941 1.194-3.648.786L20.79 139.553l23.056-13.31z"/>
    <path opacity=".255" d="M43.157 126.243l20.511-11.845c.684-.395 2.95.426 3.634.821l34.907 20.154c1.731.998 5.078 5.427 3.347 6.427L87.83 152.036l-20.526 11.855c-.686.395-2.952 1.218-3.636.823L20.1 139.555l23.057-13.312z"/>
    <path opacity=".266" d="M42.465 126.243l20.55-11.866c.66-.381 2.962.477 3.622.858l34.862 20.126c1.67.964 5.17 5.396 3.5 6.358L87.14 152.032l-20.499 11.839c-.66.381-2.964 1.241-3.624.86l-43.607-25.18 23.055-13.308z"/>
    <path opacity=".278" d="M41.776 126.243l20.588-11.888c.636-.367 2.974.528 3.612.896l34.819 20.101c1.611.929 5.262 5.362 3.652 6.292l-17.995 10.391-20.474 11.823c-.636.367-2.976 1.265-3.614.898l-43.647-25.202 23.059-13.311z"/>
    <path opacity=".289" d="M41.084 126.243l20.625-11.909c.613-.354 2.986.579 3.601.933l34.774 20.075c1.552.896 5.355 5.329 3.803 6.225l-18.128 10.468-20.446 11.807c-.613.354-2.988 1.289-3.603.935l-43.682-25.223 23.056-13.311z"/>
    <path opacity=".301" d="M40.395 126.243l20.664-11.931c.589-.34 2.997.63 3.589.97l34.729 20.049c1.491.86 5.447 5.298 3.956 6.158l-18.262 10.544-20.421 11.792c-.589.34-2.999 1.312-3.591.972l-43.723-25.245 23.059-13.309z"/>
    <path opacity=".312" d="M39.704 126.243l20.702-11.955c.566-.328 3.009.682 3.577 1.008l34.685 20.024c1.432.827 5.539 5.264 4.107 6.091l-18.398 10.623-20.393 11.778c-.566.328-3.013 1.336-3.579 1.01l-43.759-25.269 23.058-13.31z"/>
    <path opacity=".324" d="M39.014 126.243l20.741-11.976c.542-.314 3.021.731 3.565 1.045l34.64 19.998c1.371.792 5.632 5.231 4.261 6.024l-18.531 10.7-20.37 11.762c-.542.314-3.025 1.359-3.567 1.047l-43.798-25.29 23.059-13.31z"/>
    <path opacity=".336" d="M38.323 126.243l20.778-11.998c.519-.301 3.035.782 3.553 1.082L97.249 135.3c1.312.758 5.724 5.199 4.412 5.956l-18.665 10.778-20.34 11.746c-.519.301-3.037 1.385-3.555 1.084l-43.835-25.312 23.057-13.309z"/>
    <path opacity=".347" d="M37.633 126.243l20.816-12.02c.495-.287 3.047.833 3.542 1.12l34.552 19.947c1.253.723 5.816 5.166 4.565 5.889l-18.8 10.855-20.315 11.731c-.495.287-3.049 1.408-3.544 1.122l-43.874-25.333 23.058-13.311z"/>
    <path opacity=".359" d="M36.942 126.243l20.855-12.041c.471-.273 3.058.884 3.53 1.157l34.507 19.922c1.192.69 5.909 5.133 4.716 5.822l-18.934 10.933-20.287 11.715c-.471.273-3.06 1.432-3.532 1.159l-43.912-25.357 23.057-13.31z"/>
    <path opacity=".37" d="M36.252 126.243l20.892-12.065c.448-.259 3.07.935 3.518 1.194l34.463 19.896c1.133.654 6.001 5.101 4.869 5.755l-19.067 11.01-20.264 11.701c-.448.259-3.072 1.456-3.52 1.196l-43.949-25.379 23.058-13.308z"/>
    <path opacity=".382" d="M35.561 126.243l20.931-12.086c.424-.246 3.082.986 3.506 1.232l34.418 19.871c1.074.621 6.095 5.068 5.021 5.689l-19.203 11.088L60 163.723c-.424.246-3.084 1.479-3.51 1.234l-43.986-25.404 23.057-13.31z"/>
    <path opacity=".393" d="M34.871 126.243l20.969-12.108c.401-.232 3.094 1.037 3.494 1.269l34.373 19.845c1.014.585 6.188 5.034 5.172 5.622l-19.336 11.165-20.209 11.67c-.401.232-3.096 1.503-3.498 1.271l-44.024-25.424 23.059-13.31z"/>
    <path opacity=".405" d="M34.18 126.243l21.008-12.13c.377-.218 3.106 1.088 3.483 1.306l34.33 19.82c.955.55 6.28 5.003 5.325 5.553l-19.47 11.244-20.181 11.654c-.377.218-3.109 1.526-3.487 1.308l-44.065-25.445 23.057-13.31z"/>
    <path opacity=".416" d="M33.491 126.243l21.045-12.153c.354-.204 3.117 1.139 3.471 1.344l34.285 19.794c.894.517 6.372 4.97 5.476 5.486l-19.604 11.32-20.154 11.638c-.354.204-3.121 1.55-3.475 1.346l-44.104-25.465 23.06-13.31z"/>
    <path opacity=".428" d="M32.799 126.243l21.083-12.175c.33-.191 3.129 1.19 3.461 1.381l34.24 19.769c.835.481 6.464 4.938 5.63 5.419l-19.739 11.397-20.126 11.625c-.33.19-3.133 1.573-3.463 1.383L9.743 139.553l23.056-13.31z"/>
    <path opacity=".44" d="M32.11 126.243l21.122-12.196c.306-.177 3.141 1.241 3.449 1.418l34.194 19.743c.776.448 6.557 4.905 5.781 5.353l-19.873 11.475-20.101 11.609c-.306.177-3.145 1.597-3.451 1.42L9.05 139.553l23.06-13.31z"/>
    <path opacity=".451" d="M31.418 126.243l21.159-12.218c.283-.163 3.155 1.292 3.438 1.456l34.151 19.716c.715.412 6.649 4.871 5.934 5.286l-20.006 11.552-20.075 11.593c-.283.163-3.157 1.621-3.439 1.458L8.364 139.552l23.054-13.309z"/>
    <path opacity=".463" d="M30.729 126.243l21.199-12.24c.259-.149 3.166 1.344 3.426 1.493l34.108 19.69c.656.379 6.741 4.84 6.085 5.217l-20.142 11.631-20.048 11.578c-.259.149-3.168 1.646-3.428 1.495L7.674 139.552l23.055-13.309z"/>
    <path opacity=".474" d="M30.037 126.243l21.236-12.263c.236-.136 3.178 1.395 3.414 1.53l34.063 19.667c.597.344 6.834 4.807 6.239 5.15l-20.275 11.707-20.022 11.562c-.236.136-3.18 1.67-3.418 1.532L6.981 139.553l23.056-13.31z"/>
    <path opacity=".486" d="M29.348 126.243l21.273-12.285c.212-.122 3.19 1.446 3.402 1.568l34.018 19.639c.536.31 6.926 4.773 6.39 5.084l-20.409 11.786-19.995 11.546c-.212.122-3.192 1.693-3.406 1.569L6.289 139.553l23.059-13.31z"/>
    <path opacity=".497" d="M28.656 126.243l21.313-12.306c.189-.11 3.202 1.497 3.39 1.605l33.974 19.613c.477.275 7.018 4.742 6.543 5.017l-20.544 11.862-19.969 11.532c-.189.11-3.206 1.717-3.394 1.607L5.6 139.553l23.056-13.31z"/>
    <path opacity=".509" d="M27.967 126.243l21.35-12.328c.165-.096 3.214 1.548 3.379 1.642l33.929 19.588c.418.242 7.113 4.708 6.694 4.95l-20.678 11.941L52.7 163.553c-.165.096-3.217 1.74-3.383 1.644L4.908 139.553l23.059-13.31z"/>
    <path opacity=".521" d="M27.276 126.243l21.389-12.349c.141-.083 3.225 1.597 3.367 1.679l33.884 19.562c.357.206 7.205 4.675 6.846 4.883L71.95 152.036l-19.916 11.501c-.141.082-3.229 1.764-3.371 1.681L4.219 139.553l23.057-13.31z"/>
    <path opacity=".532" d="M26.586 126.243l21.426-12.373c.118-.069 3.237 1.648 3.355 1.717l33.841 19.537c.299.173 7.297 4.644 6.999 4.814L71.26 152.032l-19.888 11.485c-.118.069-3.241 1.788-3.359 1.719L3.528 139.553l23.058-13.31z"/>
    <path opacity=".544" d="M25.895 126.243l21.466-12.395c.094-.055 3.249 1.699 3.343 1.754L84.5 135.113c.238.138 7.39 4.61 7.15 4.748l-21.081 12.173-19.863 11.469c-.094.055-3.253 1.811-3.347 1.756L2.838 139.552l23.057-13.309z"/>
    <path opacity=".555" d="M25.205 126.243l21.503-12.416c.071-.041 3.261 1.75 3.331 1.791l33.752 19.486c.179.104 7.482 4.577 7.303 4.681L69.88 152.034l-19.835 11.454c-.071.041-3.265 1.835-3.335 1.793L2.15 139.549l23.055-13.306z"/>
    <path opacity=".567" d="M24.514 126.243l21.54-12.438c.047-.027 3.273 1.801 3.322 1.829l33.707 19.46c.12.069 7.574 4.545 7.454 4.614l-21.348 12.326-19.81 11.44c-.047.028-3.276 1.858-3.324 1.831L1.456 139.553l23.058-13.31z"/>
    <path opacity=".578" d="M23.824 126.243l21.58-12.461c.024-.014 3.286 1.852 3.31 1.866l33.662 19.435c.059.035 7.667 4.512 7.608 4.547l-21.483 12.404-19.782 11.424c-.024.014-3.29 1.882-3.314 1.87L.766 139.553l23.058-13.31z"/>
    <path opacity=".59" d="M89.426 139.553l-21.617 12.481L44.75 165.35.076 139.553l23.057-13.31L44.75 113.76l44.676 25.793z"/>
  </g>
  <linearGradient id="a" gradientUnits="userSpaceOnUse" x1="-740.124" y1="-2399.345" x2="-768.856" y2="-2349.58" gradientTransform="translate(1312.834 4157.089) scale(1.7104)">
    <stop offset="0" stop-color="#edbe76"/>
    <stop offset="1" stop-color="#e4b771"/>
  </linearGradient>
  <path fill="url(#a)" d="M.076 139.555l44.674 25.793V51.859L.076 26.066v113.489z"/>
  <linearGradient id="b" gradientUnits="userSpaceOnUse" x1="-750.636" y1="-2409.485" x2="-701.961" y2="-2333.166" gradientTransform="translate(1312.834 4157.089) scale(1.7104)">
    <stop offset="0" stop-color="#b8945d"/>
    <stop offset="1" stop-color="#cfa86d"/>
  </linearGradient>
  <path fill="url(#b)" d="M44.75 51.859l44.674-25.793v113.489L44.75 165.348V51.859z"/>
  <path fill="#95764E" d="M.076 26.066L44.75.275l44.674 25.791L44.75 51.859.076 26.066z"/>
  <linearGradient id="c" gradientUnits="userSpaceOnUse" x1="-730.802" y1="-2432.468" x2="-737.394" y2="-2409.651" gradientTransform="translate(1312.834 4157.089) scale(1.7104)">
    <stop offset="0" stop-color="#e2b879"/>
    <stop offset="1" stop-color="#ebbf7f"/>
  </linearGradient>
  <path fill="url(#c)" d="M44.75.275L23.133 12.756l44.674 25.791 21.617-12.481L44.75.275z"/>
  <linearGradient id="d" gradientUnits="userSpaceOnUse" x1="-767.515" y1="-2411.749" x2="-727.551" y2="-2411.749" gradientTransform="translate(1312.834 4157.089) scale(1.7104)">
    <stop offset="0" stop-color="#f5c885"/>
    <stop offset="1" stop-color="#ebbf7f"/>
  </linearGradient>
  <path fill="url(#d)" d="M.076 26.066L44.75 51.859l23.681-13.673-44.349-25.98L.076 26.066z"/>
  <g fill="#8A6A50">
    <path d="M55.876 50.661l-6.425 3.709c-.658.379-1.192 1.302-1.192 2.063v7.419c0 .76.534 1.069 1.192.688l6.425-3.709c.658-.379 1.19-1.304 1.19-2.063v-7.419c0-.76-.532-1.067-1.19-.688zm.603 8.445c0 .385-.269.854-.603 1.047l-6.425 3.709c-.332.193-.605.035-.605-.35v-7.419c0-.385.271-.852.605-1.045l6.425-3.709c.332-.193.603-.035.603.348v7.419z"/>
    <path d="M55.245 55.55c-.124-.014-.289.01-.489.141-.287.191-.479.489-.576.662-.033.063-.092.098-.128.079-.106-.059-.326-.124-.648.053-.304.169-.521.462-.642.654v2.73c0 .495-.348 1.096-.776 1.344-.426.246-.776.043-.776-.448a.235.235 0 0 1 .104-.198c.061-.035.11.002.104.079 0 .363.255.511.57.328.314-.181.57-.623.57-.986v-2.724c-.116-.051-.328-.081-.619.084-.324.187-.55.511-.658.689-.035.059-.09.092-.126.073-.092-.049-.281-.106-.552.039a1.447 1.447 0 0 0-.432.377c-.079.096-.167.061-.134-.053a7.702 7.702 0 0 1 .978-2.07c.446-.668.98-1.228 1.544-1.585v-.014c0-.067.047-.147.104-.179.055-.031.104-.008.104.059v.01c1.118-.634 2.135-.373 2.618.65.033.073-.063.216-.14.206zm9.861-10.218l-6.425 3.709c-.658.379-1.192 1.302-1.192 2.063v7.419c0 .76.534 1.069 1.192.688l6.425-3.709c.658-.379 1.19-1.304 1.19-2.063V46.02c0-.761-.532-1.067-1.19-.688zm.603 8.445c0 .385-.269.854-.603 1.047l-6.425 3.709c-.332.193-.605.035-.605-.35v-7.419c0-.385.271-.852.605-1.045l6.425-3.709c.332-.193.603-.035.603.348v7.419z"/>
    <path d="M60.287 55.719l3.21-1.854c.2-.116.361-.022.361.208a.804.804 0 0 1-.361.627l-3.21 1.854c-.2.116-.361.022-.361-.208 0-.232.161-.513.361-.627zm.395-5.779c.053-.118.163-.183.218-.128.232.244.744.792.713.809l-.452.263.02 3.41a.798.798 0 0 1-.359.629c-.2.118-.363.026-.363-.204l-.02-3.41-.452.263c-.034.02.469-1.121.695-1.632zm3.104-.591l-.452.263.02 3.41a.798.798 0 0 1-.359.629c-.2.118-.363.026-.363-.204l-.02-3.41-.452.263c-.031.018.469-1.122.697-1.634.053-.118.163-.183.218-.128.23.245.742.793.711.811zM74.336 40.003l-6.423 3.709c-.658.379-1.192 1.302-1.192 2.063v7.419c0 .76.534 1.069 1.192.688l6.425-3.709c.658-.379 1.19-1.304 1.19-2.063v-7.419c-.002-.761-.534-1.067-1.192-.688zm.603 8.444c0 .385-.269.854-.603 1.047l-6.425 3.709c-.332.193-.605.035-.605-.35v-7.419c0-.385.271-.853.605-1.045l6.425-3.709c.332-.193.603-.035.603.348v7.419z"/>
    <path d="M72.057 49.656c.049.004.024.088-.035.124l-2 1.155c-.061.035-.084-.022-.035-.083.255-.316.56-.599.892-.815v-2.296c-.715.251-1.298-.776-1.469-2.485-.022-.22.136-.517.34-.633l2.55-1.471c.202-.118.361-.004.34.242-.171 1.905-.754 3.604-1.469 4.182v2.296c.327-.169.631-.236.886-.216z"/>
  </g>
  <path fill="#F4EDE0" d="M70.688 150.424l-4.046 2.284V39.221L21.968 13.428l4.046-2.337 44.674 25.793v113.54z" opacity=".58"/>
  <path fill="#F4EDE0" d="M18.809 150.424l4.047 2.284V39.221l44.676-25.793-4.049-2.337-44.674 25.793v113.54z" opacity=".58"/>
  <path fill="#C2C2C1" d="M63.536 87.081l-14.518 8.382c-.742.428-1.346.081-1.346-.776V80.872c0-.858.603-1.901 1.346-2.33l14.518-8.382c.742-.428 1.346-.081 1.346.776v13.815c0 .859-.603 1.902-1.346 2.33z"/>
  <path fill="#515251" d="M63.562 70.318l-14.569 8.411c-.648.375-1.177 1.312-1.177 2.09v13.756c0 .778.528 1.106 1.177.733l14.569-8.411c.648-.375 1.177-1.312 1.177-2.09V71.051c-.001-.78-.529-1.108-1.177-.733zm1.033 14.571c0 .684-.464 1.509-1.033 1.837l-14.569 8.411c-.57.328-1.033.041-1.033-.644V80.737c0-.684.464-1.509 1.033-1.837l14.569-8.411c.57-.328 1.033-.041 1.033.644v13.756z"/>
  <path fill="#515251" d="M63.688 83.296c-2.595 2.334-5.19 2.123-7.784 4.457-.033.029-.059.022-.059-.018 0-.039.026-.094.059-.124 2.595-2.334 5.19-2.123 7.784-4.457.033-.029.059-.022.059.018s-.026.095-.059.124zm0 .742c-2.595 2.334-5.19 2.123-7.784 4.457-.033.029-.059.022-.059-.018 0-.039.026-.094.059-.124 2.595-2.334 5.19-2.123 7.784-4.457.033-.029.059-.022.059.018a.196.196 0 0 1-.059.124zm0 .741c-2.595 2.334-5.19 2.123-7.784 4.457-.033.029-.059.022-.059-.018 0-.039.026-.094.059-.124 2.595-2.334 5.19-2.123 7.784-4.457.033-.029.059-.022.059.018s-.026.095-.059.124zm-4.815-7.777l-9.778 5.645c-.027.016-.049.002-.049-.028v-.002c0-.031.022-.069.049-.084l9.778-5.645c.028-.016.049-.002.049.028v.002a.114.114 0 0 1-.049.084zm-.022-2.27l-9.621 5.555c-.071.041-.128.008-.128-.073v-.006c0-.081.057-.181.128-.22l9.621-5.555c.071-.041.128-.008.128.073v.006c0 .08-.057.178-.128.22zm.022 2.828l-9.778 5.645c-.027.016-.049.002-.049-.027v-.002c0-.031.022-.069.049-.084l9.778-5.645c.028-.016.049-.004.049.028v.002a.115.115 0 0 1-.049.083zm0 .558l-9.778 5.645c-.027.016-.049.002-.049-.028v-.004c0-.031.022-.069.049-.084l9.778-5.645c.028-.016.049-.002.049.028v.002a.12.12 0 0 1-.049.086zm0 .558l-9.778 5.645c-.027.016-.049.002-.049-.027v-.002c0-.031.022-.069.049-.084l9.778-5.645c.028-.016.049-.002.049.028v.002a.122.122 0 0 1-.049.083zm0 .556l-9.778 5.645c-.027.016-.049.002-.049-.027v-.002c0-.031.022-.069.049-.084l9.778-5.645c.028-.016.049-.002.049.027v.002a.119.119 0 0 1-.049.084zm0 .558l-9.778 5.645c-.027.016-.049.002-.049-.027v-.002c0-.031.022-.069.049-.084l9.778-5.645c.028-.016.049-.002.049.027v.002a.119.119 0 0 1-.049.084zm0 2.675l-9.778 5.645c-.027.016-.049.002-.049-.027v-.002c0-.031.022-.069.049-.084l9.778-5.645c.028-.016.049-.002.049.028v.002a.12.12 0 0 1-.049.083zm0-.63l-9.778 5.645c-.027.016-.049.002-.049-.028v-.002c0-.031.022-.069.049-.084l9.778-5.645c.028-.016.049-.002.049.028v.002a.119.119 0 0 1-.049.084zm5.722-4.045L47.96 87.394v-.114l16.635-9.606v.116zm0-5.205L47.96 82.188v-.114l16.635-9.603v.114z"/>
  <path fill="#515251" d="M59.796 83.905V72.663l.095-.055V83.85l-.095.055z"/>
  <path fill="#515251" d="M64.595 81.133L47.96 90.739v-.116l16.635-9.604v.114z"/>
  <g fill="#8A6A50">
    <path d="M38.472 152.948l-.896-2.32c-.053-.136-.022-.251.071-.259l1.668-.149c.09-.008.208.096.259.232l.966 2.505c0-.001-.817.678-2.068-.009z"/>
    <path d="M40.593 153.099l-1.852 2.636c-.086.124-.247.138-.42.037l-1.12-.646v.562c0 .157-.183.102-.246-.073l-.744-2.117c-.077-.216-.077-.42 0-.55l.744-1.257c.063-.102.246.053.246.21v.562l1.397.807c1.025.591 1.938-.128 1.995-.171zm-6.731-2.428l1.799 1.035a.422.422 0 0 1 .191.328l.008 2.229c0 .122-.084.171-.191.11l-1.943-1.118c.002.001-.459-1.657.136-2.584z"/>
    <path d="M33.618 153.187l-1.868-4.773c-.088-.224-.088-.438-.002-.562l.556-.801-.422-.523c-.118-.147-.065-.322.071-.24l1.638 1.037c.167.106.32.297.412.511l.9 2.102c.073.173-.055.259-.173.112l-.422-.522-.693 1c-.511.736-.026 2.547.003 2.659zm2.296-6.319l-.902 1.277c-.053.075-.169.043-.259-.069l-1.67-2.074c-.09-.114-.122-.265-.069-.34l.974-1.377c.001-.002 1.274.973 1.926 2.583z"/>
    <path d="M34.048 144.209l3.705 2.135c.173.1.334.299.42.522l.562 1.444.422-.037c.118-.01.246.222.175.312l-.892 1.073c-.092.11-.246.124-.413.037l-1.636-.843c-.136-.071-.191-.31-.073-.32l.422-.037-.699-1.799c-.515-1.328-1.906-2.419-1.993-2.487z"/>
  </g>
<g id="boxSkin" class="st61">
  <path fill="#EF6823" d="M0,139.5l44.7,25.8V51.7L0,25.8V139.5z"/>
  <path fill="#20333B" d="M44.7,51.7l44.8-25.8v113.7l-44.8,25.8V51.7z"/>
  <path fill="#20333B" d="M0,25.8L44.7,0l44.8,25.8L44.7,51.7L0,25.8z"/>
  <path fill="#F37021" d="M44.7,0L23.1,12.5l44.7,25.8l21.7-12.5L44.7,0z"/>
  <path fill="#F37021" d="M0,25.8l44.7,25.8L68.5,38L24,12L0,25.8z"/>
  <g>
    <path fill="#375263" d="M55.9,50.5l-6.4,3.7c-0.7,0.4-1.2,1.3-1.2,2.1v7.4c0,0.8,0.5,1.1,1.2,0.7l6.4-3.7c0.7-0.4,1.2-1.3,1.2-2.1
      v-7.4C57.1,50.4,56.6,50.1,55.9,50.5z M56.5,58.9c0,0.4-0.3,0.9-0.6,1l-6.4,3.7c-0.3,0.2-0.6,0-0.6-0.3v-7.4c0-0.4,0.3-0.9,0.6-1
      l6.4-3.7c0.3-0.2,0.6,0,0.6,0.3V58.9z"/>
    <path fill="#375263" d="M55.3,55.4c-0.1,0-0.3,0-0.5,0.1c-0.3,0.2-0.5,0.5-0.6,0.7c0,0.1-0.1,0.1-0.1,0.1c-0.1-0.1-0.3-0.1-0.6,0.1
      c-0.3,0.2-0.5,0.5-0.6,0.7v2.7c0,0.5-0.3,1.1-0.8,1.3c-0.4,0.2-0.8,0-0.8-0.4c0-0.1,0-0.2,0.1-0.2c0.1,0,0.1,0,0.1,0.1
      c0,0.4,0.3,0.5,0.6,0.3c0.3-0.2,0.6-0.6,0.6-1v-2.7C52.5,57,52.2,57,52,57.2c-0.3,0.2-0.6,0.5-0.7,0.7c0,0.1-0.1,0.1-0.1,0.1
      c-0.1,0-0.3-0.1-0.6,0c-0.2,0.1-0.3,0.2-0.4,0.4c-0.1,0.1-0.2,0.1-0.1-0.1c0.2-0.7,0.6-1.4,1-2.1c0.4-0.7,1-1.2,1.5-1.6v0
      c0-0.1,0-0.1,0.1-0.2c0.1,0,0.1,0,0.1,0.1v0c1.1-0.6,2.1-0.4,2.6,0.7C55.4,55.2,55.3,55.4,55.3,55.4L55.3,55.4z M65.1,45.1
      l-6.4,3.7c-0.7,0.4-1.2,1.3-1.2,2.1v7.4c0,0.8,0.5,1.1,1.2,0.7l6.4-3.7c0.7-0.4,1.2-1.3,1.2-2.1v-7.4
      C66.3,45.1,65.8,44.8,65.1,45.1z M65.7,53.6c0,0.4-0.3,0.9-0.6,1l-6.4,3.7c-0.3,0.2-0.6,0-0.6-0.3v-7.4c0-0.4,0.3-0.9,0.6-1
      l6.4-3.7c0.3-0.2,0.6,0,0.6,0.3V53.6z"/>
    <path fill="#375263" d="M60.3,55.5l3.2-1.9c0.2-0.1,0.4,0,0.4,0.2c0,0.3-0.1,0.5-0.4,0.6l-3.2,1.9c-0.2,0.1-0.4,0-0.4-0.2
      C60,55.9,60.1,55.7,60.3,55.5z M60.7,49.7c0.1-0.1,0.2-0.2,0.2-0.1c0.2,0.2,0.7,0.8,0.7,0.8l-0.5,0.3l0,3.4c0,0.3-0.1,0.5-0.4,0.6
      c-0.2,0.1-0.4,0-0.4-0.2l0-3.4L60,51.4C60,51.4,60.5,50.3,60.7,49.7z M63.8,49.2l-0.5,0.3l0,3.4c0,0.3-0.1,0.5-0.4,0.6
      c-0.2,0.1-0.4,0-0.4-0.2l0-3.4l-0.5,0.3c0,0,0.5-1.1,0.7-1.6c0.1-0.1,0.2-0.2,0.2-0.1C63.3,48.6,63.9,49.1,63.8,49.2z"/>
    <g>
      <path fill="#375263" d="M74.4,39.8L68,43.5c-0.7,0.4-1.2,1.3-1.2,2.1V53c0,0.8,0.5,1.1,1.2,0.7l6.4-3.7c0.7-0.4,1.2-1.3,1.2-2.1
        v-7.4C75.6,39.7,75,39.4,74.4,39.8z M75,48.3c0,0.4-0.3,0.9-0.6,1L68,53c-0.3,0.2-0.6,0-0.6-0.3v-7.4c0-0.4,0.3-0.9,0.6-1
        l6.4-3.7c0.3-0.2,0.6,0,0.6,0.3V48.3z"/>
      <path fill="#375263" d="M72.1,49.5c0,0,0,0.1,0,0.1l-2,1.2c-0.1,0-0.1,0,0-0.1c0.3-0.3,0.6-0.6,0.9-0.8v-2.3
        c-0.7,0.3-1.3-0.8-1.5-2.5c0-0.2,0.1-0.5,0.3-0.6l2.6-1.5c0.2-0.1,0.4,0,0.3,0.2c-0.2,1.9-0.8,3.6-1.5,4.2v2.3
        C71.5,49.5,71.8,49.4,72.1,49.5L72.1,49.5z"/>
    </g>
  </g>
  <g>
    <g>
      <path fill="#C1C1C1" d="M63.5,86.9L49,95.3c-0.7,0.4-1.3,0.1-1.3-0.8l0-13.8c0-0.9,0.6-1.9,1.3-2.3L63.5,70
        c0.7-0.4,1.3-0.1,1.3,0.8l0,13.8C64.9,85.4,64.3,86.5,63.5,86.9z"/>
      <path fill="#515151" d="M63.5,70.1L49,78.5c-0.6,0.4-1.2,1.3-1.2,2.1l0,13.8c0,0.8,0.5,1.1,1.2,0.7l14.6-8.4
        c0.6-0.4,1.2-1.3,1.2-2.1l0-13.8C64.7,70.1,64.2,69.8,63.5,70.1z M64.6,84.7c0,0.7-0.5,1.5-1,1.8L49,95c-0.6,0.3-1,0-1-0.6
        l0-13.8c0-0.7,0.5-1.5,1-1.8l14.6-8.4c0.6-0.3,1,0,1,0.6L64.6,84.7z"/>
      <path fill="#515151" d="M63.7,83.1c-2.6,2.3-5.2,2.1-7.8,4.5c0,0-0.1,0-0.1,0l0,0c0,0,0-0.1,0.1-0.1c2.6-2.3,5.2-2.1,7.8-4.5
        c0,0,0.1,0,0.1,0l0,0C63.7,83,63.7,83.1,63.7,83.1z"/>
      <path fill="#515151" d="M63.7,83.9c-2.6,2.3-5.2,2.1-7.8,4.5c0,0-0.1,0-0.1,0l0,0c0,0,0-0.1,0.1-0.1c2.6-2.3,5.2-2.1,7.8-4.5
        c0,0,0.1,0,0.1,0l0,0C63.7,83.8,63.7,83.8,63.7,83.9z"/>
      <path fill="#515151" d="M63.7,84.6c-2.6,2.3-5.2,2.1-7.8,4.5c0,0-0.1,0-0.1,0l0,0c0,0,0-0.1,0.1-0.1c2.6-2.3,5.2-2.1,7.8-4.5
        c0,0,0.1,0,0.1,0l0,0C63.7,84.5,63.7,84.6,63.7,84.6z"/>
      <path fill="#515151" d="M58.9,76.8l-9.8,5.6c0,0,0,0,0,0v0c0,0,0-0.1,0-0.1l9.8-5.6C58.9,76.7,58.9,76.7,58.9,76.8L58.9,76.8
        C58.9,76.8,58.9,76.8,58.9,76.8z"/>
      <path fill="#515151" d="M58.8,74.5l-9.6,5.6c-0.1,0-0.1,0-0.1-0.1v0c0-0.1,0.1-0.2,0.1-0.2l9.6-5.6c0.1,0,0.1,0,0.1,0.1v0
        C59,74.4,58.9,74.5,58.8,74.5z"/>
      <path fill="#515151" d="M58.9,77.4L49.1,83c0,0,0,0,0,0v0c0,0,0-0.1,0-0.1l9.8-5.6C58.9,77.2,58.9,77.3,58.9,77.4L58.9,77.4
        C58.9,77.3,58.9,77.4,58.9,77.4z"/>
      <path fill="#515151" d="M58.9,77.9l-9.8,5.6c0,0,0,0,0,0v0c0,0,0-0.1,0-0.1l9.8-5.6C58.9,77.8,58.9,77.8,58.9,77.9L58.9,77.9
        C58.9,77.9,58.9,77.9,58.9,77.9z"/>
      <path fill="#515151" d="M58.9,78.5l-9.8,5.6c0,0,0,0,0,0v0c0,0,0-0.1,0-0.1l9.8-5.6C58.9,78.4,58.9,78.4,58.9,78.5L58.9,78.5
        C58.9,78.4,58.9,78.5,58.9,78.5z"/>
      <path fill="#515151" d="M58.9,79l-9.8,5.6c0,0,0,0,0,0v0c0,0,0-0.1,0-0.1l9.8-5.6C58.9,78.9,58.9,78.9,58.9,79L58.9,79
        C58.9,79,58.9,79,58.9,79z"/>
      <path fill="#515151" d="M58.9,79.6l-9.8,5.6c0,0,0,0,0,0v0c0,0,0-0.1,0-0.1l9.8-5.6C58.9,79.5,58.9,79.5,58.9,79.6L58.9,79.6
        C58.9,79.6,58.9,79.6,58.9,79.6z"/>
      <path fill="#515151" d="M58.9,82.3l-9.8,5.6c0,0,0,0,0,0v0c0,0,0-0.1,0-0.1l9.8-5.6C58.9,82.2,58.9,82.2,58.9,82.3L58.9,82.3
        C58.9,82.2,58.9,82.3,58.9,82.3z"/>
      <path fill="#515151" d="M58.9,81.7l-9.8,5.6c0,0,0,0,0,0v0c0,0,0-0.1,0-0.1l9.8-5.6C58.9,81.5,58.9,81.5,58.9,81.7L58.9,81.7
        C58.9,81.6,58.9,81.6,58.9,81.7z"/>
      <polygon fill="#515151" points="64.6,77.6 47.9,87.2 47.9,87.1 64.6,77.5       "/>
      <polygon fill="#515151" points="64.6,72.4 47.9,82 47.9,81.9 64.6,72.3       "/>
      <polygon fill="#515151" points="59.8,83.7 59.8,72.5 59.9,72.4 59.9,83.7       "/>
      <polygon fill="#515151" points="64.6,81 47.9,90.6 47.9,90.4 64.6,80.8       "/>
    </g>
    <g>
      <g>
        <g>
          <path fill="#E3E3D3" d="M38.4,152.8l-0.9-2.3c-0.1-0.1,0-0.3,0.1-0.3l1.7-0.1c0.1,0,0.2,0.1,0.3,0.2l1,2.5
            C40.5,152.8,39.7,153.5,38.4,152.8z"/>
        </g>
        <g>
          <path fill="#E3E3D3" d="M40.6,153l-1.9,2.6c-0.1,0.1-0.2,0.1-0.4,0l-1.1-0.6v0.6c0,0.2-0.2,0.1-0.2-0.1l-0.7-2.1
            c-0.1-0.2-0.1-0.4,0-0.5l0.7-1.3c0.1-0.1,0.2,0.1,0.2,0.2v0.6l1.4,0.8C39.6,153.7,40.5,153,40.6,153z"/>
        </g>
      </g>
      <g>
        <path fill="#E3E3D3" d="M33.8,150.5l1.8,1c0.1,0.1,0.2,0.2,0.2,0.3l0,2.2c0,0.1-0.1,0.2-0.2,0.1l-1.9-1.1
          C33.7,153.1,33.2,151.5,33.8,150.5z"/>
      </g>
      <g>
        <path fill="#E3E3D3" d="M33.6,153.1l-1.9-4.8c-0.1-0.2-0.1-0.4,0-0.6l0.6-0.8l-0.4-0.5c-0.1-0.1-0.1-0.3,0.1-0.2l1.6,1
          c0.2,0.1,0.3,0.3,0.4,0.5l0.9,2.1c0.1,0.2-0.1,0.3-0.2,0.1l-0.4-0.5l-0.7,1C33.1,151.1,33.6,152.9,33.6,153.1z"/>
      </g>
      <g>
        <path fill="#E3E3D3" d="M35.9,146.7L35,148c-0.1,0.1-0.2,0-0.3-0.1l-1.7-2.1c-0.1-0.1-0.1-0.3-0.1-0.3l1-1.4
          C34,144.1,35.2,145.1,35.9,146.7z"/>
      </g>
      <g>
        <path fill="#E3E3D3" d="M34,144.1l3.7,2.1c0.2,0.1,0.3,0.3,0.4,0.5l0.6,1.4l0.4,0c0.1,0,0.2,0.2,0.2,0.3l-0.9,1.1
          c-0.1,0.1-0.2,0.1-0.4,0l-1.6-0.8c-0.1-0.1-0.2-0.3-0.1-0.3l0.4,0l-0.7-1.8C35.5,145.2,34.1,144.1,34,144.1z"/>
      </g>
    </g>
    <polygon fill="#E3E3D3" points="8.2,144.1 44.7,100.5 44.7,84.1 0,139.4    "/>
    <polygon fill="#E3E3D3" points="0,130.5 44.7,76.7 44.7,60.6 0,116.8     "/>
    <polygon fill="#E3E3D3" points="36.9,4.6 52.6,4.6 56.8,7 32.7,7     "/>
    <polygon fill="#E3E3D3" points="29.6,8.7 59.8,8.7 64,11.1 25.4,11.1     "/>
  </g>
</g>
</svg>