<?xml version="1.0" encoding="UTF-8"?>
<svg width="12px" height="12px" viewBox="0 0 12 12" version="1.1" xmlns="http://www.w3.org/2000/svg" xmlns:xlink="http://www.w3.org/1999/xlink">
    <!-- Generator: Sketch 52.6 (67491) - http://www.bohemiancoding.com/sketch -->
    <title>Group 14</title>
    <desc>Created with Sketch.</desc>
    <g id="Page-1" stroke="none" stroke-width="1" fill="none" fill-rule="evenodd">
        <g id="Desktop_A_PackagingMO" transform="translate(-448.000000, -6519.000000)">
            <g id="Page"></g>
            <g id="Page"></g>
            <g id="Group-19" transform="translate(234.000000, 6210.000000)" fill="#000000" fill-rule="nonzero">
                <g id="Group-18-Copy" transform="translate(28.000000, 303.000000)">
                    <g id="external_link-copy-2" transform="translate(186.000000, 6.000000)">
                        <g id="Group-14">
                            <polygon id="Shape" points="11.5783133 0 6.93975904 0 6.93975904 0.843373494 10.5662651 0.843373494 5 6.40963855 5.59036145 7 11.1566265 1.43373494 11.1566265 5.06024096 12 5.06024096 12 0.421686747 12 0"></polygon>
                            <polygon id="Shape" points="11.1428571 11.1428571 0.857142857 11.1428571 0.857142857 0.857142857 4.28571429 0.857142857 4.28571429 0 1.28571429 0 0 0 0 0.428571429 0 10.7142857 0 12 1.28571429 12 11.5714286 12 12 12 12 10.7142857 12 7.71428571 11.1428571 7.71428571"></polygon>
                        </g>
                    </g>
                </g>
            </g>
        </g>
    </g>
</svg>