<svg id="Layer_1" data-name="Layer 1" xmlns="http://www.w3.org/2000/svg" viewBox="0 0 119.4 165.35">
  <defs>
    <style>
      .cls-59{isolation:isolate}.cls-55{fill:#95764e}.cls-58{fill:#8a6a50}.cls-59{fill:#f4ede0;opacity:.58}.cls-61{fill:#515251}.cls-64{fill:#f37021}.cls-65{fill:#375263}.cls-67{fill:#515151}.cls-68{fill:#e3e3d3}
    </style>
    <linearGradient id="linear-gradient" x1="-922.46" y1="2697.01" x2="-951.19" y2="2647.24" gradientTransform="matrix(1.71 0 0 -1.71 1624.7 4666.21)" gradientUnits="userSpaceOnUse">
      <stop offset="0" stop-color="#edbe76"/>
      <stop offset="1" stop-color="#e4b771"/>
    </linearGradient>
    <linearGradient id="linear-gradient-2" x1="-932.97" y1="2707.15" x2="-884.3" y2="2630.83" gradientTransform="matrix(1.71 0 0 -1.71 1624.7 4666.21)" gradientUnits="userSpaceOnUse">
      <stop offset="0" stop-color="#b8945d"/>
      <stop offset="1" stop-color="#cfa86d"/>
    </linearGradient>
    <linearGradient id="linear-gradient-3" x1="-913.14" y1="2730.13" x2="-919.73" y2="2707.31" gradientTransform="matrix(1.71 0 0 -1.71 1624.7 4666.21)" gradientUnits="userSpaceOnUse">
      <stop offset="0" stop-color="#e2b879"/>
      <stop offset="1" stop-color="#ebbf7f"/>
    </linearGradient>
    <linearGradient id="linear-gradient-4" x1="-949.85" y1="2709.41" x2="-909.89" y2="2709.41" gradientTransform="matrix(1.71 0 0 -1.71 1624.7 4666.21)" gradientUnits="userSpaceOnUse">
      <stop offset="0" stop-color="#f5c885"/>
      <stop offset="1" stop-color="#ebbf7f"/>
    </linearGradient>
  </defs>
  <g id="shadow" opacity=".6" fill="#181818">
    <path d="M57.65 126.24l19.71-11.38a4 4 0 0 1 3.88 0l35.84 20.69a4.55 4.55 0 0 1 .16 7.84L102.33 152l-21.08 12.21a4 4 0 0 1-3.88 0L34.6 139.55l23.06-13.31z" style="isolation:isolate" opacity=".01"/>
    <path d="M57 126.24l19.75-11.4a4 4 0 0 1 3.87.07l35.8 20.67c2.92 1.69 3.22 6.08.3 7.77l-15 8.69-21.14 12.16a4 4 0 0 1-3.87.07l-42.8-24.72L57 126.24z" style="isolation:isolate" opacity=".02"/>
    <path d="M56.27 126.24l19.79-11.42a4 4 0 0 1 3.86.11l35.75 20.64c2.86 1.65 3.32 6.05.46 7.7L101 152l-21 12.15a4 4 0 0 1-3.86.11l-42.92-24.71z" style="isolation:isolate" opacity=".04"/>
    <path d="M55.58 126.24l19.83-11.45a4.09 4.09 0 0 1 3.84.15L115 135.56c2.8 1.62 3.41 6 .61 7.63L100.26 152l-21 12.13a4.06 4.06 0 0 1-3.84.14l-42.89-24.72 23-13.31z" style="isolation:isolate" opacity=".05"/>
    <path d="M54.89 126.24l19.87-11.47a4.16 4.16 0 0 1 3.83.19l35.66 20.59c2.75 1.58 3.51 6 .76 7.57L99.57 152l-21 12.11a4.13 4.13 0 0 1-3.83.19l-42.9-24.74 23.05-13.32z" style="isolation:isolate" opacity=".06"/>
    <path d="M54.2 126.24l19.9-11.49a4.2 4.2 0 0 1 3.82.23l35.62 20.56c2.69 1.55 3.6 6 .92 7.5l-15.58 9-20.95 12.1a4.23 4.23 0 0 1-3.83.23l-43-24.81 23.1-13.32z" style="isolation:isolate" opacity=".07"/>
    <path d="M53.51 126.24l19.94-11.51a4.28 4.28 0 0 1 3.81.26l35.58 20.54c2.62 1.51 3.68 5.92 1.06 7.43L98.19 152l-20.93 12.12a4.28 4.28 0 0 1-3.81.26l-43-24.83 23-13.31z" style="isolation:isolate" opacity=".08"/>
    <path d="M52.82 126.24l20-11.53a4.34 4.34 0 0 1 3.8.3l35.53 20.51c2.56 1.48 3.78 5.88 1.22 7.36L97.5 152l-20.9 12.1a4.34 4.34 0 0 1-3.8.3l-43-24.85z" style="isolation:isolate" opacity=".09"/>
    <path d="M52.13 126.24l20-11.56a4.44 4.44 0 0 1 3.78.34l35.49 20.49c2.5 1.44 3.87 5.85 1.37 7.3l-16 9.22-20.84 12.06a4.4 4.4 0 0 1-3.78.33l-43.07-24.87 23.05-13.31z" style="isolation:isolate" opacity=".1"/>
    <path d="M51.44 126.24l20.06-11.58c1-.56 2.8-.18 3.77.38l35.44 20.46c2.44 1.41 4 5.82 1.52 7.23L96.12 152l-20.85 12c-1 .56-2.81.93-3.78.37l-43.11-24.82 23.06-13.31z" style="isolation:isolate" opacity=".12"/>
    <path d="M50.75 126.24l20.09-11.6c1-.54 2.82-.13 3.77.41L110 135.49c2.38 1.38 4.06 5.79 1.67 7.16L95.43 152l-20.82 12c-1 .55-2.82 1-3.77.41l-43.15-24.86z" style="isolation:isolate" opacity=".13"/>
    <path d="M50.06 126.24l20.13-11.62c.92-.53 2.83-.08 3.75.45l35.35 20.41c2.33 1.34 4.16 5.75 1.83 7.09L94.74 152l-20.8 12c-.92.53-2.83 1-3.75.45L27 139.55l23.06-13.31z" style="isolation:isolate" opacity=".14"/>
    <path d="M49.37 126.24l20.17-11.64c.9-.52 2.84 0 3.74.48l35.3 20.38c2.27 1.31 4.25 5.73 2 7L94 152l-20.72 12c-.9.51-2.85 1-3.74.48l-43.23-25 23.06-13.31z" style="isolation:isolate" opacity=".15"/>
    <path d="M48.68 126.24l20.21-11.67c.87-.5 2.85 0 3.72.53l35.27 20.36c2.21 1.27 4.33 5.68 2.13 7L93.36 152l-20.74 12c-.88.5-2.86 1-3.73.52l-43.27-25z" style="isolation:isolate" opacity=".16"/>
    <path d="M48 126.24l20.24-11.69c.85-.49 2.87.07 3.72.56l35.22 20.33c2.14 1.24 4.43 5.66 2.28 6.9L92.66 152 72 164c-.85.49-2.87 1.05-3.72.56l-43.3-25z" style="isolation:isolate" opacity=".17"/>
    <path d="M47.3 126.24l20.28-11.71c.83-.47 2.88.12 3.71.6l35.17 20.31c2.09 1.2 4.53 5.62 2.44 6.83L92 152l-20.71 12c-.83.48-2.88 1.08-3.71.6l-43.34-25 23.06-13.36z" style="isolation:isolate" opacity=".19"/>
    <path d="M46.61 126.24l20.32-11.73c.8-.47 2.89.17 3.69.63l35.13 20.28c2 1.17 4.62 5.59 2.59 6.77L91.28 152l-20.66 12c-.8.47-2.89 1.1-3.69.64l-43.38-25 23.06-13.31z" style="isolation:isolate" opacity=".2"/>
    <path d="M45.92 126.24l20.36-11.75c.78-.45 2.9.22 3.68.67L105 135.41c2 1.14 4.71 5.56 2.74 6.7L90.59 152 70 164c-.78.45-2.91 1.12-3.69.67l-43.45-25.12z" style="isolation:isolate" opacity=".21"/>
    <path d="M45.23 126.24l20.39-11.78c.76-.43 2.92.28 3.67.71l35 20.23c1.91 1.11 4.8 5.53 2.89 6.63L89.9 152l-20.61 11.9c-.75.44-2.91 1.15-3.67.71l-43.45-25.06z" style="isolation:isolate" opacity=".22"/>
    <path d="M44.54 126.24L65 114.44c.73-.42 2.93.33 3.66.75l35 20.2c1.84 1.07 4.89 5.5 3 6.56L89.21 152l-20.58 11.92c-.73.42-2.93 1.17-3.66.75l-43.49-25.12z" style="isolation:isolate" opacity=".23"/>
    <path d="M43.85 126.24l20.47-11.82c.71-.41 2.94.38 3.65.79l35 20.17c1.79 1 5 5.47 3.19 6.5L88.52 152 68 163.9c-.71.41-2.94 1.2-3.65.79l-43.56-25.14z" style="isolation:isolate" opacity=".24"/>
    <path d="M43.16 126.24l20.51-11.84c.68-.4 3 .42 3.63.82l34.91 20.15c1.73 1 5.08 5.43 3.35 6.43L87.83 152 67.3 163.89c-.68.4-3 1.22-3.63.82L20.1 139.55z" style="isolation:isolate" opacity=".25"/>
    <path d="M42.47 126.24L63 114.38c.66-.38 3 .47 3.63.86l34.86 20.12c1.67 1 5.17 5.4 3.5 6.36L87.14 152l-20.5 11.84c-.66.38-3 1.24-3.62.86l-43.61-25.15z" style="isolation:isolate" opacity=".27"/>
    <path d="M41.78 126.24l20.58-11.89c.64-.36 3 .53 3.62.9l34.81 20.1c1.62.93 5.27 5.36 3.66 6.29l-18 10.4L66 163.86c-.64.37-3 1.26-3.62.9l-43.66-25.21 23.06-13.31z" style="isolation:isolate" opacity=".28"/>
    <path d="M41.08 126.24l20.63-11.91c.61-.35 3 .58 3.6.94l34.77 20.07c1.56.9 5.36 5.33 3.81 6.23L85.76 152l-20.45 11.8c-.61.36-3 1.29-3.6.94L18 139.55l23-13.31z" style="isolation:isolate" opacity=".29"/>
    <path d="M40.4 126.24l20.66-11.93c.59-.34 3 .63 3.59 1l34.73 20.05c1.49.86 5.44 5.3 4 6.16L85.07 152l-20.42 11.8c-.59.34-3 1.31-3.59 1l-43.72-25.25 23.06-13.31z" style="isolation:isolate" opacity=".3"/>
    <path d="M39.7 126.24l20.71-11.95c.56-.33 3 .68 3.57 1l34.69 20c1.43.83 5.54 5.26 4.11 6.09L84.38 152 64 163.81c-.56.33-3 1.34-3.57 1l-43.78-25.26z" style="isolation:isolate" opacity=".31"/>
    <path d="M39 126.24l20.74-12c.55-.32 3 .73 3.57 1l34.64 20c1.37.79 5.63 5.23 4.26 6L83.69 152l-20.37 11.8c-.54.31-3 1.35-3.57 1L16 139.55l23-13.31z" style="isolation:isolate" opacity=".32"/>
    <path d="M38.32 126.24l20.78-12c.52-.3 3 .79 3.55 1.09l34.6 20c1.31.76 5.72 5.2 4.41 6L83 152l-20.34 11.78c-.52.3-3 1.38-3.56 1.08l-43.83-25.31z" style="isolation:isolate" opacity=".34"/>
    <path d="M37.63 126.24l20.82-12c.49-.28 3 .84 3.54 1.12l34.55 19.95c1.26.72 5.82 5.17 4.57 5.89L82.31 152 62 163.76c-.49.29-3.05 1.41-3.54 1.13l-43.89-25.34z" style="isolation:isolate" opacity=".35"/>
    <path d="M36.94 126.24l20.86-12c.47-.27 3.05.89 3.53 1.16l34.5 19.92c1.2.69 5.91 5.13 4.72 5.82L81.62 152l-20.29 11.75c-.47.27-3.06 1.43-3.53 1.16l-43.91-25.36z" style="isolation:isolate" opacity=".36"/>
    <path d="M36.25 126.24l20.89-12.06c.45-.26 3.07.93 3.52 1.19l34.47 19.9c1.13.65 6 5.1 4.86 5.75L80.93 152l-20.27 11.7c-.44.26-3.07 1.46-3.52 1.2l-43.95-25.35z" style="isolation:isolate" opacity=".37"/>
    <path d="M35.56 126.24l20.93-12.08c.43-.25 3.08 1 3.51 1.23l34.42 19.87c1.07.62 6.09 5.07 5 5.69L80.23 152 60 163.72c-.42.25-3.08 1.48-3.51 1.24l-44-25.41 23.06-13.31z" style="isolation:isolate" opacity=".38"/>
    <path d="M34.87 126.24l21-12.11c.4-.23 3.09 1 3.49 1.27l34.38 19.85c1 .58 6.19 5 5.17 5.62L79.54 152l-20.21 11.71c-.4.23-3.09 1.5-3.49 1.27l-44-25.43 23.06-13.31z" style="isolation:isolate" opacity=".39"/>
    <path d="M34.18 126.24l21-12.13c.37-.22 3.1 1.09 3.48 1.31L93 135.24c1 .55 6.28 5 5.33 5.55L78.86 152l-20.18 11.69c-.38.22-3.11 1.53-3.49 1.31l-44.07-25.45 23.06-13.31z" style="isolation:isolate" opacity=".41"/>
    <path d="M33.49 126.24l21-12.15c.35-.2 3.11 1.14 3.47 1.34l34.28 19.8c.9.51 6.37 5 5.48 5.48L78.16 152 58 163.67c-.35.21-3.12 1.55-3.47 1.35l-44.1-25.47z" style="isolation:isolate" opacity=".42"/>
    <path d="M32.8 126.24l21.08-12.17c.33-.19 3.13 1.19 3.46 1.38l34.24 19.77c.84.48 6.47 4.94 5.63 5.42L77.47 152l-20.12 11.66c-.33.19-3.13 1.57-3.47 1.38L9.74 139.55z" style="isolation:isolate" opacity=".43"/>
    <path d="M32.11 126.24l21.12-12.19c.31-.18 3.14 1.24 3.45 1.41l34.2 19.75c.77.45 6.55 4.9 5.78 5.35L76.78 152l-20.1 11.6c-.3.18-3.14 1.6-3.45 1.42L9.05 139.55z" style="isolation:isolate" opacity=".44"/>
    <path d="M31.42 126.24L52.58 114c.28-.16 3.15 1.3 3.43 1.46l34.16 19.74c.71.41 6.65 4.87 5.93 5.28L76.09 152 56 163.63c-.28.16-3.16 1.62-3.44 1.46l-44.2-25.54z" style="isolation:isolate" opacity=".45"/>
    <path d="M30.73 126.24L51.93 114c.26-.15 3.16 1.35 3.42 1.5l34.11 19.69c.66.38 6.74 4.84 6.09 5.21L75.41 152l-20 11.58c-.26.15-3.17 1.65-3.43 1.5L7.67 139.55z" style="isolation:isolate" opacity=".46"/>
    <path d="M30 126.24L51.27 114c.24-.14 3.18 1.39 3.42 1.53l34.06 19.67c.6.34 6.83 4.8 6.24 5.15L74.71 152l-20 11.57c-.23.13-3.18 1.67-3.42 1.53L7 139.55z" style="isolation:isolate" opacity=".47"/>
    <path d="M29.35 126.24L50.62 114a20.63 20.63 0 0 1 3.4 1.57l34 19.63c.54.31 6.93 4.78 6.39 5.09L74 152l-20 11.58a22 22 0 0 1-3.41 1.57l-44.3-25.6z" style="isolation:isolate" opacity=".49"/>
    <path d="M28.66 126.24L50 113.94a23.57 23.57 0 0 1 3.39 1.6l34 19.61c.48.28 7 4.75 6.55 5L73.33 152l-20 11.54a23.57 23.57 0 0 1-3.39 1.6L5.6 139.55z" style="isolation:isolate" opacity=".5"/>
    <path d="M28 126.24l21.35-12.33a28.37 28.37 0 0 1 3.38 1.65l33.93 19.58c.41.25 7.11 4.71 6.69 5L72.64 152 52.7 163.55a28.37 28.37 0 0 1-3.38 1.65L4.91 139.55z" style="isolation:isolate" opacity=".51"/>
    <path d="M27.28 126.24l21.39-12.35a32.89 32.89 0 0 1 3.33 1.68l33.89 19.56c.35.21 7.2 4.68 6.84 4.89L72 152l-20 11.54a33 33 0 0 1-3.37 1.68L4.22 139.55z" style="isolation:isolate" opacity=".52"/>
    <path d="M26.59 126.24L48 113.87c.12-.07 3.24 1.65 3.36 1.72l33.84 19.53c.3.18 7.29 4.65 7 4.82L71.26 152l-19.89 11.52c-.12.07-3.24 1.78-3.36 1.72L3.53 139.55z" style="isolation:isolate" opacity=".53"/>
    <path d="M25.9 126.24l21.46-12.39c.1-.06 3.25 1.7 3.34 1.75l33.8 19.51c.24.14 7.39 4.61 7.15 4.75L70.57 152l-19.86 11.5c-.1.06-3.26 1.81-3.35 1.76L2.84 139.55z" style="isolation:isolate" opacity=".54"/>
    <path d="M25.2 126.24l21.51-12.41c.07 0 3.26 1.75 3.33 1.79l33.75 19.48c.18.11 7.48 4.58 7.3 4.69L69.88 152 50 163.49c-.07 0-3.26 1.83-3.33 1.79L2.15 139.55z" style="isolation:isolate" opacity=".56"/>
    <path d="M24.51 126.24l21.54-12.44c.05 0 3.28 1.81 3.33 1.83l33.7 19.46c.12.07 7.58 4.55 7.46 4.62L69.19 152l-19.81 11.47c-.05 0-3.28 1.86-3.32 1.83l-44.6-25.75z" style="isolation:isolate" opacity=".57"/>
    <path d="M23.82 126.24l21.58-12.46s3.29 1.85 3.31 1.87l33.67 19.43c.05 0 7.66 4.51 7.6 4.55L68.5 152l-19.78 11.46s-3.29 1.88-3.31 1.87L.77 139.55z" style="isolation:isolate" opacity=".58"/>
    <path d="M89.43 139.55L67.81 152l-23.06 13.35-44.67-25.8 23.05-13.31 21.62-12.48 44.68 25.79z" style="isolation:isolate" opacity=".59"/>
  </g>
  <path d="M.08 139.55l44.67 25.8V51.86L.08 26.07z" fill="url(#linear-gradient)"/>
  <path d="M44.75 51.86l44.67-25.79v113.48l-44.67 25.8z" fill="url(#linear-gradient-2)"/>
  <path class="cls-55" d="M.08 26.07L44.75.28l44.67 25.79-44.67 25.79z"/>
  <path d="M44.75.28L23.13 12.76l44.68 25.79 21.61-12.48z" fill="url(#linear-gradient-3)"/>
  <path d="M.08 26.07l44.67 25.79 23.68-13.67-44.35-26z" fill="url(#linear-gradient-4)"/>
  <path class="cls-58" d="M55.88 50.66l-6.43 3.71a2.62 2.62 0 0 0-1.19 2.06v7.42c0 .76.53 1.07 1.19.69l6.43-3.71a2.65 2.65 0 0 0 1.19-2.06v-7.42c0-.76-.54-1.07-1.19-.69zm.6 8.45a1.33 1.33 0 0 1-.6 1l-6.43 3.71c-.33.2-.6 0-.6-.35v-7.38a1.33 1.33 0 0 1 .6-1l6.43-3.71c.33-.19.6 0 .6.35z"/>
  <path class="cls-58" d="M55.24 55.55a.74.74 0 0 0-.48.14 2 2 0 0 0-.58.66c0 .07-.09.1-.13.08a.66.66 0 0 0-.65 0 2 2 0 0 0-.64.66v2.73a1.74 1.74 0 0 1-.76 1.39c-.43.25-.78 0-.78-.45a.24.24 0 0 1 .1-.19c.07 0 .11 0 .11.08 0 .36.25.51.57.32a1.26 1.26 0 0 0 .57-1v-2.71a.68.68 0 0 0-.62.09 2 2 0 0 0-.66.69c0 .06-.09.09-.12.07a.57.57 0 0 0-.56 0 1.4 1.4 0 0 0-.43.38c-.08.09-.17.06-.13-.06a7.7 7.7 0 0 1 1-2.07 5.29 5.29 0 0 1 1.54-1.58.27.27 0 0 1 .1-.18c.06 0 .11 0 .11.06a1.71 1.71 0 0 1 2.62.65c0 .11-.1.25-.18.24zm9.87-10.22L58.68 49a2.62 2.62 0 0 0-1.19 2.06v7.42c0 .76.53 1.07 1.19.69l6.43-3.71a2.65 2.65 0 0 0 1.19-2.06V46c0-.74-.54-1-1.19-.67zm.6 8.45a1.33 1.33 0 0 1-.6 1l-6.43 3.71c-.33.2-.6 0-.6-.35v-7.38a1.33 1.33 0 0 1 .6-1L65.11 46c.33-.19.6 0 .6.35z"/>
  <path class="cls-58" d="M60.29 55.72l3.21-1.85c.2-.12.36 0 .36.2a.82.82 0 0 1-.36.63l-3.21 1.85c-.2.12-.36 0-.36-.2a.78.78 0 0 1 .36-.63zm.39-5.78c.06-.12.16-.18.22-.13a8.31 8.31 0 0 1 .71.81l-.45.26v3.41a.77.77 0 0 1-.36.63c-.2.12-.36 0-.36-.2v-3.41l-.45.26s.47-1.12.69-1.63zm3.11-.59l-.46.26v3.41a.77.77 0 0 1-.36.63c-.2.12-.36 0-.36-.2v-3.41l-.45.26s.47-1.12.7-1.63c0-.12.16-.19.21-.13a7.7 7.7 0 0 1 .72.81zM74.34 40l-6.43 3.71a2.65 2.65 0 0 0-1.19 2.06v7.42c0 .76.53 1.07 1.19.69l6.43-3.71a2.62 2.62 0 0 0 1.19-2.06v-7.42c0-.76-.53-1.07-1.19-.69zm.6 8.45a1.33 1.33 0 0 1-.6 1l-6.43 3.75c-.33.2-.6 0-.6-.35v-7.42a1.33 1.33 0 0 1 .6-1l6.43-3.71c.33-.19.6 0 .6.35z"/>
  <path class="cls-58" d="M72.06 49.66v.12l-2 1.15c-.06 0-.08 0 0-.08a3.8 3.8 0 0 1 .89-.81v-2.3c-.72.25-1.3-.78-1.47-2.48a.77.77 0 0 1 .34-.64l2.55-1.47c.2-.12.36 0 .34.24-.17 1.91-.75 3.61-1.47 4.19v2.29a1.67 1.67 0 0 1 .89-.21z"/>
  <path class="cls-59" d="M70.69 150.42l-4 2.29V39.22L22 13.43l4-2.34 44.69 25.79z"/>
  <path class="cls-59" d="M18.81 150.42l4.05 2.29V39.22l44.67-25.79-4.05-2.34-44.67 25.79v113.54z"/>
  <path d="M63.54 87.08L49 95.46c-.74.43-1.35.08-1.35-.77V80.87A3 3 0 0 1 49 78.54l14.52-8.38c.74-.43 1.34-.08 1.34.78v13.81a3 3 0 0 1-1.32 2.33z" fill="#c2c2c1"/>
  <path class="cls-61" d="M63.56 70.32L49 78.73a2.66 2.66 0 0 0-1.17 2.09v13.75c0 .78.52 1.11 1.17.74l14.56-8.41a2.68 2.68 0 0 0 1.18-2.09V71.05c0-.78-.53-1.11-1.18-.73zm1 14.57a2.35 2.35 0 0 1-1 1.84L49 95.14c-.57.33-1 0-1-.65V80.74a2.33 2.33 0 0 1 1-1.84l14.57-8.41c.57-.33 1 0 1 .64z"/>
  <path class="cls-61" d="M63.69 83.3c-2.6 2.33-5.19 2.12-7.79 4.45a.21.21 0 0 1 0-.13c2.6-2.33 5.19-2.12 7.79-4.46h.06a.22.22 0 0 1-.06.14zm0 .74c-2.6 2.33-5.19 2.12-7.79 4.45a.21.21 0 0 1 0-.13c2.6-2.33 5.19-2.12 7.79-4.45h.06a.26.26 0 0 1-.06.09zm0 .74c-2.6 2.33-5.19 2.12-7.79 4.46a.21.21 0 0 1 0-.13c2.6-2.33 5.19-2.12 7.79-4.45h.06a.22.22 0 0 1-.06.12zM58.87 77l-9.77 5.65h-.05a.12.12 0 0 1 .05-.09l9.77-5.64h.05a.1.1 0 0 1-.05.08zm0-2.27l-9.62 5.56c-.07 0-.13 0-.13-.08a.29.29 0 0 1 .13-.22l9.62-5.56c.07 0 .13 0 .13.08a.29.29 0 0 1-.15.22zm0 2.83L49.1 83.2h-.05a.11.11 0 0 1 .05-.09l9.77-5.64h.05a.1.1 0 0 1-.05.09zm0 .56l-9.77 5.64h-.05a.09.09 0 0 1 .05-.08L58.87 78h.05a.11.11 0 0 1-.05.12zm0 .56l-9.77 5.64h-.05a.09.09 0 0 1 .05-.08l9.77-5.65h.05a.11.11 0 0 1-.05.09zm0 .55l-9.77 5.65h-.05a.12.12 0 0 1 .05-.09l9.77-5.64h.05a.1.1 0 0 1-.05.08zm0 .56l-9.77 5.64h-.05a.11.11 0 0 1 .05-.09l9.77-5.64h.05a.1.1 0 0 1-.05.09zm0 2.67l-9.77 5.65h-.05a.09.09 0 0 1 .05-.11l9.77-5.65h.05a.08.08 0 0 1-.05.11zm0-.63l-9.77 5.65h-.05a.09.09 0 0 1 .05-.08l9.77-5.65h.05a.09.09 0 0 1-.05.08zm5.73-4L48 87.39v-.11l16.6-9.61zm0-5.21L48 82.19v-.12l16.64-9.6z"/>
  <path class="cls-61" d="M59.8 83.9V72.66h.09v11.19z"/>
  <path class="cls-61" d="M64.6 81.13L48 90.74v-.12L64.6 81z"/>
  <path class="cls-58" d="M38.47 153l-.89-2.32c-.06-.14 0-.25.07-.26l1.66-.15c.09 0 .21.1.26.23l1 2.51a1.87 1.87 0 0 1-2.07 0z"/>
  <path class="cls-58" d="M40.59 153.1l-1.85 2.64c-.09.12-.25.13-.42 0l-1.12-.64v.56c0 .16-.18.1-.24-.07l-.75-2.12a.65.65 0 0 1 0-.55l.75-1.26c.06-.1.24.05.24.21v.56l1.4.81a1.82 1.82 0 0 0 1.99-.14zm-6.73-2.43l1.8 1a.42.42 0 0 1 .19.32v2.23c0 .13-.08.17-.19.11l-1.94-1.11a3.93 3.93 0 0 1 .13-2.59z"/>
  <path class="cls-58" d="M33.62 153.19l-1.87-4.78a.61.61 0 0 1 0-.56l.55-.8-.42-.52c-.12-.15-.06-.32.07-.24l1.64 1a1.06 1.06 0 0 1 .41.51l.9 2.1c.08.17 0 .26-.17.11l-.42-.52-.7 1c-.51.73 0 2.55 0 2.66zm2.29-6.32l-.9 1.27c0 .08-.17.05-.26-.06L33.08 146a.33.33 0 0 1-.07-.34l1-1.38a6.83 6.83 0 0 1 1.92 2.59z"/>
  <path class="cls-58" d="M34.05 144.21l3.7 2.13a1 1 0 0 1 .42.53l.56 1.44h.43c.11 0 .24.22.17.31l-.89 1.08a.31.31 0 0 1-.41 0l-1.64-.84c-.14-.07-.19-.31-.07-.32h.42L36 146.7a7 7 0 0 0-2-2.49z"/>
  <g id="boxSkin">
    <path d="M0 139.51l44.75 25.84V51.67L0 25.83z" fill="#ef6823"/>
    <path d="M44.75 51.67L89.5 25.83v113.68l-44.75 25.84z" fill="#20333b"/>
    <path class="cls-55" d="M0 25.83L44.75 0 89.5 25.83 44.75 51.67z"/>
    <path class="cls-64" d="M44.75 0L23.1 12.5l44.74 25.84L89.5 25.83z"/>
    <path class="cls-64" d="M0 25.83l44.75 25.84L68.47 38 24.05 12z"/>
    <path class="cls-65" d="M55.9 50.47l-6.44 3.72a2.63 2.63 0 0 0-1.2 2.06v7.43c0 .76.54 1.07 1.2.69l6.44-3.71a2.67 2.67 0 0 0 1.19-2.07v-7.43c0-.76-.54-1.07-1.19-.69zm.6 8.46a1.34 1.34 0 0 1-.61 1l-6.43 3.71c-.34.2-.61 0-.61-.35v-7.38a1.35 1.35 0 0 1 .61-1l6.43-3.71c.34-.19.61 0 .61.35z"/>
    <path class="cls-65" d="M55.26 55.37a.71.71 0 0 0-.49.14 1.94 1.94 0 0 0-.57.66c0 .07-.09.1-.13.08a.66.66 0 0 0-.65 0 2 2 0 0 0-.64.66v2.73A1.72 1.72 0 0 1 52 61c-.43.25-.78 0-.78-.45a.24.24 0 0 1 .11-.2c.06 0 .11 0 .1.08 0 .37.26.51.57.33a1.24 1.24 0 0 0 .57-1v-2.68a.68.68 0 0 0-.62.09 2.1 2.1 0 0 0-.66.69c0 .06-.09.09-.12.07a.57.57 0 0 0-.55 0 1.49 1.49 0 0 0-.44.38c-.08.1-.16.06-.13-.05a7.62 7.62 0 0 1 1-2.08 5.48 5.48 0 0 1 1.55-1.59.21.21 0 0 1 .1-.18c.06 0 .1 0 .1.06a1.72 1.72 0 0 1 2.63.65c0 .07-.07.22-.15.21zm9.88-10.24l-6.44 3.72a2.65 2.65 0 0 0-1.19 2.06v7.44c0 .76.54 1.07 1.19.68l6.44-3.71a2.64 2.64 0 0 0 1.19-2.07v-7.43c0-.76-.53-1.07-1.19-.69zm.6 8.46a1.34 1.34 0 0 1-.6 1l-6.44 3.76c-.33.2-.6 0-.6-.34v-7.44a1.33 1.33 0 0 1 .6-1l6.44-3.72c.33-.19.6 0 .6.35z"/>
    <path class="cls-65" d="M60.31 55.54l3.22-1.86c.2-.12.36 0 .36.21a.81.81 0 0 1-.36.63l-3.22 1.85c-.2.12-.36 0-.36-.21a.78.78 0 0 1 .36-.62zm.4-5.79c0-.12.16-.18.22-.13a7.25 7.25 0 0 1 .71.81l-.45.27v3.41a.8.8 0 0 1-.36.63c-.2.12-.36 0-.36-.2v-3.42l-.46.26s.47-1.12.7-1.63zm3.11-.59l-.45.26v3.42a.84.84 0 0 1-.36.63c-.2.11-.37 0-.37-.21v-3.42l-.45.27s.47-1.12.7-1.64c0-.12.16-.18.22-.13a8.05 8.05 0 0 1 .71.82zM74.39 39.79L68 43.51a2.62 2.62 0 0 0-1.19 2.06V53c0 .76.53 1.07 1.19.69L74.39 50a2.64 2.64 0 0 0 1.19-2.07v-7.45c0-.76-.53-1.07-1.19-.69zm.6 8.46a1.34 1.34 0 0 1-.6 1L68 53c-.33.19-.6 0-.6-.35v-7.41a1.34 1.34 0 0 1 .6-1.05l6.44-3.72c.33-.19.6 0 .6.35z"/>
    <path class="cls-65" d="M72.1 49.46c.05 0 0 .09 0 .13l-2 1.15c-.07 0-.09 0 0-.08a4.06 4.06 0 0 1 .89-.82v-2.3c-.71.26-1.3-.77-1.47-2.48a.77.77 0 0 1 .34-.64L72.35 43c.2-.12.36 0 .34.24-.18 1.91-.76 3.61-1.48 4.19v2.3a1.71 1.71 0 0 1 .89-.22z"/>
    <path d="M63.52 86.9L49 95.29c-.74.43-1.34.08-1.34-.78V80.69A3 3 0 0 1 49 78.36L63.52 70c.74-.43 1.35-.08 1.35.78v13.79a3 3 0 0 1-1.35 2.33z" fill="#c1c1c1"/>
    <path class="cls-67" d="M63.55 70.13L49 78.54a2.68 2.68 0 0 0-1.18 2.1V94.4c0 .78.53 1.11 1.18.73l14.58-8.41a2.69 2.69 0 0 0 1.17-2.09V70.86c-.03-.78-.56-1.11-1.2-.73zm1 14.58a2.34 2.34 0 0 1-1 1.84L49 95c-.57.33-1 0-1-.64V80.55a2.33 2.33 0 0 1 1-1.83l14.55-8.42c.57-.33 1 0 1 .64z"/>
    <path class="cls-67" d="M63.67 83.12c-2.59 2.33-5.19 2.12-7.79 4.45h-.06a.22.22 0 0 1 .06-.13c2.6-2.33 5.2-2.12 7.79-4.46h.06a.22.22 0 0 1-.06.14zM63.67 83.86c-2.59 2.33-5.19 2.12-7.79 4.46h-.06a.17.17 0 0 1 .06-.12c2.6-2.34 5.2-2.13 7.79-4.46h.06a.22.22 0 0 1-.06.12zM63.67 84.6c-2.59 2.33-5.19 2.12-7.79 4.46h-.06a.2.2 0 0 1 .06-.12c2.6-2.34 5.2-2.13 7.79-4.46h.06a.23.23 0 0 1-.06.12zM58.85 76.82l-9.78 5.65a.12.12 0 0 1 0-.09l9.78-5.65a.12.12 0 0 1 0 .09zM58.83 74.55l-9.62 5.55c-.08 0-.13 0-.13-.07a.26.26 0 0 1 .13-.22l9.62-5.56c.07 0 .13 0 .13.08a.3.3 0 0 1-.13.22zM58.85 77.38L49.07 83a.1.1 0 0 1 0-.08l9.78-5.65a.12.12 0 0 1 0 .11zM58.85 77.93l-9.78 5.65a.09.09 0 0 1 0-.08l9.78-5.65a.09.09 0 0 1 0 .08zM58.85 78.49l-9.78 5.65a.09.09 0 0 1 0-.08l9.78-5.65a.09.09 0 0 1 0 .08zM58.85 79.05l-9.78 5.65a.12.12 0 0 1 0-.09l9.78-5.65a.11.11 0 0 1 0 .09zM58.85 79.61l-9.78 5.65a.11.11 0 0 1 0-.09l9.78-5.65a.12.12 0 0 1 0 .09zM58.85 82.28l-9.78 5.65a.09.09 0 0 1 0-.08l9.78-5.65a.09.09 0 0 1 0 .08zM58.85 81.65l-9.78 5.65a.09.09 0 0 1 0-.08l9.78-5.65a.09.09 0 0 1 0 .08zM64.58 77.61l-16.65 9.61v-.12l16.65-9.61v.12zM64.58 72.4l-16.65 9.61v-.12l16.65-9.61v.12z"/>
    <path class="cls-67" d="M59.78 83.72V72.48l.09-.06v11.25l-.09.05z"/>
    <path class="cls-67" d="M64.58 80.95l-16.65 9.61v-.11l16.65-9.61v.11z"/>
    <path class="cls-68" d="M38.44 152.81l-.9-2.32c0-.13 0-.25.07-.26l1.67-.15c.09 0 .21.1.26.23l1 2.51a1.85 1.85 0 0 1-2.1-.01z"/>
    <path class="cls-68" d="M40.56 153l-1.85 2.64a.3.3 0 0 1-.42 0l-1.12-.64v.56c0 .16-.19.1-.25-.07l-.74-2.12a.65.65 0 0 1 0-.55l.74-1.26c.06-.1.25 0 .25.21v.57l1.39.8a1.8 1.8 0 0 0 2-.14zM33.83 150.53l1.8 1a.44.44 0 0 1 .19.33v2.23a.12.12 0 0 1-.19.11l-2-1.12a3.89 3.89 0 0 1 .2-2.55z"/>
    <path class="cls-68" d="M33.58 153.05l-1.87-4.77a.7.7 0 0 1 0-.57l.56-.8-.43-.52c-.11-.15-.06-.33.07-.24l1.64 1a1.23 1.23 0 0 1 .42.52l.9 2.1c.07.17-.06.26-.18.11l-.42-.52-.69 1c-.51.77-.03 2.58 0 2.69zM35.88 146.73L35 148c0 .07-.17 0-.26-.07l-1.67-2.08a.33.33 0 0 1-.07-.34l1-1.38a6.8 6.8 0 0 1 1.88 2.6z"/>
    <path class="cls-68" d="M34 144.07l3.71 2.13a1.09 1.09 0 0 1 .42.53l.56 1.44h.42c.12 0 .25.22.18.31l-.89 1.08a.33.33 0 0 1-.42 0l-1.63-.84c-.14-.07-.19-.31-.08-.32h.43l-.7-1.8a7 7 0 0 0-2-2.53zM8.22 144.14l36.5-43.69v-16.3L0 139.37l8.22 4.77zM.02 130.53l44.7-53.83V60.58L0 116.76l.02 13.77zM36.88 4.57h15.68l4.19 2.42H32.69l4.19-2.42zM29.61 8.69h30.22l4.19 2.42h-38.6l4.19-2.42z"/>
  </g>
</svg>