<svg id="Layer_1" data-name="Layer 1" xmlns="http://www.w3.org/2000/svg" viewBox="0 0 111.24 72.2">
  	<defs>
  	</defs>
  	<g class="shadow" opacity="0.1">
		<path opacity=".01" fill="#161616" d="M90.92 72.13l19.74-11.4-63.82-37.26-19.73 11.4 63.81 37.26z"/>
		<path opacity=".02" fill="#161616" d="M90.34 72.06l19.74-11.4-63.62-37.14-19.74 11.39 63.62 37.15z"/>
		<path opacity=".04" fill="#161616" d="M89.76 71.98l19.74-11.4-63.43-37.01-19.73 11.39 63.42 37.02z"/>
		<path opacity=".05" fill="#161616" d="M89.18 71.91l19.74-11.4-63.23-36.89-19.74 11.39 63.23 36.9z"/>
		<path opacity=".06" fill="#161616" d="M88.6 71.84l19.74-11.4L45.3 23.66l-19.73 11.4L88.6 71.84z"/>
		<path opacity=".07" fill="#161616" d="M88.02 71.76l19.74-11.39-62.84-36.66-19.74 11.4 62.84 36.65z"/>
		<path opacity=".08" fill="#161616" d="M87.44 71.69l19.74-11.4-62.65-36.53-19.73 11.4 62.64 36.53z"/>
		<path opacity=".09" fill="#161616" d="M86.86 71.62l19.74-11.4-62.45-36.41-19.74 11.4 62.45 36.41z"/>
		<path opacity=".11" fill="#161616" d="M86.28 71.54l19.74-11.39-62.26-36.29-19.74 11.4 62.26 36.28z"/>
		<path opacity=".12" fill="#161616" d="M85.7 71.47l19.74-11.4-62.06-36.16L23.64 35.3 85.7 71.47z"/>
		<path opacity=".13" fill="#161616" d="M85.12 71.4L104.86 60 42.99 23.96 23.25 35.35 85.12 71.4z"/>
		<path opacity=".14" fill="#161616" d="M84.54 71.33l19.74-11.4L42.6 24.01 22.87 35.4l61.67 35.93z"/>
		<path opacity=".15" fill="#161616" d="M83.96 71.25l19.74-11.4-61.48-35.8-19.74 11.4 61.48 35.8z"/>
		<path opacity=".16" fill="#161616" d="M83.38 71.18l19.74-11.4L41.84 24.1 22.1 35.5l61.28 35.68z"/>
		<path opacity=".18" fill="#161616" d="M82.8 71.11l19.74-11.4-61.09-35.56-19.74 11.4L82.8 71.11z"/>
		<path opacity=".19" fill="#161616" d="M82.22 71.03l19.74-11.4-60.9-35.43-19.73 11.4 60.89 35.43z"/>
		<path opacity=".2" fill="#161616" d="M81.64 70.96l19.74-11.4-60.7-35.31-19.74 11.4 60.7 35.31z"/>
		<path opacity=".21" fill="#161616" d="M81.06 70.89l19.74-11.4L40.29 24.3 20.56 35.69l60.5 35.2z"/>
		<path opacity=".22" fill="#161616" d="M80.47 70.81l19.75-11.4-60.31-35.06-19.74 11.39 60.3 35.07z"/>
		<path opacity=".24" fill="#161616" d="M79.89 70.74l19.75-11.4L39.52 24.4 19.79 35.79l60.1 34.95z"/>
		<path opacity=".25" fill="#161616" d="M79.31 70.67l19.75-11.4-59.92-34.82L19.4 35.84l59.91 34.83z"/>
		<path opacity=".26" fill="#161616" d="M78.73 70.59L98.48 59.2 38.75 24.49l-19.73 11.4 59.71 34.7z"/>
		<path opacity=".27" fill="#161616" d="M78.15 70.52l19.75-11.4-59.53-34.58-19.74 11.4 59.52 34.58z"/>
		<path opacity=".28" fill="#161616" d="M77.57 70.45l19.75-11.4-59.34-34.46-19.73 11.4 59.32 34.46z"/>
		<path opacity=".29" fill="#161616" d="M76.99 70.38l19.75-11.4L37.6 24.64 17.86 36.03l59.13 34.35z"/>
		<path opacity=".31" fill="#161616" d="M76.41 70.3l19.75-11.4-58.95-34.21-19.73 11.39L76.41 70.3z"/>
		<path opacity=".32" fill="#161616" d="M75.83 70.23l19.75-11.4-58.75-34.09-19.74 11.39 58.74 34.1z"/>
		<path opacity=".33" fill="#161616" d="M75.25 70.16L95 58.76 36.44 24.79 16.7 36.18l58.55 33.98z"/>
		<path opacity=".34" fill="#161616" d="M74.67 70.08l19.75-11.4-58.37-33.84-19.73 11.39 58.35 33.85z"/>
		<path opacity=".35" fill="#161616" d="M74.09 70.01l19.75-11.4-58.17-33.73-19.74 11.4 58.16 33.73z"/>
		<path opacity=".36" fill="#161616" d="M73.51 69.94l19.75-11.4-57.98-33.61-19.73 11.4 57.96 33.61z"/>
		<path opacity=".38" fill="#161616" d="M72.93 69.86l19.75-11.39L34.9 24.98l-19.74 11.4 57.77 33.48z"/>
		<path opacity=".39" fill="#161616" d="M72.35 69.79l19.75-11.4-57.59-33.36-19.73 11.39 57.57 33.37z"/>
		<path opacity=".4" fill="#161616" d="M71.77 69.72l19.75-11.4-57.39-33.24-19.74 11.39 57.38 33.25z"/>
		<path opacity=".41" fill="#161616" d="M71.19 69.64l19.75-11.39-57.2-33.12-19.73 11.39 57.18 33.12z"/>
		<path opacity=".42" fill="#161616" d="M70.61 69.57l19.75-11.4-57-32.99-19.74 11.39 56.99 33z"/>
		<path opacity=".44" fill="#161616" d="M70.03 69.5l19.75-11.4-56.81-32.88-19.73 11.4L70.03 69.5z"/>
		<path opacity=".45" fill="#161616" d="M69.45 69.42l19.74-11.39-56.6-32.76-19.74 11.4 56.6 32.75z"/>
		<path opacity=".46" fill="#161616" d="M68.87 69.35l19.74-11.4L32.2 25.32l-19.73 11.4 56.4 32.63z"/>
		<path opacity=".47" fill="#161616" d="M68.29 69.28l19.74-11.4-56.21-32.51-19.74 11.4 56.21 32.51z"/>
		<path opacity=".48" fill="#161616" d="M67.71 69.21l19.74-11.4-56.02-32.39L11.7 36.81l56.01 32.4z"/>
		<path opacity=".49" fill="#161616" d="M67.13 69.13l19.74-11.4-55.82-32.26-19.74 11.39 55.82 32.27z"/>
		<path opacity=".51" fill="#161616" d="M66.55 69.06l19.74-11.4-55.63-32.14-19.73 11.39 55.62 32.15z"/>
		<path opacity=".52" fill="#161616" d="M65.97 68.99l19.74-11.4-55.43-32.02-19.74 11.39 55.43 32.03z"/>
		<path opacity=".53" fill="#161616" d="M65.39 68.91l19.74-11.39-55.24-31.91-19.74 11.4 55.24 31.9z"/>
		<path opacity=".54" fill="#161616" d="M64.81 68.84l19.74-11.4-55.04-31.78-19.74 11.4 55.04 31.78z"/>
		<path opacity=".55" fill="#161616" d="M64.23 68.77l19.74-11.4-54.85-31.66-19.74 11.4 54.85 31.66z"/>
		<path opacity=".56" fill="#161616" d="M63.65 68.69L83.39 57.3 28.73 25.76 9 37.16l54.65 31.53z"/>
		<path opacity=".58" fill="#161616" d="M63.07 68.62l19.74-11.4-54.46-31.41L8.61 37.2l54.46 31.42z"/>
		<path opacity=".59" fill="#161616" d="M62.49 68.55l19.74-11.4-54.27-31.29L8.23 37.25l54.26 31.3z"/>
		<path opacity=".6" fill="#161616" d="M61.91 68.47l19.74-11.39-54.07-31.17L7.84 37.3l54.07 31.17z"/>
	</g>
  	<g class="van">
		<path fill="#656565" d="M542.5 451.31a.65.65 0 0 1 .32.55v2.75a.53.53 0 0 1-.25.46l-2.4 1.46v-4.16a.6.6 0 0 1 .3-.53l1.18-.72a.51.51 0 0 1 .53 0z" transform="translate(-468.76 -412.72)"/>
		<path fill="#505050" d="M541.08 453v3l1.49-.91a.53.53 0 0 0 .25-.46v-2.75a.22.22 0 0 0-.1-.18.17.17 0 0 0-.19 0l-1.1.67a.73.73 0 0 0-.35.63z" transform="translate(-468.76 -412.72)"/>
		<path fill="#dfdfd7" d="M540 477.24l-3 .43a2.47 2.47 0 0 1-2.28-1 20 20 0 0 1-1.63-2.55l-.33-.62a.21.21 0 0 1 .22-.32l2.59.56c.47.11.95.22 1.42.35a3.62 3.62 0 0 1 1.93 1.28l1.18 1.51a.21.21 0 0 1-.1.36z" transform="translate(-468.76 -412.72)"/>
		<path d="M527.49 474c-1.31-.85-2.64-1.09-3.56-.52s-1.22 1.71-1 3.12z" transform="translate(-468.76 -412.72)"/>
		<path fill="#2d2d2d" d="M531.31 476.12c-1.53-2.32-3.85-3.54-5.17-2.73l-1.53.94c-1.32.81-1.15 3.35.38 5.67s3.85 3.54 5.17 2.73l1.53-.94c1.31-.79 1.16-3.35-.38-5.67z" transform="translate(-468.76 -412.72)"/>
		<path d="M480.26 448.7a2.66 2.66 0 0 0-1.09 2.43l4.05-2.25a3 3 0 0 0-2.96-.18z" transform="translate(-468.76 -412.72)"/>
		<path d="M551.19 469.91l-.2-.22v-.42a9.8 9.8 0 0 0-2.67-6.63l-5.38-5.76-1.44-2.32c-2.27-3.66-4.72-7.23-7.34-10.67a29.62 29.62 0 0 0-8.57-7.59L485.7 413a2.16 2.16 0 0 0-2.22 0l-10.76 6.55A3.67 3.67 0 0 0 471 422l-.53 2.82a101.58 101.58 0 0 0-1.73 18.73 2.64 2.64 0 0 0 1.31 2.24l9.1 5.3a2.66 2.66 0 0 1 1.09-2.43c1.51-.93 4.07.31 5.91 2.78a14.29 14.29 0 0 1 2 3.45l.74 1.87 34 19.83c-.18-1.41.15-2.58 1-3.12 1.51-.93 4.07.31 5.91 2.78a14.29 14.29 0 0 1 2 3.45l.57 1.45.46.27a6.69 6.69 0 0 0 5.14.73 32.35 32.35 0 0 0 8.25-3.55l.75-.46a11.33 11.33 0 0 0 2.9-2.49 7 7 0 0 0 1.63-4.58v-.39a1.18 1.18 0 0 0-.31-.77z" transform="translate(-468.76 -412.72)" fill="#ffe051"/>
		<path fill="#ffe89f" d="M525.32 438.1a.37.37 0 0 1-.17-.05l-39.89-23.26a.4.4 0 0 1-.16-.51.34.34 0 0 1 .49-.12l39.89 23.26a.4.4 0 0 1 .17.51.33.33 0 0 1-.33.17zM522.76 439.63a.37.37 0 0 1-.17-.05l-39.89-23.26a.4.4 0 0 1-.16-.51.35.35 0 0 1 .49-.13L522.92 439a.4.4 0 0 1 .17.51.35.35 0 0 1-.33.12zM520.2 441.16a.3.3 0 0 1-.16-.05l-39.89-23.27a.38.38 0 0 1-.17-.5.35.35 0 0 1 .49-.13l39.89 23.27a.39.39 0 0 1 .17.5.34.34 0 0 1-.33.18zM517.64 442.69a.43.43 0 0 1-.16-.05l-39.89-23.27a.39.39 0 0 1-.17-.51.34.34 0 0 1 .49-.12L517.8 442a.38.38 0 0 1 .17.5.32.32 0 0 1-.33.19zM515.08 444.22a.35.35 0 0 1-.16-.06L475 420.9a.4.4 0 0 1-.17-.51.35.35 0 0 1 .5-.12l39.88 23.26a.39.39 0 0 1 .17.51.32.32 0 0 1-.3.18z" transform="translate(-468.76 -412.72)"/>
		<path fill="#2d2d2d" d="M487.64 451.31c-1.53-2.32-3.85-3.54-5.17-2.73l-1.53.94c-1.32.81-1.15 3.35.38 5.67s3.85 3.54 5.17 2.73L488 457c1.34-.83 1.18-3.37-.36-5.69z" transform="translate(-468.76 -412.72)"/>
		<path d="M551.19 469.91l-.2-.22V469a9.62 9.62 0 0 0-1.22-4.35l-.06 1.9a.76.76 0 0 0 0 .15 6.53 6.53 0 0 0-.37-.75 40.52 40.52 0 0 0-3.42-5l-1.85-2.32 1.21 1.62a59.23 59.23 0 0 1 3.76 5.67 6 6 0 0 1 .67 1.69c0 .3 0 .59.06.88v.55q.08.93.06 1.86v.76a1.7 1.7 0 0 1-.31 1 11.24 11.24 0 0 1-3.42 3 14.27 14.27 0 0 1-3.37 1.61 2.09 2.09 0 0 1-2.27-.81l-.68-.94a14.27 14.27 0 0 0-3.26-3.23l-6.76-4.83 6.22 4.82a15.21 15.21 0 0 1 3 3.07l.49.68-.54-.69a3.69 3.69 0 0 0-1.93-1.24c-.48-.13-.95-.24-1.43-.35l-1.42-.3-5-4.73a11.51 11.51 0 0 1-2.39-3.16l-7-13.53a19.39 19.39 0 0 0-7.47-7.87l-40.6-23.68A3.74 3.74 0 0 0 471 422l-.53 2.82a100.9 100.9 0 0 0-1.68 15.56V443.55a2.64 2.64 0 0 0 1.31 2.24l9.1 5.3a2.66 2.66 0 0 1 1.09-2.43c1.51-.93 4.07.31 5.91 2.78a13.91 13.91 0 0 1 1.88 3.22c0 .08.07.16.1.23l.74 1.87 34 19.83c-.18-1.41.15-2.58 1-3.12 1.51-.93 4.07.31 5.91 2.78a13.91 13.91 0 0 1 1.88 3.22c0 .08.07.16.1.23l.57 1.45.46.27a6.71 6.71 0 0 0 5.15.73l.44-.13h.16l.34-.11.28-.08a32.74 32.74 0 0 0 7-3.19l.75-.46a11.67 11.67 0 0 0 2.94-2.53 7.11 7.11 0 0 0 1.59-4.54v-.39a1.18 1.18 0 0 0-.3-.81z" transform="translate(-468.76 -412.72)" fill="#ffd100"/>
		<path fill="#c4c5bb" d="M543 457.76a1.67 1.67 0 0 1 .14 1.57 6.12 6.12 0 0 1-2.46 2.77l-1.62 1a32.72 32.72 0 0 1-10.09 4 .75.75 0 0 1-.78-.38l-6.17-11.62a50.34 50.34 0 0 0 9.21-4.34l.37-.22a16.5 16.5 0 0 0 4.21-3.64c1.86 2.57 3.64 5.22 5.3 7.9z" transform="translate(-468.76 -412.72)"/>
		<path fill="#fad76f" d="M527.37 468.73l7.49 6.06-18-12.82a5.93 5.93 0 0 1-2.53-5.06l.23-4.84a.4.4 0 0 1 .23-.34.43.43 0 0 1 .42 0l4.72 3.3a4.4 4.4 0 0 1 1.44 1.65z" transform="translate(-468.76 -412.72)"/>
		<path fill="#575757" d="M527.37 468.73l-10.59-8.08a4.4 4.4 0 0 1-1.73-3.2l-.28-5.23a.35.35 0 0 1 .2-.36.4.4 0 0 1 .43 0l4.53 3.16a4.26 4.26 0 0 1 1.4 1.61z" transform="translate(-468.76 -412.72)"/>
		<path fill="#fff" d="M540 477.24l-3 .43a2.47 2.47 0 0 1-2.28-1 20 20 0 0 1-1.63-2.55l-.33-.62a.21.21 0 0 1 .22-.32l2.59.56c.47.11.95.22 1.42.35a3.62 3.62 0 0 1 1.93 1.28l1.18 1.51a.21.21 0 0 1-.1.36z" transform="translate(-468.76 -412.72)"/>
		<path fill="#dfdfdf" d="M537 477.67l3-.43a.21.21 0 0 0 .11-.35l-1.18-1.51h-2.09a3.92 3.92 0 0 1-2.21-.73l-1.84-1.31a.23.23 0 0 0 0 .21l.33.62a20 20 0 0 0 1.63 2.55 2.47 2.47 0 0 0 2.25.95zM550 471.16l.1-.18a12.57 12.57 0 0 0 .81-1.74l.1-.25a9.62 9.62 0 0 0-1.22-4.35l-.06 1.9a14 14 0 0 0 0 1.94v.55q.08.93.06 1.86v.23c.07.06.21.09.21.04z" transform="translate(-468.76 -412.72)"/>
		<path fill="#575757" d="M540.23 474.53l.72-.38a77.84 77.84 0 0 0 8.21-4.88.19.19 0 0 1 .28.17v1a3.85 3.85 0 0 1-1.52 3.15 26.41 26.41 0 0 1-4.8 2.8l-.65.3a1.48 1.48 0 0 1-1.8-.54l-.6-.88a.53.53 0 0 1 .16-.74z" transform="translate(-468.76 -412.72)"/>
		<path fill="#c4c5bb" d="M528.91 477.59c.91 1.37 1 2.9.12 3.42s-2.26-.18-3.17-1.55-1-2.9-.11-3.41 2.25.17 3.16 1.54zM485.24 452.78c.91 1.37 1 2.9.12 3.42s-2.26-.18-3.17-1.55-.95-2.9-.11-3.41 2.26.17 3.16 1.54z" transform="translate(-468.76 -412.72)"/>
		<path fill="#9f9f9b" d="M520.52 456.16a3.66 3.66 0 0 0-.81-.76l-4.52-3.16.28 5.22a3.92 3.92 0 0 0 1.55 2.86l3.5 2.68z" transform="translate(-468.76 -412.72)"/>
		<path fill="#9f9f9b" d="M52.29 44.29v6.39l2.45 1.87V49.2l-2.45-4.91z"/>
		<path fill="#656565" d="M524.5 464.23l-.56-.33v-.54a.67.67 0 0 0-.33-.56l-.34-.2a.46.46 0 0 0-.48 0l-1.37.84a.61.61 0 0 0-.3.54v2.75a.7.7 0 0 0 .34.59l.28.16a.43.43 0 0 0 .46 0l1.57-1 .16-.1.65-.39a.39.39 0 0 0 .18-.33v-1a.52.52 0 0 0-.26-.43z" transform="translate(-468.76 -412.72)"/>
		<path fill="#505050" d="M523.92 463.19a.14.14 0 0 0-.07-.08.1.1 0 0 0-.09 0l-1.34.81a.86.86 0 0 0-.4.74v2.77a.12.12 0 0 0 0 .08.1.1 0 0 0 .09 0h.06l1.57-1 .16-.1.65-.39a.39.39 0 0 0 .18-.33v-1-.06a.13.13 0 0 0-.08-.11.13.13 0 0 0-.12 0l-.62.38v-1.52a.88.88 0 0 0 .01-.19z" transform="translate(-468.76 -412.72)"/>
		<path fill="#505050" d="M551 469.69a1.92 1.92 0 0 1-.18.63 10.29 10.29 0 0 1-4.68 5.38c-2.89 1.78-4.21 1.87-8.37 2.72a5.14 5.14 0 0 1-3.15-.38l-2.51-1.13a15.15 15.15 0 0 0-1-1.52l-.25-.33-.23-.28a8.32 8.32 0 0 0-5.23-3.14 3.8 3.8 0 0 0-2.24.46L486.89 451c-1.95-2.82-4-3.83-5.44-4a3.54 3.54 0 0 0-1.18.1l-11.46-6.69c0 1.06-.05 2.12-.05 3.17a2.64 2.64 0 0 0 1.31 2.24l9.1 5.3a2.66 2.66 0 0 1 1.09-2.43c1.51-.93 4.07.31 5.91 2.78a14.29 14.29 0 0 1 2 3.45l.74 1.87 34 19.83c-.18-1.41.15-2.58 1-3.12 1.51-.93 4.07.31 5.91 2.78a14.29 14.29 0 0 1 2 3.45l.57 1.45.46.27a6.69 6.69 0 0 0 5.14.73 32.35 32.35 0 0 0 8.25-3.55l.75-.46a11.33 11.33 0 0 0 2.9-2.49 7 7 0 0 0 1.63-4.58v-.39a1.18 1.18 0 0 0-.33-.81z" transform="translate(-468.76 -412.72)"/>
		<path fill="#fac544" d="M487.63 453.79c.19.37.36.76.52 1.14l.74 1.87 34 19.83a4 4 0 0 1 .22-2.15zM470.07 445.83l9.1 5.3a3.15 3.15 0 0 1 .56-1.95l-11-6.39v.8a2.64 2.64 0 0 0 1.34 2.24z" transform="translate(-468.76 -412.72)"/>
		<path fill="#656565" d="M551.24 471.52a2.32 2.32 0 0 0 .27-.94 1.2 1.2 0 0 0-.32-.67l-.2-.22a1.92 1.92 0 0 1-.18.63 10.29 10.29 0 0 1-4.68 5.38c-2.89 1.78-4.21 1.87-8.37 2.72a5.14 5.14 0 0 1-3.15-.38l-2.51-1.13a15.15 15.15 0 0 0-1-1.52l-.25-.33-.23-.28a8.32 8.32 0 0 0-5.23-3.14 3.8 3.8 0 0 0-2.24.46L486.89 451c-1.95-2.82-4-3.83-5.44-4a3.54 3.54 0 0 0-1.18.1l-11.46-6.69v1l11.56 6.74a2.89 2.89 0 0 1 1.33-.18 7.59 7.59 0 0 1 4.83 3.26c.22.29.43.58.63.88l36.32 21.18.24-.16a2.58 2.58 0 0 1 1.65-.35 7.59 7.59 0 0 1 4.83 3.26c.23.3.45.61.66.92s.22.34.32.51l2.66 1.33a6.69 6.69 0 0 0 4.34.57 23.67 23.67 0 0 0 7.4-2.59 15.08 15.08 0 0 0 5.66-5.26z" transform="translate(-468.76 -412.72)"/>
		<path fill="#fad76f" d="M469 436.28c0 .4-.06.8-.08 1.21l53.12 31.79-9.27-6.35q-5.67-3.9-11.57-7.42zM516.63 463l-.33-.18a1.39 1.39 0 0 0-.2-.43c-.29-.45-.76-.68-1-.51a.5.5 0 0 0-.15.17l-.39-.21a.25.25 0 0 0-.35.1.29.29 0 0 0 .13.36l.62.34a1.51 1.51 0 0 0 .18.36c.3.46.76.68 1 .51a.33.33 0 0 0 .13-.13l.14.08h.11a.23.23 0 0 0 .24-.13.28.28 0 0 0-.13-.33z" transform="translate(-468.76 -412.72)"/>
		<path fill="#fff" d="M550.59 466.74a1.26 1.26 0 0 0-.05-.33 9.88 9.88 0 0 0-.77-1.77l-.06 1.9a14 14 0 0 0 0 1.94v.25l.67-1.36a1.49 1.49 0 0 0 .14-.63z" transform="translate(-468.76 -412.72)"/>
		<path fill="#575757" d="M542.9 457.54a4.05 4.05 0 0 1-.32 1.52 6.19 6.19 0 0 1-2.45 2.78l-1.63 1a32.85 32.85 0 0 1-10.09 4h-.09a.73.73 0 0 0 .69.25 32.72 32.72 0 0 0 10.09-4l1.62-1a6.12 6.12 0 0 0 2.46-2.77 1.67 1.67 0 0 0-.14-1.57z" transform="translate(-468.76 -412.72)"/>
		<path fill="#656565" d="M528.27 478c.52.79.55 1.67.06 2s-1.3-.1-1.82-.89-.55-1.68-.07-2 1.3.09 1.83.89zM484.6 453.18c.52.79.55 1.67.06 2s-1.3-.1-1.82-.89-.55-1.67-.07-2 1.3.1 1.83.89z" transform="translate(-468.76 -412.72)"/>
		<path fill="none" d="M4.82 20.82L38.09 39.9l2.34-4.61L7.16 16.21l-2.34 4.61z"/>
		<path fill="#d8052f" d="M5.28 19.91l4.5 2.58-.41.18-4.25-2.44.16-.32zM5.58 19.31l4.96 2.85-.41.18-4.71-2.71.16-.32zM4.98 20.5l4.04 2.32-.4.18-3.8-2.18.16-.32zM38.4 39.31l-4.49-2.57.41-.18 4.24 2.43-.16.32zM38.09 39.9l-4.93-2.83.4-.18 4.7 2.69-.17.32zM35.08 36.23l3.78 2.16-.16.32-4.03-2.3.41-.18z"/>
		<path fill="#d8052f" d="M477.94 436l3.54-1.55 2.65 1.52c.3.16.24.27 0 .37l-.9.4c-.12.05-.35.15.1.41l3.55 2a4.08 4.08 0 0 1-3.74-.19l-5.2-3z" transform="translate(-468.76 -412.72)"/>
		<path fill="#d8052f" d="M22.17 28.82l-1.92.85-3.05-1.75 1.92-.85 3.05 1.75zM26.59 31.36l-1.92.84-3.06-1.75 1.93-.84 3.05 1.75z"/>
		<path fill="#d8052f" d="M496.34 444.65l-.55.24c-.63.28-.59 1.05.66 1.77l4.91 2.81 1.92-.84-6.94-4zM481.72 432.39l-1.77.78 5.8 3.32c.29.17.23.27 0 .37l-.89.4c-.13.06-.35.16.1.41l2.37 1.36 1.16-.51c.73-.31.93-1.72-.63-2.61l-6.13-3.52z" transform="translate(-468.76 -412.72)"/>
		<path fill="#d8052f" d="M27.02 31.17l-7.47-4.29 3.4-1.48L26 27.15l-1.95.85 1.37.78 1.94-.85 3.05 1.75-3.39 1.49zM34.64 32.11l-3.39 1.48-3.23-1.85 3.39-1.49 3.23 1.86zM68.76 58.65l1.3-.8-.01.14-1.22.76-.07-.1zM68.64 58.46l1.42-.88v.14l-1.35.84-.07-.1zM68.89 58.84l1.16-.72v.14l-1.09.68-.07-.1zM78.38 52.8l-1.29.8.01-.15 1.21-.76.07.11zM78.51 52.98l-1.42.89v-.15l1.35-.84.07.1zM77.1 53.18l1.09-.68.06.11-1.15.72v-.15z"/>
		<path fill="#d8052f" d="M539 470.88v-1.26l.76-.48c.08-.05.11 0 .1.07v.32s0 .12.13 0l1-.63a1.16 1.16 0 0 1-.53 1l-1.49.93z" transform="translate(-468.76 -412.72)"/>
		<path fill="#d8052f" d="M73.4 55.49l-.01.69-.88.55.01-.69.88-.55zM74.67 54.7l-.02.69-.87.55.01-.69.88-.55z"/>
		<path fill="#d8052f" d="M543.71 467.24v.2c0 .23.21.35.57.13l1.41-.88V466l-2 1.24zM538.44 469.18v.63l1.66-1c.08 0 .1 0 .1.07v.32s0 .13.13 0l.68-.43v-.41c0-.26-.36-.57-.8-.29l-1.76 1.1z" transform="translate(-468.76 -412.72)"/>
		<path class="cls-68" d="M74.67 54.55l-2.15 1.33.02-1.21.88-.54-.01.69.39-.24.01-.7.88-.55-.02 1.22zM75.9 52.58l-.02 1.21-.93.58.02-1.21.93-.58z"/>
	</g>
</svg>