<svg xmlns="http://www.w3.org/2000/svg" xmlns:xlink="http://www.w3.org/1999/xlink" width="375.735" height="514.173" viewBox="0 0 375.735 514.173">
  <g opacity="0.6">
	  <path fill="#161616" d="M181.46 391.163l61.347-35.423c3.673-2.121 8.4-2.005 12.073.116l111.549 64.4c9.282 5.359 9.757 19.03.475 24.39l-46.398 26.792-65.625 37.897c-3.673 2.121-8.401 2.238-12.074.116l-133.109-76.864 71.762-41.424z" opacity=".012"/>
	  <path fill="#161616" d="M179.311 391.163l61.465-35.492c3.6-2.079 8.437-1.846 12.037.232l111.41 64.32c9.097 5.252 10.046 18.929.95 24.182l-46.816 27.033-65.542 37.85c-3.6 2.079-8.438 2.312-12.038.233L107.55 432.588l71.761-41.425z" opacity=".023"/>
	  <path fill="#161616" d="M177.162 391.163l61.584-35.56c3.526-2.036 8.474-1.688 12 .348l111.271 64.239c8.911 5.145 10.335 18.828 1.424 23.973l-47.234 27.274-65.459 37.802c-3.527 2.036-8.476 2.386-12.002.349L105.4 432.587l71.762-41.424z" opacity=".035"/>
	  <path fill="#161616" d="M175.013 391.163l61.703-35.629c3.453-1.994 8.511-1.529 11.964.464l111.132 64.159c8.725 5.037 10.623 18.727 1.898 23.765l-47.652 27.515-65.377 37.754c-3.453 1.994-8.513 2.46-11.966.466l-133.465-77.07 71.763-41.424z" opacity=".046"/>
	  <path fill="#161616" d="M172.864 391.163l61.821-35.697c3.379-1.951 8.549-1.371 11.928.58l110.992 64.079c8.54 4.93 10.912 18.625 2.373 23.556l-48.069 27.756-65.294 37.706c-3.38 1.952-8.551 2.533-11.93.582l-133.584-77.139 71.763-41.423z" opacity=".058"/>
	  <path fill="#161616" d="M170.715 391.163l61.94-35.766c3.306-1.909 8.586-1.212 11.892.697L355.4 420.092c8.354 4.823 11.201 18.524 2.847 23.348l-48.487 27.998-65.211 37.658c-3.306 1.909-8.588 2.607-11.894.698L98.952 432.587l71.763-41.424z" opacity=".069"/>
	  <path fill="#161616" d="M168.566 391.163l62.059-35.834c3.232-1.866 8.623-1.053 11.856.813l110.714 63.918c8.168 4.716 11.489 18.423 3.321 23.139l-48.905 28.239-65.129 37.611c-3.233 1.867-8.626 2.681-11.858.815L96.803 432.587l71.763-41.424z" opacity=".081"/>
	  <path fill="#161616" d="M166.417 391.163l62.178-35.903c3.159-1.824 8.66-.895 11.819.929l110.575 63.838c7.983 4.609 11.778 18.321 3.796 22.931l-49.322 28.48L240.417 509c-3.159 1.824-8.663 2.755-11.822.931l-133.94-77.344 71.762-41.424z" opacity=".092"/>
	  <path fill="#161616" d="M164.268 391.163l62.296-35.972c3.085-1.782 8.698-.736 11.783 1.045l110.436 63.757c7.797 4.501 12.067 18.22 4.27 22.722l-49.74 28.721-64.963 37.515c-3.086 1.782-8.701 2.829-11.786 1.047L92.505 432.587l71.763-41.424z" opacity=".104"/>
	  <path fill="#161616" d="M162.119 391.163l62.415-36.04c3.012-1.739 8.735-.578 11.747 1.161l110.296 63.677c7.612 4.394 12.355 18.119 4.744 22.514l-50.158 28.962-64.88 37.467c-3.012 1.739-8.738 2.903-11.751 1.164L90.356 432.587l71.763-41.424z" opacity=".116"/>
	  <path fill="#161616" d="M159.97 391.163l62.534-36.109c2.938-1.697 8.772-.419 11.711 1.278l110.157 63.597c7.426 4.287 12.644 18.018 5.219 22.305l-50.575 29.203-64.798 37.419c-2.939 1.697-8.776 2.977-11.715 1.28l-134.296-77.55 71.763-41.423z" opacity=".127"/>
	  <path fill="#161616" d="M157.822 391.163l62.652-36.177c2.865-1.654 8.81-.26 11.675 1.394l110.018 63.516c7.24 4.18 12.933 17.916 5.693 22.097l-50.993 29.445-64.715 37.372c-2.865 1.655-8.813 3.051-11.679 1.396L86.059 432.587l71.763-41.424z" opacity=".139"/>
	  <path fill="#161616" d="M155.673 391.163l62.771-36.246c2.791-1.612 8.847-.102 11.638 1.51l109.879 63.436c7.055 4.073 13.221 17.815 6.167 21.888l-51.411 29.686-64.632 37.324c-2.792 1.612-8.851 3.125-11.643 1.513L83.91 432.587l71.763-41.424z" opacity=".15"/>
	  <path fill="#161616" d="M153.524 391.163l62.89-36.314c2.718-1.57 8.884.057 11.602 1.626l109.74 63.356c6.869 3.966 13.51 17.714 6.642 21.68l-51.828 29.927-64.549 37.276c-2.718 1.57-8.888 3.199-11.607 1.629L81.761 432.587l71.763-41.424z" opacity=".162"/>
	  <path fill="#161616" d="M151.375 391.163l63.009-36.383c2.645-1.527 8.921.215 11.566 1.742l109.601 63.275c6.683 3.858 13.799 17.613 7.116 21.472l-52.246 30.168-64.467 37.228c-2.645 1.527-8.926 3.273-11.571 1.745L79.612 432.587l71.763-41.424z" opacity=".173"/>
	  <path fill="#161616" d="M149.226 391.163l63.127-36.451c2.571-1.485 8.959.374 11.53 1.858l109.461 63.195c6.498 3.751 14.088 17.511 7.59 21.263l-52.664 30.409-64.384 37.181c-2.571 1.485-8.963 3.346-11.535 1.862l-134.89-77.893 71.765-41.424z" opacity=".185"/>
	  <path fill="#161616" d="M147.077 391.163l63.246-36.52c2.498-1.442 8.996.533 11.494 1.975l109.322 63.115c6.312 3.644 14.376 17.41 8.065 21.055l-53.081 30.651-64.301 37.133c-2.498 1.442-9.001 3.42-11.499 1.978L75.314 432.587l71.763-41.424z" opacity=".197"/>
	  <path fill="#161616" d="M144.928 391.163l63.365-36.589c2.424-1.4 9.033.691 11.457 2.091l109.183 63.034c6.126 3.537 14.665 17.309 8.539 20.846l-53.499 30.892-64.218 37.085c-2.424 1.4-9.038 3.494-11.463 2.094l-135.127-78.03 71.763-41.423z" opacity=".208"/>
	  <path fill="#161616" d="M142.779 391.163l63.483-36.657c2.351-1.357 9.07.85 11.421 2.207l109.044 62.954c5.941 3.43 14.954 17.207 9.013 20.638l-53.917 31.133-64.136 37.037c-2.351 1.358-9.076 3.568-11.427 2.211L71.016 432.587l71.763-41.424z" opacity=".22"/>
	  <path fill="#161616" d="M140.63 391.163l63.602-36.726c2.277-1.315 9.108 1.008 11.385 2.323l108.905 62.873c5.755 3.323 15.242 17.106 9.488 20.429l-54.334 31.374-64.053 36.989c-2.278 1.315-9.113 3.642-11.391 2.327L68.867 432.587l71.763-41.424z" opacity=".231"/>
	  <path fill="#161616" d="M138.481 391.163l63.721-36.794c2.204-1.273 9.145 1.167 11.349 2.439l108.766 62.793c5.569 3.215 15.531 17.005 9.962 20.221l-54.752 31.615-63.97 36.942c-2.204 1.273-9.151 3.716-11.355 2.443L66.718 432.587l71.763-41.424z" opacity=".243"/>
	  <path fill="#161616" d="M136.332 391.163l63.84-36.863c2.13-1.23 9.182 1.326 11.313 2.556l108.626 62.713c5.384 3.108 15.82 16.904 10.436 20.012l-55.17 31.856-63.887 36.894c-2.131 1.23-9.188 3.79-11.319 2.56L64.569 432.587l71.763-41.424z" opacity=".255"/>
	  <path fill="#161616" d="M134.183 391.163l63.958-36.931c2.057-1.188 9.219 1.484 11.276 2.672l108.487 62.632c5.198 3.001 16.108 16.802 10.911 19.804l-55.587 32.098-63.805 36.846c-2.057 1.188-9.225 3.864-11.283 2.676L62.42 432.587l71.763-41.424z" opacity=".266"/>
	  <path fill="#161616" d="M132.034 391.163l64.077-37c1.983-1.145 9.257 1.643 11.24 2.788L315.7 419.503c5.012 2.894 16.397 16.701 11.385 19.595l-56.005 32.339-63.722 36.798c-1.984 1.145-9.263 3.938-11.247 2.792l-135.84-78.44 71.763-41.424z" opacity=".278"/>
	  <path fill="#161616" d="M129.885 391.163l64.196-37.068c1.91-1.103 9.294 1.801 11.204 2.904l108.209 62.472c4.827 2.787 16.686 16.6 11.859 19.387l-56.423 32.58-63.639 36.751c-1.91 1.103-9.3 4.012-11.211 2.909l-135.958-78.51 71.763-41.425z" opacity=".289"/>
	  <path fill="#161616" d="M127.736 391.163l64.314-37.137c1.836-1.06 9.331 1.96 11.168 3.02l108.07 62.391c4.641 2.679 16.975 16.499 12.334 19.178l-56.84 32.821-63.556 36.703c-1.837 1.061-9.338 4.086-11.175 3.025L55.974 432.587l71.762-41.424z" opacity=".301"/>
	  <path fill="#161616" d="M125.588 391.163l64.433-37.205c1.763-1.018 9.368 2.119 11.132 3.137l107.931 62.311c4.456 2.572 17.263 16.397 12.808 18.97l-57.258 33.062-63.474 36.655c-1.763 1.018-9.375 4.16-11.139 3.141L53.825 432.587l71.763-41.424z" opacity=".312"/>
	  <path fill="#161616" d="M123.439 391.163l64.552-37.274c1.69-.976 9.406 2.277 11.095 3.253l107.791 62.231c4.27 2.465 17.552 16.296 13.282 18.761l-57.676 33.303-63.391 36.607c-1.69.976-9.413 4.233-11.103 3.258L51.676 432.587l71.763-41.424z" opacity=".324"/>
	  <path fill="#161616" d="M121.29 391.163l64.671-37.343c1.616-.933 9.443 2.436 11.059 3.369l107.652 62.15c4.084 2.358 17.841 16.195 13.757 18.553l-58.093 33.545-63.308 36.559c-1.616.933-9.45 4.307-11.067 3.374L49.527 432.587l71.763-41.424z" opacity=".336"/>
	  <path fill="#161616" d="M119.141 391.163l64.789-37.411c1.543-.891 9.48 2.594 11.023 3.485l107.513 62.07c3.899 2.251 18.129 16.093 14.231 18.344l-58.511 33.786-63.226 36.512c-1.543.891-9.488 4.381-11.031 3.49L47.378 432.587l71.763-41.424z" opacity=".347"/>
	  <path fill="#161616" d="M116.992 391.163l64.908-37.48c1.469-.848 9.517 2.753 10.987 3.601l107.374 61.99c3.713 2.144 18.418 15.992 14.705 18.136l-58.929 34.027-63.143 36.464c-1.469.848-9.525 4.455-10.995 3.607l-136.67-78.921 71.763-41.424z" opacity=".359"/>
	  <path fill="#161616" d="M114.843 391.163l65.027-37.548c1.396-.806 9.555 2.912 10.951 3.717l107.235 61.909c3.527 2.036 18.707 15.891 15.18 17.928l-59.346 34.268-63.06 36.416c-1.396.806-9.563 4.529-10.959 3.723L43.08 432.587l71.763-41.424z" opacity=".37"/>
	  <path fill="#161616" d="M112.694 391.163l65.145-37.617c1.322-.764 9.592 3.07 10.914 3.834l107.096 61.829c3.342 1.929 18.995 15.79 15.654 17.719l-59.764 34.509-62.977 36.368c-1.322.764-9.6 4.603-10.923 3.839L40.931 432.587l71.763-41.424z" opacity=".382"/>
	  <path fill="#161616" d="M110.545 391.163l65.264-37.685c1.249-.721 9.629 3.229 10.878 3.95l106.956 61.749c3.156 1.822 19.284 15.688 16.128 17.511l-60.182 34.751-62.895 36.321c-1.249.721-9.638 4.677-10.887 3.956L38.782 432.587l71.763-41.424z" opacity=".393"/>
	  <path fill="#161616" d="M108.396 391.163l65.383-37.754c1.175-.679 9.667 3.387 10.842 4.066l106.817 61.668c2.97 1.715 19.573 15.587 16.603 17.302l-60.599 34.992-62.812 36.273c-1.176.679-9.675 4.751-10.851 4.072L36.633 432.587l71.763-41.424z" opacity=".405"/>
	  <path fill="#161616" d="M106.247 391.163l65.502-37.822c1.102-.636 9.704 3.546 10.806 4.182l106.678 61.588c2.785 1.608 19.862 15.486 17.077 17.094l-61.017 35.233-62.729 36.225c-1.102.636-9.713 4.825-10.815 4.188L34.484 432.587l71.763-41.424z" opacity=".416"/>
	  <path fill="#161616" d="M104.098 391.163l65.62-37.891c1.028-.594 9.741 3.705 10.77 4.298l106.539 61.508c2.599 1.5 20.15 15.384 17.551 16.885l-61.435 35.474-62.646 36.177c-1.029.594-9.75 4.899-10.779 4.305L32.335 432.587l71.763-41.424z" opacity=".428"/>
	  <path fill="#161616" d="M101.949 391.163l65.739-37.959c.955-.551 9.778 3.863 10.733 4.415l106.4 61.427c2.413 1.393 20.439 15.283 18.026 16.677l-61.852 35.715-62.564 36.129c-.955.552-9.788 4.973-10.743 4.421L30.186 432.587l71.763-41.424z" opacity=".44"/>
	  <path fill="#161616" d="M99.8 391.163l65.858-38.028c.882-.509 9.816 4.022 10.697 4.531l106.261 61.347c2.228 1.286 20.728 15.182 18.5 16.468l-62.27 35.956-62.481 36.082c-.882.509-9.825 5.047-10.707 4.537l-137.62-79.47L99.8 391.163z" opacity=".451"/>
	  <path fill="#161616" d="M97.651 391.163l65.976-38.097c.808-.467 9.853 4.18 10.661 4.647L280.41 418.98c2.042 1.179 21.016 15.081 18.974 16.26l-62.688 36.198-62.398 36.034c-.808.467-9.863 5.12-10.671 4.654L25.889 432.587l71.762-41.424z" opacity=".463"/>
	  <path fill="#161616" d="M95.503 391.163l66.095-38.165c.735-.424 9.89 4.339 10.625 4.763l105.982 61.186c1.856 1.072 21.305 14.979 19.449 16.051l-63.106 36.439-62.315 35.986c-.735.424-9.9 5.194-10.635 4.77L23.74 432.587l71.763-41.424z" opacity=".474"/>
	  <path fill="#161616" d="M93.354 391.163l66.214-38.234c.661-.382 9.927 4.498 10.589 4.879L276 418.914c1.671.965 21.594 14.878 19.923 15.843l-63.523 36.68-62.233 35.938c-.661.382-9.938 5.268-10.599 4.886L21.591 432.587l71.763-41.424z" opacity=".486"/>
	  <path fill="#161616" d="M91.205 391.163l66.333-38.302c.588-.339 9.965 4.656 10.552 4.995l105.704 61.026c1.485.857 21.882 14.777 20.397 15.634l-63.941 36.921-62.15 35.891c-.588.339-9.975 5.342-10.563 5.003L19.442 432.587l71.763-41.424z" opacity=".497"/>
	  <path fill="#161616" d="M89.056 391.163l66.451-38.371c.514-.297 10.002 4.815 10.516 5.112l105.565 60.945c1.3.75 22.171 14.676 20.872 15.426l-64.359 37.162-62.067 35.843c-.514.297-10.012 5.416-10.527 5.119L17.293 432.587l71.763-41.424z" opacity=".509"/>
	  <path fill="#161616" d="M86.907 391.163l66.57-38.439c.441-.255 10.039 4.973 10.48 5.228l105.426 60.865c1.114.643 22.46 14.574 21.346 15.217l-64.776 37.404-61.984 35.795c-.441.255-10.05 5.49-10.491 5.236L15.144 432.587l71.763-41.424z" opacity=".521"/>
	  <path fill="#161616" d="M84.758 391.163l66.689-38.508c.367-.212 10.076 5.132 10.444 5.344l105.286 60.784c.928.536 22.748 14.473 21.82 15.009l-65.194 37.645-61.902 35.747c-.367.212-10.087 5.564-10.455 5.352l-138.452-79.95 71.764-41.423z" opacity=".532"/>
	  <path fill="#161616" d="M82.609 391.163l66.807-38.576c.294-.17 10.114 5.291 10.408 5.46l105.147 60.704c.743.429 23.037 14.372 22.295 14.801l-65.612 37.886-61.819 35.699c-.294.17-10.125 5.638-10.419 5.468l-138.57-80.018 71.763-41.424z" opacity=".544"/>
	  <path fill="#161616" d="M80.46 391.163l66.926-38.645c.22-.127 10.151 5.449 10.371 5.576l105.008 60.624c.557.322 23.326 14.27 22.769 14.592l-66.029 38.127-61.736 35.652c-.22.127-10.162 5.712-10.383 5.585L8.697 432.587l71.763-41.424z" opacity=".555"/>
	  <path fill="#161616" d="M78.311 391.163l67.045-38.713c.147-.085 10.188 5.608 10.335 5.693l104.869 60.543c.371.214 23.615 14.169 23.243 14.384l-66.447 38.368-61.654 35.604c-.147.085-10.2 5.786-10.347 5.701L6.548 432.587l71.763-41.424z" opacity=".567"/>
	  <path fill="#161616" d="M76.162 391.163l67.164-38.782c.073-.042 10.225 5.766 10.299 5.809l104.73 60.463c.186.107 23.903 14.068 23.718 14.175l-66.865 38.609-61.571 35.556c-.073.042-10.237 5.86-10.311 5.817L4.399 432.587l71.763-41.424z" opacity=".578"/>
	  <path fill="#161616" d="M280.341 432.587l-67.283 38.85-71.763 41.442L2.25 432.587l71.763-41.424 67.282-38.851z" opacity=".59"/>
	</g>
  <g>
    <path fill="#3A7094" d="M2.996 432.456l137.044-79.123 137.043 79.123-137.043 79.123z"/>
    <path fill="#FFF" d="M140.04 354.489l135.044 77.968-135.044 77.967L4.996 432.456l135.044-77.967m0-2.31L.996 432.456l139.044 80.277 139.044-80.277-139.044-80.277z"/>
  </g>
  <path fill="none" stroke="#F9F9F9" stroke-width="4" stroke-miterlimit="10" d="M140.5 3.5v505"/>
  <g>
    <defs>
      <path id="a" d="M141.315 177.084l138.207-78.635.231 334.967-138.438 78.642V177.084zm.619.619L2.619 99.067 2 433.423l139.934 79.255V177.703zm-.619 0l138.438-78.945-140.915-78.945L2.619 99.067l138.696 78.636z"/>
    </defs>
    <clipPath id="b">
      <use xlink:href="#a" overflow="visible"/>
    </clipPath>
    <g clip-path="url(#b)">
    	<g id="yellowFill">
			<path fill="#E5BF02" d="M141.315 177.084l138.206-78.636.231 334.968-138.437 78.642z"/>
			<path fill="#F4CC01" d="M141.934 177.703L2.619 99.067 2 433.423l139.934 79.254z"/>
			<path fill="#FFD100" d="M141.315 177.703l138.437-78.945-140.914-78.945L2.619 99.067z"/>
		</g>
    </g>
  </g>
  <g>
    <path fill="#FFF" d="M138.47 162.332h3.863v350.817h-3.863z"/>
    <path fill="#FFF" d="M139.877 514.173l-.966-.556L0 433.416V80.758L139.877 0l139.876 80.758v352.657l-139.876 80.758zM3.863 431.186l136.014 78.528 136.013-78.528V82.988L139.877 4.461 3.863 82.988v348.198z"/>
    <path fill="#FFF" d="M274.629 79.445l1.967 3.326-137.133 81.13-1.967-3.326z"/>
    <path fill="#FFF" d="M2.319 79.437l139.065 81.123-1.947 3.337L.372 82.773z"/>
  </g>
</svg>