<?xml version="1.0" encoding="utf-8"?>
<!-- Generator: Adobe Illustrator 17.0.0, SVG Export Plug-In . SVG Version: 6.00 Build 0)  -->
<!DOCTYPE svg PUBLIC "-//W3C//DTD SVG 1.1//EN" "http://www.w3.org/Graphics/SVG/1.1/DTD/svg11.dtd">
<svg version="1.1" id="Layer_1" xmlns="http://www.w3.org/2000/svg" xmlns:xlink="http://www.w3.org/1999/xlink" x="0px" y="0px"
	 width="158px" height="111px" viewBox="-25.753 -5.353 158 111" enable-background="new -25.753 -5.353 158 111"
	 xml:space="preserve">
<g>
	<!-- <g opacity="0.6">
		<polygon fill="#181818" fill-opacity="0" points="103.504,104.768 132.247,88.174 39.058,33.757 10.324,50.342 		"/>
		<polygon opacity="0.0118" fill="#181818" enable-background="new    " points="102.663,104.664 131.401,88.07 38.498,33.825
			9.763,50.415 		"/>
		<polygon opacity="0.0235" fill="#181818" enable-background="new    " points="101.817,104.555 130.556,87.961 37.937,33.897
			9.203,50.487 		"/>
		<polygon opacity="0.0353" fill="#181818" enable-background="new    " points="100.972,104.451 129.715,87.857 37.376,33.97
			8.642,50.559 		"/>
		<polygon opacity="0.0471" fill="#181818" enable-background="new    " points="100.126,104.343 128.869,87.749 36.816,34.038
			8.081,50.627 		"/>
		<polygon opacity="0.0588" fill="#181818" enable-background="new    " points="99.28,104.239 128.024,87.645 36.255,34.11
			7.521,50.699 		"/>
		<polygon opacity="0.0706" fill="#181818" enable-background="new    " points="98.439,104.13 127.178,87.536 35.694,34.182
			6.96,50.772 		"/>
		<polygon opacity="0.0824" fill="#181818" enable-background="new    " points="97.594,104.026 126.333,87.432 35.134,34.25
			6.399,50.84 		"/>
		<polygon opacity="0.0941" fill="#181818" enable-background="new    " points="96.748,103.918 125.492,87.324 34.573,34.322
			5.839,50.912 		"/>
		<polygon opacity="0.1059" fill="#181818" enable-background="new    " points="95.903,103.814 124.646,87.22 34.012,34.395
			5.278,50.984 		"/>
		<polygon opacity="0.1176" fill="#181818" enable-background="new    " points="95.057,103.705 123.801,87.111 33.447,34.467
			4.717,51.052 		"/>
		<polygon opacity="0.1294" fill="#181818" enable-background="new    " points="94.216,103.601 122.955,87.007 32.886,34.535
			4.157,51.124 		"/>
		<polygon opacity="0.1412" fill="#181818" enable-background="new    " points="93.371,103.493 122.11,86.899 32.326,34.607
			3.596,51.197 		"/>
		<polygon opacity="0.1529" fill="#181818" enable-background="new    " points="92.525,103.389 121.269,86.795 31.765,34.68
			3.035,51.265 		"/>
		<polygon opacity="0.1647" fill="#181818" enable-background="new    " points="91.68,103.28 120.423,86.686 31.204,34.747
			2.475,51.337 		"/>
		<polygon opacity="0.1765" fill="#181818" enable-background="new    " points="90.834,103.172 119.578,86.578 30.644,34.82
			1.914,51.409 		"/>
		<polygon opacity="0.1882" fill="#181818" enable-background="new    " points="89.993,103.068 118.732,86.474 30.083,34.892
			1.353,51.477 		"/>
		<polygon opacity="0.2" fill="#181818" enable-background="new    " points="89.148,102.959 117.891,86.365 29.522,34.96
			0.793,51.549 		"/>
		<polygon opacity="0.2118" fill="#181818" enable-background="new    " points="88.302,102.855 117.046,86.261 28.962,35.032
			0.232,51.622 		"/>
		<polygon opacity="0.2235" fill="#181818" enable-background="new    " points="87.457,102.747 116.2,86.153 28.401,35.105
			-0.333,51.694 		"/>
		<polygon opacity="0.2353" fill="#181818" enable-background="new    " points="86.611,102.643 115.354,86.049 27.84,35.172
			-0.894,51.762 		"/>
		<polygon opacity="0.2471" fill="#181818" enable-background="new    " points="85.77,102.534 114.509,85.94 27.28,35.245
			-1.454,51.834 		"/>
		<polygon opacity="0.2588" fill="#181818" enable-background="new    " points="84.925,102.43 113.668,85.836 26.719,35.317
			-2.015,51.907 		"/>
		<polygon opacity="0.2706" fill="#181818" enable-background="new    " points="84.079,102.322 112.822,85.728 26.158,35.385
			-2.576,51.974 		"/>
		<polygon opacity="0.2824" fill="#181818" enable-background="new    " points="83.234,102.218 111.977,85.624 25.598,35.457
			-3.136,52.047 		"/>
		<polygon opacity="0.2941" fill="#181818" enable-background="new    " points="82.393,102.109 111.131,85.515 25.037,35.53
			-3.697,52.119 		"/>
		<polygon opacity="0.3059" fill="#181818" enable-background="new    " points="81.547,102.005 110.286,85.411 24.476,35.602
			-4.258,52.187 		"/>
		<polygon opacity="0.3176" fill="#181818" enable-background="new    " points="80.702,101.897 109.445,85.303 23.916,35.67
			-4.818,52.259 		"/>
		<polygon opacity="0.3294" fill="#181818" enable-background="new    " points="79.856,101.793 108.599,85.199 23.355,35.742
			-5.379,52.332 		"/>
		<polygon opacity="0.3412" fill="#181818" enable-background="new    " points="79.01,101.684 107.754,85.09 22.794,35.815
			-5.94,52.399 		"/>
		<polygon opacity="0.3529" fill="#181818" enable-background="new    " points="78.169,101.58 106.908,84.986 22.234,35.882
			-6.5,52.472 		"/>
		<polygon opacity="0.3647" fill="#181818" enable-background="new    " points="77.324,101.472 106.063,84.878 21.669,35.955
			-7.061,52.544 		"/>
		<polygon opacity="0.3765" fill="#181818" enable-background="new    " points="76.478,101.363 105.222,84.769 21.108,36.027
			-7.622,52.612 		"/>
		<polygon opacity="0.3882" fill="#181818" enable-background="new    " points="75.633,101.259 104.376,84.665 20.547,36.095
			-8.182,52.684 		"/>
		<polygon opacity="0.4" fill="#181818" enable-background="new    " points="74.787,101.15 103.531,84.557 19.987,36.167
			-8.743,52.757 		"/>
		<polygon opacity="0.4118" fill="#181818" enable-background="new    " points="73.946,101.046 102.685,84.453 19.426,36.24
			-9.304,52.829 		"/>
		<polygon opacity="0.4235" fill="#181818" enable-background="new    " points="73.101,100.938 101.84,84.344 18.865,36.307
			-9.864,52.897 		"/>
		<polygon opacity="0.4353" fill="#181818" enable-background="new    " points="72.255,100.834 100.999,84.24 18.305,36.38
			-10.425,52.969 		"/>
		<polygon opacity="0.4471" fill="#181818" enable-background="new    " points="71.41,100.725 100.153,84.131 17.744,36.452
			-10.986,53.042 		"/>
		<polygon opacity="0.4588" fill="#181818" enable-background="new    " points="70.564,100.621 99.308,84.027 17.183,36.52
			-11.546,53.109 		"/>
		<polygon opacity="0.4706" fill="#181818" enable-background="new    " points="69.723,100.513 98.462,83.919 16.623,36.592
			-12.112,53.182 		"/>
		<polygon opacity="0.4824" fill="#181818" enable-background="new    " points="68.878,100.409 97.621,83.815 16.062,36.665
			-12.672,53.254 		"/>
		<polygon opacity="0.4941" fill="#181818" enable-background="new    " points="68.032,100.3 96.776,83.706 15.501,36.737
			-13.233,53.322 		"/>
		<polygon opacity="0.5059" fill="#181818" enable-background="new    " points="67.187,100.196 95.93,83.602 14.941,36.805
			-13.794,53.394 		"/>
		<polygon opacity="0.5176" fill="#181818" enable-background="new    " points="66.341,100.088 95.084,83.494 14.38,36.877
			-14.354,53.467 		"/>
		<polygon opacity="0.5294" fill="#181818" enable-background="new    " points="65.5,99.984 94.239,83.39 13.819,36.949
			-14.915,53.534 		"/>
		<polygon opacity="0.5412" fill="#181818" enable-background="new    " points="64.655,99.875 93.398,83.281 13.259,37.017
			-15.476,53.607 		"/>
		<polygon opacity="0.5529" fill="#181818" enable-background="new    " points="63.809,99.771 92.552,83.177 12.698,37.09
			-16.036,53.679 		"/>
		<polygon opacity="0.5647" fill="#181818" enable-background="new    " points="62.964,99.663 91.707,83.069 12.137,37.162
			-16.597,53.747 		"/>
		<polygon opacity="0.5765" fill="#181818" enable-background="new    " points="62.123,99.554 90.861,82.96 11.577,37.23
			-17.158,53.819 		"/>
		<polygon opacity="0.5882" fill="#181818" enable-background="new    " points="61.277,99.45 90.016,82.856 11.016,37.302
			-17.718,53.892 		"/>
		<polygon opacity="0.6" fill="#181818" enable-background="new    " points="60.432,99.342 89.175,82.748 10.455,37.374
			-18.279,53.959 		"/>
	</g> -->
	<g>
		<path fill="#666666" d="M86.828,53.566c0.298,0.176,0.488,0.497,0.488,0.832v4.2c0,0.294-0.145,0.556-0.384,0.705l-3.658,2.229
			v-6.344c0-0.339,0.167-0.642,0.448-0.814l1.804-1.103c0.244-0.149,0.556-0.145,0.823,0.009L86.828,53.566z"/>
		<path fill="#505050" d="M84.662,56.112v4.571l2.274-1.388c0.24-0.145,0.384-0.411,0.384-0.705v-4.2
			c0-0.109-0.059-0.208-0.154-0.267s-0.208-0.059-0.294-0.009l-1.682,1.022C84.857,55.347,84.662,55.709,84.662,56.112z"/>
		<path fill="#E1E1D8" d="M83.017,93.147l-4.553,0.656c-1.298,0.185-2.654-0.402-3.491-1.515c-0.927-1.234-1.759-2.537-2.487-3.889
			l-0.511-0.95c-0.14-0.258,0.063-0.543,0.344-0.479l3.947,0.855c0.728,0.158,1.456,0.335,2.179,0.529
			c1.148,0.307,2.193,0.999,2.944,1.958l1.804,2.301C83.365,92.822,83.265,93.111,83.017,93.147z"/>
		<g>
			<path fill="#010101" d="M63.909,88.251c-2.003-1.293-4.024-1.673-5.439-0.8c-1.347,0.827-1.863,2.618-1.592,4.77L63.909,88.251z"
				/>
		</g>
		<path fill="#2D2E2D" d="M69.746,91.438c-2.342-3.54-5.878-5.403-7.899-4.164l-2.329,1.429c-2.021,1.243-1.768,5.118,0.574,8.663
			c2.342,3.54,5.878,5.403,7.899,4.164l2.329-1.429C72.346,98.858,72.088,94.979,69.746,91.438z"/>
		<path fill="#010101" d="M-8.201,49.574c-1.121,0.687-1.668,2.044-1.659,3.721l6.19-3.441C-5.361,48.995-7.002,48.837-8.201,49.574
			z"/>
		<path fill="#FEE152" d="M100.099,81.957l-0.303-0.326v-0.656c0-3.667-1.474-7.311-4.087-10.115l-8.211-8.799l-2.188-3.531
			c-3.473-5.598-7.216-11.037-11.218-16.296c-3.567-4.684-8.026-8.636-13.085-11.584L0.105-4.866
			C-0.98-5.499-2.277-5.517-3.272-4.911l-16.431,9.993c-1.361,0.827-2.292,2.188-2.591,3.789l-0.814,4.314
			c-1.759,9.355-2.645,18.927-2.645,28.599c0,1.375,0.778,2.695,2.008,3.414l13.886,8.098c-0.009-1.677,0.538-3.029,1.659-3.721
			c2.306-1.415,6.217,0.475,9.034,4.246c1.252,1.619,2.27,3.396,3.016,5.272l1.13,2.853l51.903,30.272
			c-0.276-2.152,0.24-3.943,1.592-4.77c2.306-1.415,6.217,0.475,9.034,4.246c1.252,1.619,2.27,3.396,3.016,5.272l0.877,2.211
			l0.696,0.407c2.446,1.424,5.281,1.831,7.849,1.126c4.463-1.234,8.699-3.057,12.597-5.43l1.139-0.692
			c1.677-1.022,3.174-2.301,4.436-3.803c1.61-1.917,2.487-4.377,2.487-6.99v-0.606C100.596,82.743,100.415,82.3,100.099,81.957z"/>
		<g>
			<g>
				<path fill="#FDE9A0" d="M60.59,33.4c-0.086-0.009-0.167-0.032-0.249-0.081l-60.9-35.517c-0.28-0.163-0.393-0.511-0.253-0.773
					c0.136-0.267,0.475-0.348,0.755-0.19l60.9,35.517c0.28,0.163,0.393,0.511,0.253,0.773C60.997,33.323,60.798,33.418,60.59,33.4z"
					/>
			</g>
			<g>
				<path fill="#FDE9A0" d="M56.683,35.733c-0.086-0.009-0.167-0.032-0.249-0.081l-60.9-35.517
					c-0.276-0.163-0.393-0.511-0.253-0.773c0.136-0.267,0.475-0.348,0.755-0.19l60.9,35.517c0.276,0.163,0.393,0.511,0.253,0.773
					C57.09,35.656,56.891,35.751,56.683,35.733z"/>
			</g>
			<g>
				<path fill="#FDE9A0" d="M52.777,38.066c-0.086-0.009-0.167-0.032-0.249-0.081l-60.9-35.517c-0.28-0.163-0.393-0.511-0.253-0.773
					c0.136-0.267,0.475-0.348,0.755-0.19l60.9,35.517c0.28,0.163,0.393,0.511,0.253,0.773
					C53.184,37.989,52.985,38.084,52.777,38.066z"/>
			</g>
			<g>
				<path fill="#FDE9A0" d="M48.875,40.399c-0.086-0.009-0.167-0.032-0.249-0.081l-60.9-35.517
					c-0.276-0.163-0.393-0.511-0.253-0.773c0.136-0.267,0.475-0.348,0.755-0.19l60.9,35.517c0.276,0.163,0.393,0.511,0.253,0.773
					C49.277,40.322,49.078,40.417,48.875,40.399z"/>
			</g>
			<g>
				<path fill="#FDE9A0" d="M44.968,42.737c-0.086-0.009-0.167-0.032-0.249-0.081l-60.9-35.517c-0.28-0.163-0.393-0.511-0.253-0.773
					c0.14-0.267,0.475-0.348,0.755-0.19l60.9,35.517c0.28,0.163,0.393,0.511,0.253,0.773C45.37,42.656,45.171,42.755,44.968,42.737z
					"/>
			</g>
		</g>
		<path fill="#2D2E2D" d="M3.076,53.562c-2.342-3.54-5.878-5.403-7.899-4.164l-2.329,1.429c-2.021,1.243-1.768,5.118,0.574,8.663
			c2.342,3.54,5.878,5.403,7.899,4.164l2.329-1.429C5.671,60.981,5.414,57.106,3.076,53.562z"/>
		<path fill="#E1E1D8" d="M62.389,88.784"/>
		<path fill="#FED207" d="M100.099,81.957l-0.303-0.326v-0.656c0-0.145-0.005-0.285-0.009-0.43
			c-0.072-2.301-0.719-4.576-1.858-6.629l-0.104,2.889c-0.005,0.077-0.005,0.154-0.005,0.231c-0.163-0.393-0.353-0.778-0.57-1.148
			c-1.528-2.632-3.319-5.24-5.222-7.628l-2.817-3.536l1.849,2.469c2.08,2.776,3.993,5.67,5.733,8.659
			c0.475,0.818,0.823,1.691,1.035,2.591c0.014,0.448,0.041,0.895,0.081,1.343l0.072,0.832c0.086,0.95,0.118,1.904,0.095,2.849
			l-0.009,0.344v0.809c0,0.565-0.163,1.108-0.479,1.546c-1.035,1.456-2.586,3.016-5.222,4.639c-1.994,1.23-3.504,1.931-5.141,2.451
			c-1.239,0.393-2.654-0.109-3.473-1.234l-1.04-1.433c-1.379-1.899-3.061-3.572-4.969-4.933l-10.323-7.37l9.504,7.361
			c1.727,1.334,3.255,2.916,4.54,4.684l0.751,1.035l-0.823-1.044c-0.751-0.954-1.786-1.65-2.934-1.958
			c-0.728-0.194-1.456-0.371-2.188-0.529l-2.166-0.47l-7.696-7.216c-1.483-1.393-2.717-3.025-3.64-4.82L52.148,54.674
			c-2.568-4.992-6.552-9.192-11.403-12.023L-21.254,6.492c-0.515,0.687-0.877,1.497-1.04,2.383l-0.814,4.314
			c-1.465,7.791-2.324,15.73-2.573,23.756l0,0c-0.023,0.787-0.041,1.573-0.054,2.365c0,0.054,0,0.104,0,0.158
			c-0.005,0.317-0.009,0.633-0.009,0.95c0,0.086,0,0.176-0.005,0.262c-0.005,0.366-0.005,0.732-0.005,1.099
			c0,1.375,0.778,2.699,2.008,3.418l13.886,8.098c-0.009-1.677,0.538-3.029,1.659-3.721c2.306-1.415,6.217,0.475,9.034,4.246
			c1.176,1.515,2.143,3.174,2.871,4.924c0.05,0.118,0.095,0.235,0.145,0.353l1.13,2.853L56.882,92.22
			c-0.276-2.152,0.24-3.943,1.592-4.77c2.306-1.415,6.217,0.475,9.034,4.246c1.176,1.515,2.143,3.174,2.871,4.924
			c0.05,0.118,0.095,0.235,0.145,0.353l0.877,2.211l0.696,0.407c2.446,1.429,5.286,1.831,7.854,1.121
			c0.231-0.063,0.457-0.131,0.687-0.194c0.077-0.023,0.158-0.045,0.235-0.068c0.176-0.05,0.348-0.104,0.524-0.158
			c0.14-0.045,0.28-0.086,0.425-0.131l0,0c3.775-1.203,7.375-2.835,10.721-4.87l1.139-0.692c1.705-1.035,3.219-2.342,4.49-3.87
			c1.583-1.904,2.428-4.341,2.428-6.922V83.2C100.596,82.743,100.415,82.3,100.099,81.957z"/>
		<path fill="#C6C6BC" d="M87.651,63.414c0.466,0.742,0.547,1.641,0.213,2.387c-0.796,1.777-2.098,3.246-3.753,4.241l-2.482,1.497
			c-4.72,2.844-9.916,4.892-15.405,6.068c-0.457,0.099-0.95-0.145-1.185-0.583l-9.427-17.742c4.924-1.736,9.631-3.952,14.057-6.62
			l0.57-0.344c2.451-1.479,4.621-3.35,6.439-5.557c2.84,3.934,5.552,7.976,8.089,12.072L87.651,63.414z"/>
		<path fill="#FBD870" d="M63.723,80.157l11.439,9.247L47.708,69.839c-2.532-1.804-4.011-4.766-3.866-7.732l0.362-7.384
			c0.009-0.231,0.14-0.425,0.344-0.515c0.203-0.09,0.448-0.063,0.642,0.077l7.212,5.028c0.927,0.647,1.687,1.524,2.188,2.528
			L63.723,80.157z"/>
		<path fill="#585858" d="M63.723,80.157l-16.16-12.335c-1.56-1.189-2.537-3.002-2.641-4.892l-0.434-7.98
			c-0.014-0.235,0.104-0.452,0.307-0.552c0.203-0.104,0.457-0.081,0.656,0.059l6.922,4.824c0.904,0.633,1.646,1.488,2.139,2.469
			L63.723,80.157z"/>
		<path fill="#FFFFFF" d="M83.017,93.147l-4.553,0.656c-1.298,0.185-2.654-0.402-3.491-1.515c-0.927-1.234-1.759-2.537-2.487-3.889
			l-0.511-0.95c-0.14-0.258,0.063-0.543,0.344-0.479l3.947,0.855c0.728,0.158,1.456,0.335,2.179,0.529
			c1.148,0.307,2.193,0.999,2.944,1.958l1.804,2.301C83.365,92.822,83.265,93.111,83.017,93.147z"/>
		<path fill="#E1E1E1" d="M78.468,93.803l4.553-0.656c0.249-0.036,0.348-0.326,0.181-0.534l-1.804-2.301
			c-0.018-0.023-0.036-0.041-0.05-0.063l-3.179-0.005c-1.185-0.005-2.369-0.393-3.378-1.112l-2.812-2.003
			c-0.05,0.09-0.054,0.208,0.009,0.321L72.5,88.4c0.728,1.352,1.56,2.654,2.487,3.889C75.809,93.401,77.166,93.988,78.468,93.803z"
			/>
		<path fill="#E1E1E1" d="M98.245,83.869l0.149-0.267c0.479-0.85,0.891-1.741,1.239-2.659l0.149-0.393
			c-0.072-2.301-0.719-4.576-1.858-6.629l-0.104,2.889c-0.036,0.986-0.009,1.98,0.081,2.975l0.072,0.832
			c0.086,0.954,0.118,1.904,0.095,2.849L98.06,83.81C98.069,83.905,98.2,83.951,98.245,83.869z"/>
		<path fill="#585858" d="M83.369,89.015l1.099-0.574c4.408-2.306,8.437-4.657,12.525-7.451c0.181-0.122,0.439,0.027,0.439,0.253
			l0.014,1.601c0.014,1.935-0.841,3.699-2.329,4.802c-2.351,1.741-4.648,3.038-7.32,4.277l-0.999,0.461
			c-0.936,0.434-2.103,0.077-2.74-0.836l-0.927-1.334C82.836,89.783,82.949,89.232,83.369,89.015z"/>
		<path fill="#C6C6BC" d="M66.083,93.685c1.384,2.089,1.46,4.427,0.176,5.213c-1.284,0.787-3.445-0.267-4.829-2.36
			c-1.384-2.089-1.46-4.427-0.176-5.213C62.539,90.538,64.7,91.597,66.083,93.685z"/>
		<path fill="#C6C6BC" d="M-0.591,55.809c1.384,2.089,1.46,4.427,0.176,5.213s-3.445-0.267-4.829-2.36
			c-1.384-2.089-1.46-4.427-0.176-5.213C-4.136,52.666-1.974,53.72-0.591,55.809z"/>
		<g>
			<path fill="#A0A09B" d="M53.274,60.959c-0.353-0.439-0.769-0.832-1.234-1.158l-6.913-4.82l0.434,7.967
				c0.09,1.677,0.972,3.31,2.36,4.368l5.349,4.083v-10.44H53.274z"/>
			<polygon fill="#A0A09B" points="54.074,62.27 54.074,72.018 57.823,74.88 57.823,69.762 			"/>
		</g>
		<path fill="#666666" d="M59.351,73.284l-0.859-0.502V71.96c0-0.344-0.194-0.674-0.502-0.855l-0.515-0.303
			c-0.235-0.136-0.515-0.14-0.732-0.009l-2.107,1.28c-0.289,0.176-0.461,0.488-0.461,0.836v4.187c0,0.362,0.203,0.71,0.529,0.9
			l0.421,0.244c0.231,0.136,0.502,0.136,0.714,0.009l2.396-1.456l0.005-0.005l0.253-0.154l0.986-0.601
			c0.172-0.104,0.271-0.289,0.271-0.497v-1.587C59.749,73.687,59.595,73.425,59.351,73.284z"/>
		<path fill="#505050" d="M58.456,71.706C58.456,71.702,58.456,71.702,58.456,71.706c-0.005-0.014-0.009-0.027-0.014-0.041
			c-0.018-0.05-0.054-0.09-0.104-0.109c-0.05-0.018-0.099-0.018-0.145,0.009L56.15,72.81c-0.384,0.235-0.615,0.651-0.615,1.121
			v4.237c0,0.05,0.027,0.095,0.068,0.127s0.095,0.036,0.136,0.018c0.032-0.014,0.063-0.027,0.095-0.045l2.396-1.456l0.005-0.005
			l0.253-0.154l0.986-0.601c0.172-0.104,0.271-0.289,0.271-0.497v-1.587c0-0.032-0.005-0.068-0.009-0.099
			c-0.009-0.068-0.054-0.131-0.118-0.163c-0.063-0.032-0.136-0.032-0.19,0l-0.945,0.574v-1.492v-0.823
			C58.492,71.869,58.478,71.779,58.456,71.706z"/>
		<path fill="#505050" d="M99.791,81.631c-0.027,0.235-0.118,0.592-0.28,0.95c-1.058,2.32-2.17,5.159-7.144,8.22
			c-4.413,2.717-6.43,2.858-12.778,4.151c-1.583,0.321-3.269,0.118-4.815-0.579l-3.821-1.723c-0.484-0.8-1.013-1.569-1.587-2.315
			c-0.127-0.172-0.258-0.339-0.393-0.506l-0.339-0.443h-0.027c-2.378-2.794-5.299-4.562-7.98-4.797
			c-1.257-0.109-2.437,0.131-3.418,0.696L1.923,53.042c-2.975-4.3-6.036-5.837-8.302-6.036c-0.628-0.054-1.234-0.005-1.8,0.145
			l-17.498-10.205c-0.05,1.61-0.077,3.224-0.077,4.843c0,1.375,0.778,2.695,2.008,3.414l13.886,8.098
			c-0.009-1.677,0.538-3.029,1.659-3.721c2.306-1.415,6.217,0.475,9.034,4.246c1.252,1.619,2.27,3.396,3.016,5.272l1.13,2.853
			L56.882,92.22c-0.276-2.152,0.24-3.943,1.592-4.77c2.306-1.415,6.217,0.475,9.034,4.246c1.252,1.619,2.27,3.396,3.016,5.272
			l0.877,2.211l0.696,0.407c2.446,1.424,5.281,1.831,7.849,1.126c4.463-1.234,8.699-3.057,12.597-5.43l1.139-0.692
			c1.677-1.022,3.174-2.301,4.436-3.803c1.61-1.917,2.487-4.377,2.487-6.99v-0.606c0-0.448-0.181-0.891-0.497-1.234L99.791,81.631z"
			/>
		<g>
			<path fill="#FAC646" d="M3.063,57.351c0.289,0.57,0.552,1.153,0.787,1.745l1.13,2.853L56.882,92.22
				c-0.163-1.257-0.05-2.392,0.339-3.283L3.063,57.351z"/>
			<path fill="#FAC646" d="M-23.746,45.197l13.886,8.098c-0.005-1.203,0.276-2.238,0.85-2.984l-16.734-9.762
				c-0.005,0.411-0.005,0.823-0.005,1.234C-25.753,43.157-24.975,44.478-23.746,45.197z"/>
		</g>
		<path fill="#666666" d="M100.18,84.416c0.231-0.439,0.366-0.922,0.407-1.429c-0.045-0.375-0.212-0.742-0.484-1.031L99.8,81.631
			c-0.027,0.235-0.118,0.592-0.28,0.95c-1.058,2.32-2.17,5.159-7.144,8.22c-4.413,2.717-6.43,2.858-12.778,4.151
			c-1.583,0.321-3.269,0.118-4.815-0.579l-3.821-1.723c-0.484-0.8-1.013-1.569-1.587-2.315c-0.127-0.172-0.258-0.339-0.393-0.506
			l-0.339-0.443h-0.027c-2.378-2.794-5.299-4.562-7.98-4.797c-1.257-0.109-2.437,0.131-3.418,0.696L1.932,53.042
			c-2.975-4.3-6.036-5.837-8.302-6.036c-0.628-0.054-1.234-0.005-1.8,0.145l-17.498-10.205c-0.014,0.506-0.027,1.013-0.041,1.524
			l17.652,10.295c0.601-0.249,1.28-0.344,2.021-0.28c2.414,0.213,5.236,2.116,7.375,4.978c0.339,0.439,0.656,0.882,0.959,1.338
			l55.456,32.342c0.113-0.09,0.231-0.172,0.357-0.249c0.714-0.439,1.564-0.619,2.528-0.538c2.414,0.213,5.24,2.121,7.375,4.978
			c0.353,0.457,0.687,0.922,1.004,1.402c0.172,0.258,0.335,0.52,0.493,0.782l4.06,2.021c2.252,1.117,4.39,1.266,6.624,0.868
			c5.769-1.026,9.387-2.921,11.295-3.943C94.126,91.054,98.376,87.853,100.18,84.416z"/>
		<path fill="#FBD870" d="M-25.355,30.61c-0.045,0.619-0.086,1.234-0.122,1.854l81.093,48.539l-14.143-9.699
			c-5.778-3.961-11.67-7.741-17.67-11.322L-25.355,30.61z"/>
		<path fill="#FBD870" d="M47.333,71.376l-0.506-0.28c-0.059-0.213-0.158-0.434-0.298-0.651c-0.457-0.687-1.167-1.035-1.592-0.778
			c-0.099,0.063-0.176,0.154-0.226,0.267l-0.601-0.33c-0.203-0.109-0.439-0.045-0.534,0.149c-0.095,0.194-0.005,0.439,0.194,0.552
			l0.95,0.52c0.059,0.185,0.149,0.375,0.271,0.561c0.457,0.687,1.167,1.035,1.592,0.778c0.081-0.05,0.149-0.122,0.194-0.208
			l0.217,0.118c0.054,0.032,0.113,0.045,0.167,0.05c0.154,0.014,0.298-0.059,0.366-0.203C47.622,71.733,47.536,71.485,47.333,71.376
			z"/>
		<path fill="#FFFFFF" d="M99.176,77.119c0-0.172-0.027-0.339-0.081-0.506c-0.298-0.927-0.687-1.831-1.167-2.695l-0.104,2.889
			c-0.036,0.986-0.009,1.98,0.081,2.975l0.032,0.38l1.017-2.08c0.145-0.294,0.217-0.619,0.217-0.959v-0.005H99.176z"/>
		<path fill="#585858" d="M87.434,63.07c-0.045,0.895-0.212,1.818-0.479,2.329c-0.796,1.777-2.098,3.246-3.753,4.241l-2.482,1.497
			c-4.72,2.844-9.916,4.892-15.405,6.068l-0.131,0.027c0.258,0.303,0.66,0.457,1.04,0.375c5.489-1.176,10.689-3.224,15.405-6.068
			l2.482-1.497c1.655-0.995,2.953-2.469,3.753-4.241c0.335-0.746,0.253-1.646-0.212-2.387L87.434,63.07z"/>
		<path fill="#666666" d="M65.098,94.291c0.796,1.207,0.841,2.55,0.099,3.007c-0.742,0.457-1.989-0.154-2.785-1.361
			s-0.841-2.55-0.099-3.007C63.054,92.478,64.302,93.084,65.098,94.291z"/>
		<path fill="#666666" d="M-1.577,56.415c0.796,1.207,0.841,2.55,0.099,3.007c-0.742,0.457-1.989-0.154-2.785-1.361
			c-0.796-1.207-0.841-2.55-0.099-3.007C-3.62,54.601-2.372,55.207-1.577,56.415z"/>
		<polygon fill="none" points="-18.397,26.437 32.407,55.565 35.975,48.529 -14.825,19.401 		"/>
		<g>
			<g>
				<g>
					<polygon fill="#D3202C" points="-17.687,25.044 -10.819,28.983 -11.443,29.254 -17.935,25.533 					"/>
					<polygon fill="#D3202C" points="-17.23,24.135 -9.661,28.476 -10.285,28.747 -17.474,24.624 					"/>
					<polygon fill="#D3202C" points="-18.148,25.949 -11.976,29.489 -12.595,29.76 -18.397,26.437 					"/>
				</g>
				<g>
					<polygon fill="#D3202C" points="32.864,54.66 26.023,50.736 26.647,50.464 33.113,54.172 					"/>
					<polygon fill="#D3202C" points="32.407,55.565 24.865,51.242 25.485,50.971 32.651,55.081 					"/>
					<polygon fill="#D3202C" points="27.804,49.953 33.574,53.263 33.325,53.751 27.18,50.229 					"/>
				</g>
			</g>
			<g>
				<path fill="#D3202C" d="M-11.741,30.253l5.412-2.374c0,0,3.613,2.071,4.047,2.32c0.448,0.258,0.357,0.416-0.005,0.574
					c-0.366,0.163-0.995,0.439-1.37,0.601c-0.19,0.081-0.534,0.235,0.154,0.628c0.728,0.416,5.421,3.106,5.421,3.106
					c-0.751,0.335-3.079,1.203-5.706-0.303C-5.922,33.59-11.741,30.253-11.741,30.253L-11.741,30.253z"/>
				<polygon fill="#D3202C" points="8.095,38.654 5.161,39.943 0.499,37.27 3.433,35.982 				"/>
				<polygon fill="#D3202C" points="14.841,42.524 11.902,43.809 7.24,41.136 10.179,39.848 				"/>
				<path fill="#D3202C" d="M16.356,43.393c0,0-0.565,0.249-0.841,0.371c-0.972,0.42-0.9,1.601,1.013,2.699
					c2.207,1.266,7.488,4.291,7.488,4.291l2.934-1.289L16.356,43.393L16.356,43.393z"/>
			</g>
			<g>
				<path fill="#D3202C" d="M-5.971,24.683l-2.695,1.18c0,0,8.415,4.824,8.844,5.073c0.448,0.258,0.357,0.416-0.005,0.574
					c-0.366,0.158-0.995,0.448-1.365,0.61c-0.19,0.081-0.534,0.235,0.154,0.628c0.728,0.416,3.617,2.075,3.617,2.075
					s0.968-0.425,1.781-0.782c1.103-0.484,1.406-2.627-0.968-3.993C1.263,28.829-5.971,24.683-5.971,24.683L-5.971,24.683z"/>
				<polygon fill="#D3202C" points="15.506,42.231 4.098,35.692 9.275,33.423 13.937,36.095 10.971,37.397 13.051,38.591
					16.021,37.289 20.683,39.961 				"/>
				<polygon fill="#D3202C" points="27.14,43.664 21.962,45.934 17.02,43.099 22.202,40.833 				"/>
			</g>
		</g>
		<g>
			<g>
				<g>
					<polygon fill="#D3202C" points="79.228,84.19 81.199,82.96 81.199,83.186 79.332,84.349 					"/>
					<polygon fill="#D3202C" points="79.038,83.901 81.208,82.549 81.203,82.771 79.142,84.059 					"/>
					<polygon fill="#D3202C" points="79.422,84.48 81.194,83.376 81.19,83.598 79.526,84.633 					"/>
				</g>
				<g>
					<polygon fill="#D3202C" points="93.909,75.251 91.947,76.477 91.951,76.255 93.805,75.097 					"/>
					<polygon fill="#D3202C" points="94.103,75.541 91.942,76.888 91.942,76.666 93.999,75.382 					"/>
					<polygon fill="#D3202C" points="91.956,75.839 93.615,74.808 93.719,74.962 91.956,76.065 					"/>
				</g>
			</g>
			<g>
				<path fill="#D3202C" d="M81.434,83.444l0.032-1.935c0,0,1.035-0.647,1.162-0.723c0.127-0.081,0.163-0.027,0.158,0.104
					s-0.005,0.357-0.009,0.488c0,0.068-0.005,0.19,0.194,0.068c0.208-0.131,1.555-0.972,1.555-0.972
					c-0.005,0.267-0.059,1.076-0.809,1.546C83.107,82.4,81.434,83.444,81.434,83.444L81.434,83.444z"/>
				<polygon fill="#D3202C" points="86.304,79.37 86.286,80.419 84.947,81.251 84.965,80.202 				"/>
				<polygon fill="#D3202C" points="88.239,78.163 88.221,79.212 86.882,80.044 86.901,78.995 				"/>
				<path fill="#D3202C" d="M88.673,77.887c0,0-0.005,0.203-0.005,0.303c-0.005,0.348,0.33,0.534,0.877,0.194
					c0.633-0.393,2.148-1.338,2.148-1.338l0.018-1.049L88.673,77.887L88.673,77.887z"/>
			</g>
			<g>
				<path fill="#D3202C" d="M80.625,80.844l-0.014,0.963c0,0,2.415-1.506,2.537-1.583c0.127-0.081,0.163-0.027,0.158,0.104
					c-0.005,0.131,0,0.357-0.005,0.493c0,0.068-0.005,0.19,0.194,0.068c0.208-0.131,1.04-0.647,1.04-0.647s0.005-0.348,0.009-0.638
					c0.005-0.393-0.552-0.859-1.234-0.434C82.7,79.551,80.625,80.844,80.625,80.844L80.625,80.844z"/>
				<polygon fill="#D3202C" points="88.243,77.923 84.97,79.967 84.997,78.118 86.335,77.281 86.317,78.344 86.919,77.969
					86.932,76.911 88.271,76.074 				"/>
				<polygon fill="#D3202C" points="90.124,74.917 90.093,76.766 88.678,77.652 88.709,75.803 				"/>
			</g>
		</g>
	</g>
</g>
</svg>
