<svg xmlns="http://www.w3.org/2000/svg" width="16.386" height="20.02" viewBox="0 0 16.386 20.02">
  <path id="Path_10191" data-name="Path 10191" d="M321.6,49.024a7.008,7.008,0,0,0,2.951,1.493.105.105,0,0,0,.1-.174c-2.326-2.256-.347-5.415.069-6.04a5.835,5.835,0,0,0,1.389-3.576c0-.174.174-.312.312-.208a5.259,5.259,0,0,1,2.465,3.471,2.127,2.127,0,0,0,.521-1.493.231.231,0,0,1,.382-.174c1.25,1.146,3.4,5.034-.069,8.088-.069.069,0,.208.069.174a8.448,8.448,0,0,0,2.916-1.423c5.658-4.443,1.979-12.324-.417-14.927a.508.508,0,0,0-.868.347,3.869,3.869,0,0,1-1.041,2.673,10.508,10.508,0,0,0-5.034-6.63.506.506,0,0,0-.729.486c.069,3.228-2.013,5.554-3.819,8.227-1.6,2.4-2.638,6.8.8,9.685Z" transform="translate(-319.314 -30.572)" fill="#d40511"/>
</svg>
