<svg xmlns="http://www.w3.org/2000/svg" width="18" height="16.002" viewBox="0 0 18 16.002">
  <g id="noun-history-4461832" transform="translate(-75.315 -149.989)">
    <path id="Path_23853" data-name="Path 23853" d="M600.667,315a.667.667,0,0,0-.667.667v4.4a.667.667,0,0,0,.667.667H603.6a.667.667,0,1,0,0-1.333h-2.267v-3.734a.667.667,0,0,0-.667-.667Z" transform="translate(-515.356 -162.077)" fill="#8a8a8a"/>
    <path id="Path_23854" data-name="Path 23854" d="M76.447,159.8l.915-.915a8,8,0,1,0,7.949-8.891,7.921,7.921,0,0,0-3.339.728.667.667,0,0,0,.557,1.211,6.671,6.671,0,1,1-3.8,7.093l.774.774h0a.667.667,0,0,0,.943-.943l-2-2a.667.667,0,0,0-.943,0l-2,2a.667.667,0,0,0,.943.943Z" transform="translate(0 0)" fill="#8a8a8a"/>
  </g>
</svg>
